<svg width="112" height="21" viewBox="0 0 112 21" fill="none" xmlns="http://www.w3.org/2000/svg">
<g id="amtoll">
<path id="Vector" d="M13.0472 0.136719L19.7082 20.9315H14.352L13.5279 18.2638H6.18026L5.35622 20.9315H0L6.66095 0.136719H13.0472ZM7.82834 13.2703H11.9485L9.88843 6.8403L7.82834 13.2703Z" fill="#36A9E1"/>
<path id="Vector_2" d="M40.8583 0.136719V20.9315H35.7768V9.30285L31.1072 20.9315L26.5751 9.37125V20.9315H21.6309V0.136719H28.4978L31.2446 7.18232L34.06 0.136719H40.8583Z" fill="#36A9E1"/>
<path id="Vector_3" d="M57.3391 0.136719V5.19861H52.4636V20.9999H47.3821V5.19861H42.5752V0.136719H57.3391Z" fill="#36A9E1"/>
<path id="Vector_4" d="M76.2236 2.80456C78.5584 4.85668 79.7258 7.45602 79.7258 10.5342C79.7258 13.6124 78.5584 16.2117 76.2236 18.2638C74.2322 20.0423 71.8974 20.9316 69.2193 20.9316C66.3352 20.9316 63.8631 19.9055 61.803 17.8534C59.7429 15.8013 58.7129 13.3388 58.7129 10.4658C58.7129 7.59283 59.7429 5.13029 61.803 3.07818C63.8631 1.02606 66.3352 0 69.2193 0C71.8974 0.136808 74.2322 1.02606 76.2236 2.80456ZM72.8588 14.57C74.0262 13.4756 74.6442 12.1759 74.6442 10.6026C74.6442 9.02932 74.0262 7.66124 72.8588 6.63518C71.8288 5.74593 70.6614 5.2671 69.288 5.2671C67.7773 5.2671 66.5412 5.81433 65.5112 6.84039C64.4811 7.86645 63.9318 9.16612 63.9318 10.6026C63.9318 12.1075 64.4811 13.3388 65.5112 14.3648C66.5412 15.3909 67.846 15.9381 69.288 15.9381C70.5927 15.9381 71.8288 15.4593 72.8588 14.57Z" fill="#36A9E1"/>
<path id="Vector_5" d="M86.1802 0.136719V15.938H95.7939V20.9999H81.0986V0.136719H86.1802Z" fill="#36A9E1"/>
<path id="Vector_6" d="M102.386 0.136719V15.938H112V20.9999H97.3047V0.136719H102.386Z" fill="#36A9E1"/>
</g>
</svg>
