<svg width="164" height="31" viewBox="0 0 164 31" fill="none" xmlns="http://www.w3.org/2000/svg">
<g id="amtoll">
<path id="Vector" d="M19 0.350098L28.7 30.7501H20.9L19.7 26.8501H9L7.79999 30.7501H0L9.70001 0.350098H19ZM11.4 19.5501H17.4L14.4 10.1501L11.4 19.5501Z" fill="#A5A5A5"/>
<path id="Vector_2" d="M59.5 0.350098V30.7501H52.1V13.7501L45.3 30.7501L38.7 13.8501V30.7501H31.5V0.350098H41.5L45.5 10.6501L49.6 0.350098H59.5Z" fill="#A5A5A5"/>
<path id="Vector_3" d="M83.5 0.350098V7.7501H76.4V30.8501H69V7.7501H62V0.350098H83.5Z" fill="#A5A5A5"/>
<path id="Vector_4" d="M111 4.2499C114.4 7.2499 116.1 11.0499 116.1 15.5499C116.1 20.0499 114.4 23.8499 111 26.8499C108.1 29.4499 104.7 30.7499 100.8 30.7499C96.6 30.7499 93 29.2499 90 26.2499C87 23.2499 85.5 19.6499 85.5 15.4499C85.5 11.2499 87 7.6499 90 4.6499C93 1.6499 96.6 0.149902 100.8 0.149902C104.7 0.349902 108.1 1.6499 111 4.2499ZM106.1 21.4499C107.8 19.8499 108.7 17.9499 108.7 15.6499C108.7 13.3499 107.8 11.3499 106.1 9.8499C104.6 8.5499 102.9 7.8499 100.9 7.8499C98.7 7.8499 96.9 8.6499 95.4 10.1499C93.9 11.6499 93.1 13.5499 93.1 15.6499C93.1 17.8499 93.9 19.6499 95.4 21.1499C96.9 22.6499 98.8 23.4499 100.9 23.4499C102.8 23.4499 104.6 22.7499 106.1 21.4499Z" fill="#A5A5A5"/>
<path id="Vector_5" d="M125.5 0.350098V23.4501H139.5V30.8501H118.1V0.350098H125.5Z" fill="#A5A5A5"/>
<path id="Vector_6" d="M149.099 0.350098V23.4501H163.099V30.8501H141.699V0.350098H149.099Z" fill="#A5A5A5"/>
</g>
</svg>
