<svg width="246" height="73" viewBox="0 0 246 73" fill="none" xmlns="http://www.w3.org/2000/svg">
<g id="LOGO" clip-path="url(#clip0_1_1829)">
<g id="Group">
<path id="Vector" d="M48.8605 56.6423C49.3467 56.154 49.5898 55.6657 49.1036 54.9332C49.1036 54.6891 48.8605 54.4449 48.6175 54.4449L43.0265 51.271L27.2261 42.2376L30.6293 40.2844L47.6451 50.0503C47.8882 50.0503 48.1313 50.2944 48.3744 50.2944C48.8605 50.2944 49.1036 50.0503 49.3467 49.562C49.5898 49.0737 49.5898 48.0971 48.8605 47.853L33.0601 38.8195L36.4633 36.6222L47.6451 42.97C47.8882 42.97 48.1313 43.2142 48.3744 43.2142C48.8605 43.2142 49.1036 42.97 49.3467 42.4817C49.5898 41.9934 49.5898 41.0168 48.8605 40.7727L38.8941 35.1573L48.8605 29.5419C48.8605 29.5419 48.8605 29.5419 48.8605 29.2978V29.0536V28.8095L27.2261 16.358L30.6293 14.4048L47.6451 24.1707C47.8882 24.1707 48.1313 24.4148 48.3744 24.4148C48.8605 24.4148 49.1036 24.1707 49.3467 23.6824C49.5898 23.1941 49.5898 22.2175 48.8605 21.9734L33.0601 12.9399L36.4633 9.52187L47.6451 15.8697C47.8882 15.8697 48.1313 16.1138 48.3744 16.1138C48.8605 16.1138 49.1036 15.8697 49.3467 15.3814C49.5898 14.8931 49.5898 13.9165 48.8605 13.6724L37.1926 6.83625C37.1926 6.83625 36.9495 6.83625 36.9495 6.5921C36.9495 6.5921 36.7064 6.5921 36.7064 6.83625L14.0997 19.5319V15.6255L31.1155 5.85966C31.6016 5.61551 31.8447 4.88307 31.6016 4.15063C31.3586 3.66233 30.6293 3.41819 29.9001 3.66233L14.0997 12.6958V8.78942L25.2815 2.4416C25.7676 2.19745 26.0107 1.46501 25.7677 0.732568C25.5246 0.000126813 24.5522 -0.24402 24.0661 0.244274L12.3981 7.08039C12.155 7.32454 11.9119 7.32454 11.9119 7.32454C11.9119 7.32454 11.9119 7.56869 11.6688 7.56869V46.1439L8.26567 44.1908V10.9867C8.26567 10.2543 7.77951 9.76601 7.05026 9.76601C6.32101 9.76601 5.83484 10.2543 5.83484 10.9867V42.97L2.43168 41.261V14.8931C2.43168 14.1607 1.94551 13.6724 1.21627 13.6724C0.487017 13.6724 0.000850916 14.1607 0.000850916 14.8931V41.9934C0.000850916 41.9934 0.000850916 42.2376 0.243934 42.2376L0.487017 42.4817L22.1214 54.9332L18.7182 56.8864L1.70243 47.1205C1.21627 46.8764 0.243934 46.8764 0.000850916 47.6088C-0.242232 48.8296 0.000850931 49.562 0.7301 49.8061L16.5305 58.8396L12.8843 61.0369L1.70243 54.6891C1.21627 54.4449 0.243934 54.4449 0.000850916 55.1774C-0.242232 55.6657 -0.242232 56.6423 0.487017 56.8864L12.3981 63.4784C12.6412 63.4784 12.8843 63.7225 13.1273 63.7225C13.3704 63.7225 13.6135 63.7225 13.8566 63.4784L25.5246 56.6423L36.7064 50.2944L40.1095 52.2476L18.4752 64.6991C17.989 64.9433 17.7459 65.6757 17.989 66.4081C18.2321 66.8964 18.7182 67.1406 18.9613 67.1406C19.2044 67.1406 19.4475 67.1406 19.6906 66.8964L42.5404 53.7125L45.9435 55.6657L24.3092 68.1172C23.823 68.3613 23.5799 69.0938 23.823 69.8262C24.0661 70.3145 24.5522 70.5586 24.7953 70.5586C25.0384 70.5586 25.2815 70.5586 25.5246 70.3145L48.8605 56.6423ZM24.7953 54.2008L14.3427 48.0971V22.4617L24.7953 16.358L34.0325 21.7292L24.0661 27.3446C23.5799 27.5888 23.3368 28.3212 23.5799 29.0536C23.823 29.5419 24.3092 29.7861 24.5522 29.7861C24.7953 29.7861 25.0384 29.7861 25.2815 29.5419L36.4633 22.95L39.8665 24.9031L24.0661 34.1807C23.5799 34.4249 23.3368 35.1573 23.5799 35.8898C23.823 36.3781 24.3092 36.6222 24.5522 36.6222C24.7953 36.6222 25.0384 36.6222 25.2815 36.378L42.2973 26.6122L45.7005 28.5653L24.0661 41.0168V41.261V41.5051C24.0661 41.5051 24.0661 41.5051 24.0661 41.7493L34.0325 48.8296L24.7953 54.2008Z" fill="#FF656D"/>
<g id="holding">
<path id="Vector_2" d="M97.9636 66.1642H93.102V61.7695H91.4004V72.7562H93.102V68.1174H97.9636V72.7562H99.6652V61.7695H97.9636V66.1642Z" fill="white"/>
<path id="Vector_3" d="M113.034 61.7695C109.874 61.7695 107.443 64.211 107.443 67.3849C107.443 70.5588 109.874 73.0003 113.034 73.0003C116.194 73.0003 118.625 70.5588 118.625 67.3849C118.625 64.211 116.194 61.7695 113.034 61.7695ZM113.034 71.0471C110.847 71.0471 109.145 69.3381 109.145 67.1408C109.145 64.9434 110.847 63.2344 113.034 63.2344C115.222 63.2344 116.924 64.9434 116.924 67.1408C116.924 69.3381 115.222 71.0471 113.034 71.0471Z" fill="white"/>
<path id="Vector_4" d="M128.348 61.7695H126.646V72.7562H132.967V71.0471H128.348V61.7695Z" fill="white"/>
<path id="Vector_5" d="M144.636 61.7695H140.504V72.7562H144.636C147.553 72.7562 149.741 70.3147 149.741 67.3849C149.741 64.211 147.553 61.7695 144.636 61.7695ZM144.636 71.0471H142.205V63.7227H144.636C146.581 63.7227 148.039 65.1876 148.039 67.3849C148.039 69.5822 146.581 71.0471 144.636 71.0471Z" fill="white"/>
<path id="Vector_6" d="M159.463 61.7695H157.762V72.7562H159.463V61.7695Z" fill="white"/>
<path id="Vector_7" d="M174.291 69.0939L169.429 61.7695H167.971V72.7562H169.672V65.4317L174.777 72.7562H176.236V61.7695H174.291V69.0939Z" fill="white"/>
<path id="Vector_8" d="M188.876 68.8498H193.009C192.523 70.3147 191.307 71.0471 189.606 71.0471C187.418 71.0471 185.716 69.3381 185.716 67.1408C185.716 64.9434 187.418 63.4786 189.606 63.4786C190.821 63.4786 192.036 64.211 192.766 65.1876L193.009 65.6759L194.71 64.6993L194.467 64.211C193.495 62.502 191.793 61.5254 189.849 61.5254C186.689 61.5254 184.258 63.9669 184.258 67.1408C184.258 70.3147 186.689 72.7562 189.849 72.7562C193.009 72.7562 195.197 70.803 195.197 67.8732V66.8966H189.119V68.8498H188.876Z" fill="white"/>
<path id="Vector_9" d="M206.135 66.4083C204.677 65.92 204.191 65.6759 204.191 64.9434C204.191 64.211 204.92 63.4786 205.892 63.4786C206.865 63.4786 207.594 63.9669 207.837 64.9434L208.08 65.4317L209.538 64.4552L209.295 63.9669C208.566 62.502 207.351 61.5254 205.649 61.5254C203.704 61.5254 202.246 62.7461 202.246 64.6993C202.246 66.8966 203.948 67.3849 205.649 67.8732C207.351 68.3615 207.837 68.8498 207.837 69.5822C207.837 70.5588 207.108 71.0471 205.892 71.0471C204.677 71.0471 203.704 70.5588 203.461 69.3381L203.218 68.6057L201.76 69.8264L202.003 70.3147C202.489 72.0237 204.191 73.0003 206.135 73.0003C208.323 73.0003 209.782 71.7796 209.782 69.8264C209.782 67.6291 207.837 66.8966 206.135 66.4083Z" fill="white"/>
</g>
<g id="Byuda">
<path id="Vector_10" d="M62.959 51.2713V50.783C63.4452 50.5389 63.6882 49.8064 63.9313 49.074C64.1744 48.3415 64.1744 47.365 64.4175 46.6325C64.4175 45.9001 64.6606 44.9235 64.6606 44.191V42.2379V27.3449V25.88C64.6606 25.3917 64.6606 24.9034 64.4175 24.4151C64.4175 23.9268 64.1744 23.4385 63.9313 22.9502C63.6882 22.4619 63.4452 22.2178 62.959 21.7295V21.2412H83.621C87.0242 21.2412 89.6981 21.9737 91.3997 23.4385C93.1013 24.9034 94.0736 26.6124 94.0736 28.8098C94.0736 30.0305 93.8305 31.2512 93.1013 32.472C92.6151 33.6927 91.6428 34.6693 90.1843 35.4017V35.6459C91.6428 36.1342 92.8582 37.1108 93.5874 38.3315C94.3167 39.5522 94.8029 41.0171 94.8029 42.9703C94.8029 44.4352 94.5598 45.6559 94.0736 46.6325C93.5874 47.6091 92.8582 48.5857 91.8859 49.3181C90.9135 50.0506 89.9412 50.5389 88.7258 50.783C87.5104 51.0272 86.0519 51.2713 84.5934 51.2713H62.959ZM75.8424 32.472H76.3286C76.8147 32.7161 77.3009 32.9603 77.787 32.9603C78.2732 32.9603 78.7594 32.9603 79.4886 32.9603H84.1072C85.5657 32.9603 86.538 32.7161 87.2673 31.9837C87.9965 31.2512 88.2396 30.5188 88.2396 29.5422C88.2396 28.8098 87.9965 28.3215 87.7535 27.8332C87.5104 27.3449 87.0242 27.1007 86.538 26.8566C86.0519 26.6124 85.5657 26.3683 84.8365 26.3683C84.3503 26.3683 83.621 26.1242 82.8918 26.1242H70.2515V46.3884H84.1072C85.0795 46.3884 85.8088 46.3884 86.538 46.1442C87.0242 45.9001 87.7535 45.6559 88.2396 45.1676C88.7258 44.9235 88.9689 44.4352 89.212 43.7027C89.455 43.2145 89.455 42.7262 89.455 41.9937C89.455 40.773 88.9689 39.7964 87.9965 39.064C87.0242 38.3315 85.5657 37.8432 83.8641 37.8432H76.3286C74.8701 37.8432 73.6546 38.0874 72.6823 38.3315L72.4392 38.0874L75.8424 32.472Z" fill="white"/>
<path id="Vector_11" d="M105.985 21.2412V21.7295C105.985 21.9737 105.985 22.4619 105.985 22.9502C105.985 23.1944 106.228 23.6827 106.714 24.4151C106.958 24.9034 107.201 25.3917 107.687 25.88C107.687 26.1242 107.93 26.1242 107.93 26.3683C107.93 26.6124 108.173 26.6124 108.416 26.8566C108.659 27.1007 108.659 27.1007 108.659 27.3449L113.035 33.4486H113.278L117.896 27.3449C117.896 27.1007 118.139 27.1007 118.382 26.6124C118.626 26.3683 118.869 26.1242 118.869 25.88C119.355 25.3917 119.598 24.9034 119.841 24.4151C120.084 23.9268 120.327 23.4385 120.327 22.9502C120.327 22.4619 120.327 22.2178 120.327 21.7295V21.2412H129.078V21.7295C128.835 21.9737 128.349 22.4619 127.863 22.9502C127.62 23.1944 127.377 23.4385 127.133 23.6827C126.89 23.9268 126.647 24.171 126.404 24.4151C125.918 25.1476 125.432 25.6359 125.189 25.88C125.189 26.1242 124.946 26.3683 124.703 26.6124C124.46 26.8566 124.216 27.1007 124.216 27.3449L116.195 38.3315V42.2379C116.195 42.9703 116.195 43.4586 116.195 44.191C116.195 45.1676 116.195 45.9001 116.438 46.6325C116.438 47.6091 116.681 48.3415 116.924 49.074C117.167 49.8064 117.41 50.5389 117.653 50.783V51.2713H109.145V50.783C109.388 50.5389 109.631 49.8064 109.875 49.074C110.118 48.3415 110.118 47.365 110.361 46.6325C110.361 46.1442 110.361 45.1676 110.604 44.191V42.2379V38.3315L102.096 27.3449C101.61 26.6124 101.124 26.1242 101.124 25.88C101.124 25.88 100.88 25.6359 100.637 25.1476C99.665 24.9034 99.665 24.6593 99.422 24.4151C98.6927 23.6827 98.2066 23.1944 98.2066 22.9502C97.7204 22.4619 97.2342 21.9737 96.748 21.7295V21.2412H105.985Z" fill="white"/>
<path id="Vector_12" d="M140.989 38.0874C140.989 39.3081 141.232 40.5288 141.475 41.5054C141.718 42.482 142.204 43.4586 142.933 44.191C143.663 44.9235 144.635 45.6559 145.85 46.1442C147.066 46.6325 148.524 46.8767 150.469 46.8767C152.414 46.8767 153.872 46.6325 155.088 46.1442C156.303 45.6559 157.275 45.1676 158.005 44.191C158.734 43.4586 159.22 42.482 159.463 41.5054C159.706 40.5288 159.949 39.3081 159.949 38.0874V27.3449V25.88C159.949 25.1476 159.949 24.6593 159.706 24.4151C159.463 23.6827 159.463 23.1944 159.22 22.9502C158.977 22.4619 158.734 22.2178 158.248 21.7295V21.2412H167.242V21.7295C166.756 22.2178 166.512 22.4619 166.269 22.9502C165.54 23.4385 165.297 23.9268 165.297 24.4151C165.297 24.9034 165.054 25.3917 165.054 25.88C165.054 26.1242 165.054 26.6124 165.054 27.3449V39.064C165.054 41.0171 164.811 42.7262 164.082 44.4352C163.352 45.9001 162.38 47.365 161.165 48.3415C159.949 49.3181 158.248 50.2947 156.303 50.783C154.358 51.2713 152.414 51.7596 149.983 51.7596C147.552 51.7596 145.364 51.5155 143.663 50.783C141.718 50.2947 140.259 49.3181 139.044 48.3415C137.829 47.365 136.856 45.9001 136.127 44.4352C135.398 42.9703 135.155 41.2613 135.155 39.064V27.3449V25.88C135.155 25.1476 135.155 24.6593 134.912 24.4151C134.912 23.9268 134.669 23.4385 134.425 22.9502C134.182 22.4619 133.939 22.2178 133.453 21.7295V21.2412H142.447V21.7295C141.961 21.9737 141.718 22.4619 141.475 22.9502C141.232 23.4385 141.232 23.9268 140.989 24.4151C140.989 24.9034 140.746 25.3917 140.746 25.88C140.746 26.1242 140.746 26.6124 140.746 27.3449V38.0874H140.989Z" fill="white"/>
<path id="Vector_13" d="M175.75 27.3449V25.88C175.75 25.3917 175.75 24.9034 175.507 24.4151C175.507 23.9268 175.264 23.4385 175.021 22.9502C174.778 22.4619 174.535 22.2178 174.049 21.7295V21.2412H193.252C195.44 21.2412 197.628 21.7295 199.329 22.4619C201.031 23.4385 202.733 24.4151 203.948 25.88C205.163 27.3449 206.136 28.8098 206.865 30.763C207.594 32.472 207.837 34.4252 207.837 36.3783C207.837 38.3315 207.594 40.2847 206.865 41.9937C206.136 43.7028 205.407 45.4118 204.191 46.8767C202.976 48.3415 201.517 49.3181 199.816 50.2947C198.114 51.0272 195.926 51.5155 193.739 51.5155H174.292V51.0272C174.778 50.783 175.021 50.0506 175.264 49.3181C175.507 48.5857 175.507 47.6091 175.75 46.8767C175.75 46.1442 175.993 45.1676 175.993 44.4352V42.482V27.3449H175.75ZM181.584 46.3884H192.523C193.982 46.3884 195.197 46.1442 196.169 45.6559C197.385 45.1676 198.357 44.6793 199.329 43.7027C200.302 42.7262 201.031 41.7496 201.517 40.5288C202.003 39.3081 202.246 37.8432 202.246 36.1342C202.246 34.4252 202.003 32.9603 201.517 31.7395C201.031 30.5188 200.302 29.5422 199.329 28.5656C198.357 27.8332 197.385 27.1007 196.169 26.6124C194.954 26.1242 193.739 26.1242 192.523 26.1242H181.827V46.3884H181.584Z" fill="white"/>
<path id="Vector_14" d="M210.754 51.2713V50.783C210.997 50.5389 211.483 50.0506 212.212 49.074C212.699 48.3415 213.185 47.6091 213.671 46.6325C214.157 45.6559 214.643 44.6793 214.886 44.191C215.129 43.4586 215.616 42.7262 215.859 42.2379L222.422 27.3449C222.665 26.8566 222.908 26.3683 223.151 25.88C223.394 25.3917 223.637 24.9034 223.637 24.4151C223.637 23.9268 223.88 23.4385 223.637 22.9502C223.637 22.4619 223.394 22.2178 223.151 21.7295V21.2412H232.631V21.7295C232.388 22.2178 232.388 22.7061 232.631 23.1944C232.874 23.9268 233.118 24.6593 233.604 25.6359L241.382 42.2379C241.382 42.482 241.625 42.7262 241.869 42.9703C242.112 43.4586 242.355 43.7027 242.355 43.9469C242.598 44.6793 243.084 45.6559 243.57 46.3884C244.056 47.365 244.542 48.0974 245.029 48.8298C245.515 49.5623 246.001 50.0506 246.244 50.5389V51.2713H237.493V50.783C237.736 50.5389 237.979 50.0506 237.979 49.5623C237.979 49.074 237.979 48.8298 237.736 48.0974C237.736 47.8533 237.493 47.365 237.25 46.6325C237.007 46.1442 236.764 45.6559 236.521 45.1676L236.035 44.191H220.963L220.477 45.1676C220.234 45.6559 219.991 46.1442 219.748 46.6325C219.505 47.365 219.262 47.8533 219.262 48.0974C219.019 48.5857 219.019 49.074 219.019 49.5623C219.019 50.0506 219.019 50.5389 219.262 50.783V51.2713H210.754ZM233.847 39.7964L228.256 27.1007H228.013L222.422 39.7964H233.847Z" fill="white"/>
</g>
</g>
</g>
<defs>
<clipPath id="clip0_1_1829">
<rect width="246" height="73" fill="white"/>
</clipPath>
</defs>
</svg>
