<svg width="149" height="44" viewBox="0 0 149 44" fill="none" xmlns="http://www.w3.org/2000/svg">
<g clip-path="url(#clip0_207_203)">
<path d="M29.594 34.1406C29.8885 33.8463 30.0357 33.5519 29.7413 33.1105C29.7413 32.9633 29.594 32.8162 29.4468 32.8162L26.0604 30.9031L16.4903 25.4583L18.5515 24.281L28.8579 30.1673C29.0051 30.1673 29.1523 30.3145 29.2996 30.3145C29.594 30.3145 29.7413 30.1673 29.8885 29.873C30.0357 29.5787 30.0357 28.9901 29.594 28.8429L20.0239 23.3981L22.0851 22.0737L28.8579 25.8998C29.0051 25.8998 29.1523 26.0469 29.2996 26.0469C29.594 26.0469 29.7413 25.8998 29.8885 25.6055C30.0357 25.3111 30.0357 24.7225 29.594 24.5754L23.5575 21.1907L29.594 17.8061C29.594 17.8061 29.594 17.8061 29.594 17.659V17.5118V17.3647L16.4903 9.85963L18.5515 8.68238L28.8579 14.5687C29.0051 14.5687 29.1523 14.7158 29.2996 14.7158C29.594 14.7158 29.7413 14.5687 29.8885 14.2744C30.0357 13.98 30.0357 13.3914 29.594 13.2443L20.0239 7.79943L22.0851 5.73923L28.8579 9.56532C29.0051 9.56532 29.1523 9.71248 29.2996 9.71248C29.594 9.71248 29.7413 9.56532 29.8885 9.27101C30.0357 8.97669 30.0357 8.38806 29.594 8.2409L22.5268 4.1205C22.5268 4.1205 22.3796 4.1205 22.3796 3.97335C22.3796 3.97335 22.2324 3.97335 22.2324 4.1205L8.53969 11.7727V9.41816L18.846 3.53188C19.1405 3.38472 19.2877 2.94325 19.1405 2.50178C18.9932 2.20746 18.5515 2.0603 18.1098 2.20746L8.53969 7.65228V5.29776L15.3124 1.47167C15.6069 1.32452 15.7541 0.883046 15.6069 0.441575C15.4597 0.00010319 14.8707 -0.147054 14.5763 0.14726L7.50906 4.26766C7.36183 4.41482 7.21459 4.41482 7.21459 4.41482C7.21459 4.41482 7.21459 4.56198 7.06736 4.56198V27.8128L5.00609 26.6356V6.62218C5.00609 6.1807 4.71163 5.88639 4.26993 5.88639C3.82823 5.88639 3.53376 6.1807 3.53376 6.62218V25.8998L1.4725 24.8697V8.97669C1.4725 8.53522 1.17803 8.2409 0.736332 8.2409C0.294632 8.2409 0.000166051 8.53522 0.000166051 8.97669V25.3111C0.000166051 25.3111 0.000166051 25.4583 0.147399 25.4583L0.294632 25.6055L13.3984 33.1105L11.3371 34.2877L1.0308 28.4014C0.736332 28.2543 0.147399 28.2543 0.000166051 28.6958C-0.147067 29.4315 0.000166059 29.873 0.441866 30.0202L10.012 35.465L7.80353 36.7894L1.0308 32.9633C0.736332 32.8162 0.147399 32.8162 0.000166051 33.2576C-0.147067 33.5519 -0.147067 34.1406 0.294632 34.2877L7.50906 38.261C7.65629 38.261 7.80353 38.4081 7.95076 38.4081C8.09799 38.4081 8.24522 38.4081 8.39246 38.261L15.4597 34.1406L22.2324 30.3145L24.2936 31.4917L11.1899 38.9968C10.8954 39.1439 10.7482 39.5854 10.8954 40.0269C11.0427 40.3212 11.3371 40.4683 11.4844 40.4683C11.6316 40.4683 11.7788 40.4683 11.9261 40.3212L25.766 32.3747L27.8272 33.5519L14.7235 41.057C14.429 41.2041 14.2818 41.6456 14.429 42.0871C14.5763 42.3814 14.8707 42.5285 15.018 42.5285C15.1652 42.5285 15.3124 42.5285 15.4597 42.3814L29.594 34.1406ZM15.018 32.669L8.68692 28.9901V13.5386L15.018 9.85963L20.6128 13.0971L14.5763 16.4817C14.2818 16.6289 14.1346 17.0703 14.2818 17.5118C14.429 17.8061 14.7235 17.9533 14.8707 17.9533C15.018 17.9533 15.1652 17.9533 15.3124 17.8061L22.0851 13.8329L24.1464 15.0101L14.5763 20.6021C14.2818 20.7493 14.1346 21.1907 14.2818 21.6322C14.429 21.9265 14.7235 22.0737 14.8707 22.0737C15.018 22.0737 15.1652 22.0737 15.3124 21.9265L25.6187 16.0402L27.68 17.2175L14.5763 24.7225V24.8697V25.0168C14.5763 25.0168 14.5763 25.0168 14.5763 25.164L20.6128 29.4315L15.018 32.669Z" fill="#FF656D"/>
<path d="M38.1338 30.9031V30.6088C38.4283 30.4616 38.5755 30.0201 38.7227 29.5787C38.87 29.1372 38.87 28.5486 39.0172 28.1071C39.0172 27.6656 39.1644 27.077 39.1644 26.6355V25.4583V16.4817V15.5987C39.1644 15.3044 39.1644 15.0101 39.0172 14.7158C39.0172 14.4215 38.87 14.1271 38.7227 13.8328C38.5755 13.5385 38.4283 13.3914 38.1338 13.097V12.8027H50.6486C52.7099 12.8027 54.3294 13.2442 55.3601 14.1271C56.3907 15.0101 56.9796 16.0402 56.9796 17.3646C56.9796 18.1004 56.8324 18.8362 56.3907 19.572C56.0962 20.3078 55.5073 20.8964 54.6239 21.3379V21.485C55.5073 21.7793 56.2435 22.368 56.6852 23.1037C57.1269 23.8395 57.4213 24.7225 57.4213 25.8997C57.4213 26.7827 57.2741 27.5185 56.9796 28.1071C56.6852 28.6957 56.2435 29.2843 55.6545 29.7258C55.0656 30.1673 54.4767 30.4616 53.7405 30.6088C53.0043 30.7559 52.1209 30.9031 51.2375 30.9031H38.1338ZM45.9372 19.572H46.2316C46.5261 19.7191 46.8205 19.8663 47.115 19.8663C47.4095 19.8663 47.7039 19.8663 48.1456 19.8663H50.9431C51.8265 19.8663 52.4154 19.7191 52.8571 19.2777C53.2988 18.8362 53.446 18.3947 53.446 17.8061C53.446 17.3646 53.2988 17.0703 53.1516 16.776C53.0043 16.4817 52.7099 16.3345 52.4154 16.1873C52.1209 16.0402 51.8265 15.893 51.3848 15.893C51.0903 15.893 50.6486 15.7459 50.2069 15.7459H42.5508V27.9599H50.9431C51.532 27.9599 51.9737 27.9599 52.4154 27.8128C52.7099 27.6656 53.1516 27.5185 53.446 27.2241C53.7405 27.077 53.8877 26.7827 54.035 26.3412C54.1822 26.0469 54.1822 25.7526 54.1822 25.3111C54.1822 24.5753 53.8877 23.9867 53.2988 23.5452C52.7099 23.1037 51.8265 22.8094 50.7958 22.8094H46.2316C45.3482 22.8094 44.6121 22.9566 44.0231 23.1037L43.8759 22.9566L45.9372 19.572Z" fill="black"/>
<path d="M64.1945 12.8027V13.097C64.1945 13.2442 64.1945 13.5385 64.1945 13.8328C64.1945 13.98 64.3417 14.2743 64.6362 14.7158C64.7834 15.0101 64.9306 15.3044 65.2251 15.5987C65.2251 15.7459 65.3723 15.7459 65.3723 15.893C65.3723 16.0402 65.5196 16.0402 65.6668 16.1873C65.814 16.3345 65.814 16.3345 65.814 16.4817L68.4642 20.1606H68.6115L71.4089 16.4817C71.4089 16.3345 71.5561 16.3345 71.7034 16.0402C71.8506 15.893 71.9978 15.7459 71.9978 15.5987C72.2923 15.3044 72.4395 15.0101 72.5868 14.7158C72.734 14.4215 72.8812 14.1271 72.8812 13.8328C72.8812 13.5385 72.8812 13.3914 72.8812 13.097V12.8027H78.1816V13.097C78.0344 13.2442 77.7399 13.5385 77.4455 13.8328C77.2982 13.98 77.151 14.1271 77.0038 14.2743C76.8565 14.4215 76.7093 14.5686 76.5621 14.7158C76.2676 15.1572 75.9731 15.4516 75.8259 15.5987C75.8259 15.7459 75.6787 15.893 75.5314 16.0402C75.3842 16.1873 75.237 16.3345 75.237 16.4817L70.3783 23.1037V25.4583C70.3783 25.8997 70.3783 26.194 70.3783 26.6355C70.3783 27.2241 70.3783 27.6656 70.5255 28.1071C70.5255 28.6957 70.6727 29.1372 70.82 29.5787C70.9672 30.0201 71.1144 30.4616 71.2617 30.6088V30.9031H66.1085V30.6088C66.2557 30.4616 66.403 30.0201 66.5502 29.5787C66.6974 29.1372 66.6974 28.5486 66.8447 28.1071C66.8447 27.8128 66.8447 27.2241 66.9919 26.6355V25.4583V23.1037L61.8387 16.4817C61.5443 16.0402 61.2498 15.7459 61.2498 15.5987C61.2498 15.5987 61.1026 15.4516 60.9553 15.1572C60.3664 15.0101 60.3664 14.8629 60.2192 14.7158C59.7775 14.2743 59.483 13.98 59.483 13.8328C59.1885 13.5385 58.8941 13.2442 58.5996 13.097V12.8027H64.1945Z" fill="black"/>
<path d="M85.3953 22.9566C85.3953 23.6924 85.5425 24.4282 85.6897 25.0168C85.837 25.6054 86.1314 26.194 86.5731 26.6355C87.0148 27.077 87.6038 27.5185 88.3399 27.8128C89.0761 28.1071 89.9595 28.2542 91.1374 28.2542C92.3152 28.2542 93.1986 28.1071 93.9348 27.8128C94.671 27.5185 95.2599 27.2241 95.7016 26.6355C96.1433 26.194 96.4378 25.6054 96.585 25.0168C96.7322 24.4282 96.8795 23.6924 96.8795 22.9566V16.4817V15.5987C96.8795 15.1573 96.8795 14.8629 96.7322 14.7158C96.585 14.2743 96.585 13.98 96.4378 13.8328C96.2905 13.5385 96.1433 13.3914 95.8488 13.097V12.8027H101.296V13.097C101.002 13.3914 100.855 13.5385 100.708 13.8328C100.266 14.1271 100.119 14.4215 100.119 14.7158C100.119 15.0101 99.9714 15.3044 99.9714 15.5987C99.9714 15.7459 99.9714 16.0402 99.9714 16.4817V23.5452C99.9714 24.7225 99.8241 25.7526 99.3824 26.7827C98.9407 27.6656 98.3518 28.5486 97.6156 29.1372C96.8795 29.7258 95.8488 30.3144 94.671 30.6088C93.4931 30.9031 92.3152 31.1974 90.8429 31.1974C89.3706 31.1974 88.0455 31.0502 87.0148 30.6088C85.837 30.3144 84.9536 29.7258 84.2174 29.1372C83.4813 28.5486 82.8923 27.6656 82.4506 26.7827C82.0089 25.8997 81.8617 24.8696 81.8617 23.5452V16.4817V15.5987C81.8617 15.1573 81.8617 14.8629 81.7145 14.7158C81.7145 14.4215 81.5672 14.1271 81.42 13.8328C81.2728 13.5385 81.1255 13.3914 80.8311 13.097V12.8027H86.2787V13.097C85.9842 13.2442 85.837 13.5385 85.6897 13.8328C85.5425 14.1271 85.5425 14.4215 85.3953 14.7158C85.3953 15.0101 85.2481 15.3044 85.2481 15.5987C85.2481 15.7459 85.2481 16.0402 85.2481 16.4817V22.9566H85.3953Z" fill="black"/>
<path d="M106.45 16.4817V15.5987C106.45 15.3044 106.45 15.0101 106.302 14.7158C106.302 14.4215 106.155 14.1271 106.008 13.8328C105.861 13.5385 105.713 13.3914 105.419 13.097V12.8027H117.05C118.375 12.8027 119.701 13.097 120.731 13.5385C121.762 14.1271 122.792 14.7158 123.529 15.5987C124.265 16.4817 124.854 17.3646 125.295 18.5419C125.737 19.572 125.884 20.7492 125.884 21.9265C125.884 23.1037 125.737 24.281 125.295 25.3111C124.854 26.3412 124.412 27.3713 123.676 28.2542C122.94 29.1372 122.056 29.7258 121.026 30.3144C119.995 30.7559 118.67 31.0502 117.345 31.0502H105.566V30.7559C105.861 30.6088 106.008 30.1673 106.155 29.7258C106.302 29.2843 106.302 28.6957 106.45 28.2542C106.45 27.8128 106.597 27.2241 106.597 26.7827V25.6054V16.4817H106.45ZM109.983 27.9599H116.609C117.492 27.9599 118.228 27.8128 118.817 27.5185C119.553 27.2241 120.142 26.9298 120.731 26.3412C121.32 25.7526 121.762 25.1639 122.056 24.4282C122.351 23.6924 122.498 22.8094 122.498 21.7793C122.498 20.7492 122.351 19.8663 122.056 19.1305C121.762 18.3947 121.32 17.8061 120.731 17.2175C120.142 16.776 119.553 16.3345 118.817 16.0402C118.081 15.7459 117.345 15.7459 116.609 15.7459H110.13V27.9599H109.983Z" fill="black"/>
<path d="M127.651 30.9031V30.6088C127.799 30.4616 128.093 30.1673 128.535 29.5787C128.829 29.1372 129.124 28.6957 129.418 28.1071C129.713 27.5185 130.007 26.9298 130.154 26.6355C130.302 26.194 130.596 25.7526 130.743 25.4583L134.719 16.4817C134.866 16.1873 135.013 15.893 135.16 15.5987C135.308 15.3044 135.455 15.0101 135.455 14.7158C135.455 14.4215 135.602 14.1271 135.455 13.8328C135.455 13.5385 135.308 13.3914 135.16 13.097V12.8027H140.902V13.097C140.755 13.3914 140.755 13.6857 140.902 13.98C141.05 14.4215 141.197 14.8629 141.491 15.4516L146.203 25.4583C146.203 25.6054 146.35 25.7526 146.497 25.8997C146.644 26.194 146.792 26.3412 146.792 26.4884C146.939 26.9298 147.233 27.5185 147.528 27.9599C147.822 28.5486 148.117 28.99 148.411 29.4315C148.706 29.873 149 30.1673 149.147 30.4616V30.9031H143.847V30.6088C143.994 30.4616 144.141 30.1673 144.141 29.873C144.141 29.5787 144.141 29.4315 143.994 28.99C143.994 28.8429 143.847 28.5486 143.7 28.1071C143.553 27.8128 143.405 27.5185 143.258 27.2241L142.964 26.6355H133.835L133.541 27.2241C133.393 27.5185 133.246 27.8128 133.099 28.1071C132.952 28.5486 132.805 28.8429 132.805 28.99C132.657 29.2843 132.657 29.5787 132.657 29.873C132.657 30.1673 132.657 30.4616 132.805 30.6088V30.9031H127.651ZM141.639 23.9867L138.252 16.3345H138.105L134.719 23.9867H141.639Z" fill="black"/>
<path d="M59.3347 39.8793H56.39V37.2305H55.3594V43.8525H56.39V41.0566H59.3347V43.8525H60.3653V37.2305H59.3347V39.8793Z" fill="#1D1D1B"/>
<path d="M68.4635 37.2305C66.5495 37.2305 65.0771 38.702 65.0771 40.6151C65.0771 42.5281 66.5495 43.9997 68.4635 43.9997C70.3775 43.9997 71.8499 42.5281 71.8499 40.6151C71.8499 38.702 70.3775 37.2305 68.4635 37.2305ZM68.4635 42.8224C67.1384 42.8224 66.1078 41.7923 66.1078 40.4679C66.1078 39.1435 67.1384 38.1134 68.4635 38.1134C69.7886 38.1134 70.8192 39.1435 70.8192 40.4679C70.8192 41.7923 69.7886 42.8224 68.4635 42.8224Z" fill="#1D1D1B"/>
<path d="M77.7386 37.2305H76.708V43.8525H80.5361V42.8224H77.7386V37.2305Z" fill="#1D1D1B"/>
<path d="M87.6036 37.2305H85.1006V43.8525H87.6036C89.3704 43.8525 90.6954 42.381 90.6954 40.6151C90.6954 38.702 89.3704 37.2305 87.6036 37.2305ZM87.6036 42.8224H86.1312V38.4077H87.6036C88.7814 38.4077 89.6648 39.2907 89.6648 40.6151C89.6648 41.9395 88.7814 42.8224 87.6036 42.8224Z" fill="#1D1D1B"/>
<path d="M96.5843 37.2305H95.5537V43.8525H96.5843V37.2305Z" fill="#1D1D1B"/>
<path d="M105.566 41.6452L102.622 37.2305H101.738V43.8525H102.769V39.4378L105.861 43.8525H106.744V37.2305H105.566V41.6452Z" fill="#1D1D1B"/>
<path d="M114.4 41.4982H116.903C116.608 42.3812 115.872 42.8226 114.842 42.8226C113.517 42.8226 112.486 41.7925 112.486 40.4681C112.486 39.1437 113.517 38.2608 114.842 38.2608C115.578 38.2608 116.314 38.7022 116.756 39.2909L116.903 39.5852L117.934 38.9965L117.786 38.7022C117.197 37.6721 116.167 37.0835 114.989 37.0835C113.075 37.0835 111.603 38.5551 111.603 40.4681C111.603 42.3812 113.075 43.8527 114.989 43.8527C116.903 43.8527 118.228 42.6755 118.228 40.9096V40.321H114.547V41.4982H114.4Z" fill="#1D1D1B"/>
<path d="M124.853 40.0266C123.97 39.7323 123.675 39.5852 123.675 39.1437C123.675 38.7022 124.117 38.2608 124.706 38.2608C125.295 38.2608 125.737 38.5551 125.884 39.1437L126.031 39.438L126.915 38.8494L126.767 38.5551C126.326 37.6721 125.589 37.0835 124.559 37.0835C123.381 37.0835 122.498 37.8193 122.498 38.9965C122.498 40.321 123.528 40.6153 124.559 40.9096C125.589 41.2039 125.884 41.4982 125.884 41.9397C125.884 42.5283 125.442 42.8226 124.706 42.8226C123.97 42.8226 123.381 42.5283 123.234 41.7925L123.087 41.3511L122.203 42.0868L122.35 42.3812C122.645 43.4113 123.675 43.9999 124.853 43.9999C126.178 43.9999 127.062 43.2641 127.062 42.0868C127.062 40.7624 125.884 40.321 124.853 40.0266Z" fill="#1D1D1B"/>
</g>
<defs>
<clipPath id="clip0_207_203">
<rect width="149" height="44" fill="white"/>
</clipPath>
</defs>
</svg>
