<svg width="87" height="30" viewBox="0 0 87 30" fill="none" xmlns="http://www.w3.org/2000/svg">
<g clip-path="url(#clip0_1225_5440)">
<path d="M52.5215 6.79118C50.9119 6.79118 49.3871 6.79118 47.7775 6.79118C46.6763 6.79118 45.575 6.70522 44.4737 6.70522C43.5419 6.70522 42.6948 6.70522 41.7629 6.70522C41.3394 6.70522 40.8311 6.70522 40.4075 6.70522C39.5604 6.61926 38.8827 6.87714 38.205 7.22098C37.4426 7.56482 37.019 8.76826 37.1884 9.5419C37.5273 11.0892 38.2897 11.6909 40.0687 11.6909C42.1865 11.6909 44.3043 11.7769 46.3374 11.6909C48.0317 11.6909 49.6412 11.7769 51.2508 12.2926C51.759 12.4645 52.1826 12.6365 52.6909 12.8943C53.1992 13.2382 53.7074 13.582 54.2157 13.9259C54.6393 14.1837 55.0628 14.5276 55.317 15.0433C55.6558 15.731 56.0794 16.4187 56.5877 17.0204C56.7571 17.1923 56.7571 17.4502 56.8418 17.6221C56.9265 18.3098 57.0112 18.9115 57.1807 19.5992C57.5195 21.8342 57.0112 23.8112 55.8253 25.7024C55.0628 26.9918 53.8769 27.7654 52.7756 28.625C52.2673 29.0548 51.5896 29.2267 50.9119 29.3986C49.0482 29.8284 47.2693 29.9144 45.3209 29.8284C43.4572 29.7425 41.6782 29.8284 39.8145 29.8284C39.0521 29.8284 38.3744 29.7425 37.612 29.7425C35.4942 29.7425 33.3764 29.8284 31.2586 29.6565C30.7503 29.6565 30.4961 29.5705 30.4961 28.9688C30.4114 27.1637 30.5808 25.4445 30.4961 23.6393C30.4961 23.3814 30.6656 23.2095 30.9197 23.2095C31.0891 23.2095 31.3433 23.2095 31.5127 23.2095C33.3764 23.2095 35.3248 23.2095 37.1884 23.2095C39.4757 23.2955 41.6782 23.2095 43.9655 23.2095C45.2362 23.2095 46.5068 23.2095 47.8623 23.2095C48.8788 23.2095 49.7259 23.0376 50.4883 22.178C51.5896 20.8886 51.0813 18.9975 49.4718 18.4817C48.6247 18.1379 47.7775 18.0519 46.8457 18.1379C46.2527 18.2238 45.6597 18.1379 44.982 18.1379C43.203 18.1379 41.5088 18.1379 39.7298 18.0519C38.5438 18.0519 37.4426 17.5362 36.2566 17.4502C36.1719 17.4502 36.1719 17.4502 36.0872 17.3642C34.9859 16.5906 33.8846 15.9029 32.9528 14.9574C32.614 14.6135 32.4445 13.9259 32.021 13.4961C31.1738 12.6365 31.1738 11.519 30.835 10.4875C30.5808 9.36998 30.7503 8.33846 30.9197 7.22098C31.1738 5.50178 32.1904 4.21238 33.2917 3.00895C34.2235 2.06339 35.3248 1.03187 36.7649 0.773989C38.0356 0.516109 39.2215 0.0863096 40.577 0.258229C41.9324 0.430149 43.2878 0.344189 44.6432 0.258229C46.5068 0.258229 48.3705 0.258229 50.1495 0.258229C50.7425 0.258229 51.4202 0.258229 52.0132 0.344189C53.538 0.430149 55.1475 0.258229 56.6724 0.344189C57.0959 0.344189 57.3501 0.430149 57.3501 0.945908C57.3501 2.57915 57.4348 4.21238 57.4348 5.84562C57.4348 6.61926 57.3501 6.61926 56.5877 6.61926C55.1476 6.79118 53.8769 6.79118 52.5215 6.79118Z" fill="#7A271A"/>
<path d="M73.7001 11.948C75.0555 12.0339 76.4956 12.1199 77.851 12.1199C78.1052 12.1199 78.3593 12.1199 78.6134 12.1199C79.4606 12.2918 80.3077 12.3778 81.0701 12.6357C82.5102 13.1514 83.8656 14.011 84.8822 15.2145C86.3223 16.8477 86.7459 18.8248 87 20.8878C87 20.9738 87 21.0597 87 21.0597C86.7459 21.9193 86.7459 22.7789 86.5764 23.6385C86.3223 24.9279 85.5599 25.9594 84.7975 26.991C84.4586 27.5067 83.8656 27.7646 83.3573 28.1084C82.1714 29.054 80.816 29.4838 79.2911 29.6557C78.0204 29.8276 76.7498 29.8276 75.4791 29.8276C73.9542 29.8276 72.4294 29.8276 70.9046 29.8276C69.1256 29.8276 67.3466 29.7417 65.5677 29.7417C64.4664 29.7417 63.4498 29.7417 62.3486 29.7417C61.8403 29.7417 61.332 29.6557 60.8238 29.6557C60.4002 29.6557 60.146 29.3978 60.146 28.8821C60.146 27.3348 60.0613 25.7875 60.146 24.2402C60.2308 23.2947 60.2308 23.2947 61.0779 23.2947C62.9416 23.2087 64.8052 23.2947 66.6689 23.2947C69.8033 23.2947 73.0224 23.3806 76.1568 23.3806C76.7498 23.3806 77.3427 23.3806 77.9357 23.3806C78.8676 23.3806 80.223 22.4351 80.5618 21.5755C80.9007 20.544 80.3077 19.1686 79.3758 18.6528C78.2746 18.1371 77.0886 18.309 75.9873 18.309C74.9708 18.309 73.9542 18.309 73.0224 18.309C72.0058 18.309 70.9893 18.223 70.0574 18.223C68.7867 18.309 67.6008 17.8792 66.3301 17.7073C65.9065 17.6213 65.5677 17.4494 65.2288 17.2775C63.5346 16.074 62.0944 14.6987 61.1626 12.8076C60.8237 12.1199 60.8238 11.2603 60.5696 10.5726C60.2308 9.62706 60.4849 8.6815 60.6543 7.73594C60.9085 6.36058 61.5015 5.32907 62.2639 4.21159C63.1957 2.83623 64.4664 1.71875 65.9912 1.20299C67.5161 0.687233 69.2103 0.429353 70.9046 0.515313C72.7682 0.601273 74.7166 0.515313 76.5803 0.515313C79.2911 0.515313 82.0019 0.515313 84.7128 0.515313C85.1363 0.515313 85.4752 0.515313 85.8987 0.515313C86.7459 0.515313 86.9153 0.601273 87 1.46087C87.0847 2.49239 87.0847 3.52391 87.0847 4.46947C87.0847 4.89927 87.0847 5.24311 87.0847 5.67291C87.0847 6.79038 86.8306 6.9623 85.7293 6.9623C84.8822 6.9623 84.1198 6.87634 83.2726 6.87634C80.816 6.87634 78.444 6.87634 75.9873 6.87634C74.3778 6.87634 72.7683 6.87634 71.1587 6.79038C70.0574 6.70442 69.0409 6.79038 68.0243 7.22018C67.5161 7.3921 67.1772 7.73594 67.0078 8.2517C66.5842 9.5411 67.2619 10.9165 68.5326 11.3463C69.5492 11.6901 70.6504 11.6041 71.667 11.6041C72.26 11.948 73.0224 11.862 73.7001 11.948Z" fill="#7A271A"/>
<path d="M3.81207 0C6.26874 0 8.72541 0 11.1821 0C12.1986 0 13.2152 0 14.147 0.0859599C17.5355 0.25788 20.5005 1.2894 22.9572 3.78223C23.5501 4.55587 24.3126 5.15759 24.9056 6.01719C26.4304 7.99427 27.2775 10.2292 27.4469 12.808C27.4469 13.2378 27.6164 13.6676 27.6164 14.0974C27.6164 16.5043 27.3622 18.9112 26.3457 21.1461C25.5833 22.7794 24.5667 24.2407 23.2113 25.4441C22.5336 26.0458 22.0253 26.8195 21.2629 27.3352C20.1616 28.0229 19.1451 28.7106 17.8744 29.1404C16.3496 29.6562 14.9094 29.7421 13.3846 29.7421C11.3515 29.8281 9.23369 29.7421 7.20058 29.7421C5.08277 29.7421 2.96495 29.7421 0.847128 29.7421C0 29.7421 0 29.6562 0 28.8825C0 27.4212 0.169426 25.9599 0.0847128 24.5845C0 22.3496 0.169426 20.1146 0.0847128 17.8797C0 15.9885 0.169426 14.0115 0.254138 12.1203C0.254138 11.8625 0.254138 11.5186 0.254138 11.2607C0.169426 10.3152 0.423564 10.0573 1.3554 10.0573C2.28724 10.0573 3.3038 10.0573 4.23564 10.0573C5.08277 10.0573 5.92989 10.0573 6.77702 10.0573C7.53944 10.0573 7.70886 10.1433 7.70886 11.0029C7.70886 12.2923 7.70886 13.5817 7.62415 14.957C7.62415 17.2779 7.62415 19.7708 7.62415 22.2636C7.62415 22.9513 7.70886 23.0372 8.38656 23.0372C10.1655 23.1232 12.0292 23.3811 13.8082 23.0372C14.9942 22.8653 16.2648 22.8653 17.2814 22.0057C18.2132 21.1461 19.2298 20.4585 19.9075 19.341C20.7546 17.9656 21.0088 16.4183 21.0935 14.8711C21.3476 12.2923 20.4158 9.97135 18.5521 8.25215C17.7897 7.47851 16.7731 6.87679 15.5024 6.70487C13.8082 6.36103 12.1139 6.44699 10.4197 6.44699C7.963 6.44699 5.59104 6.36103 3.13437 6.36103C2.45667 6.36103 1.86368 6.36103 1.18598 6.36103C0.762415 6.36103 0.338851 5.93123 0.338851 5.50143C0.338851 4.21203 0.338851 2.83668 0.423564 1.54728C0.508277 0 0.508276 0 1.94839 0C2.54138 0 3.13437 0 3.81207 0Z" fill="#7A271A"/>
</g>
<defs>
<clipPath id="clip0_1225_5440">
<rect width="87" height="30" fill="white"/>
</clipPath>
</defs>
</svg>
