<svg width="134" height="65" viewBox="0 0 134 65" fill="none" xmlns="http://www.w3.org/2000/svg">
<path d="M17.214 53.7039H0V0.921875H17.4421C17.7841 0.921875 18.012 0.921875 18.126 0.921875C19.152 0.921875 20.178 1.03588 21.09 1.26388C23.142 1.60588 25.08 2.06188 26.904 2.85988C30.78 4.34188 33.9721 6.73587 36.8221 9.81387C39.5581 12.8919 41.496 16.4259 42.636 20.4159C43.206 22.3539 43.434 24.4059 43.548 26.4579C43.662 28.5099 43.5481 30.4479 43.0921 32.4999C42.2941 36.6039 40.698 40.2519 38.19 43.5579C35.682 46.8639 32.604 49.3719 28.956 51.1959C25.194 52.7919 21.318 53.7039 17.214 53.7039V51.8799C21.09 51.8799 24.738 51.0819 28.158 49.3719C31.578 47.6619 34.4281 45.2679 36.8221 42.1899C39.2161 39.1119 40.6981 35.6919 41.3821 31.9299C42.0661 28.1679 41.952 24.4059 40.926 20.7579C39.9 17.1099 38.076 13.8039 35.568 10.9539C33.06 8.10387 29.982 5.93788 26.448 4.56988C24.738 3.88588 22.914 3.31588 20.976 3.08788C20.064 2.97388 19.152 2.85988 18.126 2.85988C17.898 2.85988 17.6701 2.85988 17.4421 2.85988H1.93801V51.9939H17.328V53.7039H17.214ZM17.214 50.0559H3.64801V4.68388H17.328C17.67 4.68388 17.8981 4.68388 18.0121 4.68388C18.9241 4.68388 19.722 4.79787 20.634 4.91188C22.344 5.13987 24.054 5.59588 25.65 6.27988C28.956 7.64788 31.806 9.58588 34.086 12.2079C36.48 14.8299 38.0761 17.9079 39.1021 21.3279C40.0141 24.7479 40.242 28.1679 39.558 31.7019C38.874 35.2359 37.506 38.3139 35.34 41.1639C33.174 44.0139 30.552 46.1799 27.36 47.7759C24.054 49.2579 20.748 50.0559 17.214 50.0559V48.2319C20.52 48.2319 23.598 47.5479 26.448 46.0659C29.412 44.5839 31.806 42.6459 33.858 40.0239C35.796 37.4019 37.164 34.5519 37.734 31.3599C38.304 28.1679 38.1901 24.9759 37.3921 21.8979C36.4801 18.7059 34.9981 15.9699 32.8321 13.5759C30.6661 11.1819 28.044 9.35787 25.08 8.10387C23.598 7.53387 22.116 7.07788 20.52 6.84988C19.722 6.73588 18.924 6.62187 18.126 6.62187C18.126 6.62187 17.328 6.62187 15.846 6.62187H5.81404V48.3459H17.4421V50.0559H17.214ZM17.214 46.4079H7.29603V8.33187H15.504C16.986 8.33187 17.67 8.33187 17.784 8.33187C18.582 8.33187 19.266 8.44588 19.95 8.55988C21.432 8.78788 22.8 9.12988 24.168 9.69988C26.904 10.8399 29.298 12.4359 31.236 14.7159C33.174 16.9959 34.656 19.5039 35.34 22.3539C36.138 25.2039 36.2521 28.0539 35.6821 31.0179C35.1121 33.9819 33.972 36.6039 32.148 38.8839C30.324 41.2779 28.0441 43.1019 25.4221 44.3559C22.9141 45.7239 20.178 46.4079 17.214 46.4079V44.5839C19.836 44.5839 22.4581 44.0139 24.8521 42.7599C27.2461 41.6199 29.298 39.9099 30.894 37.7439C32.49 35.5779 33.63 33.1839 34.086 30.5619C34.542 27.9399 34.428 25.3179 33.744 22.6959C33.06 20.0739 31.8061 17.7939 29.9821 15.8559C28.1581 13.8039 26.106 12.3219 23.598 11.4099C22.344 10.8399 21.09 10.4979 19.836 10.3839C19.152 10.2699 18.582 10.2699 17.898 10.2699C17.784 10.2699 17.6701 10.2699 17.4421 10.2699H9.34801V44.5839H17.328V46.4079H17.214ZM17.214 42.7599H11.058V12.0939H17.328C17.556 12.0939 17.67 12.0939 17.784 12.0939C18.354 12.0939 18.924 12.2079 19.494 12.2079C20.634 12.4359 21.774 12.6639 22.914 13.1199C25.194 14.0319 27.018 15.3999 28.614 17.1099C30.21 18.9339 31.35 20.9859 31.92 23.2659C32.604 25.5459 32.604 27.9399 32.148 30.2199C31.692 32.4999 30.78 34.6659 29.298 36.6039C27.816 38.5419 25.992 40.0239 23.94 41.0499C21.888 42.1899 19.608 42.7599 17.214 42.7599V40.9359C19.38 40.9359 21.3181 40.4799 23.1421 39.5679C25.0801 38.6559 26.562 37.2879 27.93 35.5779C29.184 33.8679 30.096 32.0439 30.438 29.9919C30.666 28.9659 30.666 27.9399 30.666 26.9139C30.666 25.8879 30.438 24.8619 30.21 23.8359C29.64 21.7839 28.614 20.0739 27.246 18.4779C25.878 16.8819 24.168 15.7419 22.23 14.9439C21.318 14.6019 20.292 14.2599 19.266 14.1459C18.81 14.0319 18.24 14.0319 17.67 14.0319C17.556 14.0319 17.442 14.0319 17.214 14.0319H12.8821V40.9359H17.214V42.7599Z" fill="#A5A5A5"/>
<path d="M87.2098 44.0137C86.2978 45.9517 85.1578 47.5477 83.5618 49.0297C82.1938 50.2837 80.5978 51.1957 78.6598 51.9937C77.1778 52.5637 75.5818 53.0197 73.8718 53.3617C72.3898 53.5897 70.9078 53.7037 69.3118 53.8177H68.8558C68.6278 53.8177 68.5138 53.8177 68.2858 53.8177C67.9438 53.8177 67.6018 53.8177 67.2598 53.8177C66.5758 53.8177 65.8918 53.7037 65.0938 53.7037C63.4978 53.5897 62.0158 53.2477 60.6478 52.9057C58.9378 52.4497 57.3418 51.8797 55.8598 51.0817C54.0358 50.1697 52.5538 48.9157 51.2998 47.4337C49.9318 45.8377 48.9058 44.1277 48.2218 42.0757C47.6518 40.3657 47.4238 38.5417 47.4238 36.6037H49.2478C49.2478 38.3137 49.4758 40.0237 49.9318 41.5057C50.5018 43.2157 51.4138 44.8117 52.6678 46.1797C53.8078 47.4337 55.1758 48.4597 56.7718 49.3717C58.0258 50.0557 59.5078 50.6257 61.1038 51.0817C62.3578 51.4237 63.8398 51.6517 65.3218 51.7657C66.4618 51.8797 67.7158 51.9937 68.9698 51.9937H69.4258C70.9078 51.9937 72.2758 51.8797 73.6438 51.6517C75.2398 51.4237 76.7218 50.9677 78.0898 50.3977C79.6858 49.7137 81.1678 48.8017 82.4218 47.7757C83.7898 46.5217 84.9298 45.1537 85.7278 43.4437C86.4118 41.8477 86.8678 40.1377 86.9818 38.3137C86.9818 37.5157 86.9818 36.6037 86.8678 35.8057C86.7538 34.8937 86.6398 34.0957 86.4118 33.2977C85.9558 31.4737 85.0438 29.8777 83.7898 28.3957C82.6498 27.1417 81.2818 26.0017 79.6858 25.2037C78.4318 24.5197 77.0638 23.9497 75.4678 23.4937C74.2138 23.1517 72.8458 22.9237 71.3638 22.6957C70.7938 22.5817 70.2238 22.5817 69.4258 22.4677L67.7158 22.2397C66.4618 22.1257 65.5498 22.0117 64.6378 21.7837C63.7258 21.5557 62.8138 21.3277 62.2438 20.9857C61.5598 20.6437 61.1038 20.3017 60.6478 19.9597C60.3058 19.6177 60.0778 19.2757 59.9638 18.8197C59.8498 18.5917 59.8498 18.2497 59.7358 18.0217C59.7358 17.9077 59.7358 17.6797 59.7358 17.4517V17.2237C59.7358 17.1097 59.7358 16.9957 59.7358 16.9957C59.7358 16.4257 59.8498 15.8557 60.1918 15.3997C60.4198 14.9437 60.7618 14.4877 61.2178 14.1457C62.2438 13.2337 63.6118 12.7777 65.4358 12.4357C66.1198 12.3217 66.9178 12.2077 67.6018 12.2077C68.7418 12.2077 69.7678 12.3217 70.7938 12.5497C71.7058 12.7777 72.5038 13.0057 73.1878 13.3477C73.8718 13.6897 74.3278 14.0317 74.7838 14.4877C75.1258 14.8297 75.4678 15.2857 75.5818 15.8557C75.8098 16.4257 75.9238 17.1097 75.9238 17.7937H74.0998C74.0998 17.2237 73.9858 16.7677 73.8718 16.4257C73.7578 16.1977 73.6438 15.9697 73.4158 15.7417C73.1878 15.5137 72.8458 15.2857 72.3898 15.0577C71.8198 14.8297 71.2498 14.6017 70.4518 14.4877C69.5398 14.2597 68.6278 14.1457 67.6018 14.1457C66.9178 14.1457 66.3478 14.1457 65.6638 14.2597C64.9798 14.3737 64.2958 14.6017 63.7258 14.8297C63.1558 15.0577 62.6998 15.2857 62.3578 15.5137C62.1298 15.7417 61.9018 15.9697 61.7878 16.1977C61.6738 16.4257 61.5598 16.7677 61.5598 17.1097C61.5598 17.1097 61.5598 17.2237 61.5598 17.3377V17.5657C61.5598 17.6797 61.5598 17.7937 61.5598 17.9077C61.5598 18.1357 61.6738 18.2497 61.6738 18.4777C61.6738 18.7057 61.7878 18.8197 61.9018 18.9337C62.1298 19.1617 62.4718 19.3897 62.9278 19.5037C63.4978 19.7317 64.1818 19.9597 64.9798 20.1877C65.7778 20.4157 66.6898 20.5297 67.8298 20.6437L69.5398 20.8717C70.2238 20.9857 70.9078 20.9857 71.4778 21.0997C73.0738 21.3277 74.4418 21.5557 75.8098 21.8977C77.5198 22.3537 79.1158 23.0377 80.4838 23.7217C82.3078 24.7477 83.7898 25.8877 85.1578 27.3697C85.8418 28.1677 86.4118 29.0797 86.9818 29.9917C87.4378 30.9037 87.8938 31.8157 88.1218 32.9557C88.3498 33.8677 88.5778 34.8937 88.6918 35.9197C88.8058 36.8317 88.8058 37.7437 88.8058 38.6557C88.5778 40.3657 88.0078 42.3037 87.2098 44.0137ZM60.3058 36.6037C60.3058 37.1737 60.4198 37.7437 60.5338 38.0857C60.6478 38.4277 60.7618 38.6557 60.9898 38.8837C61.2178 39.1117 61.5598 39.3397 62.0158 39.5677C62.5858 39.7957 63.1558 40.0237 63.8398 40.2517C65.2078 40.5937 66.9178 40.8217 68.9698 40.8217C69.0838 40.8217 69.1978 40.8217 69.3118 40.8217C71.1358 40.8217 72.7318 40.5937 73.8718 40.1377C74.3278 39.9097 74.7838 39.6817 75.1258 39.4537C75.3538 39.2257 75.4678 38.9977 75.6958 38.7697C75.8098 38.4277 75.9238 38.0857 75.9238 37.7437C75.9238 37.5157 75.9238 37.1737 75.9238 36.9457C75.9238 36.7177 75.8098 36.4897 75.8098 36.3757C75.6958 36.1477 75.5818 35.9197 75.4678 35.6917C75.2398 35.4637 75.0118 35.2357 74.5558 35.0077C73.9858 34.6657 73.3018 34.4377 72.6178 34.3237C71.8198 34.0957 71.0218 33.8677 69.9958 33.7537C69.5398 33.7537 68.9698 33.6397 68.3998 33.5257L66.5758 33.2977C64.9798 33.0697 63.6118 32.8417 62.3578 32.6137C60.6478 32.1577 59.0518 31.7017 57.6838 31.0177C55.7458 30.1057 54.1498 28.9657 52.7818 27.5977C51.9838 26.7997 51.2998 25.8877 50.8438 24.9757C50.2738 24.0637 49.8178 23.0377 49.4758 22.0117C49.1338 21.0997 49.0198 20.0737 48.9058 19.0477C48.9058 18.5917 48.7918 18.1357 48.7918 17.6797C48.7918 17.4517 48.7918 17.2237 48.7918 16.9957C48.7918 16.6537 48.7918 16.4257 48.7918 16.3117C48.9058 14.1457 49.4758 12.2077 50.3878 10.3837C51.2998 8.55967 52.5538 6.96367 54.2638 5.59567C55.6318 4.45567 57.2278 3.54367 59.0518 2.74567C60.5338 2.17567 62.2438 1.71967 63.9538 1.49167C65.2078 1.26367 66.5758 1.26367 67.8298 1.26367C69.6538 1.26367 71.4778 1.49167 73.4158 1.83367C75.1258 2.17567 76.8358 2.74567 78.2038 3.54367C80.0278 4.45567 81.6238 5.59567 82.9918 6.96367C84.4738 8.44567 85.4998 10.2697 86.2978 12.3217C86.8678 14.0317 87.2098 15.9697 87.2098 17.9077H85.3858C85.3858 16.0837 85.1578 14.4877 84.5878 12.8917C84.0178 11.0677 82.9918 9.58567 81.6238 8.21767C80.4838 6.96367 79.1158 6.05167 77.4058 5.25367C76.0378 4.56967 74.6698 4.11367 73.0738 3.77167C71.3638 3.42967 69.6538 3.20167 67.8298 3.20167C66.6898 3.20167 65.4358 3.31567 64.2958 3.42967C62.6998 3.65767 61.2178 4.11367 59.8498 4.56967C58.2538 5.25367 56.7718 6.05167 55.5178 7.07767C54.0358 8.21767 52.8958 9.69967 52.0978 11.2957C51.2998 12.8917 50.7298 14.6017 50.6158 16.5397C50.6158 16.7677 50.6158 16.9957 50.6158 17.2237C50.6158 17.4517 50.6158 17.5657 50.6158 17.7937C50.6158 18.2497 50.6158 18.7057 50.7298 19.0477C50.8438 19.9597 50.9578 20.8717 51.2998 21.6697C51.6418 22.5817 51.9838 23.4937 52.4398 24.2917C52.8958 25.0897 53.4658 25.8877 54.1498 26.5717C55.2898 27.8257 56.7718 28.8517 58.4818 29.5357C59.7358 30.1057 61.2178 30.5617 62.8138 31.0177C63.9538 31.2457 65.3218 31.4737 66.8038 31.7017L68.6278 31.9297C69.3118 32.0437 69.7678 32.0437 70.3378 32.1577C71.4778 32.2717 72.3898 32.4997 73.3018 32.7277C74.2138 32.9557 75.0118 33.2977 75.5818 33.6397C76.2658 33.9817 76.7218 34.3237 77.0638 34.7797C77.4058 35.1217 77.6338 35.5777 77.7478 36.1477C77.8618 36.4897 77.8618 36.7177 77.8618 37.0597C77.8618 37.4017 77.9758 37.7437 77.8618 38.0857C77.8618 38.7697 77.6338 39.3397 77.4058 39.9097C77.1778 40.3657 76.8358 40.8217 76.3798 41.2777C75.9238 41.6197 75.3538 41.9617 74.6698 42.3037C73.3018 42.8737 71.4778 43.2157 69.4258 43.2157H68.8558C66.6898 43.2157 64.8658 42.9877 63.2698 42.6457C62.3578 42.4177 61.5598 42.1897 60.9898 41.8477C60.4198 41.5057 59.8498 41.1637 59.5078 40.7077C59.1658 40.3657 58.8238 39.7957 58.7098 39.2257C58.4818 38.6557 58.3678 37.9717 58.3678 37.1737H60.3058V36.6037ZM52.8958 36.6037C52.8958 37.9717 53.1238 39.2257 53.4658 40.3657C53.9218 41.6197 54.4918 42.7597 55.4038 43.7857C56.2018 44.6977 57.2278 45.4957 58.4818 46.1797C59.5078 46.7497 60.6478 47.2057 62.0158 47.5477C64.0678 48.1177 66.3478 48.3457 68.9698 48.3457H69.3118C72.1618 48.3457 74.5558 47.8897 76.6078 46.9777C77.8618 46.4077 79.0018 45.8377 79.9138 45.0397C80.9398 44.1277 81.7378 43.1017 82.1938 41.9617C82.7638 40.8217 82.9918 39.5677 83.1058 38.1997C83.2198 36.8317 83.1058 35.5777 82.7638 34.3237C82.4218 33.0697 81.7378 31.8157 80.9398 30.9037C80.1418 29.9917 79.1158 29.1937 77.9758 28.5097C76.1518 27.4837 73.7578 26.7997 70.7938 26.4577C70.3378 26.4577 69.7678 26.3437 69.0838 26.2297C68.1718 26.1157 67.4878 26.1157 67.3738 26.0017C66.0058 25.8877 64.8658 25.6597 63.9538 25.4317C62.6998 25.2037 61.6738 24.8617 60.7618 24.4057C59.7358 23.9497 58.8238 23.2657 58.1398 22.5817C57.4558 21.7837 56.8858 20.8717 56.5438 19.8457C56.3158 18.9337 56.2018 17.7937 56.2018 16.6537C56.3158 15.5137 56.5438 14.4877 56.9998 13.5757C57.4558 12.6637 58.1398 11.8657 58.9378 11.0677C60.5338 9.81367 62.4718 9.01567 64.9798 8.55967C65.8918 8.44567 66.8038 8.33167 67.7158 8.33167C69.0838 8.33167 70.4518 8.44567 71.8198 8.78767C74.3278 9.35767 76.2658 10.2697 77.6338 11.7517C78.3178 12.5497 78.8878 13.4617 79.3438 14.4877C79.6858 15.3997 79.7998 16.4257 79.7998 17.6797H77.9758C77.9758 16.7677 77.8618 15.8557 77.5198 15.0577C77.2918 14.2597 76.8358 13.6897 76.2658 13.1197C75.2398 11.9797 73.5298 11.1817 71.3638 10.7257C70.2238 10.4977 68.9698 10.2697 67.7158 10.2697C66.9178 10.2697 66.1198 10.3837 65.3218 10.4977C63.1558 10.8397 61.4458 11.5237 60.1918 12.5497C58.8238 13.5757 58.1398 15.0577 58.0258 16.7677C58.0258 16.8817 58.0258 16.9957 58.0258 17.1097V17.4517C58.0258 17.6797 58.0258 17.9077 58.0258 18.1357C58.0258 18.5917 58.1398 18.9337 58.2538 19.3897C58.4818 20.0737 58.8238 20.7577 59.3938 21.3277C60.4198 22.3537 62.0158 23.1517 64.2958 23.7217C65.2078 23.9497 66.2338 24.0637 67.4878 24.2917C67.7158 24.2917 68.2858 24.4057 69.1978 24.5197C69.8818 24.6337 70.5658 24.6337 71.0218 24.7477C72.3898 24.9757 73.7578 25.2037 74.8978 25.4317C76.3798 25.8877 77.6338 26.3437 78.7738 27.0277C80.1418 27.8257 81.3958 28.7377 82.3078 29.8777C83.3338 31.1317 84.1318 32.4997 84.5878 33.9817C84.8158 34.6657 84.9298 35.4637 85.0438 36.2617C85.1578 36.9457 85.1578 37.7437 85.0438 38.4277C84.9298 40.0237 84.5878 41.5057 84.0178 42.8737C83.3338 44.2417 82.4218 45.4957 81.1678 46.6357C80.1418 47.5477 78.7738 48.3457 77.4058 49.0297C75.1258 49.9417 72.5038 50.3977 69.4258 50.5117H69.0838C66.3478 50.5117 63.8398 50.2837 61.5598 49.7137C60.0778 49.3717 58.8238 48.8017 57.5698 48.2317C56.2018 47.4337 54.9478 46.5217 54.0358 45.4957C53.0098 44.3557 52.2118 42.9877 51.7558 41.3917C51.2998 40.0237 51.0718 38.6557 51.0718 37.0597H52.8958V36.6037ZM56.5438 36.6037C56.5438 37.6297 56.6578 38.4277 56.8858 39.2257C57.1138 40.0237 57.5698 40.7077 58.1398 41.2777C59.1658 42.4177 60.7618 43.3297 62.8138 43.7857C64.5238 44.2417 66.5758 44.4697 68.8558 44.4697H69.1978C71.4778 44.4697 73.5298 44.1277 75.1258 43.4437C76.0378 43.1017 76.7218 42.6457 77.4058 42.0757C78.0898 41.5057 78.5458 40.9357 78.8878 40.1377C79.2298 39.4537 79.4578 38.6557 79.4578 37.7437C79.4578 37.2877 79.4578 36.8317 79.4578 36.3757C79.4578 35.9197 79.3438 35.4637 79.2298 35.1217C79.0018 34.3237 78.6598 33.6397 78.0898 33.0697C77.6338 32.4997 76.9498 31.9297 76.1518 31.4737C74.7838 30.6757 72.7318 30.1057 70.3378 29.7637C69.8818 29.6497 69.3118 29.6497 68.6278 29.5357C67.7158 29.4217 67.0318 29.4217 66.8038 29.3077C65.3218 29.0797 64.0678 28.9657 63.0418 28.7377C61.5598 28.3957 60.3058 27.9397 59.0518 27.3697C57.5698 26.6857 56.3158 25.7737 55.2898 24.7477C54.1498 23.4937 53.3518 22.1257 52.8958 20.5297C52.6678 19.8457 52.5538 19.0477 52.4398 18.2497C52.4398 17.9077 52.4398 17.4517 52.4398 17.1097C52.4398 16.8817 52.4398 16.7677 52.4398 16.5397C52.4398 16.3117 52.4398 16.0837 52.4398 15.9697C52.5538 14.3737 52.8958 12.8917 53.6938 11.5237C54.3778 10.1557 55.4038 8.90167 56.6578 7.87567C57.7978 6.96367 59.0518 6.27967 60.5338 5.70967C61.7878 5.13967 63.1558 4.79767 64.6378 4.68367C65.6638 4.45567 66.8038 4.45567 67.9438 4.45567C69.5398 4.45567 71.1358 4.68367 72.7318 5.02567C74.2138 5.36767 75.4678 5.82367 76.7218 6.39367C78.2038 7.07767 79.3438 7.98967 80.3698 9.01567C81.5098 10.1557 82.3078 11.5237 82.8778 13.0057C83.3338 14.3737 83.5618 15.8557 83.5618 17.4517H81.3958C81.3958 16.0837 81.1678 14.8297 80.8258 13.6897C80.3698 12.4357 79.6858 11.2957 78.7738 10.3837C77.8618 9.47167 76.8358 8.78767 75.6958 8.10367C74.6698 7.53367 73.4158 7.19167 72.0478 6.84967C70.5658 6.50767 69.0838 6.39367 67.6018 6.39367C66.5758 6.39367 65.6638 6.50767 64.6378 6.62167C63.3838 6.84967 62.1298 7.19167 60.9898 7.53367C59.7358 8.10367 58.5958 8.67367 57.6838 9.47167C56.6578 10.3837 55.8598 11.4097 55.1758 12.5497C54.6058 13.6897 54.2638 14.9437 54.1498 16.3117C54.0358 17.6797 54.2638 19.0477 54.6058 20.1877C54.9478 21.4417 55.6318 22.5817 56.6578 23.6077C57.4558 24.5197 58.5958 25.2037 59.8498 25.7737C60.8758 26.2297 62.0158 26.6857 63.3838 26.9137C64.4098 27.1417 65.6638 27.3697 67.0318 27.4837C67.2598 27.4837 67.8298 27.5977 68.7418 27.7117C69.4258 27.8257 69.9958 27.9397 70.4518 27.9397C73.1878 28.2817 75.3538 28.9657 76.9498 29.7637C77.9758 30.3337 78.7738 31.0177 79.4578 31.7017C80.1418 32.4997 80.5978 33.4117 80.9398 34.4377C81.2818 35.4637 81.3958 36.4897 81.2818 37.6297C81.2818 38.7697 80.9398 39.7957 80.5978 40.7077C80.1418 41.6197 79.5718 42.5317 78.7738 43.2157C77.9758 43.8997 77.0638 44.4697 75.9238 44.9257C74.0998 45.7237 71.9338 46.0657 69.3118 46.0657H68.9698C66.4618 46.0657 64.2958 45.8377 62.4718 45.3817C59.9638 44.6977 58.0258 43.6717 56.7718 42.3037C56.0878 41.5057 55.5178 40.5937 55.1758 39.5677C54.8338 38.6557 54.7198 37.5157 54.7198 36.3757H56.5438V36.6037Z" fill="#A5A5A5"/>
<path d="M132.126 44.0137C131.214 45.9517 130.074 47.5477 128.478 49.0297C127.11 50.2837 125.514 51.1957 123.576 51.9937C122.094 52.5637 120.498 53.0197 118.788 53.3617C117.306 53.5897 115.824 53.7037 114.228 53.8177H113.772C113.544 53.8177 113.43 53.8177 113.202 53.8177C112.86 53.8177 112.518 53.8177 112.176 53.8177C111.492 53.8177 110.808 53.7037 110.01 53.7037C108.414 53.5897 106.932 53.2477 105.564 52.9057C103.854 52.4497 102.258 51.8797 100.776 51.0817C98.9519 50.1697 97.4699 48.9157 96.2159 47.4337C94.8479 45.8377 93.8219 44.1277 93.1379 42.0757C92.5679 40.3657 92.3398 38.5417 92.3398 36.6037H94.1639C94.1639 38.3137 94.3919 40.0237 94.8479 41.5057C95.4179 43.2157 96.3299 44.8117 97.5839 46.1797C98.7239 47.4337 100.092 48.4597 101.688 49.3717C102.942 50.0557 104.424 50.6257 106.02 51.0817C107.274 51.4237 108.756 51.6517 110.238 51.7657C111.378 51.8797 112.632 51.9937 113.886 51.9937H114.342C115.824 51.9937 117.192 51.8797 118.56 51.6517C120.156 51.4237 121.638 50.9677 123.006 50.3977C124.602 49.7137 126.084 48.8017 127.338 47.7757C128.706 46.5217 129.846 45.1537 130.644 43.4437C131.328 41.8477 131.784 40.1377 131.898 38.3137C131.898 37.5157 131.898 36.6037 131.784 35.8057C131.67 34.8937 131.556 34.0957 131.328 33.2977C130.872 31.4737 129.96 29.8777 128.706 28.3957C127.566 27.1417 126.198 26.0017 124.602 25.2037C123.348 24.5197 121.98 23.9497 120.384 23.4937C119.13 23.1517 117.762 22.9237 116.28 22.6957C115.71 22.5817 115.14 22.5817 114.342 22.4677L112.632 22.2397C111.378 22.1257 110.466 22.0117 109.554 21.7837C108.642 21.5557 107.73 21.3277 107.16 20.9857C106.476 20.6437 106.02 20.3017 105.564 19.9597C105.222 19.6177 104.994 19.2757 104.88 18.8197C104.766 18.5917 104.766 18.2497 104.652 18.0217C104.652 17.9077 104.652 17.6797 104.652 17.4517V17.2237C104.652 17.1097 104.652 16.9957 104.652 16.9957C104.652 16.4257 104.766 15.8557 105.108 15.3997C105.336 14.9437 105.678 14.4877 106.134 14.1457C107.16 13.2337 108.528 12.7777 110.352 12.4357C111.036 12.3217 111.834 12.2077 112.518 12.2077C113.658 12.2077 114.684 12.3217 115.71 12.5497C116.622 12.7777 117.42 13.0057 118.104 13.3477C118.788 13.6897 119.244 14.0317 119.7 14.4877C120.042 14.8297 120.384 15.2857 120.498 15.8557C120.726 16.4257 120.84 17.1097 120.84 17.7937H119.016C119.016 17.2237 118.902 16.7677 118.788 16.4257C118.674 16.1977 118.56 15.9697 118.332 15.7417C118.104 15.5137 117.762 15.2857 117.306 15.0577C116.736 14.8297 116.166 14.6017 115.368 14.4877C114.456 14.2597 113.544 14.1457 112.518 14.1457C111.834 14.1457 111.264 14.1457 110.58 14.2597C109.896 14.3737 109.212 14.6017 108.642 14.8297C108.072 15.0577 107.616 15.2857 107.274 15.5137C107.046 15.7417 106.818 15.9697 106.704 16.1977C106.59 16.4257 106.476 16.7677 106.476 17.1097C106.476 17.1097 106.476 17.2237 106.476 17.3377V17.5657C106.476 17.6797 106.476 17.7937 106.476 17.9077C106.476 18.1357 106.59 18.2497 106.59 18.4777C106.59 18.7057 106.704 18.8197 106.818 18.9337C107.046 19.1617 107.388 19.3897 107.844 19.5037C108.414 19.7317 109.098 19.9597 109.896 20.1877C110.694 20.4157 111.606 20.5297 112.746 20.6437L114.456 20.8717C115.14 20.9857 115.824 20.9857 116.394 21.0997C117.99 21.3277 119.358 21.5557 120.726 21.8977C122.436 22.3537 124.032 23.0377 125.4 23.7217C127.224 24.7477 128.706 25.8877 130.074 27.3697C130.758 28.1677 131.328 29.0797 131.898 29.9917C132.354 30.9037 132.81 31.8157 133.038 32.9557C133.266 33.8677 133.494 34.8937 133.608 35.9197C133.722 36.8317 133.722 37.7437 133.722 38.6557C133.494 40.3657 133.038 42.3037 132.126 44.0137ZM105.222 36.6037C105.222 37.1737 105.336 37.7437 105.45 38.0857C105.564 38.4277 105.678 38.6557 105.906 38.8837C106.134 39.1117 106.476 39.3397 106.932 39.5677C107.502 39.7957 108.072 40.0237 108.756 40.2517C110.124 40.5937 111.834 40.8217 113.886 40.8217C114 40.8217 114.114 40.8217 114.228 40.8217C116.052 40.8217 117.648 40.5937 118.788 40.1377C119.244 39.9097 119.7 39.6817 120.042 39.4537C120.27 39.2257 120.384 38.9977 120.612 38.7697C120.726 38.4277 120.84 38.0857 120.84 37.7437C120.84 37.5157 120.84 37.1737 120.84 36.9457C120.84 36.7177 120.726 36.4897 120.726 36.3757C120.612 36.1477 120.498 35.9197 120.384 35.6917C120.156 35.4637 119.928 35.2357 119.472 35.0077C118.902 34.6657 118.218 34.4377 117.534 34.3237C116.736 34.0957 115.938 33.8677 114.912 33.7537C114.456 33.7537 113.886 33.6397 113.316 33.5257L111.492 33.2977C109.896 33.0697 108.528 32.8417 107.274 32.6137C105.564 32.1577 103.968 31.7017 102.6 31.0177C100.662 30.1057 99.0659 28.9657 97.6979 27.5977C96.8999 26.7997 96.2158 25.8877 95.7598 24.9757C95.1898 24.0637 94.7339 23.0377 94.3919 22.0117C94.0499 21.0997 93.9359 20.0737 93.8219 19.0477C93.8219 18.5917 93.7079 18.1357 93.7079 17.6797C93.7079 17.4517 93.7079 17.2237 93.7079 16.9957C93.7079 16.6537 93.7079 16.4257 93.7079 16.3117C93.8219 14.1457 94.3919 12.2077 95.3039 10.3837C96.2159 8.55967 97.4698 6.96367 99.1798 5.59567C100.548 4.45567 102.144 3.54367 103.968 2.74567C105.45 2.17567 107.16 1.71967 108.87 1.49167C110.124 1.26367 111.492 1.26367 112.746 1.26367C114.57 1.26367 116.394 1.49167 118.332 1.83367C120.042 2.17567 121.752 2.74567 123.12 3.54367C124.944 4.45567 126.54 5.59567 127.908 6.96367C129.39 8.44567 130.416 10.2697 131.214 12.3217C131.784 14.0317 132.126 15.9697 132.126 17.9077H130.302C130.302 16.0837 130.074 14.4877 129.504 12.8917C128.934 11.0677 127.908 9.58567 126.54 8.21767C125.4 6.96367 124.032 6.05167 122.322 5.25367C120.954 4.56967 119.586 4.11367 117.99 3.77167C116.28 3.42967 114.57 3.20167 112.746 3.20167C111.606 3.20167 110.352 3.31567 109.212 3.42967C107.616 3.65767 106.134 4.11367 104.766 4.56967C103.17 5.25367 101.688 6.05167 100.434 7.07767C98.9519 8.21767 97.8119 9.69967 97.0139 11.2957C96.2159 12.8917 95.6459 14.6017 95.5319 16.5397C95.5319 16.7677 95.5319 16.9957 95.5319 17.2237C95.5319 17.4517 95.5319 17.5657 95.5319 17.7937C95.5319 18.2497 95.5319 18.7057 95.6459 19.0477C95.7599 19.9597 95.8739 20.8717 96.2159 21.6697C96.5579 22.5817 96.8999 23.4937 97.3559 24.2917C97.8119 25.0897 98.3819 25.8877 99.0659 26.5717C100.206 27.8257 101.688 28.8517 103.398 29.5357C104.652 30.1057 106.134 30.5617 107.73 31.0177C108.87 31.2457 110.238 31.4737 111.72 31.7017L113.544 31.9297C114.228 32.0437 114.684 32.0437 115.254 32.1577C116.394 32.2717 117.306 32.4997 118.218 32.7277C119.13 32.9557 119.928 33.2977 120.498 33.6397C121.182 33.9817 121.638 34.3237 121.98 34.7797C122.322 35.1217 122.55 35.5777 122.664 36.1477C122.778 36.4897 122.778 36.7177 122.778 37.0597C122.778 37.4017 122.892 37.7437 122.778 38.0857C122.778 38.7697 122.55 39.3397 122.322 39.9097C122.094 40.3657 121.752 40.8217 121.296 41.2777C120.84 41.6197 120.27 41.9617 119.586 42.3037C118.218 42.8737 116.394 43.2157 114.342 43.2157H114C111.834 43.2157 110.01 42.9877 108.414 42.6457C107.502 42.4177 106.704 42.1897 106.134 41.8477C105.564 41.5057 104.994 41.1637 104.652 40.7077C104.31 40.3657 103.968 39.7957 103.854 39.2257C103.626 38.6557 103.512 37.9717 103.512 37.1737H105.222V36.6037ZM97.8119 36.6037C97.8119 37.9717 98.0399 39.2257 98.3819 40.3657C98.8379 41.6197 99.4078 42.7597 100.32 43.7857C101.118 44.6977 102.144 45.4957 103.398 46.1797C104.424 46.7497 105.564 47.2057 106.932 47.5477C108.984 48.1177 111.264 48.3457 113.886 48.3457H114.228C117.078 48.3457 119.472 47.8897 121.524 46.9777C122.778 46.4077 123.918 45.8377 124.83 45.0397C125.856 44.1277 126.654 43.1017 127.11 41.9617C127.68 40.8217 127.908 39.5677 128.022 38.1997C128.136 36.8317 128.022 35.5777 127.68 34.3237C127.338 33.0697 126.654 31.8157 125.856 30.9037C125.058 29.9917 124.032 29.1937 122.892 28.5097C121.068 27.4837 118.674 26.7997 115.71 26.4577C115.254 26.4577 114.684 26.3437 114 26.2297C113.088 26.1157 112.404 26.1157 112.29 26.0017C110.922 25.8877 109.782 25.6597 108.87 25.4317C107.616 25.2037 106.59 24.8617 105.678 24.4057C104.652 23.9497 103.74 23.2657 103.056 22.5817C102.372 21.7837 101.802 20.8717 101.46 19.8457C101.232 18.9337 101.118 17.7937 101.118 16.6537C101.232 15.5137 101.46 14.4877 101.916 13.5757C102.372 12.6637 103.056 11.8657 103.854 11.0677C105.45 9.81367 107.388 9.01567 109.896 8.55967C110.808 8.44567 111.72 8.33167 112.632 8.33167C114 8.33167 115.368 8.44567 116.736 8.78767C119.244 9.35767 121.182 10.2697 122.55 11.7517C123.234 12.5497 123.804 13.4617 124.26 14.4877C124.602 15.3997 124.716 16.4257 124.716 17.6797H122.892C122.892 16.7677 122.778 15.8557 122.436 15.0577C122.208 14.2597 121.752 13.6897 121.182 13.1197C120.156 11.9797 118.446 11.1817 116.28 10.7257C115.14 10.4977 113.886 10.2697 112.632 10.2697C111.834 10.2697 111.036 10.3837 110.238 10.4977C108.072 10.8397 106.362 11.5237 105.108 12.5497C103.74 13.5757 103.056 15.0577 102.942 16.7677C102.942 16.8817 102.942 16.9957 102.942 17.1097V17.4517C102.942 17.6797 102.942 17.9077 102.942 18.1357C102.942 18.5917 103.056 18.9337 103.17 19.3897C103.398 20.0737 103.74 20.7577 104.31 21.3277C105.336 22.3537 106.932 23.1517 109.212 23.7217C110.124 23.9497 111.15 24.0637 112.404 24.2917C112.632 24.2917 113.202 24.4057 114.114 24.5197C114.798 24.6337 115.482 24.6337 115.938 24.7477C117.306 24.9757 118.674 25.2037 119.814 25.4317C121.296 25.8877 122.55 26.3437 123.69 27.0277C125.058 27.8257 126.312 28.7377 127.224 29.8777C128.25 31.1317 129.048 32.4997 129.504 33.9817C129.732 34.6657 129.846 35.4637 129.96 36.2617C130.074 36.9457 130.074 37.7437 129.96 38.4277C129.846 40.0237 129.504 41.5057 128.934 42.8737C128.25 44.2417 127.338 45.4957 126.084 46.6357C125.058 47.5477 123.69 48.3457 122.322 49.0297C120.042 49.9417 117.42 50.3977 114.342 50.5117H114C111.264 50.5117 108.756 50.2837 106.476 49.7137C104.994 49.3717 103.74 48.8017 102.486 48.2317C101.118 47.4337 99.8639 46.5217 98.9519 45.4957C97.9259 44.3557 97.1279 42.9877 96.6719 41.3917C96.2159 40.0237 95.9879 38.6557 95.9879 37.0597H97.8119V36.6037ZM101.46 36.6037C101.46 37.6297 101.574 38.4277 101.802 39.2257C102.03 40.0237 102.486 40.7077 103.056 41.2777C104.082 42.4177 105.678 43.3297 107.73 43.7857C109.44 44.2417 111.492 44.4697 113.772 44.4697H114.114C116.394 44.4697 118.446 44.1277 120.042 43.4437C120.954 43.1017 121.638 42.6457 122.322 42.0757C123.006 41.5057 123.462 40.9357 123.804 40.1377C124.146 39.4537 124.374 38.6557 124.374 37.7437C124.374 37.2877 124.374 36.8317 124.374 36.3757C124.374 35.9197 124.26 35.4637 124.146 35.1217C123.918 34.3237 123.576 33.6397 123.006 33.0697C122.55 32.4997 121.866 31.9297 121.068 31.4737C119.7 30.6757 117.648 30.1057 115.254 29.7637C114.798 29.6497 114.228 29.6497 113.544 29.5357C112.632 29.4217 111.948 29.4217 111.72 29.3077C110.238 29.0797 108.984 28.9657 107.958 28.7377C106.476 28.3957 105.222 27.9397 103.968 27.3697C102.486 26.6857 101.232 25.7737 100.206 24.7477C99.0659 23.4937 98.2679 22.1257 97.8119 20.5297C97.5839 19.8457 97.4699 19.0477 97.3559 18.2497C97.3559 17.9077 97.3559 17.4517 97.3559 17.1097C97.3559 16.8817 97.3559 16.7677 97.3559 16.5397C97.3559 16.3117 97.3559 16.0837 97.3559 15.9697C97.4699 14.3737 97.8118 12.8917 98.6098 11.5237C99.2938 10.1557 100.32 8.90167 101.574 7.87567C102.714 6.96367 103.968 6.27967 105.45 5.70967C106.704 5.13967 108.072 4.79767 109.554 4.68367C110.58 4.45567 111.72 4.45567 112.86 4.45567C114.456 4.45567 116.052 4.68367 117.648 5.02567C119.13 5.36767 120.384 5.82367 121.638 6.39367C123.12 7.07767 124.26 7.98967 125.286 9.01567C126.426 10.1557 127.224 11.5237 127.794 13.0057C128.25 14.3737 128.478 15.8557 128.478 17.4517H126.654C126.654 16.0837 126.426 14.8297 126.084 13.6897C125.628 12.4357 124.944 11.2957 124.032 10.3837C123.12 9.47167 122.094 8.78767 120.954 8.10367C119.928 7.53367 118.674 7.19167 117.306 6.84967C115.824 6.50767 114.342 6.39367 112.86 6.39367C111.834 6.39367 110.922 6.50767 109.896 6.62167C108.642 6.84967 107.388 7.19167 106.248 7.53367C104.994 8.10367 103.854 8.67367 102.942 9.47167C101.916 10.3837 101.118 11.4097 100.434 12.5497C99.8639 13.6897 99.5219 14.9437 99.4079 16.3117C99.2939 17.6797 99.5219 19.0477 99.8639 20.1877C100.206 21.4417 100.89 22.5817 101.916 23.6077C102.714 24.5197 103.854 25.2037 105.108 25.7737C106.134 26.2297 107.274 26.6857 108.642 26.9137C109.668 27.1417 110.922 27.3697 112.29 27.4837C112.518 27.4837 113.088 27.5977 114 27.7117C114.684 27.8257 115.254 27.9397 115.71 27.9397C118.446 28.2817 120.612 28.9657 122.208 29.7637C123.234 30.3337 124.032 31.0177 124.716 31.7017C125.4 32.4997 125.856 33.4117 126.198 34.4377C126.54 35.4637 126.654 36.4897 126.54 37.6297C126.54 38.7697 126.198 39.7957 125.856 40.7077C125.4 41.6197 124.83 42.5317 124.032 43.2157C123.234 43.8997 122.322 44.4697 121.182 44.9257C119.358 45.7237 117.192 46.0657 114.57 46.0657H114.228C111.72 46.0657 109.554 45.8377 107.73 45.3817C105.222 44.6977 103.284 43.6717 102.03 42.3037C101.346 41.5057 100.776 40.5937 100.434 39.5677C100.092 38.6557 99.9779 37.5157 99.9779 36.3757H101.46V36.6037Z" fill="#A5A5A5"/>
<path d="M0.455078 64.078V60.772H1.70905C2.16505 60.772 2.62109 60.886 2.96309 61.228C3.30509 61.57 3.41905 61.912 3.41905 62.368C3.41905 62.824 3.30509 63.166 2.96309 63.508C2.62109 63.85 2.27905 63.964 1.70905 63.964H0.455078V64.078ZM1.13905 63.394H1.70905C2.05105 63.394 2.27909 63.28 2.39309 63.166C2.62109 62.938 2.62111 62.71 2.62111 62.482C2.62111 62.14 2.50709 61.912 2.39309 61.798C2.16509 61.57 1.93705 61.57 1.70905 61.57H1.13905V63.394Z" fill="#A5A5A5"/>
<path d="M7.06647 64.078V62.71L5.8125 60.772H6.61051L7.40846 62.026L8.20647 60.772H9.00449L7.75051 62.71V63.964H7.06647V64.078Z" fill="#A5A5A5"/>
<path d="M11.8555 64.078V60.772H12.5394L14.0215 62.824V60.772H14.7055V64.078H14.1355L12.5394 62.026V64.078H11.8555Z" fill="#A5A5A5"/>
<path d="M17.668 64.078L19.036 60.772H19.72L21.088 64.078H20.29L19.948 63.394H18.58L18.238 64.078H17.668ZM19.036 62.71H19.948L19.492 61.684L19.036 62.71Z" fill="#A5A5A5"/>
<path d="M24.0527 64.078V60.772H24.8507L25.7627 62.14L26.6747 60.772H27.4727V64.078H26.6747V61.912L25.7627 63.28L24.8507 61.912V64.078H24.0527Z" fill="#A5A5A5"/>
<path d="M30.5508 64.078V60.772H31.2348V64.078H30.5508Z" fill="#A5A5A5"/>
<path d="M36.0238 64.0777C35.5678 64.0777 35.1118 63.9637 34.8838 63.6217C34.5418 63.2797 34.4277 62.9377 34.4277 62.4817C34.4277 62.0257 34.5418 61.5697 34.8838 61.3417C35.2258 60.9997 35.5677 60.8857 36.1377 60.8857C36.4797 60.8857 36.7078 60.8857 36.8218 60.9997C37.0498 61.1137 37.1638 61.2277 37.3918 61.3417L36.9357 61.9117C36.7077 61.6837 36.3657 61.5697 36.1377 61.5697C35.9097 61.5697 35.6818 61.6837 35.4538 61.9117C35.2258 62.1397 35.2257 62.3677 35.2257 62.5957C35.2257 62.9377 35.3398 63.1657 35.4538 63.2797C35.6818 63.5077 35.9097 63.6217 36.1377 63.6217C36.3657 63.6217 36.4798 63.6217 36.5938 63.5077C36.7078 63.3937 36.8217 63.3937 37.0497 63.1657L37.5057 63.6217C37.2777 63.8497 37.1637 63.9637 36.9357 64.0777C36.5937 64.0777 36.3658 64.0777 36.0238 64.0777Z" fill="#A5A5A5"/>
<path d="M45.37 64.0777C44.8 64.0777 44.344 63.8497 44.002 63.5077L44.4579 63.0517C44.7999 63.2797 45.1419 63.3937 45.4839 63.3937C45.5979 63.3937 45.7119 63.3937 45.8259 63.2797C45.9399 63.2797 45.94 63.1657 45.94 63.0517C45.94 62.9377 45.9399 62.9377 45.8259 62.8237C45.7119 62.7097 45.5979 62.7097 45.2559 62.5957C45.0279 62.5957 44.914 62.4817 44.8 62.4817C44.686 62.4817 44.5719 62.3677 44.4579 62.2537C44.3439 62.1397 44.23 62.1397 44.23 62.0257C44.23 61.9117 44.1159 61.7977 44.1159 61.5697C44.1159 61.2277 44.2299 60.9997 44.4579 60.8857C44.6859 60.6577 44.9139 60.6577 45.2559 60.6577C45.7119 60.6577 46.168 60.7717 46.51 61.1137L46.1679 61.6837C45.8259 61.4557 45.598 61.3417 45.37 61.3417C45.256 61.3417 45.1419 61.3417 45.0279 61.4557C44.9139 61.4557 44.9139 61.5697 44.9139 61.6837C44.9139 61.7977 44.9139 61.9117 45.0279 61.9117C45.1419 61.9117 45.2559 62.0257 45.5979 62.1397C45.9399 62.2537 46.1679 62.3677 46.3959 62.4817C46.5099 62.5957 46.6239 62.8237 46.6239 63.0517C46.6239 63.3937 46.51 63.6217 46.282 63.8497C46.054 63.9637 45.712 64.0777 45.37 64.0777Z" fill="#A5A5A5"/>
<path d="M49.5879 64.078V60.772H52.0959V61.456H50.3859V62.14H51.8679V62.71H50.3859V63.394H52.2099V64.078H49.5879Z" fill="#A5A5A5"/>
<path d="M55.1758 64.078V60.772H56.6578C57.1138 60.772 57.3418 60.886 57.5698 61.114C57.7978 61.342 57.7978 61.57 57.7978 61.912C57.7978 62.368 57.5698 62.71 57.1138 62.938L57.9118 64.078H57.1138L56.4298 63.052H55.8598V64.078H55.1758ZM55.8598 62.368H56.5438C56.6578 62.368 56.8858 62.368 56.9998 62.254C57.1138 62.14 57.1138 62.026 57.1138 61.912C57.1138 61.798 57.1138 61.684 56.9998 61.57C56.8858 61.456 56.7718 61.456 56.5438 61.456H55.8598V62.368Z" fill="#A5A5A5"/>
<path d="M61.8993 64.078L60.5312 60.772H61.3293L62.1272 63.052L62.9252 60.772H63.7232L62.3552 64.078H61.8993Z" fill="#A5A5A5"/>
<path d="M66.8027 64.078V60.772H67.4867V64.078H66.8027Z" fill="#A5A5A5"/>
<path d="M72.2738 64.0777C71.8178 64.0777 71.3618 63.9637 71.1338 63.6217C70.7918 63.2797 70.6777 62.9377 70.6777 62.4817C70.6777 62.0257 70.7918 61.5697 71.1338 61.3417C71.4758 60.9997 71.8177 60.8857 72.3877 60.8857C72.7297 60.8857 72.9578 60.8857 73.0718 60.9997C73.2998 61.1137 73.4138 61.2277 73.6418 61.3417L73.1857 61.9117C72.9577 61.6837 72.6157 61.5697 72.3877 61.5697C72.1597 61.5697 71.9318 61.6837 71.7038 61.9117C71.4758 62.1397 71.4757 62.3677 71.4757 62.5957C71.4757 62.9377 71.5898 63.1657 71.7038 63.2797C71.9318 63.5077 72.1597 63.6217 72.3877 63.6217C72.6157 63.6217 72.7298 63.6217 72.8438 63.5077C72.9578 63.3937 73.0718 63.3937 73.2998 63.1657L73.7557 63.6217C73.5277 63.8497 73.4137 63.9637 73.1857 64.0777C72.8437 64.0777 72.5018 64.0777 72.2738 64.0777Z" fill="#A5A5A5"/>
<path d="M76.6074 64.078V60.772H79.1154V61.456H77.4054V62.14H78.8874V62.71H77.4054V63.394H79.2294V64.078H76.6074Z" fill="#A5A5A5"/>
<path d="M83.3329 64.0777C82.7629 64.0777 82.3068 63.8497 81.9648 63.5077L82.4209 63.0517C82.7629 63.2797 83.1048 63.3937 83.4468 63.3937C83.5608 63.3937 83.6748 63.3937 83.7888 63.2797C83.9028 63.2797 83.9029 63.1657 83.9029 63.0517C83.9029 62.9377 83.9028 62.9377 83.7888 62.8237C83.6748 62.7097 83.5608 62.7097 83.2188 62.5957C82.9908 62.5957 82.8769 62.4817 82.7629 62.4817C82.6489 62.4817 82.5349 62.3677 82.4209 62.2537C82.3069 62.1397 82.1929 62.1397 82.1929 62.0257C82.1929 61.9117 82.0788 61.7977 82.0788 61.5697C82.0788 61.2277 82.1929 60.9997 82.4209 60.8857C82.6489 60.6577 82.8768 60.6577 83.2188 60.6577C83.6748 60.6577 84.1309 60.7717 84.4729 61.1137L84.1309 61.6837C83.7889 61.4557 83.5609 61.3417 83.3329 61.3417C83.2189 61.3417 83.1049 61.3417 82.9909 61.4557C82.8769 61.4557 82.8768 61.5697 82.8768 61.6837C82.8768 61.7977 82.8769 61.9117 82.9909 61.9117C83.1049 61.9117 83.2189 62.0257 83.5609 62.1397C83.9029 62.2537 84.1308 62.3677 84.3588 62.4817C84.4728 62.5957 84.5868 62.8237 84.5868 63.0517C84.5868 63.3937 84.4728 63.6217 84.2448 63.8497C83.9028 63.9637 83.6749 64.0777 83.3329 64.0777Z" fill="#A5A5A5"/>
<path d="M92.454 64.0777C91.884 64.0777 91.4279 63.8497 91.0859 63.5077L91.542 63.0517C91.884 63.2797 92.2259 63.3937 92.5679 63.3937C92.6819 63.3937 92.7959 63.3937 92.9099 63.2797C93.0239 63.2797 93.024 63.1657 93.024 63.0517C93.024 62.9377 93.0239 62.9377 92.9099 62.8237C92.7959 62.7097 92.6819 62.7097 92.3399 62.5957C92.1119 62.5957 91.998 62.4817 91.884 62.4817C91.77 62.4817 91.656 62.3677 91.542 62.2537C91.428 62.1397 91.314 62.1397 91.314 62.0257C91.314 61.9117 91.1999 61.7977 91.1999 61.5697C91.1999 61.2277 91.314 60.9997 91.542 60.8857C91.77 60.6577 91.9979 60.6577 92.3399 60.6577C92.7959 60.6577 93.252 60.7717 93.594 61.1137L93.252 61.6837C92.91 61.4557 92.682 61.3417 92.454 61.3417C92.34 61.3417 92.226 61.3417 92.112 61.4557C91.998 61.4557 91.9979 61.5697 91.9979 61.6837C91.9979 61.7977 91.998 61.9117 92.112 61.9117C92.226 61.9117 92.34 62.0257 92.682 62.1397C93.024 62.2537 93.2519 62.3677 93.4799 62.4817C93.5939 62.5957 93.7079 62.8237 93.7079 63.0517C93.7079 63.3937 93.5939 63.6217 93.3659 63.8497C93.1379 63.9637 92.91 64.0777 92.454 64.0777Z" fill="#A5A5A5"/>
<path d="M99.5226 63.6217C99.1806 63.9637 98.7246 64.0777 98.2686 64.0777C97.8126 64.0777 97.3566 63.9637 97.0146 63.6217C96.6726 63.2797 96.5586 62.9377 96.5586 62.4817C96.5586 62.0257 96.6726 61.5697 97.0146 61.3417C97.3566 60.9997 97.8126 60.8857 98.2686 60.8857C98.7246 60.8857 99.1806 60.9997 99.5226 61.3417C99.8646 61.6837 99.9786 62.0257 99.9786 62.4817C100.093 62.8237 99.8646 63.2797 99.5226 63.6217ZM97.5846 63.1657C97.8126 63.3937 98.0406 63.5077 98.2686 63.5077C98.6106 63.5077 98.8386 63.3937 98.9526 63.1657C99.1806 62.9377 99.1806 62.7097 99.1806 62.4817C99.1806 62.1397 99.0666 61.9117 98.9526 61.7977C98.7246 61.5697 98.4966 61.4557 98.2686 61.4557C97.9266 61.4557 97.6986 61.5697 97.5846 61.7977C97.3566 62.0257 97.3566 62.2537 97.3566 62.4817C97.3566 62.7097 97.4706 62.9377 97.5846 63.1657Z" fill="#A5A5A5"/>
<path d="M103.055 64.078V60.772H103.739V63.394H105.335V64.078H103.055Z" fill="#A5A5A5"/>
<path d="M109.667 64.0777C109.211 64.0777 108.869 63.9637 108.641 63.7357C108.413 63.5077 108.299 63.1657 108.299 62.7097V60.8857H108.983V62.7097C108.983 62.9377 109.097 63.1657 109.211 63.2797C109.325 63.3937 109.553 63.5077 109.781 63.5077C110.009 63.5077 110.123 63.3937 110.351 63.2797C110.465 63.1657 110.579 62.9377 110.579 62.7097V60.8857H111.263V62.7097C111.263 63.1657 111.149 63.5077 110.921 63.8497C110.465 63.9637 110.123 64.0777 109.667 64.0777Z" fill="#A5A5A5"/>
<path d="M115.024 64.078V61.456H113.998V60.772H116.734V61.456H115.708V64.078H115.024Z" fill="#A5A5A5"/>
<path d="M119.699 64.078V60.772H120.383V64.078H119.699Z" fill="#A5A5A5"/>
<path d="M126.538 63.6217C126.196 63.9637 125.74 64.0777 125.284 64.0777C124.828 64.0777 124.372 63.9637 124.03 63.6217C123.688 63.2797 123.574 62.9377 123.574 62.4817C123.574 62.0257 123.688 61.5697 124.03 61.3417C124.372 60.9997 124.828 60.8857 125.284 60.8857C125.74 60.8857 126.196 60.9997 126.538 61.3417C126.88 61.6837 126.994 62.0257 126.994 62.4817C126.994 62.8237 126.766 63.2797 126.538 63.6217ZM124.6 63.1657C124.828 63.3937 125.056 63.5077 125.284 63.5077C125.512 63.5077 125.854 63.3937 125.968 63.1657C126.196 62.9377 126.196 62.7097 126.196 62.4817C126.196 62.1397 126.082 61.9117 125.968 61.7977C125.74 61.5697 125.512 61.4557 125.284 61.4557C124.942 61.4557 124.714 61.5697 124.6 61.7977C124.486 62.0257 124.372 62.2537 124.372 62.4817C124.258 62.7097 124.372 62.9377 124.6 63.1657Z" fill="#A5A5A5"/>
<path d="M130.072 64.078V60.772H130.756L132.238 62.824V60.772H132.922V64.078H132.352L130.756 62.026V64.078H130.072Z" fill="#A5A5A5"/>
</svg>
