<svg width="118" height="56" viewBox="0 0 118 56" fill="none" xmlns="http://www.w3.org/2000/svg">
<path d="M15.1 46.7004H0V0.400391H15.3C15.6 0.400391 15.8 0.400391 15.9 0.400391C16.8 0.400391 17.7 0.500392 18.5 0.700392C20.3 1.00039 22 1.40039 23.6 2.10039C27 3.40039 29.8 5.50039 32.3 8.20039C34.7001 10.9004 36.4 14.0004 37.4 17.5004C37.9 19.2004 38.1 21.0004 38.2 22.8004C38.3 24.6004 38.2001 26.3004 37.8 28.1004C37.1 31.7004 35.7 34.9004 33.5 37.8004C31.3 40.7004 28.6 42.9004 25.4 44.5004C22.1 45.9004 18.7 46.7004 15.1 46.7004V45.1004C18.5 45.1004 21.7 44.4004 24.7 42.9004C27.7 41.4004 30.2 39.3004 32.3 36.6004C34.4 33.9004 35.7001 30.9004 36.3 27.6004C36.9 24.3004 36.8 21.0004 35.9 17.8004C35 14.6004 33.4 11.7004 31.2 9.20039C29 6.70039 26.3 4.80039 23.2 3.60039C21.7 3.00039 20.1 2.50039 18.4 2.30039C17.6 2.20039 16.8 2.10039 15.9 2.10039C15.7 2.10039 15.5 2.10039 15.3 2.10039H1.70001V45.2004H15.2V46.7004H15.1ZM15.1 43.5004H3.20001V3.70039H15.2C15.5 3.70039 15.7 3.70039 15.8 3.70039C16.6 3.70039 17.3 3.80039 18.1 3.90039C19.6 4.10039 21.1 4.50039 22.5 5.10039C25.4 6.30039 27.9 8.00039 29.9 10.3004C32 12.6004 33.4 15.3004 34.3 18.3004C35.1 21.3004 35.3 24.3004 34.7 27.4004C34.1 30.5004 32.9 33.2004 31 35.7004C29.1 38.2004 26.8 40.1004 24 41.5004C21.1 42.8004 18.2 43.5004 15.1 43.5004V41.9004C18 41.9004 20.7 41.3004 23.2 40.0004C25.8 38.7004 27.9 37.0004 29.7 34.7004C31.4 32.4004 32.6 29.9004 33.1 27.1004C33.6 24.3004 33.5 21.5004 32.8 18.8004C32 16.0004 30.7 13.6004 28.8 11.5004C26.9 9.40039 24.6 7.80039 22 6.70039C20.7 6.20039 19.4 5.80039 18 5.60039C17.3 5.50039 16.6 5.40039 15.9 5.40039C15.9 5.40039 15.2 5.40039 13.9 5.40039H5.10004V42.0004H15.3V43.5004H15.1ZM15.1 40.3004H6.40002V6.90039H13.6C14.9 6.90039 15.5 6.90039 15.6 6.90039C16.3 6.90039 16.9 7.00039 17.5 7.10039C18.8 7.30039 20 7.60039 21.2 8.10039C23.6 9.10039 25.7 10.5004 27.4 12.5004C29.1 14.5004 30.4 16.7004 31 19.2004C31.7 21.7004 31.8 24.2004 31.3 26.8004C30.8 29.4004 29.8 31.7004 28.2 33.7004C26.6 35.8004 24.6 37.4004 22.3 38.5004C20.1 39.7004 17.7 40.3004 15.1 40.3004V38.7004C17.4 38.7004 19.7 38.2004 21.8 37.1004C23.9 36.1004 25.7 34.6004 27.1 32.7004C28.5 30.8004 29.5 28.7004 29.9 26.4004C30.3 24.1004 30.2 21.8004 29.6 19.5004C29 17.2004 27.9 15.2004 26.3 13.5004C24.7 11.7004 22.9 10.4004 20.7 9.60039C19.6 9.10039 18.5 8.80039 17.4 8.70039C16.8 8.60039 16.3 8.60039 15.7 8.60039C15.6 8.60039 15.5 8.60039 15.3 8.60039H8.20001V38.7004H15.2V40.3004H15.1ZM15.1 37.1004H9.70001V10.2004H15.2C15.4 10.2004 15.5 10.2004 15.6 10.2004C16.1 10.2004 16.6 10.3004 17.1 10.3004C18.1 10.5004 19.1 10.7004 20.1 11.1004C22.1 11.9004 23.7 13.1004 25.1 14.6004C26.5 16.2004 27.5 18.0004 28 20.0004C28.6 22.0004 28.6 24.1004 28.2 26.1004C27.8 28.1004 27 30.0004 25.7 31.7004C24.4 33.4004 22.8 34.7004 21 35.6004C19.2 36.6004 17.2 37.1004 15.1 37.1004V35.5004C17 35.5004 18.7 35.1004 20.3 34.3004C22 33.5004 23.3 32.3004 24.5 30.8004C25.6 29.3004 26.4 27.7004 26.7 25.9004C26.9 25.0004 26.9 24.1004 26.9 23.2004C26.9 22.3004 26.7 21.4004 26.5 20.5004C26 18.7004 25.1 17.2004 23.9 15.8004C22.7 14.4004 21.2 13.4004 19.5 12.7004C18.7 12.4004 17.8 12.1004 16.9 12.0004C16.5 11.9004 16 11.9004 15.5 11.9004C15.4 11.9004 15.3 11.9004 15.1 11.9004H11.3V35.5004H15.1V37.1004Z" fill="#9D1853"/>
<path d="M76.5001 38.2002C75.7001 39.9002 74.7001 41.3002 73.3001 42.6002C72.1001 43.7002 70.7001 44.5002 69.0001 45.2002C67.7001 45.7002 66.3001 46.1002 64.8001 46.4002C63.5001 46.6002 62.2001 46.7002 60.8001 46.8002H60.4001C60.2001 46.8002 60.1001 46.8002 59.9001 46.8002C59.6001 46.8002 59.3001 46.8002 59.0001 46.8002C58.4001 46.8002 57.8001 46.7002 57.1001 46.7002C55.7001 46.6002 54.4001 46.3002 53.2001 46.0002C51.7001 45.6002 50.3001 45.1002 49.0001 44.4002C47.4001 43.6002 46.1001 42.5002 45.0001 41.2002C43.8001 39.8002 42.9001 38.3002 42.3001 36.5002C41.8001 35.0002 41.6001 33.4002 41.6001 31.7002H43.2001C43.2001 33.2002 43.4001 34.7002 43.8001 36.0002C44.3001 37.5002 45.1001 38.9002 46.2001 40.1002C47.2001 41.2002 48.4001 42.1002 49.8001 42.9002C50.9001 43.5002 52.2001 44.0002 53.6001 44.4002C54.7001 44.7002 56.0001 44.9002 57.3001 45.0002C58.3001 45.1002 59.4001 45.2002 60.5001 45.2002H60.9001C62.2001 45.2002 63.4001 45.1002 64.6001 44.9002C66.0001 44.7002 67.3001 44.3002 68.5001 43.8002C69.9001 43.2002 71.2001 42.4002 72.3001 41.5002C73.5001 40.4002 74.5001 39.2002 75.2001 37.7002C75.8001 36.3002 76.2001 34.8002 76.3001 33.2002C76.3001 32.5002 76.3001 31.7002 76.2001 31.0002C76.1001 30.2002 76.0001 29.5002 75.8001 28.8002C75.4001 27.2002 74.6001 25.8002 73.5001 24.5002C72.5001 23.4002 71.3001 22.4002 69.9001 21.7002C68.8001 21.1002 67.6001 20.6002 66.2001 20.2002C65.1001 19.9002 63.9001 19.7002 62.6001 19.5002C62.1001 19.4002 61.6001 19.4002 60.9001 19.3002L59.4001 19.1002C58.3001 19.0002 57.5001 18.9002 56.7001 18.7002C55.9001 18.5002 55.1001 18.3002 54.6001 18.0002C54.0001 17.7002 53.6001 17.4002 53.2001 17.1002C52.9001 16.8002 52.7001 16.5002 52.6001 16.1002C52.5001 15.9002 52.5001 15.6002 52.4001 15.4002C52.4001 15.3002 52.4001 15.1002 52.4001 14.9002V14.7002C52.4001 14.6002 52.4001 14.5002 52.4001 14.5002C52.4001 14.0002 52.5001 13.5002 52.8001 13.1002C53.0001 12.7002 53.3001 12.3002 53.7001 12.0002C54.6001 11.2002 55.8001 10.8002 57.4001 10.5002C58.0001 10.4002 58.7001 10.3002 59.3001 10.3002C60.3001 10.3002 61.2001 10.4002 62.1001 10.6002C62.9001 10.8002 63.6001 11.0002 64.2001 11.3002C64.8001 11.6002 65.2001 11.9002 65.6001 12.3002C65.9001 12.6002 66.2001 13.0002 66.3001 13.5002C66.5001 14.0002 66.6001 14.6002 66.6001 15.2002H65.0001C65.0001 14.7002 64.9001 14.3002 64.8001 14.0002C64.7001 13.8002 64.6001 13.6002 64.4001 13.4002C64.2001 13.2002 63.9001 13.0002 63.5001 12.8002C63.0001 12.6002 62.5001 12.4002 61.8001 12.3002C61.0001 12.1002 60.2001 12.0002 59.3001 12.0002C58.7001 12.0002 58.2001 12.0002 57.6001 12.1002C57.0001 12.2002 56.4001 12.4002 55.9001 12.6002C55.4001 12.8002 55.0001 13.0002 54.7001 13.2002C54.5001 13.4002 54.3001 13.6002 54.2001 13.8002C54.1001 14.0002 54.0001 14.3002 54.0001 14.6002C54.0001 14.6002 54.0001 14.7002 54.0001 14.8002V15.0002C54.0001 15.1002 54.0001 15.2002 54.0001 15.3002C54.0001 15.5002 54.1001 15.6002 54.1001 15.8002C54.1001 16.0002 54.2001 16.1002 54.3001 16.2002C54.5001 16.4002 54.8001 16.6002 55.2001 16.7002C55.7001 16.9002 56.3001 17.1002 57.0001 17.3002C57.7001 17.5002 58.5001 17.6002 59.5001 17.7002L61.0001 17.9002C61.6001 18.0002 62.2001 18.0002 62.7001 18.1002C64.1001 18.3002 65.3001 18.5002 66.5001 18.8002C68.0001 19.2002 69.4001 19.8002 70.6001 20.4002C72.2001 21.3002 73.5001 22.3002 74.7001 23.6002C75.3001 24.3002 75.8001 25.1002 76.3001 25.9002C76.7001 26.7002 77.1001 27.5002 77.3001 28.5002C77.5001 29.3002 77.7001 30.2002 77.8001 31.1002C77.9001 31.9002 77.9001 32.7002 77.9001 33.5002C77.7001 35.0002 77.2001 36.7002 76.5001 38.2002ZM52.9001 31.7002C52.9001 32.2002 53.0001 32.7002 53.1001 33.0002C53.2001 33.3002 53.3001 33.5002 53.5001 33.7002C53.7001 33.9002 54.0001 34.1002 54.4001 34.3002C54.9001 34.5002 55.4001 34.7002 56.0001 34.9002C57.2001 35.2002 58.7001 35.4002 60.5001 35.4002C60.6001 35.4002 60.7001 35.4002 60.8001 35.4002C62.4001 35.4002 63.8001 35.2002 64.8001 34.8002C65.2001 34.6002 65.6001 34.4002 65.9001 34.2002C66.1001 34.0002 66.2001 33.8002 66.4001 33.6002C66.5001 33.3002 66.6001 33.0002 66.6001 32.7002C66.6001 32.5002 66.6001 32.2002 66.6001 32.0002C66.6001 31.8002 66.5001 31.6002 66.5001 31.5002C66.4001 31.3002 66.3001 31.1002 66.2001 30.9002C66.0001 30.7002 65.8001 30.5002 65.4001 30.3002C64.9001 30.0002 64.3001 29.8002 63.7001 29.7002C63.0001 29.5002 62.3001 29.3002 61.4001 29.2002C61.0001 29.2002 60.5001 29.1002 60.0001 29.0002L58.4001 28.8002C57.0001 28.6002 55.8001 28.4002 54.7001 28.2002C53.2001 27.8002 51.8001 27.4002 50.6001 26.8002C48.9001 26.0002 47.5001 25.0002 46.3001 23.8002C45.6001 23.1002 45.0001 22.3002 44.6001 21.5002C44.1001 20.7002 43.7001 19.8002 43.4001 18.9002C43.1001 18.1002 43.0001 17.2002 42.9001 16.3002C42.9001 15.9002 42.8001 15.5002 42.8001 15.1002C42.8001 14.9002 42.8001 14.7002 42.8001 14.5002C42.8001 14.2002 42.8001 14.0002 42.8001 13.9002C42.9001 12.0002 43.4001 10.3002 44.2001 8.70019C45.0001 7.10019 46.1001 5.70019 47.6001 4.50019C48.8001 3.50019 50.2001 2.70019 51.8001 2.00019C53.1001 1.50019 54.6001 1.10019 56.1001 0.900194C57.2001 0.700194 58.4001 0.700195 59.5001 0.700195C61.1001 0.700195 62.7001 0.900195 64.4001 1.2002C65.9001 1.5002 67.4001 2.0002 68.6001 2.7002C70.2001 3.5002 71.6001 4.50019 72.8001 5.70019C74.1001 7.00019 75.0001 8.60019 75.7001 10.4002C76.2001 11.9002 76.5001 13.6002 76.5001 15.3002H74.9001C74.9001 13.7002 74.7001 12.3002 74.2001 10.9002C73.7001 9.30019 72.8001 8.0002 71.6001 6.8002C70.6001 5.7002 69.4001 4.9002 67.9001 4.2002C66.7001 3.6002 65.5001 3.20019 64.1001 2.90019C62.6001 2.60019 61.1001 2.40019 59.5001 2.40019C58.5001 2.40019 57.4001 2.50019 56.4001 2.60019C55.0001 2.80019 53.7001 3.20019 52.5001 3.60019C51.1001 4.20019 49.8001 4.9002 48.7001 5.8002C47.4001 6.8002 46.4001 8.1002 45.7001 9.5002C45.0001 10.9002 44.5001 12.4002 44.4001 14.1002C44.4001 14.3002 44.4001 14.5002 44.4001 14.7002C44.4001 14.9002 44.4001 15.0002 44.4001 15.2002C44.4001 15.6002 44.4001 16.0002 44.5001 16.3002C44.6001 17.1002 44.7001 17.9002 45.0001 18.6002C45.3001 19.4002 45.6001 20.2002 46.0001 20.9002C46.4001 21.6002 46.9001 22.3002 47.5001 22.9002C48.5001 24.0002 49.8001 24.9002 51.3001 25.5002C52.4001 26.0002 53.7001 26.4002 55.1001 26.8002C56.1001 27.0002 57.3001 27.2002 58.6001 27.4002L60.2001 27.6002C60.8001 27.7002 61.2001 27.7002 61.7001 27.8002C62.7001 27.9002 63.5001 28.1002 64.3001 28.3002C65.1001 28.5002 65.8001 28.8002 66.3001 29.1002C66.9001 29.4002 67.3001 29.7002 67.6001 30.1002C67.9001 30.4002 68.1001 30.8002 68.2001 31.3002C68.3001 31.6002 68.3001 31.8002 68.3001 32.1002C68.3001 32.4002 68.4001 32.7002 68.3001 33.0002C68.3001 33.6002 68.1001 34.1002 67.9001 34.6002C67.7001 35.0002 67.4001 35.4002 67.0001 35.8002C66.6001 36.1002 66.1001 36.4002 65.5001 36.7002C64.3001 37.2002 62.7001 37.5002 60.9001 37.5002H60.4001C58.5001 37.5002 56.9001 37.3002 55.5001 37.0002C54.7001 36.8002 54.0001 36.6002 53.5001 36.3002C53.0001 36.0002 52.5001 35.7002 52.2001 35.3002C51.9001 35.0002 51.6001 34.5002 51.5001 34.0002C51.3001 33.5002 51.2001 32.9002 51.2001 32.2002H52.9001V31.7002ZM46.4001 31.7002C46.4001 32.9002 46.6001 34.0002 46.9001 35.0002C47.3001 36.1002 47.8001 37.1002 48.6001 38.0002C49.3001 38.8002 50.2001 39.5002 51.3001 40.1002C52.2001 40.6002 53.2001 41.0002 54.4001 41.3002C56.2001 41.8002 58.2001 42.0002 60.5001 42.0002H60.8001C63.3001 42.0002 65.4001 41.6002 67.2001 40.8002C68.3001 40.3002 69.3001 39.8002 70.1001 39.1002C71.0001 38.3002 71.7001 37.4002 72.1001 36.4002C72.6001 35.4002 72.8001 34.3002 72.9001 33.1002C73.0001 31.9002 72.9001 30.8002 72.6001 29.7002C72.3001 28.6002 71.7001 27.5002 71.0001 26.7002C70.3001 25.9002 69.4001 25.2002 68.4001 24.6002C66.8001 23.7002 64.7001 23.1002 62.1001 22.8002C61.7001 22.8002 61.2001 22.7002 60.6001 22.6002C59.8001 22.5002 59.2001 22.5002 59.1001 22.4002C57.9001 22.3002 56.9001 22.1002 56.1001 21.9002C55.0001 21.7002 54.1001 21.4002 53.3001 21.0002C52.4001 20.6002 51.6001 20.0002 51.0001 19.4002C50.4001 18.7002 49.9001 17.9002 49.6001 17.0002C49.4001 16.2002 49.3001 15.2002 49.3001 14.2002C49.4001 13.2002 49.6001 12.3002 50.0001 11.5002C50.4001 10.7002 51.0001 10.0002 51.7001 9.3002C53.1001 8.2002 54.8001 7.5002 57.0001 7.10019C57.8001 7.0002 58.6001 6.90019 59.4001 6.90019C60.6001 6.90019 61.8001 7.0002 63.0001 7.3002C65.2001 7.8002 66.9001 8.60019 68.1001 9.90019C68.7001 10.6002 69.2001 11.4002 69.6001 12.3002C69.9001 13.1002 70.0001 14.0002 70.0001 15.1002H68.4001C68.4001 14.3002 68.3001 13.5002 68.0001 12.8002C67.8001 12.1002 67.4001 11.6002 66.9001 11.1002C66.0001 10.1002 64.5001 9.4002 62.6001 9.0002C61.6001 8.8002 60.5001 8.60019 59.4001 8.60019C58.7001 8.60019 58.0001 8.7002 57.3001 8.8002C55.4001 9.1002 53.9001 9.7002 52.8001 10.6002C51.6001 11.5002 51.0001 12.8002 50.9001 14.3002C50.9001 14.4002 50.9001 14.5002 50.9001 14.6002V14.9002C50.9001 15.1002 50.9001 15.3002 50.9001 15.5002C50.9001 15.9002 51.0001 16.2002 51.1001 16.6002C51.3001 17.2002 51.6001 17.8002 52.1001 18.3002C53.0001 19.2002 54.4001 19.9002 56.4001 20.4002C57.2001 20.6002 58.1001 20.7002 59.2001 20.9002C59.4001 20.9002 59.9001 21.0002 60.7001 21.1002C61.3001 21.2002 61.9001 21.2002 62.3001 21.3002C63.5001 21.5002 64.7001 21.7002 65.7001 21.9002C67.0001 22.3002 68.1001 22.7002 69.1001 23.3002C70.3001 24.0002 71.4001 24.8002 72.2001 25.8002C73.1001 26.9002 73.8001 28.1002 74.2001 29.4002C74.4001 30.0002 74.5001 30.7002 74.6001 31.4002C74.7001 32.0002 74.7001 32.7002 74.6001 33.3002C74.5001 34.7002 74.2001 36.0002 73.7001 37.2002C73.1001 38.4002 72.3001 39.5002 71.2001 40.5002C70.3001 41.3002 69.1001 42.0002 67.9001 42.6002C65.9001 43.4002 63.6001 43.8002 60.9001 43.9002H60.6001C58.2001 43.9002 56.0001 43.7002 54.0001 43.2002C52.7001 42.9002 51.6001 42.4002 50.5001 41.9002C49.3001 41.2002 48.2001 40.4002 47.4001 39.5002C46.5001 38.5002 45.8001 37.3002 45.4001 35.9002C45.0001 34.7002 44.8001 33.5002 44.8001 32.1002H46.4001V31.7002ZM49.6001 31.7002C49.6001 32.6002 49.7001 33.3002 49.9001 34.0002C50.1001 34.7002 50.5001 35.3002 51.0001 35.8002C51.9001 36.8002 53.3001 37.6002 55.1001 38.0002C56.6001 38.4002 58.4001 38.6002 60.4001 38.6002H60.7001C62.7001 38.6002 64.5001 38.3002 65.9001 37.7002C66.7001 37.4002 67.3001 37.0002 67.9001 36.5002C68.5001 36.0002 68.9001 35.5002 69.2001 34.8002C69.5001 34.2002 69.7001 33.5002 69.7001 32.7002C69.7001 32.3002 69.7001 31.9002 69.7001 31.5002C69.7001 31.1002 69.6001 30.7002 69.5001 30.4002C69.3001 29.7002 69.0001 29.1002 68.5001 28.6002C68.1001 28.1002 67.5001 27.6002 66.8001 27.2002C65.6001 26.5002 63.8001 26.0002 61.7001 25.7002C61.3001 25.6002 60.8001 25.6002 60.2001 25.5002C59.4001 25.4002 58.8001 25.4002 58.6001 25.3002C57.3001 25.1002 56.2001 25.0002 55.3001 24.8002C54.0001 24.5002 52.9001 24.1002 51.8001 23.6002C50.5001 23.0002 49.4001 22.2002 48.5001 21.3002C47.5001 20.2002 46.8001 19.0002 46.4001 17.6002C46.2001 17.0002 46.1001 16.3002 46.0001 15.6002C46.0001 15.3002 46.0001 14.9002 46.0001 14.6002C46.0001 14.4002 46.0001 14.3002 46.0001 14.1002C46.0001 13.9002 46.0001 13.7002 46.0001 13.6002C46.1001 12.2002 46.4001 10.9002 47.1001 9.70019C47.7001 8.50019 48.6001 7.4002 49.7001 6.5002C50.7001 5.7002 51.8001 5.10019 53.1001 4.60019C54.2001 4.10019 55.4001 3.8002 56.7001 3.7002C57.6001 3.5002 58.6001 3.50019 59.6001 3.50019C61.0001 3.50019 62.4001 3.70019 63.8001 4.00019C65.1001 4.30019 66.2001 4.7002 67.3001 5.2002C68.6001 5.8002 69.6001 6.6002 70.5001 7.5002C71.5001 8.5002 72.2001 9.7002 72.7001 11.0002C73.1001 12.2002 73.3001 13.5002 73.3001 14.9002H71.4001C71.4001 13.7002 71.2001 12.6002 70.9001 11.6002C70.5001 10.5002 69.9001 9.50019 69.1001 8.70019C68.3001 7.90019 67.4001 7.30019 66.4001 6.70019C65.5001 6.20019 64.4001 5.9002 63.2001 5.60019C61.9001 5.30019 60.6001 5.2002 59.3001 5.2002C58.4001 5.2002 57.6001 5.30019 56.7001 5.40019C55.6001 5.60019 54.5001 5.90019 53.5001 6.20019C52.4001 6.70019 51.4001 7.20019 50.6001 7.90019C49.7001 8.70019 49.0001 9.60019 48.4001 10.6002C47.9001 11.6002 47.6001 12.7002 47.5001 13.9002C47.4001 15.1002 47.6001 16.3002 47.9001 17.3002C48.2001 18.4002 48.8001 19.4002 49.7001 20.3002C50.4001 21.1002 51.4001 21.7002 52.5001 22.2002C53.4001 22.6002 54.4001 23.0002 55.6001 23.2002C56.5001 23.4002 57.6001 23.6002 58.8001 23.7002C59.0001 23.7002 59.5001 23.8002 60.3001 23.9002C60.9001 24.0002 61.4001 24.1002 61.8001 24.1002C64.2001 24.4002 66.1001 25.0002 67.5001 25.7002C68.4001 26.2002 69.1001 26.8002 69.7001 27.4002C70.3001 28.1002 70.7001 28.9002 71.0001 29.8002C71.3001 30.7002 71.4001 31.6002 71.3001 32.6002C71.3001 33.6002 71.0001 34.5002 70.7001 35.3002C70.3001 36.1002 69.8001 36.9002 69.1001 37.5002C68.4001 38.1002 67.6001 38.6002 66.6001 39.0002C65.0001 39.7002 63.1001 40.0002 60.8001 40.0002H60.5001C58.3001 40.0002 56.4001 39.8002 54.8001 39.4002C52.6001 38.8002 50.9001 37.9002 49.8001 36.7002C49.2001 36.0002 48.7001 35.2002 48.4001 34.3002C48.1001 33.5002 48.0001 32.5002 48.0001 31.5002H49.6001V31.7002Z" fill="#9D1853"/>
<path d="M115.9 38.2002C115.1 39.9002 114.1 41.3002 112.7 42.6002C111.5 43.7002 110.1 44.5002 108.4 45.2002C107.1 45.7002 105.7 46.1002 104.2 46.4002C102.9 46.6002 101.6 46.7002 100.2 46.8002H99.8C99.6 46.8002 99.5 46.8002 99.3 46.8002C99 46.8002 98.7 46.8002 98.4 46.8002C97.8 46.8002 97.2 46.7002 96.5 46.7002C95.1 46.6002 93.8 46.3002 92.6 46.0002C91.1 45.6002 89.7 45.1002 88.4 44.4002C86.8 43.6002 85.5 42.5002 84.4 41.2002C83.2 39.8002 82.3 38.3002 81.7 36.5002C81.2 35.0002 81 33.4002 81 31.7002H82.6C82.6 33.2002 82.8 34.7002 83.2 36.0002C83.7 37.5002 84.5 38.9002 85.6 40.1002C86.6 41.2002 87.8 42.1002 89.2 42.9002C90.3 43.5002 91.6 44.0002 93 44.4002C94.1 44.7002 95.4 44.9002 96.7 45.0002C97.7 45.1002 98.8 45.2002 99.9 45.2002H100.3C101.6 45.2002 102.8 45.1002 104 44.9002C105.4 44.7002 106.7 44.3002 107.9 43.8002C109.3 43.2002 110.6 42.4002 111.7 41.5002C112.9 40.4002 113.9 39.2002 114.6 37.7002C115.2 36.3002 115.6 34.8002 115.7 33.2002C115.7 32.5002 115.7 31.7002 115.6 31.0002C115.5 30.2002 115.4 29.5002 115.2 28.8002C114.8 27.2002 114 25.8002 112.9 24.5002C111.9 23.4002 110.7 22.4002 109.3 21.7002C108.2 21.1002 107 20.6002 105.6 20.2002C104.5 19.9002 103.3 19.7002 102 19.5002C101.5 19.4002 101 19.4002 100.3 19.3002L98.8 19.1002C97.7 19.0002 96.9 18.9002 96.1 18.7002C95.3 18.5002 94.5 18.3002 94 18.0002C93.4 17.7002 93 17.4002 92.6 17.1002C92.3 16.8002 92.1 16.5002 92 16.1002C91.9 15.9002 91.9 15.6002 91.8 15.4002C91.8 15.3002 91.8 15.1002 91.8 14.9002V14.7002C91.8 14.6002 91.8 14.5002 91.8 14.5002C91.8 14.0002 91.9 13.5002 92.2 13.1002C92.4 12.7002 92.7 12.3002 93.1 12.0002C94 11.2002 95.2 10.8002 96.8 10.5002C97.4 10.4002 98.1 10.3002 98.7 10.3002C99.7 10.3002 100.6 10.4002 101.5 10.6002C102.3 10.8002 103 11.0002 103.6 11.3002C104.2 11.6002 104.6 11.9002 105 12.3002C105.3 12.6002 105.6 13.0002 105.7 13.5002C105.9 14.0002 106 14.6002 106 15.2002H104.4C104.4 14.7002 104.3 14.3002 104.2 14.0002C104.1 13.8002 104 13.6002 103.8 13.4002C103.6 13.2002 103.3 13.0002 102.9 12.8002C102.4 12.6002 101.9 12.4002 101.2 12.3002C100.4 12.1002 99.6 12.0002 98.7 12.0002C98.1 12.0002 97.6 12.0002 97 12.1002C96.4 12.2002 95.8 12.4002 95.3 12.6002C94.8 12.8002 94.4 13.0002 94.1 13.2002C93.9 13.4002 93.7 13.6002 93.6 13.8002C93.5 14.0002 93.4 14.3002 93.4 14.6002C93.4 14.6002 93.4 14.7002 93.4 14.8002V15.0002C93.4 15.1002 93.4 15.2002 93.4 15.3002C93.4 15.5002 93.5 15.6002 93.5 15.8002C93.5 16.0002 93.6 16.1002 93.7 16.2002C93.9 16.4002 94.2 16.6002 94.6 16.7002C95.1 16.9002 95.7 17.1002 96.4 17.3002C97.1 17.5002 97.9 17.6002 98.9 17.7002L100.4 17.9002C101 18.0002 101.6 18.0002 102.1 18.1002C103.5 18.3002 104.7 18.5002 105.9 18.8002C107.4 19.2002 108.8 19.8002 110 20.4002C111.6 21.3002 112.9 22.3002 114.1 23.6002C114.7 24.3002 115.2 25.1002 115.7 25.9002C116.1 26.7002 116.5 27.5002 116.7 28.5002C116.9 29.3002 117.1 30.2002 117.2 31.1002C117.3 31.9002 117.3 32.7002 117.3 33.5002C117.1 35.0002 116.7 36.7002 115.9 38.2002ZM92.3 31.7002C92.3 32.2002 92.4 32.7002 92.5 33.0002C92.6 33.3002 92.7 33.5002 92.9 33.7002C93.1 33.9002 93.4 34.1002 93.8 34.3002C94.3 34.5002 94.8 34.7002 95.4 34.9002C96.6 35.2002 98.1 35.4002 99.9 35.4002C100 35.4002 100.1 35.4002 100.2 35.4002C101.8 35.4002 103.2 35.2002 104.2 34.8002C104.6 34.6002 105 34.4002 105.3 34.2002C105.5 34.0002 105.6 33.8002 105.8 33.6002C105.9 33.3002 106 33.0002 106 32.7002C106 32.5002 106 32.2002 106 32.0002C106 31.8002 105.9 31.6002 105.9 31.5002C105.8 31.3002 105.7 31.1002 105.6 30.9002C105.4 30.7002 105.2 30.5002 104.8 30.3002C104.3 30.0002 103.7 29.8002 103.1 29.7002C102.4 29.5002 101.7 29.3002 100.8 29.2002C100.4 29.2002 99.9 29.1002 99.4 29.0002L97.8 28.8002C96.4 28.6002 95.2 28.4002 94.1 28.2002C92.6 27.8002 91.2 27.4002 90 26.8002C88.3 26.0002 86.9 25.0002 85.7 23.8002C85 23.1002 84.4 22.3002 84 21.5002C83.5 20.7002 83.1 19.8002 82.8 18.9002C82.5 18.1002 82.4 17.2002 82.3 16.3002C82.3 15.9002 82.2 15.5002 82.2 15.1002C82.2 14.9002 82.2 14.7002 82.2 14.5002C82.2 14.2002 82.2 14.0002 82.2 13.9002C82.3 12.0002 82.8 10.3002 83.6 8.70019C84.4 7.10019 85.5 5.70019 87 4.50019C88.2 3.50019 89.6 2.70019 91.2 2.00019C92.5 1.50019 94 1.10019 95.5 0.900194C96.6 0.700194 97.8 0.700195 98.9 0.700195C100.5 0.700195 102.1 0.900195 103.8 1.2002C105.3 1.5002 106.8 2.0002 108 2.7002C109.6 3.5002 111 4.50019 112.2 5.70019C113.5 7.00019 114.4 8.60019 115.1 10.4002C115.6 11.9002 115.9 13.6002 115.9 15.3002H114.3C114.3 13.7002 114.1 12.3002 113.6 10.9002C113.1 9.30019 112.2 8.0002 111 6.8002C110 5.7002 108.8 4.9002 107.3 4.2002C106.1 3.6002 104.9 3.20019 103.5 2.90019C102 2.60019 100.5 2.40019 98.9 2.40019C97.9 2.40019 96.8 2.50019 95.8 2.60019C94.4 2.80019 93.1 3.20019 91.9 3.60019C90.5 4.20019 89.2 4.9002 88.1 5.8002C86.8 6.8002 85.8 8.1002 85.1 9.5002C84.4 10.9002 83.9 12.4002 83.8 14.1002C83.8 14.3002 83.8 14.5002 83.8 14.7002C83.8 14.9002 83.8 15.0002 83.8 15.2002C83.8 15.6002 83.8 16.0002 83.9 16.3002C84 17.1002 84.1 17.9002 84.4 18.6002C84.7 19.4002 85 20.2002 85.4 20.9002C85.8 21.6002 86.3 22.3002 86.9 22.9002C87.9 24.0002 89.2 24.9002 90.7 25.5002C91.8 26.0002 93.1 26.4002 94.5 26.8002C95.5 27.0002 96.7 27.2002 98 27.4002L99.6 27.6002C100.2 27.7002 100.6 27.7002 101.1 27.8002C102.1 27.9002 102.9 28.1002 103.7 28.3002C104.5 28.5002 105.2 28.8002 105.7 29.1002C106.3 29.4002 106.7 29.7002 107 30.1002C107.3 30.4002 107.5 30.8002 107.6 31.3002C107.7 31.6002 107.7 31.8002 107.7 32.1002C107.7 32.4002 107.8 32.7002 107.7 33.0002C107.7 33.6002 107.5 34.1002 107.3 34.6002C107.1 35.0002 106.8 35.4002 106.4 35.8002C106 36.1002 105.5 36.4002 104.9 36.7002C103.7 37.2002 102.1 37.5002 100.3 37.5002H100C98.1 37.5002 96.5 37.3002 95.1 37.0002C94.3 36.8002 93.6 36.6002 93.1 36.3002C92.6 36.0002 92.1 35.7002 91.8 35.3002C91.5 35.0002 91.2 34.5002 91.1 34.0002C90.9 33.5002 90.8 32.9002 90.8 32.2002H92.3V31.7002ZM85.8 31.7002C85.8 32.9002 86 34.0002 86.3 35.0002C86.7 36.1002 87.2 37.1002 88 38.0002C88.7 38.8002 89.6 39.5002 90.7 40.1002C91.6 40.6002 92.6 41.0002 93.8 41.3002C95.6 41.8002 97.6 42.0002 99.9 42.0002H100.2C102.7 42.0002 104.8 41.6002 106.6 40.8002C107.7 40.3002 108.7 39.8002 109.5 39.1002C110.4 38.3002 111.1 37.4002 111.5 36.4002C112 35.4002 112.2 34.3002 112.3 33.1002C112.4 31.9002 112.3 30.8002 112 29.7002C111.7 28.6002 111.1 27.5002 110.4 26.7002C109.7 25.9002 108.8 25.2002 107.8 24.6002C106.2 23.7002 104.1 23.1002 101.5 22.8002C101.1 22.8002 100.6 22.7002 100 22.6002C99.2 22.5002 98.6 22.5002 98.5 22.4002C97.3 22.3002 96.3 22.1002 95.5 21.9002C94.4 21.7002 93.5 21.4002 92.7 21.0002C91.8 20.6002 91 20.0002 90.4 19.4002C89.8 18.7002 89.3 17.9002 89 17.0002C88.8 16.2002 88.7 15.2002 88.7 14.2002C88.8 13.2002 89 12.3002 89.4 11.5002C89.8 10.7002 90.4 10.0002 91.1 9.3002C92.5 8.2002 94.2 7.5002 96.4 7.10019C97.2 7.0002 98 6.90019 98.8 6.90019C100 6.90019 101.2 7.0002 102.4 7.3002C104.6 7.8002 106.3 8.60019 107.5 9.90019C108.1 10.6002 108.6 11.4002 109 12.3002C109.3 13.1002 109.4 14.0002 109.4 15.1002H107.8C107.8 14.3002 107.7 13.5002 107.4 12.8002C107.2 12.1002 106.8 11.6002 106.3 11.1002C105.4 10.1002 103.9 9.4002 102 9.0002C101 8.8002 99.9 8.60019 98.8 8.60019C98.1 8.60019 97.4 8.7002 96.7 8.8002C94.8 9.1002 93.3 9.7002 92.2 10.6002C91 11.5002 90.4 12.8002 90.3 14.3002C90.3 14.4002 90.3 14.5002 90.3 14.6002V14.9002C90.3 15.1002 90.3 15.3002 90.3 15.5002C90.3 15.9002 90.4 16.2002 90.5 16.6002C90.7 17.2002 91 17.8002 91.5 18.3002C92.4 19.2002 93.8 19.9002 95.8 20.4002C96.6 20.6002 97.5 20.7002 98.6 20.9002C98.8 20.9002 99.3 21.0002 100.1 21.1002C100.7 21.2002 101.3 21.2002 101.7 21.3002C102.9 21.5002 104.1 21.7002 105.1 21.9002C106.4 22.3002 107.5 22.7002 108.5 23.3002C109.7 24.0002 110.8 24.8002 111.6 25.8002C112.5 26.9002 113.2 28.1002 113.6 29.4002C113.8 30.0002 113.9 30.7002 114 31.4002C114.1 32.0002 114.1 32.7002 114 33.3002C113.9 34.7002 113.6 36.0002 113.1 37.2002C112.5 38.4002 111.7 39.5002 110.6 40.5002C109.7 41.3002 108.5 42.0002 107.3 42.6002C105.3 43.4002 103 43.8002 100.3 43.9002H100C97.6 43.9002 95.4 43.7002 93.4 43.2002C92.1 42.9002 91 42.4002 89.9 41.9002C88.7 41.2002 87.6 40.4002 86.8 39.5002C85.9 38.5002 85.2 37.3002 84.8 35.9002C84.4 34.7002 84.2 33.5002 84.2 32.1002H85.8V31.7002ZM89 31.7002C89 32.6002 89.1 33.3002 89.3 34.0002C89.5 34.7002 89.9 35.3002 90.4 35.8002C91.3 36.8002 92.7 37.6002 94.5 38.0002C96 38.4002 97.8 38.6002 99.8 38.6002H100.1C102.1 38.6002 103.9 38.3002 105.3 37.7002C106.1 37.4002 106.7 37.0002 107.3 36.5002C107.9 36.0002 108.3 35.5002 108.6 34.8002C108.9 34.2002 109.1 33.5002 109.1 32.7002C109.1 32.3002 109.1 31.9002 109.1 31.5002C109.1 31.1002 109 30.7002 108.9 30.4002C108.7 29.7002 108.4 29.1002 107.9 28.6002C107.5 28.1002 106.9 27.6002 106.2 27.2002C105 26.5002 103.2 26.0002 101.1 25.7002C100.7 25.6002 100.2 25.6002 99.6 25.5002C98.8 25.4002 98.2 25.4002 98 25.3002C96.7 25.1002 95.6 25.0002 94.7 24.8002C93.4 24.5002 92.3 24.1002 91.2 23.6002C89.9 23.0002 88.8 22.2002 87.9 21.3002C86.9 20.2002 86.2 19.0002 85.8 17.6002C85.6 17.0002 85.5 16.3002 85.4 15.6002C85.4 15.3002 85.4 14.9002 85.4 14.6002C85.4 14.4002 85.4 14.3002 85.4 14.1002C85.4 13.9002 85.4 13.7002 85.4 13.6002C85.5 12.2002 85.8 10.9002 86.5 9.70019C87.1 8.50019 88 7.4002 89.1 6.5002C90.1 5.7002 91.2 5.10019 92.5 4.60019C93.6 4.10019 94.8 3.8002 96.1 3.7002C97 3.5002 98 3.50019 99 3.50019C100.4 3.50019 101.8 3.70019 103.2 4.00019C104.5 4.30019 105.6 4.7002 106.7 5.2002C108 5.8002 109 6.6002 109.9 7.5002C110.9 8.5002 111.6 9.7002 112.1 11.0002C112.5 12.2002 112.7 13.5002 112.7 14.9002H111.1C111.1 13.7002 110.9 12.6002 110.6 11.6002C110.2 10.5002 109.6 9.50019 108.8 8.70019C108 7.90019 107.1 7.30019 106.1 6.70019C105.2 6.20019 104.1 5.9002 102.9 5.60019C101.6 5.30019 100.3 5.2002 99 5.2002C98.1 5.2002 97.3 5.30019 96.4 5.40019C95.3 5.60019 94.2 5.90019 93.2 6.20019C92.1 6.70019 91.1 7.20019 90.3 7.90019C89.4 8.70019 88.7 9.60019 88.1 10.6002C87.6 11.6002 87.3 12.7002 87.2 13.9002C87.1 15.1002 87.3 16.3002 87.6 17.3002C87.9 18.4002 88.5 19.4002 89.4 20.3002C90.1 21.1002 91.1 21.7002 92.2 22.2002C93.1 22.6002 94.1 23.0002 95.3 23.2002C96.2 23.4002 97.3 23.6002 98.5 23.7002C98.7 23.7002 99.2 23.8002 100 23.9002C100.6 24.0002 101.1 24.1002 101.5 24.1002C103.9 24.4002 105.8 25.0002 107.2 25.7002C108.1 26.2002 108.8 26.8002 109.4 27.4002C110 28.1002 110.4 28.9002 110.7 29.8002C111 30.7002 111.1 31.6002 111 32.6002C111 33.6002 110.7 34.5002 110.4 35.3002C110 36.1002 109.5 36.9002 108.8 37.5002C108.1 38.1002 107.3 38.6002 106.3 39.0002C104.7 39.7002 102.8 40.0002 100.5 40.0002H100.2C98 40.0002 96.1 39.8002 94.5 39.4002C92.3 38.8002 90.6 37.9002 89.5 36.7002C88.9 36.0002 88.4 35.2002 88.1 34.3002C87.8 33.5002 87.7 32.5002 87.7 31.5002H89V31.7002Z" fill="#9D1853"/>
<path d="M0.399902 55.8004V52.9004H1.49988C1.89988 52.9004 2.29991 53.0004 2.59991 53.3004C2.89991 53.6004 2.99988 53.9004 2.99988 54.3004C2.99988 54.7004 2.89991 55.0004 2.59991 55.3004C2.29991 55.6004 1.99988 55.7004 1.49988 55.7004H0.399902V55.8004ZM0.999878 55.2004H1.49988C1.79988 55.2004 1.99991 55.1004 2.09991 55.0004C2.29991 54.8004 2.29993 54.6004 2.29993 54.4004C2.29993 54.1004 2.19991 53.9004 2.09991 53.8004C1.89991 53.6004 1.69988 53.6004 1.49988 53.6004H0.999878V55.2004Z" fill="#9D1853"/>
<path d="M6.19983 55.8004V54.6004L5.09985 52.9004H5.79987L6.49982 54.0004L7.19983 52.9004H7.89984L6.79987 54.6004V55.7004H6.19983V55.8004Z" fill="#9D1853"/>
<path d="M10.3999 55.8004V52.9004H10.9999L12.2999 54.7004V52.9004H12.8999V55.8004H12.3999L10.9999 54.0004V55.8004H10.3999Z" fill="#9D1853"/>
<path d="M15.5 55.8004L16.7 52.9004H17.3L18.5 55.8004H17.8L17.5 55.2004H16.3L16 55.8004H15.5ZM16.7 54.6004H17.5L17.1 53.7004L16.7 54.6004Z" fill="#9D1853"/>
<path d="M21.0999 55.8004V52.9004H21.7999L22.5999 54.1004L23.3998 52.9004H24.0999V55.8004H23.3998V53.9004L22.5999 55.1004L21.7999 53.9004V55.8004H21.0999Z" fill="#9D1853"/>
<path d="M26.7998 55.8004V52.9004H27.3998V55.8004H26.7998Z" fill="#9D1853"/>
<path d="M31.6 55.8005C31.2 55.8005 30.8 55.7005 30.6 55.4005C30.3 55.1005 30.2 54.8005 30.2 54.4005C30.2 54.0005 30.3 53.6005 30.6 53.4005C30.9 53.1005 31.2 53.0005 31.7 53.0005C32 53.0005 32.2 53.0005 32.3 53.1005C32.5 53.2005 32.6 53.3005 32.8 53.4005L32.4 53.9005C32.2 53.7005 31.9 53.6005 31.7 53.6005C31.5 53.6005 31.3 53.7005 31.1 53.9005C30.9 54.1005 30.9 54.3005 30.9 54.5005C30.9 54.8005 31 55.0005 31.1 55.1005C31.3 55.3005 31.5 55.4005 31.7 55.4005C31.9 55.4005 32 55.4005 32.1 55.3005C32.2 55.2005 32.2999 55.2005 32.4999 55.0005L32.9 55.4005C32.7 55.6005 32.6 55.7005 32.4 55.8005C32.1 55.8005 31.9 55.8005 31.6 55.8005Z" fill="#9D1853"/>
<path d="M39.7999 55.8003C39.2999 55.8003 38.8999 55.6003 38.5999 55.3003L38.9998 54.9003C39.2998 55.1003 39.5998 55.2003 39.8998 55.2003C39.9998 55.2003 40.0998 55.2003 40.1998 55.1003C40.2998 55.1003 40.2999 55.0003 40.2999 54.9003C40.2999 54.8003 40.2998 54.8003 40.1998 54.7003C40.0998 54.6003 39.9998 54.6003 39.6998 54.5003C39.4998 54.5003 39.3999 54.4003 39.2999 54.4003C39.1999 54.4003 39.0998 54.3003 38.9998 54.2003C38.8998 54.1003 38.7999 54.1003 38.7999 54.0003C38.7999 53.9003 38.6998 53.8003 38.6998 53.6003C38.6998 53.3003 38.7998 53.1003 38.9998 53.0003C39.1998 52.8003 39.3998 52.8003 39.6998 52.8003C40.0998 52.8003 40.4999 52.9003 40.7999 53.2003L40.4998 53.7003C40.1998 53.5003 39.9999 53.4003 39.7999 53.4003C39.6999 53.4003 39.5998 53.4003 39.4998 53.5003C39.3998 53.5003 39.3998 53.6003 39.3998 53.7003C39.3998 53.8003 39.3998 53.9003 39.4998 53.9003C39.5998 53.9003 39.6998 54.0003 39.9998 54.1003C40.2998 54.2003 40.4998 54.3003 40.6998 54.4003C40.7998 54.5003 40.8998 54.7003 40.8998 54.9003C40.8998 55.2003 40.7999 55.4003 40.5999 55.6003C40.3999 55.7003 40.0999 55.8003 39.7999 55.8003Z" fill="#9D1853"/>
<path d="M43.5 55.8004V52.9004H45.7V53.5004H44.2V54.1004H45.5V54.6004H44.2V55.2004H45.8V55.8004H43.5Z" fill="#9D1853"/>
<path d="M48.3999 55.8004V52.9004H49.6999C50.0999 52.9004 50.2999 53.0004 50.4999 53.2004C50.6999 53.4004 50.6999 53.6004 50.6999 53.9004C50.6999 54.3004 50.4999 54.6004 50.0999 54.8004L50.7999 55.8004H50.0999L49.4999 54.9004H48.9999V55.8004H48.3999ZM48.9999 54.3004H49.5999C49.6999 54.3004 49.8999 54.3004 49.9999 54.2004C50.0999 54.1004 50.0999 54.0004 50.0999 53.9004C50.0999 53.8004 50.0999 53.7004 49.9999 53.6004C49.8999 53.5004 49.7999 53.5004 49.5999 53.5004H48.9999V54.3004Z" fill="#9D1853"/>
<path d="M54.2999 55.8004L53.0999 52.9004H53.7999L54.4998 54.9004L55.1998 52.9004H55.8998L54.6998 55.8004H54.2999Z" fill="#9D1853"/>
<path d="M58.5999 55.8004V52.9004H59.1998V55.8004H58.5999Z" fill="#9D1853"/>
<path d="M63.4 55.8005C63 55.8005 62.6 55.7005 62.4 55.4005C62.1 55.1005 62 54.8005 62 54.4005C62 54.0005 62.1 53.6005 62.4 53.4005C62.7 53.1005 63 53.0005 63.5 53.0005C63.8 53.0005 64 53.0005 64.1 53.1005C64.3 53.2005 64.4 53.3005 64.6 53.4005L64.2 53.9005C64 53.7005 63.7 53.6005 63.5 53.6005C63.3 53.6005 63.1 53.7005 62.9 53.9005C62.7 54.1005 62.7 54.3005 62.7 54.5005C62.7 54.8005 62.8 55.0005 62.9 55.1005C63.1 55.3005 63.3 55.4005 63.5 55.4005C63.7 55.4005 63.8 55.4005 63.9 55.3005C64 55.2005 64.1 55.2005 64.3 55.0005L64.7 55.4005C64.5 55.6005 64.4 55.7005 64.2 55.8005C63.9 55.8005 63.6 55.8005 63.4 55.8005Z" fill="#9D1853"/>
<path d="M67.2 55.8004V52.9004H69.4V53.5004H67.9V54.1004H69.2V54.6004H67.9V55.2004H69.4999V55.8004H67.2Z" fill="#9D1853"/>
<path d="M73.0999 55.8003C72.5999 55.8003 72.1999 55.6003 71.8999 55.3003L72.2999 54.9003C72.5999 55.1003 72.8999 55.2003 73.1999 55.2003C73.2999 55.2003 73.3999 55.2003 73.4999 55.1003C73.5999 55.1003 73.5999 55.0003 73.5999 54.9003C73.5999 54.8003 73.5999 54.8003 73.4999 54.7003C73.3999 54.6003 73.2999 54.6003 72.9999 54.5003C72.7999 54.5003 72.6999 54.4003 72.5999 54.4003C72.4999 54.4003 72.3999 54.3003 72.2999 54.2003C72.1999 54.1003 72.0999 54.1003 72.0999 54.0003C72.0999 53.9003 71.9999 53.8003 71.9999 53.6003C71.9999 53.3003 72.0999 53.1003 72.2999 53.0003C72.4999 52.8003 72.6999 52.8003 72.9999 52.8003C73.3999 52.8003 73.7999 52.9003 74.0999 53.2003L73.7999 53.7003C73.4999 53.5003 73.2999 53.4003 73.0999 53.4003C72.9999 53.4003 72.8999 53.4003 72.7999 53.5003C72.6999 53.5003 72.6999 53.6003 72.6999 53.7003C72.6999 53.8003 72.6999 53.9003 72.7999 53.9003C72.8999 53.9003 72.9999 54.0003 73.2999 54.1003C73.5999 54.2003 73.7999 54.3003 73.9999 54.4003C74.0999 54.5003 74.1999 54.7003 74.1999 54.9003C74.1999 55.2003 74.0999 55.4003 73.8999 55.6003C73.5999 55.7003 73.3999 55.8003 73.0999 55.8003Z" fill="#9D1853"/>
<path d="M81.0999 55.8003C80.5999 55.8003 80.1999 55.6003 79.8999 55.3003L80.2999 54.9003C80.5999 55.1003 80.8999 55.2003 81.1999 55.2003C81.2999 55.2003 81.3999 55.2003 81.4999 55.1003C81.5999 55.1003 81.5999 55.0003 81.5999 54.9003C81.5999 54.8003 81.5999 54.8003 81.4999 54.7003C81.3999 54.6003 81.2999 54.6003 80.9999 54.5003C80.7999 54.5003 80.6999 54.4003 80.5999 54.4003C80.4999 54.4003 80.3999 54.3003 80.2999 54.2003C80.1999 54.1003 80.0999 54.1003 80.0999 54.0003C80.0999 53.9003 79.9999 53.8003 79.9999 53.6003C79.9999 53.3003 80.0999 53.1003 80.2999 53.0003C80.4999 52.8003 80.6999 52.8003 80.9999 52.8003C81.3999 52.8003 81.7999 52.9003 82.0999 53.2003L81.7999 53.7003C81.4999 53.5003 81.2999 53.4003 81.0999 53.4003C80.9999 53.4003 80.8999 53.4003 80.7999 53.5003C80.6999 53.5003 80.6999 53.6003 80.6999 53.7003C80.6999 53.8003 80.6999 53.9003 80.7999 53.9003C80.8999 53.9003 80.9999 54.0003 81.2999 54.1003C81.5999 54.2003 81.7999 54.3003 81.9999 54.4003C82.0999 54.5003 82.1999 54.7003 82.1999 54.9003C82.1999 55.2003 82.0999 55.4003 81.8999 55.6003C81.6999 55.7003 81.4999 55.8003 81.0999 55.8003Z" fill="#9D1853"/>
<path d="M87.3 55.4005C87 55.7005 86.6 55.8005 86.2 55.8005C85.8 55.8005 85.4 55.7005 85.1 55.4005C84.8 55.1005 84.7 54.8005 84.7 54.4005C84.7 54.0005 84.8 53.6005 85.1 53.4005C85.4 53.1005 85.8 53.0005 86.2 53.0005C86.6 53.0005 87 53.1005 87.3 53.4005C87.6 53.7005 87.7 54.0005 87.7 54.4005C87.8 54.7005 87.6 55.1005 87.3 55.4005ZM85.6 55.0005C85.8 55.2005 86 55.3005 86.2 55.3005C86.5 55.3005 86.7 55.2005 86.8 55.0005C87 54.8005 86.9999 54.6005 86.9999 54.4005C86.9999 54.1005 86.9 53.9005 86.8 53.8005C86.6 53.6005 86.4 53.5005 86.2 53.5005C85.9 53.5005 85.7 53.6005 85.6 53.8005C85.4 54.0005 85.4 54.2005 85.4 54.4005C85.4 54.6005 85.5 54.8005 85.6 55.0005Z" fill="#9D1853"/>
<path d="M90.3999 55.8004V52.9004H90.9999V55.2004H92.3999V55.8004H90.3999Z" fill="#9D1853"/>
<path d="M96.2 55.8005C95.8 55.8005 95.5 55.7005 95.3 55.5005C95.1 55.3005 95 55.0005 95 54.6005V53.0005H95.6V54.6005C95.6 54.8005 95.7 55.0005 95.8 55.1005C95.9 55.2005 96.1 55.3005 96.3 55.3005C96.5 55.3005 96.6 55.2005 96.8 55.1005C96.9 55.0005 97 54.8005 97 54.6005V53.0005H97.6V54.6005C97.6 55.0005 97.5 55.3005 97.3 55.6005C96.9 55.7005 96.6 55.8005 96.2 55.8005Z" fill="#9D1853"/>
<path d="M100.9 55.8004V53.5004H100V52.9004H102.4V53.5004H101.5V55.8004H100.9Z" fill="#9D1853"/>
<path d="M105 55.8004V52.9004H105.6V55.8004H105Z" fill="#9D1853"/>
<path d="M111 55.4005C110.7 55.7005 110.3 55.8005 109.9 55.8005C109.5 55.8005 109.1 55.7005 108.8 55.4005C108.5 55.1005 108.4 54.8005 108.4 54.4005C108.4 54.0005 108.5 53.6005 108.8 53.4005C109.1 53.1005 109.5 53.0005 109.9 53.0005C110.3 53.0005 110.7 53.1005 111 53.4005C111.3 53.7005 111.4 54.0005 111.4 54.4005C111.4 54.7005 111.2 55.1005 111 55.4005ZM109.3 55.0005C109.5 55.2005 109.7 55.3005 109.9 55.3005C110.1 55.3005 110.4 55.2005 110.5 55.0005C110.7 54.8005 110.7 54.6005 110.7 54.4005C110.7 54.1005 110.6 53.9005 110.5 53.8005C110.3 53.6005 110.1 53.5005 109.9 53.5005C109.6 53.5005 109.4 53.6005 109.3 53.8005C109.2 54.0005 109.1 54.2005 109.1 54.4005C109 54.6005 109.1 54.8005 109.3 55.0005Z" fill="#9D1853"/>
<path d="M114.1 55.8004V52.9004H114.7L116 54.7004V52.9004H116.6V55.8004H116.1L114.7 54.0004V55.8004H114.1Z" fill="#9D1853"/>
</svg>
