<svg width="193" height="69" viewBox="0 0 193 69" fill="none" xmlns="http://www.w3.org/2000/svg">
<path d="M65.1306 29.8035H58.457V21.6469H65.1306V15.8384C65.1306 13.9846 65.2542 12.2544 65.625 10.6478C65.9957 9.04122 66.6136 7.68178 67.4787 6.44593C68.3438 5.21008 69.7033 4.2214 71.4335 3.60348C73.1637 2.73838 75.3882 2.49121 78.1071 2.49121C79.0957 2.49121 80.208 2.49121 81.1967 2.6148C82.1854 2.73838 83.174 2.86197 84.1627 3.10914L83.6684 11.7601C83.0505 11.5129 82.5561 11.3893 82.0618 11.2658C81.5674 11.1422 80.9495 11.1422 80.3316 11.1422C78.725 11.1422 77.4891 11.5129 76.624 12.2544C75.7589 12.9959 75.3882 14.3554 75.3882 16.5799V21.7705H82.9269V29.9271H75.3882V54.7677H65.1306V29.8035Z" fill="#A5A5A5"/>
<path d="M111.227 55.5092C104.183 55.5092 98.3743 53.1611 93.8016 48.4648C89.1054 43.7686 86.8809 37.9601 86.8809 31.0393V30.9157C86.8809 23.995 89.229 18.1865 93.9252 13.4902C98.4979 8.67043 104.43 6.19873 111.598 6.19873C115.8 6.19873 119.384 6.81666 122.35 8.05251C125.316 9.28836 127.911 11.1421 130.383 13.4902L123.709 21.1525C119.754 17.5686 115.676 15.8384 111.474 15.8384C107.52 15.8384 104.183 17.3214 101.587 20.1638C98.9922 23.0063 97.6328 26.5903 97.6328 30.6686V30.9157C97.6328 35.1176 98.9922 38.578 101.587 41.5441C104.183 44.3865 107.52 45.8695 111.474 45.8695C114.07 45.8695 116.171 45.3752 118.024 44.5101C119.878 43.645 121.855 42.162 123.956 40.3082L130.63 46.9818C128.035 49.8243 125.192 51.9252 122.103 53.2846C119.26 54.7677 115.553 55.5092 111.227 55.5092Z" fill="#A5A5A5"/>
<path d="M160.045 55.5092C153.001 55.5092 147.193 53.1611 142.62 48.4648C137.924 43.7686 135.699 37.9601 135.699 31.0393V30.9157C135.699 23.995 138.047 18.1865 142.744 13.4902C147.316 8.67043 153.248 6.19873 160.54 6.19873C164.742 6.19873 168.326 6.81666 171.292 8.05251C174.258 9.28836 176.853 11.1421 179.325 13.4902L172.651 21.1525C168.696 17.5686 164.618 15.8384 160.416 15.8384C156.462 15.8384 153.125 17.3214 150.529 20.1638C147.934 23.0063 146.575 26.5903 146.575 30.6686V30.9157C146.575 35.1176 147.934 38.578 150.529 41.5441C153.125 44.3865 156.462 45.8695 160.416 45.8695C163.012 45.8695 165.112 45.3752 166.966 44.5101C168.82 43.645 170.797 42.162 172.898 40.3082L179.572 46.9818C176.977 49.8243 174.134 51.9252 171.045 53.2846C168.078 54.7677 164.371 55.5092 160.045 55.5092Z" fill="#A5A5A5"/>
<path d="M35.5931 12.8724C36.211 10.5243 36.9525 8.42336 37.8176 6.19883L37.3233 5.95166C32.1327 8.67053 27.3129 12.1309 23.111 16.3328C25.2119 16.9507 26.3242 19.1753 25.8299 21.2762C25.8299 21.3998 25.7063 21.647 25.7063 21.7705C25.7063 21.7705 25.7063 21.7705 25.7063 21.647C26.3242 19.4224 24.9648 17.1979 22.8638 16.58C20.6393 15.962 18.4147 17.3215 17.7968 19.4224C17.5497 20.4111 17.6732 21.2762 18.044 22.1413C13.9657 27.579 10.8761 33.8819 9.02228 40.9262C7.66285 45.8696 7.04492 50.813 7.04492 55.6329H41.6487C34.1101 43.3979 31.5148 27.9498 35.5931 12.8724Z" fill="#A5A5A5"/>
<path d="M12.8535 55.8799H51.5356V37.7129C36.5819 38.3308 22.7403 45.0044 12.8535 55.8799Z" fill="#A5A5A5"/>
<path d="M43.7495 1.0083H36.3344V6.44604C35.2221 8.91774 34.357 11.513 33.6155 14.1083C29.6608 28.8149 32.0089 43.6451 38.9297 56.0037H51.4118V13.2432L43.6259 9.2885V1.0083H43.7495Z" fill="#A5A5A5"/>
<path fill-rule="evenodd" clip-rule="evenodd" d="M3.08963 14.9733C2.10095 14.7261 0.988681 14.6025 0 14.6025V38.8252C5.31416 38.8252 10.2576 35.2412 11.7406 29.8035C13.4708 23.2535 9.63964 16.7035 3.08963 14.9733Z" fill="#A5A5A5"/>
<path fill-rule="evenodd" clip-rule="evenodd" d="M21.0098 2.49123C21.6277 4.83935 23.4815 6.81671 26.0768 7.43463C29.1664 8.29973 32.3796 6.94029 34.1098 4.22142L25.706 0.0195312L21.0098 2.49123Z" fill="#A5A5A5"/>
<path fill-rule="evenodd" clip-rule="evenodd" d="M0.617925 40.8023C0.370755 40.8023 0.123585 40.6787 0 40.6787V54.1495C2.59529 53.7787 4.81982 51.8014 5.56133 49.2061C6.42642 45.4985 4.32548 41.791 0.617925 40.8023Z" fill="#A5A5A5"/>
<path fill-rule="evenodd" clip-rule="evenodd" d="M21.6271 7.06399C19.4025 6.44606 17.178 7.8055 16.5601 9.90644C15.9422 12.131 17.3016 14.3555 19.4025 14.9734C21.6271 15.5914 23.8516 14.2319 24.4695 12.131C25.0874 9.90644 23.728 7.68191 21.6271 7.06399Z" fill="#A5A5A5"/>
<path fill-rule="evenodd" clip-rule="evenodd" d="M3.58397 54.5206C2.22453 54.1498 0.865095 54.6441 0 55.6328V56.0036H5.56133C5.06699 55.2621 4.44906 54.7677 3.58397 54.5206Z" fill="#A5A5A5"/>
<path fill-rule="evenodd" clip-rule="evenodd" d="M2.71875 11.76C3.70743 12.7487 4.94328 13.6138 6.4263 13.9846C10.5046 15.0968 14.8301 12.6251 15.9424 8.54681C16.3131 7.31096 16.3131 6.19869 16.0659 5.08643L2.71875 11.76Z" fill="#A5A5A5"/>
<path fill-rule="evenodd" clip-rule="evenodd" d="M15.2021 14.3552C13.3484 13.8609 11.4946 14.9732 11.0003 16.8269C10.5059 18.6807 11.6182 20.5345 13.472 21.0288C15.3257 21.5232 17.1795 20.4109 17.6738 18.5571C18.0446 16.8269 17.0559 14.8496 15.2021 14.3552Z" fill="#A5A5A5"/>
<path fill-rule="evenodd" clip-rule="evenodd" d="M17.4258 4.22169C17.673 4.46886 17.9201 4.59245 18.1673 4.71603C19.0324 4.9632 19.8975 4.46886 20.0211 3.72735C20.1447 3.48018 20.1447 3.23301 20.0211 2.98584L17.4258 4.22169Z" fill="#A5A5A5"/>
<path fill-rule="evenodd" clip-rule="evenodd" d="M6.55065 38.7017C5.68556 38.4545 4.69688 38.9488 4.44971 39.9375C4.20254 40.8026 4.69688 41.7913 5.68556 42.0385C6.55065 42.2856 7.53933 41.7913 7.7865 40.8026C7.91009 39.9375 7.41575 38.9488 6.55065 38.7017Z" fill="#A5A5A5"/>
<path d="M38.9291 55.8799H51.4111V37.7129C45.1083 37.9601 38.9291 39.3195 33.2441 41.6676C34.6036 46.611 36.4574 51.4308 38.9291 55.8799Z" fill="#A5A5A5"/>
<path fill-rule="evenodd" clip-rule="evenodd" d="M14.5826 22.5117C13.9647 22.3882 13.3468 22.7589 13.2232 23.2533C13.0996 23.8712 13.4703 24.4891 13.9647 24.6127C14.5826 24.7363 15.2005 24.3655 15.3241 23.8712C15.5713 23.2533 15.2005 22.6353 14.5826 22.5117Z" fill="#A5A5A5"/>
<path fill-rule="evenodd" clip-rule="evenodd" d="M9.39376 14.9734C8.89942 14.8498 8.40508 15.097 8.28149 15.5913C8.15791 16.0857 8.40508 16.58 8.89942 16.7036C9.39376 16.8272 9.8881 16.58 10.0117 16.0857C10.1353 15.5913 9.8881 15.097 9.39376 14.9734Z" fill="#A5A5A5"/>
<path fill-rule="evenodd" clip-rule="evenodd" d="M27.5594 8.54712C26.9415 8.42353 26.2 8.79429 26.0764 9.41221C25.9528 10.0301 26.3236 10.7716 26.9415 10.8952C27.5594 11.1424 28.1774 10.7716 28.4245 10.0301C28.5481 9.41221 28.1774 8.79429 27.5594 8.54712Z" fill="#A5A5A5"/>
<path fill-rule="evenodd" clip-rule="evenodd" d="M175.862 21.647C174.379 21.647 173.02 22.8828 173.02 24.4894C173.02 25.9724 174.255 27.3319 175.862 27.3319C177.345 27.3319 178.704 26.096 178.704 24.4894C178.581 22.8828 177.345 21.647 175.862 21.647ZM177.221 26.2196C177.839 25.2309 177.839 23.7479 177.221 22.7592C178.334 23.6243 178.334 25.3545 177.221 26.2196Z" fill="#A5A5A5"/>
<path fill-rule="evenodd" clip-rule="evenodd" d="M188.714 29.4328C185.007 27.2082 180.187 28.5677 177.963 32.2752C175.738 35.9828 177.097 40.8026 180.805 43.0271C184.513 45.2516 189.332 43.8922 191.557 40.1847C193.781 36.3535 192.546 31.5337 188.714 29.4328ZM185.748 42.2856C188.591 40.5554 190.568 37.095 190.692 33.7582C192.175 37.5894 189.703 41.7913 185.748 42.2856Z" fill="#A5A5A5"/>
<path fill-rule="evenodd" clip-rule="evenodd" d="M187.356 14.3558C185.131 12.9964 182.165 13.8615 180.93 16.086C179.57 18.3105 180.435 21.2766 182.66 22.5124C184.884 23.8719 187.85 23.0068 189.086 20.7822C190.446 18.5577 189.581 15.7153 187.356 14.3558ZM185.502 22.1417C187.232 21.0294 188.345 19.0521 188.468 17.0747C189.457 19.2992 187.974 21.8945 185.502 22.1417Z" fill="#A5A5A5"/>
<path d="M2.59489 68.8562V64.4072H0.988281V63.2949H5.56093V64.4072H3.83074V68.8562H2.59489Z" fill="#A5A5A5"/>
<path d="M8.77539 68.8562V63.2949H10.0112V65.5195H12.2358V63.2949H13.4716V68.8562H12.2358V66.6317H10.0112V68.8562H8.77539Z" fill="#A5A5A5"/>
<path d="M17.1777 68.8562V63.2949H21.3796V64.4072H18.4136V65.5195H21.0089V66.6317H18.4136V67.744H21.3796V68.8562H17.1777Z" fill="#A5A5A5"/>
<path d="M29.5352 68.8562V63.2949H33.737V64.4072H30.771V65.643H33.3663V66.7553H30.771V68.8562H29.5352Z" fill="#A5A5A5"/>
<path d="M37.1992 68.8562V63.2949H38.4351V68.8562H37.1992Z" fill="#A5A5A5"/>
<path d="M42.1426 68.8562V63.2949H44.6143C45.3558 63.2949 45.8501 63.5421 46.2209 63.9128C46.5916 64.2836 46.7152 64.6544 46.7152 65.1487C46.7152 66.0138 46.3445 66.5081 45.4794 66.8789L46.8388 68.8562H45.4794L44.2435 67.1261H43.2548V68.8562H42.1426ZM43.3784 66.0138H44.6143C44.8615 66.0138 45.1086 65.8902 45.3558 65.7666C45.4794 65.643 45.603 65.3959 45.603 65.1487C45.603 64.9015 45.4794 64.6544 45.3558 64.5308C45.2322 64.4072 44.985 64.2836 44.6143 64.2836H43.3784V66.0138Z" fill="#A5A5A5"/>
<path d="M52.1528 68.9799C51.2877 68.9799 50.4226 68.7327 49.8047 68.1148L50.5462 67.2497C51.0405 67.744 51.6585 67.8676 52.1528 67.8676C52.4 67.8676 52.6471 67.8676 52.7707 67.744C52.8943 67.6204 53.0179 67.4969 53.0179 67.3733C53.0179 67.2497 52.8943 67.1261 52.7707 67.0025C52.6471 66.8789 52.2764 66.7554 51.9056 66.6318C51.5349 66.5082 51.2877 66.5082 51.1641 66.3846C50.917 66.261 50.7934 66.261 50.5462 66.1374C50.4226 66.0138 50.299 65.8903 50.1754 65.6431C50.0519 65.3959 50.0519 65.2723 50.0519 64.9016C50.0519 64.4072 50.1754 64.0365 50.5462 63.6657C50.917 63.295 51.4113 63.1714 51.9056 63.1714C52.6471 63.1714 53.3887 63.4186 54.0066 63.9129L53.3887 64.778C52.8943 64.4072 52.4 64.2837 51.9056 64.2837C51.6585 64.2837 51.5349 64.2837 51.4113 64.4072C51.2877 64.5308 51.1641 64.6544 51.1641 64.778C51.1641 64.9016 51.2877 65.1488 51.4113 65.1488C51.5349 65.2723 51.9056 65.3959 52.4 65.5195C53.0179 65.6431 53.3887 65.8903 53.7594 66.1374C54.0066 66.3846 54.1302 66.7554 54.1302 67.2497C54.1302 67.744 54.0066 68.2384 53.6358 68.4855C53.2651 68.8563 52.7707 68.9799 52.1528 68.9799Z" fill="#A5A5A5"/>
<path d="M58.8259 68.8562V64.4072H57.0957V63.2949H61.6684V64.4072H59.9382V68.8562H58.8259Z" fill="#A5A5A5"/>
<path d="M72.2975 68.9798C71.4324 68.9798 70.8145 68.7327 70.3202 68.1147C69.8258 67.6204 69.4551 66.8789 69.4551 66.1374C69.4551 65.3959 69.7022 64.6544 70.3202 64.16C70.8145 63.6657 71.556 63.2949 72.4211 63.2949C72.9155 63.2949 73.2862 63.4185 73.657 63.5421C74.0277 63.6657 74.2749 63.9128 74.6457 64.16L73.9041 65.0251C73.4098 64.6544 72.9155 64.4072 72.5447 64.4072C72.0504 64.4072 71.6796 64.5308 71.4324 64.9015C71.1853 65.2723 70.9381 65.643 70.9381 66.1374C70.9381 66.6317 71.0617 67.0025 71.4324 67.3732C71.6796 67.744 72.174 67.8676 72.5447 67.8676C72.7919 67.8676 73.039 67.8676 73.2862 67.744C73.5334 67.6204 73.7806 67.4968 74.0277 67.2496L74.7692 67.9912C74.5221 68.3619 74.1513 68.6091 73.7806 68.7327C73.1626 68.8562 72.7919 68.9798 72.2975 68.9798Z" fill="#A5A5A5"/>
<path d="M77.8574 68.8562V63.2949H79.0933V67.744H81.8121V68.8562H77.8574Z" fill="#A5A5A5"/>
<path d="M85.1484 68.8562V63.2949H89.3503V64.4072H86.3843V65.5195H88.9796V66.6317H86.3843V67.744H89.3503V68.8562H85.1484Z" fill="#A5A5A5"/>
<path d="M92.3184 68.8562L94.6665 63.2949H95.7787L98.1269 68.8562H96.891L96.3967 67.6204H94.0486L93.5542 68.8562H92.3184ZM94.5429 66.6317H96.0259L95.2844 64.9015L94.5429 66.6317Z" fill="#A5A5A5"/>
<path d="M101.338 68.8562V63.2949H102.45L105.045 66.7553V63.2949H106.281V68.8562H105.293L102.574 65.3959V68.8562H101.338Z" fill="#A5A5A5"/>
<path d="M109.99 68.8562V63.2949H111.226V68.8562H109.99Z" fill="#A5A5A5"/>
<path d="M115.057 68.8562V63.2949H116.169L118.764 66.7553V63.2949H120V68.8562H119.011L116.169 65.3959V68.8562H115.057Z" fill="#A5A5A5"/>
<path d="M126.304 68.9798C125.439 68.9798 124.697 68.7327 124.203 68.1147C123.709 67.6204 123.338 66.8789 123.338 66.1374C123.338 65.3959 123.585 64.6544 124.203 64.16C124.821 63.6657 125.439 63.2949 126.304 63.2949C126.798 63.2949 127.169 63.4185 127.54 63.5421C127.911 63.6657 128.158 63.9128 128.528 64.16L127.787 65.0251C127.54 64.7779 127.293 64.6544 127.169 64.6544C126.922 64.5308 126.675 64.5308 126.428 64.5308C125.933 64.5308 125.562 64.6544 125.315 65.0251C125.068 65.3959 124.821 65.7666 124.821 66.261C124.821 66.7553 124.944 67.1261 125.315 67.4968C125.686 67.8676 126.057 67.9912 126.551 67.9912C127.045 67.9912 127.416 67.8676 127.663 67.6204V66.7553H126.428V65.7666H128.776V68.1147C127.911 68.7327 127.169 68.9798 126.304 68.9798Z" fill="#A5A5A5"/>
<path d="M139.528 68.9798C138.663 68.9798 138.045 68.7327 137.551 68.1147C137.056 67.6204 136.686 66.8789 136.686 66.1374C136.686 65.3959 136.933 64.6544 137.551 64.16C138.045 63.6657 138.786 63.2949 139.652 63.2949C140.146 63.2949 140.517 63.4185 140.887 63.5421C141.258 63.6657 141.505 63.9128 141.876 64.16L141.135 65.0251C140.64 64.6544 140.146 64.4072 139.775 64.4072C139.281 64.4072 138.91 64.5308 138.663 64.9015C138.416 65.2723 138.169 65.643 138.169 66.1374C138.169 66.6317 138.292 67.0025 138.663 67.3732C138.91 67.744 139.404 67.8676 139.775 67.8676C140.022 67.8676 140.27 67.8676 140.517 67.744C140.764 67.6204 141.011 67.4968 141.258 67.2496L142 67.9912C141.753 68.3619 141.382 68.6091 141.011 68.7327C140.393 68.8562 140.022 68.9798 139.528 68.9798Z" fill="#A5A5A5"/>
<path d="M149.661 68.1147C149.043 68.6091 148.425 68.9798 147.56 68.9798C146.695 68.9798 146.077 68.7327 145.459 68.1147C144.965 67.6204 144.594 66.8789 144.594 66.1374C144.594 65.3959 144.841 64.6544 145.459 64.16C146.077 63.6657 146.695 63.2949 147.56 63.2949C148.425 63.2949 149.043 63.5421 149.661 64.16C150.155 64.6544 150.526 65.3959 150.526 66.1374C150.526 66.8789 150.279 67.6204 149.661 68.1147ZM146.448 67.3732C146.818 67.744 147.189 67.8676 147.683 67.8676C148.178 67.8676 148.548 67.744 148.919 67.3732C149.29 67.0025 149.414 66.6317 149.414 66.1374C149.414 65.643 149.29 65.2723 148.919 64.9015C148.548 64.5308 148.178 64.4072 147.683 64.4072C147.189 64.4072 146.818 64.5308 146.448 64.9015C146.077 65.2723 145.953 65.643 145.953 66.1374C145.953 66.6317 146.077 67.0025 146.448 67.3732Z" fill="#A5A5A5"/>
<path d="M153.986 68.8562V63.2949H155.346L156.829 65.643L158.312 63.2949H159.671V68.8562H158.435V65.2723L156.829 67.6204L155.346 65.2723V68.8562H153.986Z" fill="#A5A5A5"/>
<path d="M163.256 68.8562V63.2949H165.48C166.098 63.2949 166.593 63.4185 167.087 63.7893C167.458 64.16 167.705 64.6544 167.705 65.1487C167.705 65.7666 167.458 66.261 167.087 66.6317C166.716 67.0025 166.098 67.1261 165.48 67.1261H164.615V68.7327H163.256V68.8562ZM164.492 66.1374H165.48C165.728 66.1374 165.975 66.0138 166.222 65.8902C166.345 65.7666 166.469 65.5195 166.469 65.2723C166.469 65.0251 166.345 64.7779 166.222 64.6544C166.098 64.5308 165.851 64.4072 165.48 64.4072H164.492V66.1374Z" fill="#A5A5A5"/>
<path d="M169.805 68.8562L172.153 63.2949H173.265L175.613 68.8562H174.377L173.883 67.6204H171.535L171.041 68.8562H169.805ZM172.029 66.6317H173.512L172.771 64.9015L172.029 66.6317Z" fill="#A5A5A5"/>
<path d="M178.949 68.8562V63.2949H180.061L182.657 66.7553V63.2949H183.893V68.8562H182.904L180.185 65.3959V68.8562H178.949Z" fill="#A5A5A5"/>
<path d="M189.083 68.8562V66.7553L186.982 63.4185H188.342L189.701 65.643L191.061 63.4185H192.42L190.319 66.7553V68.9798H189.083V68.8562Z" fill="#A5A5A5"/>
</svg>
