<svg width="108" height="45" viewBox="0 0 108 45" fill="none" xmlns="http://www.w3.org/2000/svg">
<path d="M40.2092 10.0075H38.3261C38.7692 8.01759 38.88 6.80151 38.88 6.13819C38.88 5.36432 38.6585 4.81156 38.1046 4.36935C37.5508 4.03769 36.5538 3.81658 35.0031 3.81658H32.7877H32.0123H24.9231C24.8123 4.36935 24.3692 5.69598 23.8154 7.90703C22.4862 12.4397 21.6 16.1985 20.9354 19.1834H27.8031C29.4646 19.1834 30.5723 19.0729 31.0154 18.7412C31.4585 18.4095 31.9015 17.5251 32.2338 16.1985H34.1169C33.3415 19.1834 32.7877 22.2789 32.2338 25.4849H30.24C30.3508 24.1583 30.4615 23.3844 30.4615 23.1633C30.4615 22.6106 30.1292 22.1683 29.5754 21.8367C29.2431 21.7261 28.3569 21.6156 26.9169 21.505H20.16C19.4954 24.8216 18.6092 28.3593 17.5015 32.1181C16.3938 35.8769 15.3969 38.8618 14.6215 40.9623C16.5046 41.294 18.1662 41.4045 19.7169 41.4045C20.7138 41.4045 21.6 41.294 22.5969 41.1834L22.0431 43.1734C21.3785 43.2839 20.7138 43.2839 20.16 43.2839C19.6062 43.2839 18.0554 43.1734 15.2862 43.0628C13.6246 42.9523 12.2954 42.8417 11.1877 42.8417C8.86154 42.8417 6.42461 43.0628 3.87692 43.505L4.32 41.5151C6.42461 41.0729 7.86461 40.6307 8.52923 40.0779C9.19385 39.6357 9.74769 38.9724 10.08 38.309C10.8554 36.8719 12.1846 32.4497 14.1785 24.9322L19.6062 3.70603C16.2831 4.03769 13.5138 4.701 11.0769 6.02764C8.64 7.35427 6.86769 9.12312 5.42769 11.3342C3.98769 13.5452 3.32308 15.8668 3.32308 18.1884C3.32308 19.0729 3.43385 20.0678 3.65538 21.0628C3.76615 21.6156 4.09846 22.3894 4.65231 23.3844C5.31692 24.6005 5.64923 25.4849 5.64923 26.0377C5.64923 26.5905 5.42769 26.9221 5.09538 27.3643C4.65231 27.696 4.20923 27.9171 3.54462 27.9171C2.54769 27.9171 1.88308 27.4749 1.21846 26.4799C0.443077 24.9322 0 23.0528 0 20.6206C0 15.8668 1.88308 11.5553 5.53846 7.57538C9.30462 3.59548 14.1785 1.60553 20.2708 1.60553H33.8954C35.4462 1.60553 37.1077 1.49497 38.88 1.27387C39.4338 1.27387 40.5415 0.942211 42.4246 0.5C41.2062 5.47487 40.5415 8.68091 40.2092 10.0075Z" fill="#054973"/>
<path d="M72.4433 14.2085H70.7817C70.7817 12.6608 70.8925 11.3342 70.8925 10.3392C70.8925 7.35427 70.2279 5.36432 69.0094 4.14824C67.7909 2.93216 66.2402 2.3794 64.3571 2.3794C61.8094 2.3794 59.2617 3.37437 56.6033 5.36432C53.9448 7.35427 51.6186 10.5603 49.6248 14.8719C47.7417 19.1834 46.7448 23.6055 46.7448 28.1382C46.7448 32.5603 47.6309 35.8769 49.4033 38.1985C51.1756 40.5201 53.5017 41.7362 56.1602 41.7362C59.8156 41.7362 63.2494 39.5251 66.2402 35.103C66.5725 34.6608 66.9048 34.4397 67.2371 34.4397C67.4586 34.4397 67.7909 34.5503 67.9017 34.6608C68.1233 34.8819 68.234 34.9925 68.234 35.3241C68.234 35.8769 67.5694 36.9824 66.1294 38.6407C64.6894 40.299 62.9171 41.6256 60.8125 42.7312C58.7079 43.8367 56.6033 44.3894 54.4986 44.3894C52.0617 44.5 49.8463 43.8367 47.6309 42.5101C45.5263 41.1834 43.8648 39.4146 42.6463 36.9824C41.4279 34.5503 40.874 31.7864 40.874 28.4698C40.874 23.8266 42.0925 19.294 44.5294 14.7613C46.9663 10.2286 49.9571 6.69096 53.6125 4.25879C57.2679 1.71608 60.8125 0.5 64.2463 0.5C65.4648 0.5 66.6833 0.610553 67.9017 0.942211C68.4556 1.05276 70.5602 1.82663 74.4371 3.15327C73.2186 6.69096 72.554 10.4497 72.4433 14.2085Z" fill="#054973"/>
<path d="M106.006 14.2085H104.344C104.455 12.5503 104.455 11.2236 104.455 10.2286C104.455 7.24372 103.79 5.25377 102.572 4.03769C101.353 2.82161 99.8027 2.26884 97.9196 2.26884C95.3719 2.26884 92.8242 3.26382 90.1658 5.25377C87.5073 7.46482 85.1811 10.5603 83.1873 14.8719C81.3042 19.1834 80.3073 23.6055 80.3073 28.1382C80.3073 32.5603 81.1935 35.8769 82.9658 38.1985C84.7381 40.5201 87.0642 41.7362 89.7227 41.7362C93.3781 41.7362 96.8119 39.5251 99.8027 35.103C100.135 34.6608 100.467 34.4397 100.8 34.4397C101.021 34.4397 101.353 34.5503 101.464 34.6608C101.686 34.8819 101.797 34.9925 101.797 35.3241C101.797 35.8769 101.132 36.9824 99.6919 38.6407C98.2519 40.299 96.4796 41.6256 94.375 42.7312C92.2704 43.8367 90.1658 44.3894 88.0611 44.3894C85.6242 44.3894 83.2981 43.7261 81.1935 42.3995C79.0888 41.0729 77.4273 39.304 76.2088 36.8719C74.9904 34.4397 74.4365 31.6759 74.4365 28.3593C74.4365 23.7161 75.655 19.1834 78.0919 14.6508C80.5288 10.1181 83.5196 6.5804 87.175 4.14824C90.8304 1.71608 94.375 0.5 97.8088 0.5C99.0273 0.5 100.246 0.610553 101.464 0.942211C102.018 1.05276 104.123 1.82663 108 3.15327C106.781 6.69096 106.117 10.4497 106.006 14.2085Z" fill="#054973"/>
</svg>
