<svg width="65" height="20" viewBox="0 0 65 20" fill="none" xmlns="http://www.w3.org/2000/svg">
<g id="Group">
<g id="Group_2">
<path id="Vector" d="M21.9732 10.9159H19.7217V8.16396H21.9732V6.20427C21.9732 5.57884 22.0149 4.99511 22.14 4.45307C22.2651 3.91103 22.4736 3.45238 22.7654 3.03542C23.0573 2.61847 23.516 2.28491 24.0997 2.07643C24.6834 1.78456 25.4339 1.70117 26.3512 1.70117C26.6848 1.70117 27.0601 1.70117 27.3936 1.74287C27.7272 1.78456 28.0608 1.82626 28.3943 1.90965L28.2275 4.82833C28.0191 4.74493 27.8523 4.70324 27.6855 4.66154C27.5187 4.61985 27.3102 4.61985 27.1018 4.61985C26.5597 4.61985 26.1428 4.74493 25.8509 4.99511C25.559 5.24528 25.4339 5.70393 25.4339 6.45444V8.20565H27.9774V10.9575H25.4339V19.3383H21.9732V10.9159Z" fill="#115AA8"/>
<path id="Vector_2" d="M37.5255 19.5886C35.1489 19.5886 33.1892 18.7964 31.6465 17.212C30.062 15.6275 29.3115 13.6679 29.3115 11.3329V11.2912C29.3115 8.95628 30.1037 6.9966 31.6882 5.41218C33.2309 3.78606 35.2323 2.95215 37.6506 2.95215C39.0682 2.95215 40.2774 3.16063 41.2781 3.57758C42.2788 3.99453 43.1544 4.61996 43.9883 5.41218L41.7367 7.99729C40.4025 6.78812 39.0265 6.20439 37.6089 6.20439C36.2746 6.20439 35.1489 6.70473 34.2733 7.66373C33.3977 8.62272 32.939 9.83188 32.939 11.2078V11.2912C32.939 12.7089 33.3977 13.8763 34.2733 14.877C35.1489 15.836 36.2746 16.3364 37.6089 16.3364C38.4845 16.3364 39.1933 16.1696 39.8188 15.8777C40.4442 15.5858 41.1113 15.0855 41.8201 14.4601L44.0717 16.7116C43.1961 17.6706 42.2371 18.3794 41.1947 18.8381C40.2357 19.3384 38.9848 19.5886 37.5255 19.5886Z" fill="#115AA8"/>
<path id="Vector_3" d="M53.9952 19.5886C51.6186 19.5886 49.6589 18.7964 48.1162 17.212C46.5318 15.6275 45.7812 13.6679 45.7812 11.3329V11.2912C45.7812 8.95628 46.5735 6.9966 48.1579 5.41218C49.7006 3.78606 51.702 2.95215 54.162 2.95215C55.5797 2.95215 56.7888 3.16063 57.7895 3.57758C58.7902 3.99453 59.6658 4.61996 60.4997 5.41218L58.2482 7.99729C56.9139 6.78812 55.538 6.20439 54.1203 6.20439C52.7861 6.20439 51.6603 6.70473 50.7847 7.66373C49.9091 8.62272 49.4504 9.83188 49.4504 11.2078V11.2912C49.4504 12.7089 49.9091 13.8763 50.7847 14.877C51.6603 15.836 52.7861 16.3364 54.1203 16.3364C54.9959 16.3364 55.7047 16.1696 56.3302 15.8777C56.9556 15.5858 57.6227 15.0855 58.3316 14.4601L60.5831 16.7116C59.7075 17.6706 58.7485 18.3794 57.7061 18.8381C56.7054 19.3384 55.4546 19.5886 53.9952 19.5886Z" fill="#115AA8"/>
</g>
<g id="Group_3">
<path id="Vector_4" d="M12.0086 5.20359C12.2171 4.41138 12.4672 3.70256 12.7591 2.95204L12.5923 2.86865C10.8411 3.78595 9.21499 4.95342 7.79735 6.37106C8.50617 6.57954 8.88143 7.33006 8.71465 8.03888C8.71465 8.08057 8.67295 8.16397 8.67295 8.20566C8.67295 8.20566 8.67295 8.20566 8.67295 8.16397C8.88143 7.41345 8.42278 6.66293 7.71396 6.45445C6.96344 6.24598 6.21293 6.70463 6.00445 7.41345C5.92106 7.74701 5.96275 8.03888 6.08784 8.33075C4.71189 10.1653 3.66951 12.2918 3.04408 14.6684C2.58543 16.3363 2.37695 18.0041 2.37695 19.6302H14.0517C11.5082 15.5024 10.6326 10.2904 12.0086 5.20359Z" fill="#8DD7F7"/>
<path id="Vector_5" d="M4.33594 19.7137H17.3866V13.5845C12.3414 13.7929 7.67157 16.0445 4.33594 19.7137Z" fill="#A5CD39"/>
<path id="Vector_6" d="M14.7605 1.20068H12.2588V3.03528C11.8836 3.86919 11.5917 4.74479 11.3415 5.62039C10.0073 10.5821 10.7995 15.5856 13.1344 19.7551H17.3457V5.32853L14.7188 3.99427V1.20068H14.7605Z" fill="#115AA8"/>
<path id="Vector_7" fill-rule="evenodd" clip-rule="evenodd" d="M1.04238 5.9122C0.708821 5.8288 0.333563 5.78711 0 5.78711V13.9594C1.7929 13.9594 3.46072 12.7502 3.96106 10.9156C4.5448 8.70579 3.25224 6.49593 1.04238 5.9122Z" fill="#115AA8"/>
<path id="Vector_8" fill-rule="evenodd" clip-rule="evenodd" d="M7.08789 1.7011C7.29637 2.49331 7.9218 3.16043 8.7974 3.36891C9.83979 3.66078 10.9239 3.20213 11.5076 2.28483L8.67231 0.867188L7.08789 1.7011Z" fill="#115AA8"/>
<path id="Vector_9" fill-rule="evenodd" clip-rule="evenodd" d="M0.208477 14.6267C0.125086 14.6267 0.0416954 14.585 0 14.585V19.1298C0.875603 19.0047 1.62612 18.3375 1.87629 17.4619C2.16816 16.2111 1.45934 14.9602 0.208477 14.6267Z" fill="#115AA8"/>
<path id="Vector_10" fill-rule="evenodd" clip-rule="evenodd" d="M7.29622 3.24394C6.54571 3.03546 5.79519 3.49411 5.58671 4.20293C5.37824 4.95345 5.83689 5.70397 6.54571 5.91245C7.29622 6.12092 8.04674 5.66227 8.25522 4.95345C8.46369 4.20293 8.00505 3.45242 7.29622 3.24394Z" fill="#8DD7F7"/>
<path id="Vector_11" fill-rule="evenodd" clip-rule="evenodd" d="M1.20917 19.2549C0.750517 19.1298 0.291868 19.2966 0 19.6302V19.7553H1.87629C1.70951 19.5051 1.50103 19.3383 1.20917 19.2549Z" fill="#8DD7F7"/>
<path id="Vector_12" fill-rule="evenodd" clip-rule="evenodd" d="M0.916992 4.82821C1.25056 5.16177 1.66751 5.45364 2.16785 5.57873C3.5438 5.95399 5.00314 5.12008 5.3784 3.74413C5.50348 3.32718 5.50348 2.95192 5.42009 2.57666L0.916992 4.82821Z" fill="#8DD7F7"/>
<path id="Vector_13" fill-rule="evenodd" clip-rule="evenodd" d="M5.12816 5.70369C4.50273 5.5369 3.8773 5.91216 3.71052 6.53759C3.54374 7.16302 3.919 7.78845 4.54443 7.95524C5.16986 8.12202 5.79529 7.74676 5.96207 7.12133C6.08716 6.53759 5.75359 5.87047 5.12816 5.70369Z" fill="#A5CD39"/>
<path id="Vector_14" fill-rule="evenodd" clip-rule="evenodd" d="M5.87891 2.28463C5.9623 2.36802 6.04569 2.40972 6.12908 2.45141C6.42095 2.5348 6.71281 2.36802 6.75451 2.11785C6.7962 2.03446 6.7962 1.95107 6.75451 1.86768L5.87891 2.28463Z" fill="#115AA8"/>
<path id="Vector_15" fill-rule="evenodd" clip-rule="evenodd" d="M2.20956 13.9177C1.9177 13.8343 1.58413 14.0011 1.50074 14.3347C1.41735 14.6266 1.58413 14.9601 1.9177 15.0435C2.20956 15.1269 2.54313 14.9601 2.62652 14.6266C2.66821 14.3347 2.50143 14.0011 2.20956 13.9177Z" fill="#A5CD39"/>
<path id="Vector_16" d="M13.1338 19.7137H17.345V13.5845C15.2186 13.6679 13.1338 14.1265 11.2158 14.9187C11.6745 16.5865 12.2999 18.2127 13.1338 19.7137Z" fill="#181F4B"/>
<path id="Vector_17" fill-rule="evenodd" clip-rule="evenodd" d="M4.91986 8.45584C4.71138 8.41414 4.5029 8.53923 4.46121 8.70601C4.41951 8.91448 4.5446 9.12296 4.71138 9.16466C4.91986 9.20635 5.12833 9.08127 5.17003 8.91448C5.25342 8.70601 5.12833 8.49753 4.91986 8.45584Z" fill="#115AA8"/>
<path id="Vector_18" fill-rule="evenodd" clip-rule="evenodd" d="M3.16909 5.91248C3.00231 5.87079 2.83552 5.95418 2.79383 6.12096C2.75213 6.28774 2.83552 6.45452 3.00231 6.49622C3.16909 6.53791 3.33587 6.45452 3.37756 6.28774C3.41926 6.12096 3.33587 5.95418 3.16909 5.91248Z" fill="#115AA8"/>
<path id="Vector_19" fill-rule="evenodd" clip-rule="evenodd" d="M9.29837 3.74432C9.0899 3.70262 8.83972 3.82771 8.79803 4.03618C8.75633 4.24466 8.88142 4.49483 9.0899 4.53653C9.29837 4.61992 9.50685 4.49483 9.59024 4.24466C9.63194 4.03618 9.50685 3.82771 9.29837 3.74432Z" fill="#115AA8"/>
</g>
<path id="Vector_20" fill-rule="evenodd" clip-rule="evenodd" d="M59.332 8.16406C58.8317 8.16406 58.373 8.58102 58.373 9.12306C58.373 9.6234 58.79 10.0821 59.332 10.0821C59.8324 10.0821 60.291 9.6651 60.291 9.12306C60.2493 8.58102 59.8324 8.16406 59.332 8.16406ZM59.7907 9.70679C59.9992 9.37323 59.9992 8.87288 59.7907 8.53932C60.1659 8.83119 60.1659 9.41492 59.7907 9.70679Z" fill="#40A0C5"/>
<path id="Vector_21" fill-rule="evenodd" clip-rule="evenodd" d="M63.6692 10.7907C62.4183 10.0402 60.7922 10.4988 60.0417 11.7497C59.2912 13.0006 59.7498 14.6267 61.0007 15.3772C62.2515 16.1277 63.8776 15.6691 64.6282 14.4182C65.3787 13.1256 64.9617 11.4995 63.6692 10.7907ZM62.6685 15.127C63.6275 14.5433 64.2946 13.3758 64.3363 12.25C64.8366 13.5426 64.0027 14.9602 62.6685 15.127Z" fill="#40A0C5"/>
<path id="Vector_22" fill-rule="evenodd" clip-rule="evenodd" d="M63.2098 5.70376C62.4593 5.24511 61.4586 5.53698 61.0416 6.2875C60.583 7.03801 60.8749 8.0387 61.6254 8.45566C62.3759 8.9143 63.3766 8.62244 63.7935 7.87192C64.2522 7.1214 63.9603 6.16241 63.2098 5.70376ZM62.5844 8.33057C63.1681 7.95531 63.5434 7.28818 63.5851 6.62106C63.9186 7.37158 63.4183 8.24718 62.5844 8.33057Z" fill="#40A0C5"/>
</g>
</svg>
