<svg width="95" height="76" viewBox="0 0 95 76" fill="none" xmlns="http://www.w3.org/2000/svg">
<path fill-rule="evenodd" clip-rule="evenodd" d="M48.9795 12.9807L48.6795 16.4807C48.4795 16.4807 48.2795 16.3807 48.0795 16.1807C47.8795 15.9807 47.6795 15.6807 47.6795 15.3807C47.4795 16.1807 47.8795 16.8807 48.5795 17.1807L48.3795 19.8807C46.5795 19.3807 45.1795 17.9807 44.7795 16.1807C44.9795 18.3807 46.2795 20.3807 48.2795 21.4807L47.9795 25.2807C45.2795 23.8807 43.1795 21.4807 42.1795 18.5807C42.8795 22.0807 44.8795 25.1807 47.7795 27.1807L47.3795 32.3807C44.1795 30.2807 41.6795 26.6807 39.8795 23.2807C41.1795 27.7807 43.6795 31.7807 47.1795 34.8807V35.2807L46.7795 39.6807C43.1795 36.4807 40.1795 32.4807 38.1795 28.0807C39.8795 33.3807 42.7795 38.2807 46.5795 42.3807L46.1795 48.2807C41.3795 43.0807 37.8795 36.7807 35.9795 29.9807C37.0795 38.0807 40.5795 45.6807 45.8795 51.7807L45.6795 61.1807C36.7795 53.3807 31.9795 41.9807 32.5795 30.1807C33.1795 18.3807 39.1795 7.48066 48.7795 0.680664C58.3795 7.48066 64.3795 18.3807 64.9795 30.1807C65.5795 41.9807 60.7795 53.3807 51.8795 61.1807L51.6795 51.7807C57.0795 45.6807 60.4795 38.0807 61.5795 29.9807C59.6795 36.7807 56.1795 43.0807 51.3795 48.2807L50.9795 42.3807C54.7795 38.2807 57.6795 33.3807 59.3795 28.0807C57.2795 32.4807 54.3795 36.4807 50.7795 39.6807L50.3795 35.2807V34.8807C53.8795 31.7807 56.3795 27.7807 57.6795 23.2807C55.8795 26.6807 53.3795 30.2807 50.1795 32.3807L49.7795 27.1807C52.6795 25.1807 54.7795 22.0807 55.3795 18.5807C54.3795 21.4807 52.3795 23.8807 49.5795 25.2807L49.2795 21.4807C51.2795 20.4807 52.5795 18.4807 52.7795 16.1807C52.3795 17.9807 50.9795 19.3807 49.1795 19.8807L48.9795 17.1807C49.6795 16.8807 50.0795 16.0807 49.8795 15.3807C49.8795 15.6807 49.7795 15.9807 49.4795 16.1807C49.2795 16.2807 49.0795 16.3807 48.8795 16.4807L48.9795 12.9807Z" fill="#19C374"/>
<path fill-rule="evenodd" clip-rule="evenodd" d="M83.7794 30.9804L81.6794 32.7804C81.5794 32.6804 81.4794 32.4804 81.4794 32.2804C81.4794 32.0804 81.5794 31.7804 81.6794 31.6804C81.1794 31.9804 80.9794 32.6804 81.1794 33.1804L79.5794 34.5804C78.8794 33.3804 78.8794 31.7804 79.6794 30.5804C78.5794 31.8804 78.1794 33.6804 78.6794 35.3804L76.4794 37.2804C75.6794 34.9804 75.8794 32.5804 76.9794 30.3804C75.3794 32.6804 74.8794 35.4804 75.2794 38.2804L72.1794 40.8804C71.5794 37.9804 72.1794 34.5804 73.0794 31.7804C71.2794 34.9804 70.4794 38.5804 70.6794 42.1804L70.4794 42.3804L67.7794 44.5804C67.5794 40.7804 68.0794 36.9804 69.3794 33.3804C67.3794 37.2804 66.2794 41.5804 66.1794 45.8804L63.6794 48.0804C63.6794 47.9804 63.7794 47.8804 63.7794 47.8804C65.6794 43.3804 66.6794 38.5804 66.8794 33.7804C66.9794 33.5804 67.0794 33.4804 67.1794 33.2804C67.0794 33.3804 66.9794 33.4804 66.8794 33.6804C66.8794 32.5804 66.8794 31.3804 66.8794 30.1804C73.5794 24.9804 82.0794 22.7804 90.4794 24.1804C91.9794 33.1804 89.2794 42.4804 83.1794 49.3804C76.9794 56.2804 68.0794 59.8804 58.8794 59.2804L63.9794 53.9804C70.2794 53.5804 76.3794 51.2804 81.4794 47.4804C76.6794 50.1804 71.2794 51.7804 65.7794 51.9804L68.8794 48.4804C73.2794 48.2804 77.4794 47.1804 81.3794 45.2804C77.7794 46.5804 73.9794 47.1804 70.1794 46.8804L72.3794 44.1804L72.5794 43.9804C76.1794 44.1804 79.7794 43.3804 82.9794 41.5804C80.1794 42.4804 76.7794 43.0804 73.8794 42.4804L76.4794 39.3804C79.1794 39.8804 82.0794 39.2804 84.3794 37.6804C82.2794 38.7804 79.7794 38.9804 77.4794 38.1804L79.3794 35.9804C81.0794 36.4804 82.8794 36.1804 84.1794 34.9804C82.9794 35.7804 81.3794 35.7804 80.1794 35.0804L81.5794 33.4804C82.1794 33.6804 82.7794 33.4804 83.0794 32.9804C82.8794 33.1804 82.6794 33.1804 82.4794 33.1804C82.2794 33.1804 82.1794 33.0804 81.9794 32.9804L83.7794 30.9804Z" fill="#19C374"/>
<path fill-rule="evenodd" clip-rule="evenodd" d="M14.1793 30.8808L16.2793 32.6808C16.3793 32.5808 16.4793 32.3808 16.4793 32.1808C16.4793 31.9808 16.3793 31.6808 16.2793 31.5808C16.7793 31.8808 16.9793 32.5808 16.7793 33.0808L18.3793 34.4808C19.0793 33.2808 19.0793 31.6808 18.2793 30.4808C19.3793 31.7808 19.7793 33.5808 19.2793 35.2808L21.4793 37.1808C22.2793 34.8808 22.0793 32.4808 20.9793 30.2808C22.5793 32.5808 23.0793 35.3808 22.6793 38.1808L25.7793 40.7808C26.3793 37.8808 25.7793 34.4808 24.8793 31.6808C26.6793 34.8808 27.4793 38.4808 27.2793 42.0808L27.4793 42.2808L30.1793 44.4808C30.3793 40.6808 29.8793 36.8808 28.5793 33.2808C30.5793 37.1808 31.6793 41.4808 31.7793 45.7808L34.3793 48.0808C34.3793 47.9808 34.2793 47.8808 34.2793 47.8808C32.3793 43.3808 31.3793 38.5808 31.1793 33.7808C31.0793 33.5808 30.9793 33.3808 30.8793 33.1808C30.9793 33.2808 31.0793 33.4808 31.1793 33.5808C31.1793 32.3808 31.1793 31.2808 31.1793 30.0808C24.4793 24.8808 15.8793 22.6808 7.57931 24.0808C6.07931 33.0808 8.77932 42.3808 14.8793 49.2808C21.0793 56.1808 29.9793 59.7808 39.1793 59.1808L34.0793 53.8808C27.7793 53.4808 21.6793 51.1808 16.5793 47.3808C21.3793 50.0808 26.7793 51.6808 32.2793 51.8808L29.1793 48.3808C24.7793 48.1808 20.5793 47.0808 16.6793 45.1808C20.2793 46.4808 24.0793 47.0808 27.8793 46.7808L25.6793 44.0808L25.4793 43.8808C21.8793 44.0808 18.2793 43.2808 15.0793 41.4808C17.8793 42.3808 21.2793 42.9808 24.1793 42.3808L21.5793 39.2808C18.8793 39.7808 15.9793 39.1808 13.6793 37.5808C15.7793 38.6808 18.2793 38.8808 20.5793 38.0808L18.6793 35.8808C16.9793 36.3808 15.1793 36.0808 13.8793 34.8808C15.0793 35.6808 16.6793 35.6808 17.8793 34.9808L16.4793 33.3808C15.8793 33.5808 15.2793 33.3808 14.9793 32.8808C15.1793 33.0808 15.3793 33.0808 15.5793 33.0808C15.7793 33.0808 15.8793 32.9808 16.0793 32.8808L14.1793 30.8808Z" fill="#19C374"/>
<path d="M87.6519 64.0098H88.81L91.1262 67.9082H91.2241L93.5403 64.0098H94.6984L91.6808 68.9195V72.3613H90.6695V68.9195L87.6519 64.0098Z" fill="black"/>
<path d="M81.3047 72.3613V64.0098H84.1266C84.779 64.0098 85.3146 64.1212 85.7333 64.3442C86.1519 64.5644 86.4618 64.8675 86.663 65.2535C86.8642 65.6396 86.9648 66.0786 86.9648 66.5707C86.9648 67.0627 86.8642 67.4991 86.663 67.8797C86.4618 68.2603 86.1533 68.5593 85.7373 68.7768C85.3214 68.9916 84.7899 69.099 84.1429 69.099H81.8593V68.1855H84.1103C84.5561 68.1855 84.915 68.1203 85.1868 67.9898C85.4614 67.8593 85.6599 67.6744 85.7822 67.4352C85.9073 67.1932 85.9698 66.9051 85.9698 66.5707C85.9698 66.2363 85.9073 65.944 85.7822 65.6939C85.6571 65.4438 85.4573 65.2508 85.1827 65.1149C84.9082 64.9762 84.5452 64.9069 84.094 64.9069H82.316V72.3613H81.3047ZM85.2358 68.6096L87.291 72.3613H86.1166L84.094 68.6096H85.2358Z" fill="black"/>
<path d="M79.6042 68.1854C79.6042 69.0663 79.4452 69.8275 79.1271 70.469C78.8091 71.1106 78.3727 71.6054 77.8181 71.9534C77.2635 72.3014 76.6301 72.4754 75.9178 72.4754C75.2056 72.4754 74.5721 72.3014 74.0176 71.9534C73.463 71.6054 73.0266 71.1106 72.7086 70.469C72.3905 69.8275 72.2314 69.0663 72.2314 68.1854C72.2314 67.3046 72.3905 66.5434 72.7086 65.9018C73.0266 65.2602 73.463 64.7655 74.0176 64.4175C74.5721 64.0695 75.2056 63.8955 75.9178 63.8955C76.6301 63.8955 77.2635 64.0695 77.8181 64.4175C78.3727 64.7655 78.8091 65.2602 79.1271 65.9018C79.4452 66.5434 79.6042 67.3046 79.6042 68.1854ZM78.6256 68.1854C78.6256 67.4623 78.5046 66.852 78.2626 66.3545C78.0234 65.857 77.6985 65.4804 77.288 65.2249C76.8802 64.9693 76.4235 64.8416 75.9178 64.8416C75.4122 64.8416 74.9541 64.9693 74.5436 65.2249C74.1358 65.4804 73.8109 65.857 73.569 66.3545C73.3298 66.852 73.2101 67.4623 73.2101 68.1854C73.2101 68.9086 73.3298 69.5189 73.569 70.0164C73.8109 70.5139 74.1358 70.8904 74.5436 71.146C74.9541 71.4015 75.4122 71.5293 75.9178 71.5293C76.4235 71.5293 76.8802 71.4015 77.288 71.146C77.6985 70.8904 78.0234 70.5139 78.2626 70.0164C78.5046 69.5189 78.6256 68.9086 78.6256 68.1854Z" fill="black"/>
<path d="M65.0806 64.9069V64.0098H71.3442V64.9069H68.718V72.3613H67.7067V64.9069H65.0806Z" fill="black"/>
<path d="M63.9035 66.6195H62.8922C62.8324 66.3286 62.7277 66.0731 62.5782 65.8529C62.4314 65.6327 62.252 65.4478 62.0399 65.2983C61.8306 65.1461 61.5981 65.0319 61.3426 64.9558C61.0871 64.8796 60.8206 64.8416 60.5433 64.8416C60.0377 64.8416 59.5796 64.9693 59.1691 65.2249C58.7613 65.4804 58.4364 65.857 58.1945 66.3545C57.9552 66.852 57.8356 67.4623 57.8356 68.1854C57.8356 68.9086 57.9552 69.5189 58.1945 70.0164C58.4364 70.5139 58.7613 70.8904 59.1691 71.146C59.5796 71.4015 60.0377 71.5293 60.5433 71.5293C60.8206 71.5293 61.0871 71.4912 61.3426 71.4151C61.5981 71.339 61.8306 71.2262 62.0399 71.0766C62.252 70.9244 62.4314 70.7382 62.5782 70.518C62.7277 70.2951 62.8324 70.0395 62.8922 69.7513H63.9035C63.8274 70.1782 63.6887 70.5601 63.4876 70.8972C63.2864 71.2343 63.0363 71.5211 62.7372 71.7577C62.4382 71.9915 62.1024 72.1695 61.73 72.2919C61.3603 72.4142 60.9647 72.4754 60.5433 72.4754C59.8311 72.4754 59.1976 72.3014 58.643 71.9534C58.0885 71.6054 57.6521 71.1106 57.334 70.469C57.016 69.8275 56.8569 69.0663 56.8569 68.1854C56.8569 67.3046 57.016 66.5434 57.334 65.9018C57.6521 65.2602 58.0885 64.7655 58.643 64.4175C59.1976 64.0695 59.8311 63.8955 60.5433 63.8955C60.9647 63.8955 61.3603 63.9567 61.73 64.079C62.1024 64.2013 62.4382 64.3808 62.7372 64.6173C63.0363 64.8511 63.2864 65.1365 63.4876 65.4736C63.6887 65.808 63.8274 66.19 63.9035 66.6195Z" fill="black"/>
<path d="M50.1579 72.3613H49.0977L52.1642 64.0098H53.2082L56.2747 72.3613H55.2145L52.7188 65.331H52.6536L50.1579 72.3613ZM50.5494 69.099H54.823V69.9961H50.5494V69.099Z" fill="black"/>
<path d="M44.1187 72.3613V64.0098H49.1263V64.9069H45.13V67.7288H48.7511V68.6259H45.13V72.3613H44.1187Z" fill="black"/>
<path d="M38.8609 64.0098V72.3613H37.8496V64.0098H38.8609Z" fill="black"/>
<path d="M27.6338 64.0098H28.8408L31.679 70.9422H31.7769L34.6151 64.0098H35.8222V72.3613H34.8761V66.0161H34.7945L32.1847 72.3613H31.2713L28.6614 66.0161H28.5799V72.3613H27.6338V64.0098Z" fill="black"/>
<path d="M20.216 72.3613H19.1558L22.2223 64.0098H23.2663L26.3328 72.3613H25.2726L22.7769 65.331H22.7117L20.216 72.3613ZM20.6075 69.099H24.8811V69.9961H20.6075V69.099Z" fill="black"/>
<path d="M11.373 72.3613V64.0098H12.3844V67.7288H16.8374V64.0098H17.8487V72.3613H16.8374V68.6259H12.3844V72.3613H11.373Z" fill="black"/>
<path d="M8.61748 66.0976C8.56855 65.6843 8.37009 65.3635 8.02211 65.1352C7.67413 64.9068 7.24731 64.7926 6.74166 64.7926C6.37193 64.7926 6.04842 64.8524 5.77112 64.9721C5.49655 65.0917 5.28178 65.2562 5.12682 65.4655C4.97458 65.6748 4.89846 65.9127 4.89846 66.1791C4.89846 66.402 4.95147 66.5937 5.05749 66.7541C5.16624 66.9118 5.30489 67.0436 5.47344 67.1497C5.64199 67.253 5.8187 67.3386 6.00356 67.4066C6.18843 67.4718 6.35834 67.5248 6.5133 67.5656L7.3615 67.794C7.57898 67.851 7.82094 67.9299 8.08736 68.0305C8.3565 68.1311 8.6134 68.2684 8.85808 68.4423C9.10547 68.6136 9.30936 68.8338 9.46976 69.103C9.63015 69.3721 9.71035 69.7024 9.71035 70.0939C9.71035 70.5452 9.59209 70.953 9.35558 71.3172C9.12178 71.6815 8.77924 71.9711 8.32795 72.1858C7.87939 72.4006 7.33431 72.508 6.69272 72.508C6.09463 72.508 5.57674 72.4115 5.13905 72.2185C4.70408 72.0254 4.36154 71.7563 4.11143 71.411C3.86404 71.0658 3.72403 70.6648 3.69141 70.2081H4.73534C4.76253 70.5234 4.86855 70.7844 5.05342 70.991C5.241 71.1949 5.47752 71.3471 5.76297 71.4477C6.05114 71.5456 6.36106 71.5945 6.69272 71.5945C7.07876 71.5945 7.42538 71.532 7.73258 71.407C8.03978 71.2792 8.28309 71.1025 8.46252 70.8768C8.64195 70.6485 8.73166 70.3821 8.73166 70.0776C8.73166 69.8003 8.65418 69.5746 8.49922 69.4006C8.34426 69.2267 8.14037 69.0853 7.88754 68.9765C7.63471 68.8678 7.3615 68.7726 7.06789 68.6911L6.04026 68.3975C5.3878 68.2099 4.87127 67.9421 4.49067 67.5941C4.11007 67.2462 3.91977 66.7908 3.91977 66.2281C3.91977 65.7605 4.04618 65.3527 4.29901 65.0047C4.55456 64.654 4.8971 64.3821 5.32663 64.1891C5.75889 63.9934 6.24144 63.8955 6.77428 63.8955C7.31256 63.8955 7.79103 63.992 8.20969 64.185C8.62836 64.3753 8.96002 64.6363 9.20469 64.968C9.45209 65.2997 9.58258 65.6762 9.59617 66.0976H8.61748Z" fill="black"/>
<path d="M2.02254 64.0098V72.3613H1.01123V64.0098H2.02254Z" fill="black"/>
</svg>
