<svg width="108" height="53" viewBox="0 0 108 53" fill="none" xmlns="http://www.w3.org/2000/svg">
<path d="M35.043 8.67908C35.043 8.67908 36.7318 21.908 51.0868 22.8349L39.0117 12.3865L46.1892 17.695C43.8248 15.1672 42.7271 12.3865 42.3049 9.85873C40.3627 9.10038 37.914 8.59482 35.043 8.67908Z" fill="#42AF71"/>
<path d="M49.7356 7.75221C48.1312 5.72995 45.7669 3.96048 42.4737 2.6123C42.4737 2.6123 41.5448 5.81421 42.3048 9.85873C44.6691 10.8699 46.4424 12.3023 47.7934 13.9032L44.6691 7.66795L51.2555 18.6218C49.1445 14.5773 49.0601 10.7856 49.7356 7.75221Z" fill="#42AF71"/>
<path d="M42.3047 9.94238C42.7269 12.4702 43.8246 15.2508 46.189 17.7786L51.4243 21.6546C51.5932 21.7389 51.6776 21.8231 51.8465 21.8231L47.8778 13.9026C46.5267 12.3859 44.669 10.8693 42.3047 9.94238Z" fill="#507435"/>
<path d="M42.3047 9.94238C42.7269 12.4702 43.8246 15.2508 46.189 17.7786L51.4243 21.6546C51.5932 21.7389 51.6776 21.8231 51.8465 21.8231L47.8778 13.9026C46.5267 12.3859 44.669 10.8693 42.3047 9.94238Z" fill="#0D8249"/>
<path d="M64.175 10.8693C63.4995 13.6499 62.064 16.6833 58.9397 19.2954L68.3126 13.1444L55.6465 22.7501C70.0859 22.7501 72.4502 9.60543 72.4502 9.60543C69.157 9.35265 66.4549 9.85822 64.175 10.8693Z" fill="#42AF71"/>
<path d="M54.8867 21.992L55.2245 21.7393C55.0556 21.8235 54.9712 21.9078 54.8867 21.992Z" fill="#507435"/>
<path d="M64.1755 10.8693C65.1888 6.48775 64.1755 2.78027 64.1755 2.78027C61.2201 3.87566 59.1091 5.47662 57.5047 7.16183C58.3491 10.5323 57.8425 13.6499 56.998 16.0935L61.9801 7.83592L57.8425 16.0092C59.278 13.9869 61.3045 12.049 64.1755 10.8693Z" fill="#42AF71"/>
<path d="M64.1752 10.8701C61.3042 12.134 59.2776 14.072 57.8422 16.01L54.8867 21.9083V21.9925C54.9712 21.9083 55.14 21.9083 55.2245 21.824L59.0243 19.3805C62.0642 16.6841 63.4997 13.6507 64.1752 10.8701Z" fill="#507435"/>
<path d="M64.1752 10.8701C61.3042 12.134 59.2776 14.072 57.8422 16.01L54.8867 21.9083V21.9925C54.9712 21.9083 55.14 21.9083 55.2245 21.824L59.0243 19.3805C62.0642 16.6841 63.4997 13.6507 64.1752 10.8701Z" fill="#0D8249"/>
<path d="M52.5225 20.8126L51.2559 18.7061C51.6781 19.3801 52.1003 20.0542 52.5225 20.8126Z" fill="#507435"/>
<path d="M53.7041 0C53.7041 0 50.8331 3.03339 49.7354 7.75199C51.9308 10.4483 52.7752 13.566 53.0285 16.0938L53.3663 3.45469L53.7885 14.6614C54.2952 12.2178 55.3085 9.60572 57.5039 7.24642C56.9973 4.88712 55.8151 2.44356 53.7041 0Z" fill="#42AF71"/>
<path d="M51.2561 18.6219L52.5227 20.7284C52.6071 20.8969 52.776 21.0654 52.8605 21.2339L53.0293 16.0098C52.776 13.482 51.8472 10.4486 49.7361 7.66797C49.0606 10.7856 49.1451 14.5773 51.2561 18.6219Z" fill="#507435"/>
<path d="M51.2561 18.6219L52.5227 20.7284C52.6071 20.8969 52.776 21.0654 52.8605 21.2339L53.0293 16.0098C52.776 13.482 51.8472 10.4486 49.7361 7.66797C49.0606 10.7856 49.1451 14.5773 51.2561 18.6219Z" fill="#0D8249"/>
<path d="M57.5884 7.16211C55.4774 9.52141 54.3797 12.2178 53.873 14.5771L54.1264 20.9809L57.0818 16.0937C57.8418 13.6502 58.3484 10.5325 57.5884 7.16211Z" fill="#507435"/>
<path d="M57.5884 7.16211C55.4774 9.52141 54.3797 12.2178 53.873 14.5771L54.1264 20.9809L57.0818 16.0937C57.8418 13.6502 58.3484 10.5325 57.5884 7.16211Z" fill="#0D8249"/>
<path d="M4.47537 36.7378C4.47537 37.1591 4.47537 37.4961 4.47537 37.8332C4.47537 38.2545 4.47537 38.76 4.55981 39.2656C4.64425 39.8554 4.72869 40.361 4.89758 40.698C5.06646 41.1193 5.23534 41.4564 5.48866 41.7091V41.9619H0V41.7091C0.253323 41.5406 0.506646 41.2036 0.675528 40.698C0.84441 40.1925 0.928851 39.6869 1.01329 39.2656C1.09773 38.9285 1.09773 38.423 1.09773 37.8332V36.7378V28.1432V27.3006C1.09773 26.9635 1.01329 26.6265 1.01329 26.458C0.928851 26.2894 0.84441 25.9524 0.675528 25.6153C0.506646 25.2783 0.253323 25.1098 0 24.9413V24.6885H5.5731V24.9413C5.31978 25.1098 5.06646 25.2783 4.98202 25.6153C4.81314 25.8681 4.72869 26.2052 4.64425 26.458C4.55981 26.795 4.55981 27.132 4.55981 27.3006C4.55981 27.4691 4.55981 27.8061 4.55981 28.1432V36.7378H4.47537Z" fill="black"/>
<path d="M24.9942 29.2384H24.7409C23.8965 28.5643 22.9677 28.0588 21.9544 27.7217C20.9411 27.3847 19.6745 27.2162 18.3234 27.2162C17.3101 27.2162 16.4657 27.3004 15.7902 27.4689C15.1991 27.5532 14.608 27.806 14.1858 27.9745C13.7636 28.2273 13.4258 28.4801 13.3414 28.7328C13.1725 29.0699 13.0881 29.4069 13.0881 29.6597C13.0881 30.081 13.2569 30.4181 13.5947 30.6708C13.9325 30.9236 14.3547 31.0921 14.8613 31.1764C15.4524 31.2607 16.0435 31.3449 16.719 31.4292C17.479 31.4292 18.239 31.5134 18.9145 31.5134C19.8433 31.5134 20.7722 31.5977 21.8699 31.682C22.8832 31.7662 23.7276 32.019 24.4876 32.3561C25.2476 32.6931 25.9231 33.1144 26.4297 33.7885C26.9364 34.3783 27.1897 35.3052 27.1897 36.4006C27.1897 38.2543 26.4297 39.6867 24.9098 40.6979C23.3899 41.709 21.1099 42.2146 18.1545 42.2146C16.8879 42.2146 15.8746 42.1303 15.0302 41.9618C14.1858 41.7933 13.4258 41.6247 12.7503 41.372C12.1592 41.2034 11.6526 40.9506 11.0615 40.6136C10.977 40.5293 10.7237 40.4451 10.3859 40.2766C10.0482 40.108 9.79486 39.9395 9.62598 39.8553L10.977 36.9061H11.2304C11.9903 37.5802 13.0036 38.17 14.2702 38.5913C15.6213 39.0127 17.0568 39.2654 18.6612 39.2654C19.5056 39.2654 20.2655 39.1812 20.8566 39.0127C21.4477 38.9284 21.9544 38.7599 22.3766 38.5071C22.7988 38.3386 23.0521 38.0015 23.221 37.7487C23.3899 37.4117 23.4743 37.0747 23.4743 36.7376C23.4743 36.3163 23.3054 35.9793 23.0521 35.6422C22.7988 35.3894 22.461 35.2209 21.9544 35.0524C21.4477 34.9681 20.9411 34.8839 20.35 34.7996C19.59 34.7154 18.9989 34.7154 18.4923 34.7154C18.3234 34.7154 17.9856 34.7154 17.5634 34.7154C17.1412 34.7154 16.8035 34.7154 16.5501 34.7154C15.7902 34.7154 15.1146 34.6311 14.5236 34.5468C13.9325 34.4626 13.3414 34.3783 12.6659 34.1255C12.0748 33.957 11.5681 33.7042 11.1459 33.3672C10.7237 33.0301 10.3859 32.6088 10.1326 32.1033C9.8793 31.5977 9.71042 31.0079 9.71042 30.1653C9.71042 29.1541 9.96374 28.2273 10.4704 27.5532C10.977 26.7948 11.5681 26.205 12.4125 25.7837C13.2569 25.2782 14.1858 24.9411 15.1991 24.7726C16.2124 24.6041 17.3101 24.4355 18.4923 24.4355C19.59 24.4355 20.5189 24.5198 21.4477 24.6041C22.3766 24.7726 23.221 24.9411 23.8121 25.1096C24.572 25.3624 25.0787 25.5309 25.5009 25.6995C26.0075 25.9522 26.3453 26.1208 26.5142 26.205L24.9942 29.2384Z" fill="black"/>
<path d="M46.2737 31.8506V28.1432V27.3006C46.2737 26.9635 46.1892 26.6265 46.1892 26.458C46.1048 26.2052 46.0203 25.9524 45.9359 25.6153C45.8515 25.3626 45.6826 25.1098 45.4292 24.9413V24.6885H50.6646V24.9413C50.4113 25.194 50.2424 25.3626 50.1579 25.6153C49.9891 25.9524 49.9046 26.2894 49.9046 26.458C49.8202 26.7107 49.8202 27.0478 49.8202 27.3006C49.8202 27.4691 49.8202 27.8061 49.8202 28.1432V36.7378C49.8202 37.1591 49.8202 37.4961 49.8202 37.8332C49.8202 38.3387 49.8202 38.8443 49.9046 39.2656C49.9046 39.6869 50.0735 40.1925 50.1579 40.698C50.2424 41.1193 50.4113 41.4564 50.6646 41.7091V41.9619H45.4292V41.7091C45.6826 41.5406 45.8515 41.2036 45.9359 40.698C46.1048 40.1925 46.1892 39.6869 46.1892 39.2656C46.2737 38.9285 46.2737 38.423 46.2737 37.8332V36.7378V34.884H35.5497V36.7378C35.5497 37.1591 35.5497 37.4961 35.5497 37.8332C35.5497 38.3387 35.5497 38.8443 35.6341 39.2656C35.7185 39.7711 35.803 40.2767 35.8874 40.698C35.9719 41.1193 36.1407 41.4564 36.3941 41.7091V41.9619H31.2432V41.7091C31.4965 41.5406 31.6654 41.2036 31.7498 40.698C31.8342 40.2767 31.9187 39.7711 32.0031 39.2656C32.0876 38.8443 32.0876 38.3387 32.172 37.8332V36.7378V28.1432V27.3006C32.172 26.9635 32.0876 26.7107 32.0031 26.458C31.9187 26.2052 31.8342 25.8681 31.7498 25.6153C31.6654 25.3626 31.4965 25.1098 31.2432 24.9413V24.6885H36.4785V24.9413C36.2252 25.1098 36.0563 25.3626 35.9719 25.6153C35.8874 25.9524 35.7185 26.2052 35.7185 26.458C35.6341 26.7107 35.6341 27.0478 35.6341 27.3006C35.6341 27.4691 35.6341 27.8061 35.6341 28.1432V31.8506H46.2737Z" fill="black"/>
<path d="M53.4512 41.9619V41.7091C53.6201 41.5406 53.9578 41.2036 54.2956 40.698C54.5489 40.2767 54.8867 39.8554 55.14 39.2656C55.4778 38.6758 55.7311 38.1702 55.9 37.8332C56.0688 37.4118 56.2377 37.0748 56.4066 36.7378L60.2065 28.1432C60.3753 27.8061 60.4598 27.5533 60.5442 27.3006C60.6287 26.9635 60.7975 26.7107 60.7975 26.458C60.882 26.1209 60.882 25.8681 60.882 25.6153C60.882 25.3626 60.7975 25.1098 60.5442 24.9413V24.6885H66.1173V24.9413C66.0329 25.194 65.9484 25.4468 66.1173 25.8681C66.2018 26.2894 66.4551 26.795 66.624 27.2163L71.0993 36.7378C71.0993 36.822 71.1838 36.9905 71.3527 37.2433C71.4371 37.4961 71.606 37.6646 71.606 37.8332C71.7749 38.3387 72.0282 38.76 72.3659 39.2656C72.6193 39.8554 72.957 40.2767 73.2104 40.698C73.4637 41.1193 73.717 41.4564 73.9703 41.7091V41.9619H68.9039V41.7091C69.0727 41.5406 69.1572 41.2878 69.1572 41.0351C69.1572 40.7823 69.1572 40.5295 69.0728 40.1925C69.0728 40.1082 68.9039 39.7711 68.735 39.3498C68.6505 39.0971 68.4817 38.8443 68.3972 38.5915L68.1439 38.0017H59.362L59.1087 38.5915C58.9398 38.8443 58.8554 39.1813 58.771 39.3498C58.6021 39.7711 58.5176 40.1082 58.4332 40.1925C58.3487 40.5295 58.3487 40.7823 58.3487 41.0351C58.3487 41.2878 58.3488 41.5406 58.5176 41.7091V41.9619H53.4512ZM66.8773 35.3053L63.5841 27.9746H63.4996L60.2909 35.3053H66.8773Z" fill="black"/>
<path d="M97.7826 24.6885V24.9413C97.5293 25.1098 97.3604 25.3626 97.276 25.6153C97.1071 25.9524 97.0227 26.2894 97.0227 26.458C96.9382 26.7107 96.9382 27.0478 96.9382 27.3006C96.9382 27.4691 96.9382 27.8061 96.9382 28.1432V36.7378C96.9382 37.1591 96.9382 37.4961 96.9382 37.8332C96.9382 38.3387 96.9382 38.8443 97.0227 39.2656C97.0227 39.6869 97.1915 40.1925 97.276 40.698C97.3604 41.1193 97.5293 41.4564 97.7826 41.7091V41.9619H92.7162V41.7091C92.8851 41.5406 93.0539 41.2036 93.2228 40.698C93.3073 40.2767 93.3917 39.7711 93.4761 39.2656C93.4761 38.9285 93.5606 38.423 93.5606 37.8332V36.7378V30.2497H93.4761L88.4097 39.9397H85.8765L81.0633 30.2497H80.9789V36.7378C80.9789 37.1591 80.9789 37.4961 80.9789 37.8332C80.9789 38.3387 80.9789 38.8443 81.0633 39.2656C81.1478 39.7711 81.2322 40.1925 81.3166 40.698C81.4011 41.1193 81.6544 41.4564 81.8233 41.7091V41.9619H76.7568V41.7091C77.0102 41.5406 77.179 41.2036 77.2635 40.698C77.3479 40.361 77.4324 39.8554 77.5168 39.2656C77.5168 38.9285 77.6012 38.423 77.6012 37.8332V36.7378V28.1432V27.3006C77.6012 26.9635 77.5168 26.6265 77.5168 26.458C77.4324 26.1209 77.3479 25.7839 77.2635 25.6153C77.179 25.3626 77.0102 25.1098 76.7568 24.9413V24.6885H82.6677V24.9413C82.4988 25.1098 82.4144 25.3626 82.4144 25.6153C82.4144 25.8681 82.4988 26.2052 82.5833 26.458C82.6677 26.6265 82.7521 26.9635 82.921 27.3006C83.0055 27.3848 83.0899 27.7219 83.3432 28.1432L87.1431 35.8109H87.2275L91.1118 28.1432C91.1962 28.0589 91.2807 27.7219 91.4496 27.3006C91.6184 26.9635 91.7873 26.6265 91.7873 26.458C91.8718 26.2052 91.9562 25.8681 91.9562 25.6153C91.9562 25.3626 91.8718 25.1098 91.7873 24.9413V24.6885H97.7826Z" fill="black"/>
<path d="M106.903 36.7378C106.903 37.1591 106.903 37.4961 106.903 37.8332C106.903 38.2545 106.903 38.76 106.987 39.2656C107.071 39.8554 107.156 40.361 107.325 40.698C107.494 41.1193 107.663 41.4564 107.916 41.7091V41.9619H102.343V41.7091C102.596 41.5406 102.849 41.2036 103.018 40.698C103.187 40.1925 103.272 39.6869 103.356 39.2656C103.441 38.9285 103.441 38.423 103.441 37.8332V36.7378V28.1432V27.3006C103.441 26.9635 103.356 26.6265 103.356 26.458C103.272 26.2894 103.187 25.9524 103.018 25.6153C102.849 25.3626 102.596 25.1098 102.343 24.9413V24.6885H107.916V24.9413C107.663 25.1098 107.409 25.3626 107.325 25.6153C107.156 25.8681 107.071 26.2052 106.987 26.458C106.903 26.795 106.903 27.132 106.903 27.3006C106.903 27.4691 106.903 27.8061 106.903 28.1432V36.7378Z" fill="black"/>
<path d="M33.776 49.2087V49.9671C33.776 51.0625 33.776 51.8208 33.8604 52.0736C33.8604 52.2421 33.9449 52.3264 33.9449 52.4949C34.0293 52.5792 34.1138 52.6634 34.1982 52.6634C34.3671 52.6634 34.536 52.6634 34.7049 52.6634C34.7893 52.6634 34.8737 52.6634 34.8737 52.7477C34.8737 52.8319 34.7893 52.8319 34.6204 52.8319C34.3671 52.8319 34.1138 52.8319 33.6916 52.8319C33.3538 52.8319 33.1005 52.8319 33.1005 52.8319C33.016 52.8319 32.8472 52.8319 32.5094 52.8319C32.1716 52.8319 32.0027 52.8319 31.8339 52.8319C31.665 52.8319 31.665 52.8319 31.665 52.7477C31.665 52.6634 31.7494 52.6634 31.8339 52.6634C31.9183 52.6634 32.0872 52.6634 32.1716 52.6634C32.3405 52.6634 32.4249 52.4949 32.4249 52.1579C32.4249 51.9051 32.5094 51.1467 32.5094 50.0513V48.2819C32.5094 47.1022 32.5094 46.4281 32.5094 46.1753C32.5094 46.0068 32.4249 45.8383 32.4249 45.754C32.3405 45.6698 32.2561 45.5855 32.0872 45.5855C32.0027 45.5855 31.9183 45.5855 31.665 45.5855C31.5805 45.5855 31.4961 45.5855 31.4961 45.5013C31.4961 45.417 31.5805 45.417 31.7494 45.417C31.8339 45.417 32.0027 45.417 32.1716 45.417C32.3405 45.417 32.5094 45.417 32.5938 45.417C32.9316 45.417 33.1849 45.417 33.1849 45.417C34.7893 45.417 35.6337 45.417 35.8026 45.417C36.0559 45.417 36.1403 45.417 36.2248 45.417C36.2248 45.417 36.2248 45.417 36.3092 45.417H36.3937C36.4781 45.417 36.4781 45.417 36.4781 45.5013C36.4781 45.5013 36.4781 45.5855 36.4781 45.6698C36.4781 45.754 36.4781 45.8383 36.3937 45.9226C36.3937 45.9226 36.3937 46.0911 36.3937 46.3439C36.3937 46.5966 36.3937 46.6809 36.3937 46.7652C36.3937 46.8494 36.3092 46.9337 36.3092 46.9337C36.2248 46.9337 36.2248 46.8494 36.2248 46.7652C36.2248 46.5966 36.2248 46.5124 36.1403 46.4281C36.0559 46.2596 35.8026 46.1753 35.4648 46.0911H33.9449C33.8604 46.0911 33.8604 46.1753 33.8604 46.2596V48.7032C33.8604 48.7874 33.8604 48.7874 33.9449 48.7874H35.2115C35.3804 48.7874 35.5493 48.7874 35.6337 48.7874C35.8026 48.7874 35.9715 48.7032 36.0559 48.6189C36.1403 48.5346 36.1403 48.5346 36.2248 48.5346C36.2248 48.5346 36.3092 48.5346 36.3092 48.6189V48.7032C36.3092 48.7874 36.3092 48.8717 36.3092 48.9559C36.3092 49.0402 36.3092 49.1245 36.3092 49.2087C36.3092 49.4615 36.3092 49.7143 36.3092 49.9671C36.3092 50.0513 36.3092 50.1356 36.2248 50.1356C36.1403 50.1356 36.1403 50.0513 36.1403 49.9671C36.1403 49.8828 36.1403 49.7986 36.0559 49.63C35.9715 49.4615 35.8026 49.293 35.5493 49.293C35.3804 49.293 34.8737 49.293 34.1138 49.293C33.8604 49.1245 33.776 49.2087 33.776 49.2087Z" fill="black"/>
<path d="M40.3621 50.8096H38.3355C38.3355 50.8096 38.2511 50.8096 38.2511 50.8938L37.7444 51.9892C37.66 52.1577 37.5755 52.3263 37.5755 52.4948C37.5755 52.6633 37.66 52.7476 37.9133 52.7476H38.0822C38.1666 52.7476 38.2511 52.7476 38.2511 52.8318C38.2511 52.9161 38.1666 52.9161 38.0822 52.9161C37.9977 52.9161 37.8289 52.9161 37.5755 52.9161C37.3222 52.9161 37.1533 52.9161 37.0689 52.9161C37.0689 52.9161 36.9845 52.9161 36.9 52.9161C36.8156 52.9161 36.6467 52.9161 36.4778 52.9161C36.3089 52.9161 36.14 52.9161 36.0556 52.9161C35.9712 52.9161 35.8867 52.9161 35.8867 52.8318C35.8867 52.7476 35.8867 52.7476 35.9712 52.7476C35.9712 52.7476 36.0556 52.7476 36.14 52.7476C36.2245 52.7476 36.2245 52.7476 36.3089 52.7476C36.4778 52.7476 36.6467 52.6633 36.7311 52.4948C36.8156 52.4105 36.9 52.242 37.0689 51.9892L39.3488 46.6808C39.4332 46.428 39.5177 46.3438 39.6021 46.3438C39.6866 46.3438 39.6866 46.3437 39.771 46.428C39.771 46.428 39.8554 46.5123 39.8554 46.6808C39.9399 46.8493 40.2776 47.6077 40.8687 49.0401C41.4598 50.4725 41.882 51.3994 42.0509 51.8207C42.3042 52.4105 42.5576 52.6633 42.8109 52.7476C42.8953 52.7476 43.0642 52.7476 43.1486 52.7476C43.2331 52.7476 43.2331 52.7476 43.2331 52.8318C43.2331 52.9161 43.1486 52.9161 42.8953 52.9161C42.3042 52.9161 41.7131 52.9161 41.2065 52.9161C41.0376 52.9161 40.9532 52.9161 40.9532 52.8318C40.9532 52.7476 40.9532 52.7476 41.0376 52.7476C41.0376 52.7476 41.1221 52.7476 41.1221 52.6633V52.579L40.4465 50.8938C40.4465 50.8096 40.3621 50.8096 40.3621 50.8096ZM38.5044 50.304H40.1932C40.1932 50.304 40.2776 50.304 40.1932 50.2197L39.3488 48.1132C39.3488 48.029 39.3488 48.029 39.3488 48.029C39.3488 48.029 39.3488 48.029 39.2644 48.1132L38.5044 50.304C38.4199 50.304 38.4199 50.304 38.5044 50.304Z" fill="black"/>
<path d="M47.2866 53.0001C46.0199 53.0001 45.0067 52.663 44.3311 52.0732C43.5712 51.4834 43.2334 50.6408 43.2334 49.6296C43.2334 49.2926 43.3178 48.8713 43.4867 48.45C43.6556 48.0287 43.9089 47.6916 44.2467 47.3546C44.9222 46.7648 45.8511 46.4277 47.0332 46.4277C47.371 46.4277 47.7932 46.4277 48.2999 46.512C48.3843 46.512 48.5532 46.512 48.7221 46.5963C48.8909 46.5963 49.0598 46.6805 49.1443 46.6805C49.2287 46.6805 49.3131 46.6805 49.3131 46.7648V46.849C49.3131 46.849 49.3131 46.9333 49.3131 47.0176C49.3131 47.1018 49.3131 47.1861 49.3131 47.2703C49.3131 47.3546 49.3131 47.5231 49.3131 47.7759C49.3131 48.0287 49.3131 48.113 49.3131 48.1972C49.3131 48.3657 49.2287 48.3657 49.2287 48.3657C49.1443 48.3657 49.1443 48.2815 49.1443 48.1972C49.1443 47.8602 49.0598 47.6074 48.8065 47.4389C48.4687 47.1018 47.8777 46.9333 47.1177 46.9333C46.3577 46.9333 45.8511 47.1018 45.5133 47.4389C45.0067 47.8602 44.7533 48.6185 44.7533 49.6296C44.7533 50.1352 44.8378 50.5565 45.0067 50.8936C45.1755 51.3149 45.4289 51.5676 45.6822 51.8204C45.9355 52.0732 46.2733 52.2417 46.5266 52.326C46.8644 52.4102 47.1177 52.4945 47.4554 52.4945C47.8777 52.4945 48.2154 52.4945 48.3843 52.4102C48.6376 52.326 48.8065 52.2417 48.9754 52.0732C49.1443 51.9047 49.2287 51.7362 49.3131 51.4834C49.3131 51.3991 49.3976 51.3149 49.3976 51.3149C49.482 51.3149 49.482 51.3991 49.482 51.4834C49.482 51.5676 49.482 51.7362 49.3976 51.9889C49.3131 52.2417 49.3131 52.4945 49.3131 52.5788C49.3131 52.663 49.2287 52.7473 49.0598 52.8316C48.5532 52.9158 48.0465 53.0001 47.2866 53.0001Z" fill="black"/>
<path d="M52.2681 50.4725V47.1021H51.0015C50.5793 47.1021 50.2415 47.1864 50.1571 47.3549C50.0727 47.4391 50.0727 47.5234 49.9882 47.6077C49.9882 47.6919 49.9038 47.6919 49.9038 47.6919C49.8193 47.6919 49.8193 47.6077 49.8193 47.5234C49.8193 47.4391 49.8193 47.2706 49.9038 47.0178C49.9882 46.7651 49.9882 46.5965 49.9882 46.5123C49.9882 46.428 50.0727 46.3438 50.0727 46.3438C50.0727 46.3438 50.1571 46.3438 50.2415 46.3438C50.326 46.3438 50.4104 46.428 50.4949 46.428C50.7482 46.428 51.0015 46.428 51.3393 46.428H54.8858C55.1391 46.428 55.308 46.428 55.4769 46.428H55.5613H55.6458C55.7302 46.428 55.7302 46.5123 55.7302 46.5965C55.7302 46.6808 55.7302 46.8493 55.7302 47.1021C55.7302 47.3549 55.7302 47.5234 55.7302 47.6077C55.7302 47.6919 55.7302 47.7762 55.6458 47.7762C55.5613 47.7762 55.5613 47.6919 55.5613 47.6077V47.5234C55.5613 47.3549 55.4769 47.2706 55.308 47.1864C55.1391 47.1021 54.8858 47.0178 54.548 47.0178H53.4503V50.3883C53.4503 51.3151 53.4503 51.905 53.5347 52.1577C53.5347 52.3263 53.6192 52.4105 53.6192 52.4948C53.7036 52.579 53.7036 52.579 53.8725 52.6633C53.9569 52.6633 54.1258 52.6633 54.2947 52.6633C54.3792 52.6633 54.4636 52.6633 54.4636 52.7476C54.4636 52.8318 54.3792 52.8318 54.2947 52.8318C54.0414 52.8318 53.7881 52.8318 53.4503 52.8318C53.1125 52.8318 52.9437 52.8318 52.8592 52.8318C52.7748 52.8318 52.6059 52.8318 52.3526 52.8318C52.0992 52.8318 51.8459 52.8318 51.7615 52.8318C51.677 52.8318 51.5926 52.8318 51.5926 52.7476C51.5926 52.6633 51.677 52.6633 51.7615 52.6633C51.9304 52.6633 52.0148 52.6633 52.0992 52.6633C52.2681 52.6633 52.3526 52.4948 52.3526 52.242C52.2681 51.9892 52.2681 51.3994 52.2681 50.4725Z" fill="black"/>
<path d="M59.8683 53.0008C59.2772 53.0008 58.6862 52.9165 58.2639 52.6637C57.7573 52.4952 57.4195 52.1582 57.1662 51.9054C56.9129 51.5683 56.6596 51.2313 56.5751 50.8943C56.4062 50.5572 56.4063 50.1359 56.4063 49.7146C56.4063 49.3776 56.4062 49.1248 56.4907 48.7877C56.5751 48.4507 56.744 48.1979 56.9129 47.9451C57.0818 47.6923 57.3351 47.4396 57.5884 47.1868C57.8417 46.934 58.1795 46.7655 58.6017 46.6812C59.0239 46.5127 59.4461 46.5127 59.9528 46.5127C61.0505 46.5127 61.8949 46.7655 62.5704 47.3553C63.246 47.9451 63.4993 48.7035 63.4993 49.6303C63.4993 50.6415 63.1615 51.3998 62.486 52.0739C61.8105 52.6637 60.9661 53.0008 59.8683 53.0008ZM60.2061 52.5795C60.375 52.5795 60.5439 52.5795 60.6283 52.4952C60.7972 52.4952 60.9661 52.4109 61.1349 52.2424C61.3038 52.1582 61.4727 51.9896 61.6416 51.8211C61.8105 51.6526 61.8949 51.3998 61.9794 51.0628C62.0638 50.7257 62.1482 50.3044 62.1482 49.8831C62.1482 48.9563 61.8949 48.2822 61.3883 47.6923C60.8816 47.1868 60.2905 46.8497 59.615 46.8497C59.3617 46.8497 59.1084 46.8497 58.855 46.934C58.6017 47.0183 58.4328 47.1025 58.1795 47.3553C57.9262 47.5238 57.7573 47.7766 57.6729 48.1979C57.5884 48.535 57.504 48.9563 57.504 49.4618C57.504 50.3887 57.7573 51.0628 58.1795 51.6526C58.7706 52.2424 59.4461 52.5795 60.2061 52.5795Z" fill="black"/>
<path d="M65.1032 50.4729V48.9563C65.1032 47.9451 65.1032 47.3553 65.1032 47.1868C65.1032 47.0183 65.1032 46.934 65.0188 46.8497C64.9343 46.7655 64.8499 46.7655 64.7654 46.6812C64.681 46.6812 64.5966 46.6812 64.4277 46.6812C64.3432 46.6812 64.2588 46.6812 64.2588 46.597C64.2588 46.5127 64.3432 46.5127 64.4277 46.5127C64.5966 46.5127 64.8499 46.5127 65.1032 46.5127C65.3565 46.5127 65.5254 46.5127 65.6098 46.5127C65.6943 46.5127 65.9476 46.5127 66.2854 46.5127C66.6231 46.5127 66.8765 46.5127 66.9609 46.5127C67.7209 46.5127 68.2275 46.597 68.6497 46.8497C68.8186 46.934 68.903 47.1025 69.0719 47.3553C69.2408 47.6081 69.2408 47.7766 69.2408 48.0294C69.2408 48.3664 69.1564 48.6192 68.9875 48.9563C68.8186 49.209 68.4808 49.5461 68.0586 49.8831C68.9875 51.0628 69.663 51.8211 70.0008 52.0739C70.3385 52.4109 70.5919 52.5795 70.9296 52.6637C71.0141 52.6637 71.0985 52.6637 71.0985 52.6637C71.1829 52.6637 71.183 52.6637 71.183 52.748C71.183 52.8322 71.0985 52.8322 71.0141 52.8322H70.1697C69.7475 52.8322 69.4097 52.748 69.2408 52.6637C69.0719 52.5795 68.903 52.4109 68.7342 52.2424C68.5653 52.0739 68.312 51.8211 68.0586 51.3998C67.9742 51.2313 67.8053 50.9785 67.552 50.7257C67.3831 50.4729 67.2142 50.3044 67.2142 50.2202C67.2142 50.2202 67.1298 50.1359 67.0453 50.1359H66.2854C66.2009 50.1359 66.2009 50.1359 66.2009 50.2202V50.3044C66.2009 51.2313 66.2009 51.8211 66.2854 52.0739C66.2854 52.2424 66.3698 52.3267 66.3698 52.4109C66.3698 52.4952 66.4543 52.4952 66.6231 52.5795C66.7076 52.5795 66.8765 52.5795 67.0453 52.5795C67.1298 52.5795 67.1298 52.5795 67.1298 52.6637C67.1298 52.748 67.0453 52.748 66.9609 52.748C66.792 52.748 66.4543 52.748 66.1165 52.748C65.7787 52.748 65.6098 52.748 65.6098 52.748C65.6098 52.748 65.441 52.748 65.1032 52.748C64.8499 52.748 64.5966 52.748 64.5121 52.748C64.4277 52.748 64.3432 52.748 64.3432 52.6637C64.3432 52.5795 64.4277 52.5795 64.5121 52.5795C64.5966 52.5795 64.7654 52.5795 64.8499 52.5795C65.0188 52.5795 65.1032 52.4109 65.1032 52.1582C65.1032 51.9896 65.1032 51.3998 65.1032 50.4729ZM66.2854 47.1025V49.6303C66.2854 49.7146 66.2854 49.7146 66.3698 49.7989C66.5387 49.8831 66.792 49.8831 67.0453 49.8831C67.2987 49.8831 67.552 49.7989 67.6364 49.7146C67.9742 49.4618 68.2275 49.0405 68.2275 48.4507C68.2275 47.9451 68.0586 47.5238 67.8053 47.271C67.552 47.0183 67.2142 46.934 66.8765 46.934C66.6231 46.934 66.4543 46.934 66.3698 46.934C66.2854 47.0183 66.2854 47.1025 66.2854 47.1025Z" fill="black"/>
<path d="M72.7035 51.3995V50.7255C72.7035 50.3884 72.6191 50.1356 72.5347 49.8828C72.5347 49.7986 72.2813 49.4615 71.8591 48.7875C71.4369 48.1134 71.1836 47.6921 71.0147 47.4393C70.7614 47.1022 70.5925 46.9337 70.4236 46.8495C70.2548 46.7652 70.1703 46.7652 70.0859 46.7652C70.0014 46.7652 69.917 46.7652 69.917 46.6809C69.917 46.5967 70.0014 46.5967 70.0859 46.5967C70.0859 46.5967 70.2548 46.5967 70.5925 46.5967C70.8458 46.5967 71.0992 46.5967 71.1836 46.5967C71.268 46.5967 71.3525 46.5967 71.6058 46.5967C71.8591 46.5967 72.028 46.5967 72.1969 46.5967C72.2813 46.5967 72.3658 46.5967 72.3658 46.6809C72.3658 46.6809 72.2813 46.7652 72.1969 46.7652H72.1125C72.028 46.7652 72.028 46.8495 72.028 46.9337C72.028 47.018 72.028 47.1022 72.1125 47.1865C72.1969 47.2708 72.3658 47.6921 72.8724 48.4504C73.2946 49.2088 73.5479 49.6301 73.6324 49.7143C73.6324 49.7143 73.8857 49.293 74.2235 48.6189C74.6457 47.9449 74.8146 47.5235 74.899 47.4393C74.9834 47.2708 75.0679 47.1022 75.0679 47.018C75.0679 46.9337 74.9834 46.8495 74.899 46.8495C74.8146 46.8495 74.7301 46.7652 74.7301 46.7652C74.7301 46.6809 74.8146 46.6809 74.899 46.6809C74.9834 46.6809 75.1523 46.6809 75.3212 46.6809C75.4901 46.6809 75.659 46.6809 75.7434 46.6809C75.8279 46.6809 75.9967 46.6809 76.2501 46.6809C76.5034 46.6809 76.6723 46.6809 76.6723 46.6809C76.7567 46.6809 76.8411 46.6809 76.8411 46.7652C76.8411 46.8495 76.7567 46.8495 76.6723 46.8495C76.5878 46.8495 76.4189 46.8495 76.3345 46.9337C76.1656 47.018 76.0812 47.1022 75.9123 47.355C75.7434 47.5235 75.4901 47.9449 74.9834 48.7032C74.5612 49.4615 74.2235 49.8828 74.2235 50.0514C74.139 50.2199 74.139 50.4727 74.139 50.894V51.3995C74.139 51.7366 74.139 51.9894 74.139 52.2421C74.139 52.4949 74.3079 52.6635 74.4768 52.6635C74.5612 52.6635 74.7301 52.6635 74.899 52.6635C74.9834 52.6635 75.0679 52.6635 75.0679 52.7477C75.0679 52.832 74.9834 52.832 74.899 52.832C74.7301 52.832 74.3924 52.832 74.139 52.832C73.8013 52.832 73.6324 52.832 73.5479 52.832C73.4635 52.832 73.2946 52.832 73.0413 52.832C72.788 52.832 72.5347 52.832 72.4502 52.832C72.3658 52.832 72.2813 52.832 72.2813 52.7477C72.2813 52.6635 72.3658 52.6635 72.4502 52.6635C72.5347 52.6635 72.7035 52.6635 72.788 52.6635C72.9569 52.6635 73.0413 52.4949 73.0413 52.2421C72.6191 51.9894 72.7035 51.7366 72.7035 51.3995Z" fill="black"/>
</svg>
