<svg width="166" height="85" viewBox="0 0 166 85" fill="none" xmlns="http://www.w3.org/2000/svg">
<path d="M53.7004 26.7255C54.2004 25.7255 55.2004 23.1255 54.4004 20.9255C54.2004 20.3255 53.8004 19.8255 53.4004 19.4255C53.1004 19.1255 52.7004 18.9255 52.3004 18.7255C52.1003 18.6255 51.8004 18.7255 51.7004 18.8255C51.6004 18.9255 51.5004 19.0255 51.4004 19.1255C51.2004 19.2255 51.0004 19.4255 50.8004 19.6255C47.8004 22.9255 43.7004 24.0255 39.7004 24.6255C38.9004 24.7255 38.1004 24.8255 37.4004 24.8255C35.1004 24.8255 33.1003 24.3255 31.4003 23.8255C30.2003 23.5255 29.2003 23.2255 28.4003 23.2255C28.1003 23.2255 27.8004 23.2255 27.5003 23.3255C27.0003 23.5255 26.4003 23.6255 25.9003 23.6255C25.3003 23.6255 24.8004 23.4255 24.2004 22.9255C24.0004 22.7255 23.6003 22.4255 23.3003 22.0255C22.6003 21.2255 21.8004 20.4255 21.0004 20.3255H20.8003L20.7004 20.2255L20.6004 20.1255C20.2004 19.8255 19.8003 19.7255 19.4003 19.7255C19.0003 19.7255 18.6004 19.8255 18.2004 20.1255C17.2004 20.8255 16.5004 22.3255 17.2004 23.5255C17.6004 24.1255 18.1004 24.6255 18.6004 25.1255C19.3004 25.8255 19.9004 26.4255 20.0004 27.2255C20.1004 27.8255 20.1003 28.7255 19.9003 29.8255C19.3003 33.3255 20.3004 36.1255 23.1004 38.6255C25.4004 40.7255 28.0004 41.8255 31.1004 42.7255C32.9004 43.3255 34.9003 43.6255 37.1003 43.6255C39.9003 43.6255 42.7004 43.1255 45.2004 42.3255C46.2004 41.9255 47.1004 41.5255 48.0004 40.9255C49.9004 39.6255 51.2004 37.9255 51.5004 36.3255C51.7004 35.5255 51.5004 34.8255 51.2004 34.3255C50.6004 33.5255 49.9004 33.0255 48.9004 32.9255L48.0004 32.7255L48.7004 32.2255C51.1004 30.6255 52.7004 28.8255 53.7004 26.7255ZM48.4004 33.8255C49.0004 33.8255 49.4003 33.9255 49.8004 34.2255L50.1003 34.4255L49.8004 34.6255C48.9004 35.4255 46.5004 37.2255 42.9004 37.8255C42.8004 37.8255 42.6003 37.9255 42.6003 38.0255C42.5003 38.1255 42.5004 38.3255 42.5004 38.4255C42.5004 38.7255 42.8004 38.9255 43.1003 38.8255C45.9003 38.3255 47.9004 37.2255 49.2004 36.4255C49.4004 36.2255 49.7004 36.1255 49.9004 35.9255L50.7004 35.3255L50.4004 36.2255C50.2004 36.8255 49.5004 38.3255 47.4004 39.7255C46.6004 40.2255 45.8004 40.6255 44.9004 40.9255C42.5004 41.7255 39.8004 42.2255 37.2004 42.2255C35.2004 42.2255 33.2003 41.9255 31.5003 41.4255C28.5003 40.4255 26.0003 39.4255 23.9004 37.5255C21.3004 35.2255 20.5004 32.8255 21.0004 29.6255C21.2004 28.4255 21.3004 27.4255 21.1004 26.7255C20.9004 25.5255 20.1003 24.7255 19.3003 24.0255C18.8003 23.6255 18.4004 23.1255 18.1004 22.7255C17.7004 22.1255 18.1003 21.1255 18.8003 20.7255C19.0003 20.6255 19.2003 20.5255 19.4003 20.5255C19.7003 20.5255 19.8003 20.6255 19.9003 20.7255L20.0004 20.8255C20.1004 21.0255 20.3004 21.4255 20.5004 22.0255C20.5004 22.2255 20.6004 22.3255 20.6004 22.4255C21.0004 23.6255 21.5004 24.8255 22.5004 26.0255C23.6004 27.3255 24.2004 27.5255 25.7004 27.8255C26.6004 28.0255 27.1003 28.5255 27.8003 29.1255C28.0003 29.3255 28.1003 29.4255 28.3003 29.6255C31.1003 32.1255 34.8004 33.7255 39.9004 34.6255C40.5004 34.7255 41.1003 34.8255 41.8004 34.8255C43.3004 34.8255 44.9004 34.5255 46.0004 34.3255C46.1004 34.3255 46.3004 34.2255 46.4004 34.2255H46.5004C47.1004 34.0255 47.8004 33.8255 48.4004 33.8255ZM45.0004 33.1255C44.9004 33.1255 44.9004 33.2255 44.8004 33.3255L44.7004 33.4255H44.6003C43.5003 33.6255 42.5003 33.7255 41.6003 33.7255C41.0003 33.7255 40.4004 33.7255 39.9004 33.6255C35.0004 32.8255 31.5003 31.3255 28.8003 28.9255C28.6003 28.8255 28.5003 28.6255 28.4003 28.5255C27.7003 27.8255 27.0003 27.2255 25.8003 26.9255C24.5003 26.6255 24.1004 26.5255 23.2004 25.5255C22.5004 24.7255 22.1003 23.9255 21.8003 23.0255L21.2004 21.5255L22.4004 22.9255C22.8004 23.3255 23.1003 23.7255 23.4004 23.9255C24.2004 24.5255 24.9003 24.8255 25.8003 24.8255C26.4003 24.8255 27.0004 24.6255 27.7004 24.4255C28.4004 24.2255 29.6004 24.5255 31.0003 24.9255C32.7003 25.4255 34.8004 25.9255 37.2004 25.9255C38.0004 25.9255 38.9004 25.8255 39.7004 25.7255C43.9004 25.0255 48.1004 23.9255 51.4004 20.3255C51.5004 20.2255 51.6004 20.2255 51.7004 20.1255L52.4004 19.6255L52.3004 20.2255C51.9003 21.6255 50.4003 25.2255 45.8004 27.2255C45.7003 27.3255 45.6004 27.4255 45.5004 27.5255C45.4004 27.6255 45.4004 27.8255 45.5004 27.9255C45.6004 28.2255 45.9004 28.3255 46.2004 28.2255C47.0004 27.9255 47.8004 27.4255 48.5004 27.0255C51.0004 25.3255 52.3004 23.2255 52.9004 21.7255L53.3004 20.8255L53.5004 21.7255C53.8004 22.9255 53.5004 24.6255 52.7004 26.2255C51.4004 28.9255 48.9004 31.2255 45.0004 33.1255Z" fill="url(#paint0_linear_1_848)"/>
<path d="M34.7003 37.6254C32.3003 37.0254 30.0003 36.0254 27.6003 34.6254C27.5003 34.6254 27.4003 34.5254 27.3003 34.5254C27.1003 34.5254 26.9003 34.6254 26.8003 34.8254C26.6003 35.1254 26.7003 35.4254 27.0003 35.5254C29.4003 37.0254 31.9003 38.0254 34.4003 38.6254C34.5003 38.6254 34.7003 38.6254 34.8003 38.5254C34.9003 38.4254 35.0003 38.3254 35.0003 38.2254C35.0003 38.1254 35.0003 37.9254 34.9003 37.8254C35.0003 37.7254 34.8003 37.6254 34.7003 37.6254Z" fill="url(#paint1_linear_1_848)"/>
<path d="M39.0002 38.1254C38.4002 38.1254 37.8002 38.0254 37.1002 38.0254C37.1002 38.0254 37.1002 38.0254 37.0002 38.0254C36.7002 38.0254 36.5002 38.2254 36.5002 38.5254C36.5002 38.8254 36.7002 39.1254 37.0002 39.1254C37.7002 39.2254 38.3002 39.2254 39.0002 39.3254V39.6254V39.2254C39.1002 39.2254 39.2002 39.2254 39.3002 39.1254C39.4002 39.0254 39.5002 38.8254 39.5002 38.7254C39.5002 38.4254 39.3002 38.2254 39.0002 38.1254Z" fill="url(#paint2_linear_1_848)"/>
<path d="M43.7003 28.2256C43.6003 28.2256 43.6003 28.2256 43.5003 28.2256C42.5003 28.6256 41.4003 28.9256 40.2003 29.1256C40.1003 29.1256 39.9003 29.2256 39.9003 29.3256C39.8003 29.4256 39.8003 29.6256 39.8003 29.7256C39.8003 30.0256 40.1003 30.1256 40.3003 30.1256H40.4003C41.6003 29.9256 42.8003 29.6256 43.9003 29.2256C43.9003 29.2256 44.0003 29.2256 44.0003 29.1256C44.2003 29.0256 44.3003 28.7256 44.2003 28.5256C44.1003 28.4256 43.9003 28.2256 43.7003 28.2256Z" fill="url(#paint3_linear_1_848)"/>
<path d="M13.3003 15.5258C13.3003 15.9258 13.7003 17.7258 14.0003 19.3258C14.5003 21.5258 14.7003 22.6258 14.9003 22.8258C15.0003 22.9258 15.2003 23.0258 15.3003 23.0258C15.5003 23.0258 15.6003 22.9258 15.7003 22.8258L15.8003 22.7258C16.0003 22.5258 16.5003 20.4258 16.9003 19.1258C17.4003 17.0258 17.7003 15.5258 17.7003 15.2258C17.6003 14.5258 17.1003 14.1258 16.7003 13.9258H16.6003V13.8258C16.9003 12.7258 16.9003 12.6258 16.9003 12.5258C16.9003 12.5258 16.9003 12.5258 16.9003 12.4258C16.7003 12.1258 16.5003 12.1258 16.3003 12.1258C16.2003 12.1258 16.1003 12.1258 16.1003 12.1258H16.0003V11.8258V11.7258C15.8003 11.5258 15.6003 11.4258 15.4003 11.4258C15.0003 11.4258 14.8003 11.6258 14.8003 11.7258V11.8258C14.8003 11.8258 14.8003 12.7258 14.9003 13.4258V13.5258H14.8003C14.7003 13.5258 14.6003 13.5258 14.6003 13.6258C14.4003 13.7258 14.2003 13.8258 14.1003 13.9258C13.3003 14.5258 13.2003 15.1258 13.3003 15.5258ZM15.8003 12.4258C15.9003 12.4258 15.9003 12.4258 16.0003 12.4258C16.0003 12.4258 16.1003 12.4258 16.2003 12.4258C16.3003 12.4258 16.4003 12.4258 16.5003 12.5258C16.5003 12.6258 16.4003 12.9258 16.3003 13.6258V13.7258H16.1003C16.0003 13.7258 15.9003 13.7258 15.8003 13.7258H15.7003L15.8003 12.4258ZM14.8003 12.0258C14.9003 11.9258 15.0003 11.9258 15.1003 11.9258C15.2003 11.9258 15.3003 11.9258 15.4003 12.0258L15.3003 13.7258H15.2003C15.1003 13.7258 14.9003 13.7258 14.8003 13.7258H14.7003V13.6258C14.8003 13.0258 14.8003 12.3258 14.8003 12.0258ZM14.4003 14.0258C14.5003 14.0258 14.6003 14.0258 14.7003 14.0258C15.1003 14.0258 15.6003 14.1258 15.9003 14.1258C16.0003 14.1258 16.1003 14.1258 16.2003 14.2258C16.6003 14.3258 17.1003 14.6258 17.2003 15.3258V15.4258V15.6258L17.1003 15.5258C16.8003 15.2258 16.4003 15.0258 16.1003 15.0258C16.0003 15.0258 16.0003 15.1258 16.0003 15.1258C16.0003 15.2258 16.1003 15.2258 16.1003 15.2258C16.5003 15.2258 17.0003 15.5258 17.1003 15.9258C17.1003 16.2258 17.0003 16.5258 16.9003 16.8258V16.9258L16.8003 16.8258C16.7003 16.7258 16.7003 16.7258 16.7003 16.7258C16.5003 16.5258 16.1003 16.4258 16.0003 16.4258C15.9003 16.4258 15.8003 16.4258 15.8003 16.5258C15.8003 16.6258 15.8003 16.7258 15.9003 16.7258C16.1003 16.7258 16.3003 16.8258 16.5003 16.9258C16.6003 17.0258 16.8003 17.2258 16.8003 17.3258C16.7003 17.8258 16.6003 18.2258 16.4003 18.7258V18.8258L16.3003 18.7258C16.1003 18.6258 15.9003 18.5258 15.7003 18.5258C15.7003 18.5258 15.6003 18.5258 15.6003 18.6258V18.7258C15.6003 18.8258 15.7003 18.8258 15.8003 18.8258C15.9003 18.8258 16.3003 19.0258 16.3003 19.1258C16.2003 19.6258 16.0003 20.1258 15.9003 20.5258V20.6258H15.8003C15.6003 20.5258 15.3003 20.4258 15.2003 20.5258C15.1003 20.5258 15.1003 20.6258 15.1003 20.7258C15.1003 20.8258 15.2003 20.8258 15.3003 20.8258C15.4003 20.8258 15.6003 20.9258 15.8003 21.0258V21.1258C15.7003 21.4258 15.5003 22.3258 15.4003 22.4258C15.4003 22.4258 15.4003 22.5258 15.3003 22.5258C15.3003 22.5258 15.2003 22.6258 15.1003 22.6258C15.0003 22.6258 15.0003 22.6258 14.9003 22.5258C14.8003 22.3258 14.5003 21.2258 14.3003 20.1258V20.0258C14.3003 20.0258 14.3003 20.0258 14.3003 19.9258C14.4003 19.9258 14.5003 19.7258 14.7003 19.7258C14.8003 19.7258 14.8003 19.7258 14.9003 19.7258C15.0003 19.7258 15.0003 19.7258 15.1003 19.7258C15.1003 19.7258 15.1003 19.7258 15.1003 19.6258C15.1003 19.5258 15.1003 19.4258 15.0003 19.4258C14.8003 19.3258 14.5003 19.4258 14.3003 19.5258L14.2003 19.6258V19.5258C14.1003 19.1258 14.0003 18.7258 13.9003 18.3258C14.1003 18.0258 14.6003 17.9258 14.9003 17.9258H15.0003C15.0003 17.9258 15.0003 17.9258 15.0003 17.8258C15.0003 17.7258 15.0003 17.6258 14.9003 17.6258C14.6003 17.5258 14.1003 17.6258 13.8003 17.8258L14.0003 18.0258V17.9258C13.9003 17.2258 13.7003 16.6258 13.7003 16.2258C13.8003 15.8258 14.4003 15.4258 14.7003 15.4258H14.8003V15.3258C14.8003 15.2258 14.7003 15.2258 14.7003 15.1258C14.4003 15.1258 14.0003 15.3258 13.7003 15.6258L13.6003 15.7258V15.5258C13.6003 15.1258 13.7003 14.6258 14.0003 14.2258C14.1003 14.1258 14.2003 14.0258 14.4003 14.0258Z" fill="url(#paint4_linear_1_848)"/>
<path d="M30.5003 0.22572C29.8003 0.42572 28.8003 0.92572 28.4003 2.32572C28.3003 2.82572 28.2003 3.32572 28.3003 3.72572C28.3003 3.82572 28.4003 3.92572 28.4003 4.02572C28.4003 4.02572 28.4003 4.02572 28.5003 4.02572C27.3003 4.52572 26.5003 6.02572 26.3003 6.92572C26.3003 7.02572 26.3003 7.12572 26.3003 7.12572C25.8003 7.72572 25.4003 8.52572 25.3003 9.32572C24.9003 11.6257 26.0003 14.1257 27.0003 16.1257C27.4003 16.9257 28.0003 17.7257 28.8003 18.5257C30.8003 20.5257 33.5003 21.7257 34.8003 22.2257C37.2003 23.0257 39.1003 23.0257 39.9003 23.0257C40.0003 23.0257 40.1003 23.0257 40.1003 23.0257C40.3003 23.0257 40.5003 22.9257 40.6003 22.8257C40.7003 22.6257 40.6003 22.3257 40.4003 22.2257C40.4003 22.2257 40.3003 22.2257 40.3003 22.1257C40.0003 22.0257 39.4003 21.6257 38.5003 20.7257C37.0003 19.2257 35.5003 17.2257 35.2003 16.7257C33.7003 14.5257 33.4003 12.2257 33.1003 9.42572V9.12572C33.0003 8.42572 32.7003 7.72572 32.2003 7.12572C32.0003 5.92572 31.0003 4.12572 29.4003 3.92572C29.3003 3.92572 29.2003 3.92572 29.2003 3.92572C29.2003 3.82572 29.3003 3.72572 29.3003 3.62572C29.3003 3.32572 29.3003 3.02572 29.4003 2.62572C29.6003 1.92572 30.0003 1.52572 30.9003 1.22572C31.2003 1.12572 31.3003 0.82572 31.2003 0.62572C31.0003 0.32572 30.7003 0.12572 30.5003 0.22572ZM27.8003 7.12572C28.2003 6.82572 28.9003 6.52572 29.6003 6.72572C30.1003 6.82572 30.7003 7.12572 31.1003 7.62572C31.7003 8.02572 32.0003 8.62572 32.1003 9.22572V9.52572C32.5003 12.2257 32.8003 14.8257 34.4003 17.2257C34.9003 17.9257 36.4003 19.9257 37.8003 21.4257C38.0003 21.6257 38.3003 21.9257 38.5003 22.1257C37.6003 22.0257 36.4003 21.9257 35.1003 21.4257C33.8003 20.9257 31.3003 19.9257 29.4003 17.9257C28.7003 17.2257 28.2003 16.5257 27.8003 15.8257C26.9003 14.0257 25.8003 11.6257 26.2003 9.62572C26.3003 8.62572 27.0003 7.62572 27.8003 7.12572ZM27.7003 6.02572C28.1003 5.32572 28.8003 4.72572 29.3003 4.82572C29.9003 4.92572 30.4003 5.42572 30.8003 6.02572C30.5003 5.82572 30.2003 5.72572 29.8003 5.62572C29.1003 5.62572 28.4003 5.72572 27.7003 6.02572Z" fill="url(#paint5_linear_1_848)"/>
<path d="M29.3003 7.62552C29.5003 7.82552 29.4003 8.12552 29.2003 8.32552C26.8003 10.1255 28.6003 12.6255 28.7003 12.7255C28.9003 12.9255 28.8003 13.2255 28.6003 13.4255C28.4003 13.5255 28.1003 13.5255 28.0003 13.4255C28.0003 13.4255 28.0003 13.4255 28.0003 13.3255C28.0003 13.3255 27.4003 12.5255 27.2003 11.3255C27.0003 10.2255 27.1003 8.72552 28.7003 7.52552C28.8003 7.32552 29.1003 7.42552 29.3003 7.62552Z" fill="url(#paint6_linear_1_848)"/>
<path d="M40.5002 10.8258C40.5002 10.7258 40.4002 10.6258 40.3002 10.6258C40.3002 10.6258 40.2002 10.6258 40.2002 10.7258H38.5002C38.9002 10.4258 39.0002 10.2258 39.2002 10.1258C39.3002 10.0258 39.5002 9.92578 39.7002 9.72578C39.8002 9.82578 39.9002 9.92578 39.9002 10.1258C39.9002 10.2258 40.0002 10.2258 40.1002 10.2258H40.2002C40.3002 10.2258 40.3002 10.0258 40.3002 9.92578C39.8002 9.02578 39.0002 8.42578 38.0002 8.42578C36.6002 8.42578 35.5002 9.52578 35.5002 10.9258C35.5002 12.3258 36.6002 13.4258 38.0002 13.4258C39.4002 13.4258 40.5002 12.3258 40.5002 10.9258V10.8258ZM38.2002 8.92578C38.6002 8.92578 39.0002 9.12578 39.4002 9.42578C39.2002 9.62578 39.1002 9.72578 39.0002 9.82578C38.8002 9.92578 38.7002 10.1258 38.3002 10.4258L38.2002 8.92578ZM37.8002 8.92578V10.4258C37.3002 10.0258 36.9002 9.62578 36.7002 9.42578C37.0002 9.12578 37.4002 8.92578 37.8002 8.92578ZM36.4002 9.72578C36.6002 9.92578 37.0002 10.2258 37.5002 10.7258H37.4002C36.7002 10.7258 36.2002 10.7258 36.0002 10.7258C36.0002 10.3258 36.1002 9.92578 36.4002 9.72578ZM35.9002 11.1258C36.1002 11.1258 36.7002 11.1258 37.4002 11.1258L36.2002 12.1258C36.1002 11.8258 35.9002 11.4258 35.9002 11.1258ZM37.8002 11.3258V13.0258C37.3002 13.0258 36.9002 12.7258 36.5002 12.4258L37.8002 11.3258ZM38.1002 11.2258H38.0002C37.9002 11.2258 37.9002 11.2258 37.8002 11.3258C37.8002 11.2258 37.8002 11.2258 37.7002 11.2258L37.6002 11.1258V11.0258C37.6002 10.9258 37.6002 10.9258 37.5002 10.8258C37.5002 10.8258 37.6002 10.8258 37.6002 10.7258C37.6002 10.7258 37.6002 10.6258 37.7002 10.6258C37.8002 10.7258 37.9002 10.7258 38.0002 10.6258V10.7258C38.0002 10.7258 38.1002 10.7258 38.1002 10.8258V10.9258V11.0258C38.1002 11.0258 38.0002 11.0258 38.0002 11.1258C38.1002 11.1258 38.1002 11.1258 38.1002 11.2258ZM38.2002 13.0258V11.3258C38.8002 11.8258 39.3002 12.3258 39.5002 12.4258C39.1002 12.8258 38.7002 13.0258 38.2002 13.0258ZM39.7002 12.1258C39.6002 12.0258 39.1002 11.5258 38.5002 11.0258H40.1002C40.1002 11.4258 39.9002 11.8258 39.7002 12.1258Z" fill="url(#paint7_linear_1_848)"/>
<path d="M38.0003 7.82568C36.2003 7.82568 34.8003 9.22568 34.8003 11.0257C34.8003 12.8257 36.2003 14.2257 38.0003 14.2257C39.8003 14.2257 41.2003 12.8257 41.2003 11.0257C41.2003 9.22568 39.8003 7.82568 38.0003 7.82568ZM38.0003 13.8257C36.5003 13.8257 35.2003 12.5257 35.2003 11.0257C35.2003 9.42568 36.5003 8.22568 38.0003 8.22568C39.5003 8.22568 40.8003 9.52568 40.8003 11.0257C40.8003 12.5257 39.5003 13.8257 38.0003 13.8257Z" fill="url(#paint8_linear_1_848)"/>
<path d="M23.2002 19.4253C23.7002 19.4253 24.1002 19.2253 24.3002 18.9253C24.6002 18.5253 24.6002 18.0253 24.6002 17.8253C24.6002 17.5253 24.4002 17.3253 24.2002 17.0253C24.1002 16.8253 23.9002 16.6253 23.9002 16.4253C23.9002 16.3253 23.9002 16.2253 23.8002 16.0253C23.8002 15.7253 23.5002 15.4253 23.1002 15.4253C23.0002 15.4253 23.0002 15.5253 23.0002 15.5253C23.0002 15.6253 23.1002 15.6253 23.1002 15.6253C23.5002 15.6253 23.6002 15.9253 23.6002 16.0253C23.6002 16.1253 23.6002 16.3253 23.7002 16.4253C23.8002 16.6253 23.9002 16.9253 24.0002 17.1253C24.2002 17.3253 24.3002 17.6253 24.3002 17.8253C24.3002 18.0253 24.4002 18.4253 24.1002 18.8253C23.9002 19.1253 23.6002 19.2253 23.1002 19.2253C23.0002 19.2253 23.0002 19.3253 23.0002 19.3253C23.1002 19.3253 23.1002 19.4253 23.2002 19.4253Z" fill="url(#paint9_linear_1_848)"/>
<path d="M23.1001 19.4254C23.2001 19.4254 23.2001 19.3254 23.2001 19.3254C23.2001 19.2254 23.1001 19.2254 23.1001 19.2254C22.6001 19.2254 22.3001 19.1254 22.1001 18.8254C21.9001 18.5254 21.8001 18.1254 21.9001 17.8254C21.9001 17.6254 22.1001 17.4254 22.2001 17.3254C22.3001 17.2254 22.4001 17.1254 22.4001 16.9254C22.5001 16.7254 22.6001 16.5254 22.6001 16.3254V16.2254C22.6001 15.9254 22.7001 15.7254 23.0001 15.7254C23.1001 15.7254 23.1001 15.6254 23.1001 15.6254C23.1001 15.5254 23.0001 15.5254 23.0001 15.5254C22.4001 15.5254 22.4001 16.0254 22.3001 16.2254V16.3254C22.3001 16.5254 22.2001 16.7254 22.1001 16.8254C22.0001 16.9254 22.0001 17.0254 21.9001 17.1254C21.8001 17.3254 21.6001 17.5254 21.6001 17.7254C21.5001 18.0254 21.5001 18.5254 21.8001 18.9254C22.1001 19.1254 22.5001 19.4254 23.1001 19.4254Z" fill="url(#paint10_linear_1_848)"/>
<path d="M21.7002 16.1256C21.8002 16.1256 22.0002 16.1256 22.1002 16.1256C22.2002 16.1256 22.2002 16.0256 22.2002 16.0256C22.2002 15.9256 22.1002 15.9256 22.1002 15.9256C21.9002 15.9256 21.6002 15.9256 21.4002 15.9256C21.5002 15.6256 21.7002 15.0256 22.5002 14.9256C22.6002 14.9256 22.7002 14.9256 22.9002 14.9256C22.9002 14.9256 22.9002 14.9256 23.0002 14.9256H23.1002C23.1002 15.0256 23.1002 15.0256 23.1002 15.1256C23.1002 15.2256 23.1002 15.2256 23.2002 15.2256C23.3002 15.2256 23.3002 15.2256 23.3002 15.1256C23.3002 15.0256 23.3002 15.0256 23.3002 14.9256V14.8256C23.3002 14.7256 23.3002 14.7256 23.2002 14.7256H23.1002H23.0002C23.0002 14.7256 23.0002 14.7256 22.9002 14.7256C22.8002 14.7256 22.6002 14.6256 22.5002 14.7256C21.5002 14.8256 21.3002 15.7256 21.2002 15.9256V16.0256V16.1256C21.2002 16.1256 21.2002 16.2256 21.3002 16.2256C21.4002 16.1256 21.6002 16.1256 21.7002 16.1256Z" fill="url(#paint11_linear_1_848)"/>
<path d="M22.3002 15.4255C22.9002 14.9255 23.8002 14.8255 23.9002 14.8255C24.0002 14.8255 24.0002 14.8255 24.0002 14.7255C24.0002 14.6255 24.0002 14.6255 23.9002 14.6255C23.8002 14.6255 22.8002 14.7255 22.2002 15.2255C22.2002 15.2255 22.2002 15.3255 22.3002 15.4255Z" fill="url(#paint12_linear_1_848)"/>
<path d="M23.2001 19.0255L23.5001 18.8255C23.5001 18.8255 23.5001 18.7255 23.5001 18.6255C23.5001 18.6255 23.4001 18.6255 23.3001 18.6255L23.2001 18.7255L23.1001 18.6255C23.1001 18.6255 23.0001 18.6255 22.9001 18.6255C22.9001 18.6255 22.9001 18.7255 22.9001 18.8255L23.2001 19.0255C23.1001 19.0255 23.1001 19.0255 23.2001 19.0255Z" fill="url(#paint13_linear_1_848)"/>
<path d="M22.6002 17.2256C22.6002 17.2256 22.7002 17.2256 22.7002 17.1256C22.8002 17.0256 22.8002 16.9256 22.8002 16.8256C22.8002 16.7256 22.8002 16.7256 22.7002 16.7256C22.6002 16.7256 22.6002 16.7256 22.6002 16.8256C22.6002 16.9256 22.6002 17.0256 22.5002 17.1256C22.5002 17.1256 22.5002 17.1256 22.6002 17.2256Z" fill="url(#paint14_linear_1_848)"/>
<path d="M22.4002 18.6256C22.5002 18.5256 22.5002 18.5256 22.5002 18.4256C22.5002 18.4256 22.5002 18.3256 22.4002 18.3256C22.3002 18.1256 22.3002 18.0256 22.4002 17.8256C22.4002 17.7256 22.5002 17.6256 22.6002 17.4256C22.6002 17.3256 22.6002 17.3256 22.6002 17.2256C22.5002 17.2256 22.5002 17.2256 22.4002 17.2256C22.3002 17.4256 22.3002 17.5256 22.2002 17.6256C22.2002 17.8256 22.2002 18.0256 22.3002 18.2256C22.3002 18.4256 22.3002 18.5256 22.4002 18.6256Z" fill="url(#paint15_linear_1_848)"/>
<path d="M23.4001 19.1257C23.4001 19.1257 23.5001 19.1257 23.5001 19.0257C23.5001 18.9257 23.5001 18.9257 23.4001 18.9257L23.2001 18.8257C23.1001 18.8257 23.1001 18.8257 23.1001 18.9257C23.1001 19.0257 23.1001 19.0257 23.2001 19.0257L23.4001 19.1257Z" fill="url(#paint16_linear_1_848)"/>
<path d="M22.9002 19.1257L23.2002 19.0257C23.3002 19.0257 23.3002 18.9257 23.3002 18.9257C23.3002 18.8257 23.2002 18.8257 23.2002 18.8257L23.0002 18.9257C22.9002 18.9257 22.9002 19.0257 22.9002 19.0257C22.8002 19.0257 22.9002 19.1257 22.9002 19.1257Z" fill="url(#paint17_linear_1_848)"/>
<path d="M14.3003 36.0253C14.1003 35.9253 13.9003 35.7253 13.7003 35.6253C12.6003 34.9253 11.3003 34.0253 11.4003 32.9253C11.4003 32.6253 11.2003 32.4253 11.0003 32.4253C10.7003 32.4253 10.5003 32.6253 10.5003 32.8253C10.4003 34.4253 12.0003 35.5253 13.2003 36.3253C13.4003 36.4253 13.6003 36.6253 13.8003 36.7253C15.3003 37.8253 15.9003 40.1253 15.0003 41.6253C14.3003 42.9253 13.0003 44.4253 10.1003 44.5253H9.60028L10.0003 44.2253C10.2003 44.0253 10.5003 43.8253 10.7003 43.7253C11.0003 43.5253 11.2003 43.4253 11.3003 43.3253C12.2003 42.4253 13.3003 40.4253 10.8003 36.7253C10.8003 36.7253 10.7003 36.5253 10.6003 36.4253C10.5003 36.3253 10.5003 36.2253 10.5003 36.2253C10.4003 36.0253 10.1003 35.9253 9.90028 36.1253C9.80028 36.2253 9.70028 36.3253 9.70028 36.4253C9.70028 36.5253 9.70028 36.6253 9.80028 36.7253C9.80028 36.7253 9.90028 36.8253 9.90028 36.9253C10.0003 37.1253 10.0003 37.1253 10.1003 37.2253C11.7003 39.5253 11.9003 41.5253 10.8003 42.6253C10.7003 42.7253 10.6003 42.8253 10.3003 42.9253C9.60028 43.4253 9.00028 43.8253 8.80028 44.3253V44.4253H8.70028H8.60028H8.40028V44.3253C8.20028 43.7253 7.60028 43.3253 7.30028 43.1253C7.10028 43.0253 7.10028 42.9253 7.00028 42.9253L6.90028 42.8253C6.30028 42.1253 5.50028 41.1253 6.30028 39.8253C6.00028 39.8253 6.00028 39.7253 6.00028 39.6253C6.00028 39.5253 5.90028 39.4253 5.80028 39.3253C5.60028 39.2253 5.30028 39.2253 5.20028 39.5253C4.40028 40.8253 4.60028 42.2253 5.90028 43.6253H6.00028C6.10028 43.7253 6.20028 43.8253 6.40028 44.0253C6.50028 44.1253 6.70028 44.2253 6.80028 44.3253L7.10028 44.6253L6.60028 44.5253C4.10028 44.2253 2.70028 42.3253 2.30028 41.4253C1.40028 39.8253 2.00028 37.6253 3.50028 36.5253C3.60028 36.4253 3.80028 36.3253 3.90028 36.2253C4.00028 36.1253 4.10028 36.0253 4.10028 35.9253C4.10028 35.8253 4.10028 35.7253 4.00028 35.6253C3.90028 35.4253 3.60028 35.3253 3.40028 35.5253C3.30028 35.6253 3.10028 35.7253 3.00028 35.8253C1.10028 37.2253 0.400281 39.9253 1.50028 41.9253C2.00028 42.7253 3.80028 45.5253 7.40028 45.5253H7.50028C7.60028 45.5253 7.70028 45.5253 7.80028 45.5253C8.00028 45.5253 8.10028 45.5253 8.30028 45.5253H8.40028C8.40028 45.5253 8.40028 45.5253 8.50028 45.5253C8.90028 45.5253 9.20028 45.6253 9.60028 45.6253C12.4003 45.6253 14.3003 44.5253 15.6003 42.2253C16.8003 40.2253 16.2003 37.4253 14.3003 36.0253Z" fill="url(#paint18_linear_1_848)"/>
<path d="M5.00026 35.0257C5.20026 35.2257 5.50026 35.2257 5.70026 35.0257C6.50026 34.2257 6.90026 33.5257 6.80026 32.7257C6.80026 32.5257 6.60026 32.3257 6.30026 32.3257C6.20026 32.3257 6.10026 32.4257 6.00026 32.5257C5.90026 32.6257 5.90026 32.7257 5.90026 32.8257C5.90026 33.3257 5.70026 33.8257 5.10026 34.4257C4.90026 34.5257 4.90026 34.8257 5.00026 35.0257Z" fill="url(#paint19_linear_1_848)"/>
<path d="M7.60031 36.8255C7.70031 36.6255 7.70031 36.3255 7.50031 36.2255C7.40031 36.2255 7.30031 36.1255 7.20031 36.1255C7.00031 36.1255 6.90031 36.2255 6.80031 36.3255C6.70031 36.5255 6.60031 36.6255 6.50031 36.8255C6.30031 37.1255 6.10031 37.4255 5.90031 37.8255C5.80031 38.0255 5.90031 38.3255 6.10031 38.4255C6.30031 38.5255 6.60031 38.4255 6.70031 38.2255C6.80031 37.9255 7.00031 37.6255 7.20031 37.4255C7.40031 37.2255 7.50031 37.0255 7.60031 36.8255Z" fill="url(#paint20_linear_1_848)"/>
<path d="M11.3003 46.1253C11.2003 46.0253 11.1003 45.9253 10.9003 45.9253C10.8003 45.9253 10.7003 45.9253 10.6003 46.0253C10.4003 46.2253 10.4003 46.4253 10.5003 46.6253L11.0003 47.2253C11.2003 47.4253 11.5003 47.4253 11.6003 47.3253C11.7003 47.2253 11.8003 47.1253 11.8003 47.0253C11.8003 46.9253 11.8003 46.8253 11.7003 46.7253L11.3003 46.1253Z" fill="url(#paint21_linear_1_848)"/>
<path d="M8.00024 46.5256V47.3256C8.00024 47.6256 8.20024 47.8256 8.50024 47.8256C8.60024 47.8256 8.70024 47.8256 8.80024 47.7256C8.90024 47.6256 9.00024 47.4256 9.00024 47.3256V46.6256C9.00024 46.3256 8.80024 46.2256 8.50024 46.2256C8.30024 46.2256 8.20024 46.2256 8.10024 46.3256C8.10024 46.4256 8.00024 46.4256 8.00024 46.5256Z" fill="url(#paint22_linear_1_848)"/>
<path d="M5.10034 47.1254C5.10034 47.2254 5.10034 47.3254 5.20034 47.4254C5.40034 47.6254 5.70034 47.6254 5.90034 47.4254L6.50034 46.8254C6.70034 46.6254 6.70034 46.3254 6.50034 46.1254C6.40034 46.0254 6.30034 46.0254 6.20034 46.0254C6.10034 46.0254 6.00034 46.0254 5.90034 46.1254L5.30034 46.7254C5.10034 46.8254 5.10034 46.9254 5.10034 47.1254Z" fill="url(#paint23_linear_1_848)"/>
<path d="M8.70029 17.1255C8.50029 17.1255 8.40029 17.2255 8.30029 17.3255C6.40029 20.3255 5.90029 26.7255 8.30029 32.3255C8.40029 32.5255 8.50029 32.6255 8.70029 32.6255C8.90029 32.6255 9.00029 32.4255 9.10029 32.3255C10.3003 29.7255 10.8003 27.5255 10.8003 24.9255C10.9003 22.4255 10.3003 19.9255 9.00029 17.3255C9.10029 17.2255 8.90029 17.1255 8.70029 17.1255ZM10.0003 24.9255C9.90029 26.9255 9.60029 28.6255 8.90029 30.4255L8.80029 30.8255L8.70029 30.4255C7.20029 26.0255 7.60029 21.4255 8.60029 18.9255L8.70029 18.6255L8.80029 18.9255C9.70029 20.9255 10.1003 22.8255 10.0003 24.9255Z" fill="url(#paint24_linear_1_848)"/>
<path d="M6.2002 28.4253C5.4002 26.2253 4.2002 23.3253 5.4002 20.5253C5.5002 20.3253 5.4002 20.0253 5.2002 19.9253C5.1002 19.9253 5.1002 19.9253 5.0002 19.9253C4.8002 19.9253 4.6002 20.0253 4.6002 20.2253C3.3002 23.3253 4.6002 26.6253 5.4002 28.7253C5.8002 29.7253 6.1002 30.4253 6.0002 30.7253C5.9002 31.0253 6.0002 31.2253 6.2002 31.3253C6.4002 31.4253 6.7002 31.3253 6.8002 31.1253C7.0002 30.5253 6.7002 29.7253 6.2002 28.4253Z" fill="url(#paint25_linear_1_848)"/>
<path d="M12.9003 20.3254C12.8003 20.1254 12.7003 20.0254 12.5003 20.0254C12.4003 20.0254 12.4003 20.0254 12.3003 20.0254C12.1003 20.1254 12.0003 20.4254 12.1003 20.6254C13.3003 23.4254 12.1003 26.3254 11.3003 28.5254C10.8003 29.8254 10.5003 30.6254 10.7003 31.2254C10.8003 31.4254 11.1003 31.6254 11.3003 31.5254C11.4003 31.5254 11.5003 31.4254 11.6003 31.2254C11.6003 31.1254 11.6003 31.0254 11.6003 30.9254C11.5003 30.6254 11.8003 29.9254 12.2003 28.9254C12.9003 26.6254 14.2003 23.4254 12.9003 20.3254Z" fill="url(#paint26_linear_1_848)"/>
<path d="M32.6003 50.5257L27.8003 48.2257C27.7003 48.2257 27.7003 48.1257 27.6003 48.1257C27.4003 48.0257 27.1003 47.8257 26.9003 47.9257C26.7003 47.9257 26.6003 48.2257 26.6003 48.2257C26.5003 48.6257 26.9003 48.8257 27.1003 48.9257L29.5003 50.1257C28.5003 51.6257 27.3003 52.6257 25.9003 53.1257C24.0003 53.7257 22.2003 53.2257 21.3003 52.9257C19.7003 52.0257 18.7003 50.6257 18.5003 48.6257C18.3003 47.1257 18.6003 45.6257 18.9003 44.9257L24.8003 47.8257L24.9003 47.9257C25.0003 48.0257 25.2003 48.1257 25.4003 48.1257C25.5003 48.1257 25.6003 48.1257 25.6003 48.1257C25.7003 48.1257 25.9003 48.0257 26.0003 47.8257C26.2003 47.4257 25.7003 47.2257 25.5003 47.1257C25.5003 47.1257 25.4003 47.1257 25.4003 47.0257L17.2003 43.0257C17.1003 42.9257 17.0003 42.9257 16.8003 43.0257C16.7003 43.0257 16.6003 43.2257 16.5003 43.3257C16.5003 43.4257 15.6003 45.6257 15.6003 48.2257C15.6003 49.8257 15.9003 51.2257 16.5003 52.3257C17.2003 53.8257 18.4003 55.0257 20.1003 55.7257C22.3003 56.8257 24.6003 57.0257 26.8003 56.3257C30.6003 55.0257 32.8003 51.4257 32.9003 51.2257C33.0003 51.1257 33.0003 50.9257 32.9003 50.8257C32.8003 50.6257 32.7003 50.5257 32.6003 50.5257ZM20.9003 53.7257C22.6003 54.4257 24.3003 54.5257 25.8003 54.1257C27.6003 53.6257 29.1003 52.4257 30.4003 50.6257L31.7003 51.2257C31.0003 52.1257 29.1003 54.5257 26.4003 55.4257C24.5003 56.0257 22.5003 55.9257 20.5003 54.9257C17.9003 53.6257 16.6003 51.4257 16.6003 48.2257C16.6003 46.5257 17.0003 44.9257 17.2003 44.2257L18.0003 44.6257C17.7003 45.3257 17.3003 47.0257 17.5003 48.8257C17.8003 50.9257 19.0003 52.7257 20.9003 53.7257Z" fill="url(#paint27_linear_1_848)"/>
<path d="M26.1002 50.0259C26.0002 50.1259 26.0002 50.3259 26.0002 50.4259C26.0002 50.5259 26.1002 50.7259 26.2002 50.7259L27.1002 51.2259C27.2002 51.3259 27.4002 51.3259 27.6002 51.3259C27.7002 51.3259 27.8002 51.2259 27.9002 51.1259C28.0002 51.0259 28.0002 50.8259 28.0002 50.7259C28.0002 50.6259 27.9002 50.4259 27.8002 50.4259L26.9002 49.9259C26.6002 49.7259 26.2002 49.8259 26.1002 50.0259Z" fill="url(#paint28_linear_1_848)"/>
<path d="M23.8003 51.3256L23.9003 52.3256C23.9003 52.4256 24.0003 52.6256 24.1003 52.7256C24.2003 52.8256 24.4003 52.8256 24.5003 52.8256H24.6003C24.8003 52.7256 25.0003 52.5256 25.0003 52.2256L24.9003 51.2256C24.9003 50.9256 24.6003 50.7256 24.3003 50.7256C24.0003 50.8256 23.8003 51.0256 23.8003 51.3256Z" fill="url(#paint29_linear_1_848)"/>
<path d="M21.8003 52.2255C21.9003 52.2255 22.0003 52.1255 22.1003 52.0255L22.6003 51.1255C22.8003 50.8255 22.7003 50.5255 22.4003 50.4255C22.2003 50.3255 21.8003 50.3255 21.7003 50.6255L21.2003 51.5255C21.1003 51.6255 21.1003 51.8255 21.1003 51.9255C21.1003 52.0255 21.2003 52.2255 21.3003 52.2255C21.5003 52.3255 21.7003 52.3255 21.8003 52.2255Z" fill="url(#paint30_linear_1_848)"/>
<path d="M19.3003 49.7259C19.3003 49.8259 19.4003 49.9259 19.6003 50.0259C19.7003 50.1259 19.9003 50.1259 20.0003 50.0259L20.9003 49.7259C21.2003 49.6259 21.3003 49.3259 21.2003 49.0259C21.2003 48.9259 21.1003 48.8259 20.9003 48.7259C20.8003 48.6259 20.6003 48.6259 20.5003 48.7259L19.6003 49.0259C19.4003 49.1259 19.2003 49.4259 19.3003 49.7259Z" fill="url(#paint31_linear_1_848)"/>
<path d="M20.6004 47.6256C20.8004 47.5256 20.9004 47.4256 20.9004 47.3256C21.0004 47.0256 20.9004 46.7256 20.6004 46.6256L19.8004 46.3256C19.5004 46.2256 19.2004 46.3256 19.1004 46.6256C19.0004 46.7256 19.1004 46.9256 19.1004 47.0256C19.2004 47.1256 19.3004 47.2256 19.4004 47.3256L20.2004 47.6256C20.4004 47.7256 20.5004 47.7256 20.6004 47.6256Z" fill="url(#paint32_linear_1_848)"/>
<path d="M44.4004 50.2258C44.4004 50.2258 42.0004 50.8258 39.5004 49.4258C39.4004 49.4258 39.4004 49.4258 39.3004 49.4258C39.2004 49.4258 39.2004 49.5258 39.2004 49.5258C39.1004 49.6258 39.2004 49.8258 39.3004 49.9258C42.0004 51.4258 44.5004 50.8258 44.6004 50.8258C44.7004 50.8258 44.8004 50.6258 44.8004 50.5258C44.7004 50.2258 44.5004 50.2258 44.4004 50.2258Z" fill="url(#paint33_linear_1_848)"/>
<path d="M38.5002 49.5258C39.5002 49.2258 39.9002 47.8258 39.4002 46.5258C39.0002 45.2258 37.8002 44.3258 36.9002 44.7258C35.9002 45.0258 35.5002 46.4258 36.0002 47.7258C36.4002 49.0258 37.5002 49.8258 38.5002 49.5258ZM36.6002 45.8258C36.6002 45.7258 36.8002 45.5258 37.0002 45.5258C37.2002 45.4258 37.3002 45.4258 37.3002 45.5258C37.4002 45.5258 37.4002 45.6258 37.4002 45.6258C37.4002 45.7258 37.3002 45.9258 37.2002 45.9258H37.1002C36.9002 46.0258 36.7002 46.0258 36.6002 45.9258C36.7002 46.0258 36.6002 45.9258 36.6002 45.8258ZM36.3002 46.3258C36.3002 46.4258 36.4002 46.4258 36.3002 46.3258C36.7002 46.6258 37.1002 46.5258 37.4002 46.4258C37.5002 46.4258 37.5002 46.3258 37.6002 46.3258C37.9002 46.1258 38.1002 45.8258 38.0002 45.5258C38.0002 45.4258 38.0002 45.4258 38.0002 45.3258C38.4002 45.6258 38.7002 46.0258 38.9002 46.6258C39.2002 47.6258 39.0002 48.7258 38.3002 48.9258C37.6002 49.1258 36.8002 48.4258 36.4002 47.4258C36.3002 47.1258 36.3002 46.7258 36.3002 46.3258Z" fill="url(#paint34_linear_1_848)"/>
<path d="M43.2004 45.5258C43.2004 45.4258 43.2004 45.4258 43.1004 45.3258L43.0004 45.2258C42.8004 45.0258 42.5004 44.9258 42.2004 44.9258C42.0004 44.9258 41.8004 44.9258 41.6004 45.0258C40.8004 45.3258 40.2004 46.2258 40.1004 47.2258C39.9004 48.6258 40.6004 49.8258 41.6004 50.0258C41.8004 50.0258 42.0004 50.0258 42.2004 49.9258C43.0004 49.6258 43.6004 48.7258 43.7004 47.7258C43.8004 47.0258 43.7004 46.4258 43.4004 45.9258C43.4004 45.8258 43.3004 45.6258 43.2004 45.5258ZM42.1004 45.5258C42.2004 45.5258 42.4004 45.6258 42.5004 45.6258C42.4004 45.7258 42.3004 45.8258 42.1004 45.9258C41.8004 46.0258 41.5004 46.0258 41.2004 45.8258C41.3004 45.7258 41.5004 45.6258 41.7004 45.5258C41.9004 45.5258 42.0004 45.5258 42.1004 45.5258ZM43.2004 47.6258C43.1004 48.5258 42.6004 49.2258 42.0004 49.4258C41.9004 49.4258 41.7004 49.5258 41.6004 49.4258C40.9004 49.3258 40.4004 48.3258 40.6004 47.2258C40.6004 46.8258 40.8004 46.4258 41.0004 46.1258C41.4004 46.4258 41.9004 46.5258 42.4004 46.3258C42.6004 46.2258 42.8004 46.1258 42.9004 45.9258C42.9004 45.9258 42.9004 46.0258 43.0004 46.0258C43.2004 46.5258 43.3004 47.1258 43.2004 47.6258Z" fill="url(#paint35_linear_1_848)"/>
<path d="M42.4002 51.126C42.4002 51.126 41.7002 51.126 40.8002 51.426C40.2002 51.626 39.7002 51.926 39.3002 52.326C38.0002 53.526 38.0002 54.626 38.0002 54.626C38.0002 54.726 38.1002 54.926 38.3002 54.926C38.3002 54.926 38.8002 54.926 39.5002 54.726C40.1002 54.526 40.6002 54.226 41.1002 53.926C42.5002 52.926 42.8002 51.626 42.8002 51.626C42.8002 51.526 42.8002 51.426 42.8002 51.426C42.5002 51.226 42.5002 51.126 42.4002 51.126ZM40.6002 53.426C40.2002 53.726 39.7002 54.026 39.2002 54.126C38.9002 54.226 38.7002 54.226 38.5002 54.326C38.6002 54.026 38.8002 53.326 39.6002 52.726C40.0002 52.426 40.4002 52.126 40.9002 51.926C41.3002 51.826 41.7002 51.726 41.9002 51.726C41.8002 52.126 41.4002 52.826 40.6002 53.426Z" fill="url(#paint36_linear_1_848)"/>
<path d="M38.8003 51.8259C39.7003 51.5259 40.1003 51.1259 40.2003 51.1259C40.3003 51.0259 40.3003 51.0259 40.3003 50.9259C40.3003 50.8259 40.3003 50.7259 40.2003 50.7259C40.1003 50.7259 38.7003 49.6259 37.0003 49.9259C36.7003 49.9259 36.4003 50.0259 36.1003 50.1259C35.0003 50.5259 34.6003 51.1259 34.6003 51.1259C34.5003 51.2259 34.6003 51.4259 34.7003 51.5259C34.7003 51.5259 35.9003 52.3259 37.6003 52.2259C37.9003 52.1259 38.4003 52.0259 38.8003 51.8259ZM36.2003 50.6259C36.4003 50.5259 36.7003 50.5259 37.0003 50.4259C38.1003 50.3259 39.0003 50.7259 39.5003 50.9259C39.3003 51.0259 39.0003 51.2259 38.6003 51.3259C38.2003 51.4259 37.8003 51.5259 37.4003 51.5259C36.4003 51.6259 35.5003 51.3259 35.2003 51.1259C35.4003 51.0259 35.7003 50.7259 36.2003 50.6259Z" fill="url(#paint37_linear_1_848)"/>
<path d="M38.0004 48.726C38.1004 48.726 38.2004 48.526 38.2004 48.426C38.2004 48.326 38.0004 48.226 37.9004 48.226C37.8004 48.226 37.7004 48.126 37.5004 47.926C37.3004 47.726 37.3004 47.526 37.3004 47.426C37.3004 47.326 37.2004 47.126 37.1004 47.126H37.0004C36.9004 47.126 36.8004 47.226 36.8004 47.326C36.7004 47.726 37.0004 48.226 37.3004 48.526C37.6004 48.726 37.8004 48.826 38.0004 48.726Z" fill="url(#paint38_linear_1_848)"/>
<path d="M41.5002 46.8257C41.0002 47.2257 40.9002 47.9257 41.0002 48.5257C41.1002 48.9257 41.3002 49.2257 41.5002 49.2257C41.6002 49.2257 41.8002 49.2257 41.8002 49.0257C41.8002 48.9257 41.8002 48.7257 41.6002 48.7257C41.6002 48.7257 41.5002 48.5257 41.4002 48.2257C41.4002 47.8257 41.4002 47.4257 41.6002 47.2257C41.7002 47.1257 41.7002 46.9257 41.6002 46.8257C41.7002 46.8257 41.6002 46.8257 41.5002 46.8257Z" fill="url(#paint39_linear_1_848)"/>
<path d="M37.1004 17.1258L37.8004 17.5258C37.8004 17.8258 37.9004 18.3258 38.1004 18.9258C38.2004 19.0258 38.3004 19.1258 38.4004 19.1258C38.4004 19.1258 38.4004 19.1258 38.5004 19.1258C38.6004 19.1258 38.6004 19.0258 38.7004 18.9258C38.7004 18.8258 38.7004 18.8258 38.7004 18.7258C38.4004 18.0258 38.4004 17.4258 38.4004 17.4258C38.4004 17.3258 38.3004 17.2258 38.2004 17.1258L37.8004 16.9258L38.2004 16.7258C38.3004 16.6258 38.4004 16.5258 38.3004 16.3258C38.4004 16.3258 38.5004 16.4258 38.7004 16.5258C38.6004 17.2258 38.7004 17.9258 39.0004 18.5258C39.6004 19.9258 40.9004 20.5258 42.3004 20.3258C42.6004 20.2258 42.9004 20.2258 43.1004 20.0258C43.8004 19.7258 44.3004 19.3258 44.6004 18.8258C44.6004 18.8258 44.7004 18.8258 44.7004 18.9258C44.8004 18.9258 44.8004 18.9258 44.9004 19.0258C44.7004 19.3258 44.2004 19.8258 43.7004 20.2258C43.3004 20.5258 42.8004 20.7258 42.3004 20.8258C41.5004 21.0258 40.7004 20.8258 39.9004 20.3258C39.7004 20.2258 39.5004 20.0258 39.3004 19.8258C39.2004 19.7258 39.1004 19.7258 39.0004 19.7258C38.9004 19.7258 38.9004 19.7258 38.9004 19.8258C38.8004 19.9258 38.8004 20.1258 38.9004 20.2258C39.1004 20.4258 39.4004 20.6258 39.7004 20.8258C40.7004 21.3258 41.6004 21.5258 42.5004 21.3258C42.8004 21.2258 43.1004 21.1258 43.4004 21.0258C43.6004 20.9258 43.8004 20.8258 44.1004 20.6258C45.1004 20.0258 45.6004 19.1258 45.7004 19.0258C45.8004 18.9258 45.7004 18.7258 45.6004 18.6258H45.5004C45.4004 18.6258 45.1004 18.5258 44.3004 18.1258C44.2004 18.1258 44.2004 18.1258 44.2004 18.0258L43.7004 17.8258C43.4004 17.7258 43.1004 17.6258 42.7004 17.4258C42.6004 17.3258 42.4004 17.3258 42.2004 17.3258C42.1004 17.3258 42.0004 17.3258 42.0004 17.4258C41.9004 17.4258 41.9004 17.5258 41.8004 17.5258L41.7004 17.6258C41.7004 17.6258 41.7004 17.6258 41.6004 17.5258C41.6004 17.4258 41.6004 17.3258 41.6004 17.2258C41.6004 17.1258 41.6004 17.0258 41.6004 17.0258C41.6004 16.9258 41.5004 16.8258 41.4004 16.8258L40.6004 16.5258C40.4004 16.4258 40.3004 16.4258 40.3004 16.4258C40.1004 16.3258 39.9004 16.2258 39.7004 16.2258C39.5004 16.1258 39.3004 16.0258 39.1004 15.9258C38.8004 15.8258 38.5004 15.7258 38.2004 15.5258C38.1004 15.5258 38.0004 15.4258 38.0004 15.4258C37.9004 15.4258 37.8004 15.4258 37.7004 15.5258C37.6004 15.6258 37.6004 15.7258 37.6004 15.8258L37.8004 16.3258L37.2004 16.6258C37.1004 16.6258 37.0004 16.7258 37.0004 16.9258C36.9004 17.0258 37.0004 17.1258 37.1004 17.1258ZM41.1004 19.7258C41.4004 18.9258 41.6004 18.5258 41.7004 18.2258C41.8004 18.2258 41.9004 18.1258 42.0004 18.0258L42.1004 17.9258C42.1004 17.9258 42.2004 17.9258 42.3004 17.9258L43.8004 18.5258H43.9004L44.1004 18.6258C43.8004 19.0258 43.4004 19.3258 42.9004 19.5258C42.3004 19.8258 41.7004 19.8258 41.1004 19.7258ZM39.3004 16.7258H39.4004C39.6004 16.8258 39.8004 16.9258 40.0004 17.0258C40.0004 17.0258 40.2004 17.1258 40.4004 17.2258L40.9004 17.4258C40.9004 17.6258 40.9004 17.7258 41.0004 17.9258C41.0004 18.0258 41.1004 18.1258 41.2004 18.2258C41.1004 18.5258 40.8004 19.2258 40.7004 19.5258V19.6258C40.2004 19.3258 39.9004 18.9258 39.6004 18.4258C39.3004 17.8258 39.2004 17.2258 39.3004 16.7258Z" fill="url(#paint40_linear_1_848)"/>
<path d="M40.4003 18.3257C40.3003 18.2257 40.4003 18.0257 40.5003 17.9257C40.5003 17.9257 40.6003 17.9257 40.6003 17.8257C40.7003 17.8257 40.7003 17.8257 40.8003 17.8257C40.8003 17.8257 40.9003 17.8257 40.9003 17.9257C41.0003 18.0257 41.0003 18.2257 40.9003 18.3257L40.8003 18.4257C40.8003 18.4257 40.8003 18.4257 40.7003 18.4257C40.6003 18.4257 40.6003 18.4257 40.6003 18.4257C40.6003 18.4257 40.6003 18.4257 40.5003 18.4257C40.4003 18.3257 40.4003 18.3257 40.4003 18.3257Z" fill="url(#paint41_linear_1_848)"/>
<path d="M40.1005 18.6259C40.1005 18.6259 40.2005 18.6259 40.2005 18.5259C40.3005 18.5259 40.3005 18.5259 40.4005 18.5259C40.4005 18.5259 40.5005 18.5259 40.5005 18.6259C40.6005 18.7259 40.6005 18.9259 40.5005 19.0259L40.4005 19.1259C40.4005 19.1259 40.4005 19.1259 40.3005 19.1259C40.2005 19.1259 40.2005 19.1259 40.2005 19.1259C40.2005 19.1259 40.2005 19.1259 40.1005 19.1259C40.0005 19.1259 40.0005 19.0259 40.0005 19.0259C40.0005 18.9259 40.0005 18.7259 40.1005 18.6259Z" fill="url(#paint42_linear_1_848)"/>
<path d="M40.2004 17.626L40.1004 17.726C40.1004 17.726 40.1004 17.726 40.0004 17.726C39.9004 17.726 39.9004 17.726 39.9004 17.726C39.9004 17.726 39.9004 17.726 39.8004 17.726C39.7004 17.726 39.7004 17.626 39.7004 17.626C39.6004 17.526 39.7004 17.326 39.8004 17.226C39.8004 17.226 39.9004 17.226 39.9004 17.126C40.0004 17.126 40.0004 17.126 40.1004 17.126C40.1004 17.126 40.2004 17.126 40.2004 17.226C40.3004 17.326 40.3004 17.526 40.2004 17.626Z" fill="url(#paint43_linear_1_848)"/>
<path d="M39.7004 17.9257C39.7004 17.9257 39.8004 17.9257 39.8004 17.8257C39.9004 17.8257 39.9004 17.8257 40.0004 17.8257C40.0004 17.8257 40.1004 17.8257 40.1004 17.9257C40.2004 18.0257 40.2004 18.2257 40.1004 18.3257L40.0004 18.4257C40.0004 18.4257 40.0004 18.4257 39.9004 18.4257C39.8004 18.4257 39.8004 18.4257 39.8004 18.4257C39.8004 18.4257 39.8004 18.4257 39.7004 18.4257C39.6004 18.4257 39.6004 18.3257 39.6004 18.3257C39.6004 18.2257 39.5004 18.2257 39.6004 18.1257C39.6004 18.0257 39.6004 17.9257 39.7004 17.9257Z" fill="url(#paint44_linear_1_848)"/>
<path d="M41.8005 19.0259C41.9005 19.0259 41.9005 19.0259 41.9005 19.0259C42.0005 19.0259 42.1005 19.1259 42.1005 19.2259C42.2005 19.3259 42.1005 19.5259 42.0005 19.6259H41.9005C41.9005 19.6259 41.9005 19.6259 41.8005 19.6259C41.7005 19.6259 41.6005 19.5259 41.6005 19.3259C41.5005 19.1259 41.6005 19.0259 41.8005 19.0259Z" fill="url(#paint45_linear_1_848)"/>
<path d="M42.5003 18.8257C42.6003 18.8257 42.6003 18.8257 42.6003 18.8257C42.7003 18.8257 42.8003 18.9257 42.8003 19.0257C42.9003 19.1257 42.8003 19.3257 42.7003 19.4257H42.6003C42.6003 19.4257 42.6003 19.4257 42.5003 19.4257C42.4003 19.4257 42.3003 19.3257 42.3003 19.1257C42.3003 18.9257 42.4003 18.8257 42.5003 18.8257Z" fill="url(#paint46_linear_1_848)"/>
<path d="M43.2004 18.4258C43.3004 18.4258 43.3004 18.4258 43.3004 18.4258C43.4004 18.4258 43.5004 18.5258 43.5004 18.6258C43.6004 18.7258 43.5004 18.9258 43.3004 19.0258H43.2004C43.2004 19.0258 43.2004 19.0258 43.1004 19.0258C43.0004 19.0258 42.9004 18.9258 42.9004 18.7258C43.0004 18.6258 43.1004 18.4258 43.2004 18.4258Z" fill="url(#paint47_linear_1_848)"/>
<path d="M41.8003 18.5256C41.8003 18.4256 41.9003 18.2256 42.0003 18.2256C42.1003 18.2256 42.1003 18.2256 42.1003 18.2256C42.2003 18.2256 42.3003 18.2256 42.3003 18.4256C42.3003 18.5256 42.3003 18.7256 42.2003 18.8256H42.1003C42.1003 18.8256 42.1003 18.8256 42.0003 18.8256C41.9003 18.7256 41.8003 18.6256 41.8003 18.5256Z" fill="url(#paint48_linear_1_848)"/>
<path d="M18.2003 28.1258C18.0003 28.0258 17.7003 28.0258 17.4003 28.0258H17.3003C17.4003 27.9258 17.4003 27.8258 17.3003 27.7258C17.1003 27.5258 16.8003 27.4258 16.6003 27.4258C16.5003 27.4258 16.3003 27.4258 16.2003 27.5258C16.1003 27.5258 16.1003 27.6258 16.1003 27.6258C16.0003 27.4258 16.0003 27.3258 15.8003 27.1258C15.7003 27.0258 15.5003 27.0258 15.4003 27.1258C15.3003 27.2258 15.3003 27.4258 15.4003 27.5258C15.4003 27.5258 15.5003 27.6258 15.5003 27.7258C15.4003 27.6258 15.2003 27.6258 15.1003 27.6258C14.8003 27.6258 14.5003 27.7258 14.3003 27.9258C14.2003 28.0258 14.2003 28.1258 14.3003 28.2258C14.2003 28.2258 14.1003 28.2258 14.1003 28.2258C13.6003 28.2258 13.2003 28.7258 13.1003 29.1258C12.8003 30.4258 13.5003 32.1258 13.8003 32.5258C13.9003 32.7258 14.3003 33.1258 14.7003 33.2258C14.8003 33.2258 14.9003 33.2258 15.0003 33.1258C15.1003 33.2258 15.2003 33.3258 15.3003 33.4258C15.5003 33.6258 15.8003 33.6258 16.0003 33.6258C16.1003 33.6258 16.2003 33.6258 16.2003 33.6258C16.3003 33.6258 16.5003 33.5258 16.6003 33.4258C16.7003 33.5258 16.9003 33.5258 17.0003 33.5258C17.6003 33.5258 18.1003 32.8258 18.3003 32.5258C18.5003 32.2258 18.7003 31.9258 18.8003 31.6258C19.0003 31.0258 19.2003 30.6258 19.2003 30.2258C19.2003 29.0258 18.9003 28.4258 18.2003 28.1258ZM14.7003 32.6258C14.5003 32.6258 14.2003 32.3258 14.1003 32.2258C13.8003 31.7258 13.2003 30.2258 13.4003 29.2258C13.5003 29.0258 13.7003 28.7258 14.0003 28.7258C14.3003 28.7258 14.5003 28.7258 14.7003 29.0258C14.3003 29.3258 14.3003 29.8258 14.3003 30.2258C14.3003 30.3258 14.4003 30.5258 14.6003 30.5258C14.7003 30.5258 14.9003 30.4258 14.9003 30.2258C14.9003 29.9258 14.9003 29.6258 15.1003 29.4258C15.3003 29.2258 15.5003 29.1258 15.8003 29.0258C16.5003 29.0258 16.9003 29.2258 17.0003 29.7258C17.0003 29.8258 17.0003 29.9258 17.0003 30.0258C17.0003 30.1258 17.0003 30.1258 17.0003 30.2258C17.0003 30.3258 17.1003 30.3258 17.1003 30.4258C17.2003 30.5258 17.4003 30.4258 17.5003 30.3258C17.6003 30.1258 17.6003 29.8258 17.6003 29.7258C17.5003 29.3258 17.3003 29.0258 17.0003 28.8258C17.1003 28.7258 17.3003 28.7258 17.5003 28.7258C17.7003 28.7258 18.0003 28.7258 18.1003 28.8258C18.5003 29.0258 18.7003 29.4258 18.6003 30.2258C18.6003 30.5258 18.4003 30.9258 18.2003 31.5258C18.1003 31.8258 17.9003 32.1258 17.8003 32.3258C17.5003 32.7258 17.2003 33.1258 16.9003 33.1258C17.1003 32.8258 17.2003 32.5258 17.2003 32.2258C17.2003 32.1258 17.1003 31.9258 17.0003 31.9258C16.9003 31.9258 16.7003 32.0258 16.7003 32.1258C16.7003 32.3258 16.6003 32.6258 16.4003 32.9258C16.3003 33.0258 16.2003 33.1258 16.0003 33.2258C15.8003 33.2258 15.6003 33.2258 15.5003 33.1258C15.3003 32.9258 15.1003 32.4258 15.0003 32.0258C15.0003 31.9258 14.9003 31.8258 14.7003 31.8258C14.6003 31.8258 14.5003 32.0258 14.5003 32.1258C14.5003 31.8258 14.5003 32.2258 14.7003 32.6258ZM16.3003 27.9258H16.4003H16.5003C16.6003 27.9258 16.8003 28.0258 16.8003 28.0258C16.6003 28.1258 16.4003 28.2258 16.2003 28.4258C16.1003 28.4258 16.1003 28.4258 16.0003 28.4258C16.0003 28.2258 16.0003 28.1258 16.0003 27.9258C16.2003 27.9258 16.3003 27.9258 16.3003 27.9258ZM15.7003 28.4258C15.5003 28.4258 15.3003 28.5258 15.2003 28.6258C15.1003 28.4258 14.9003 28.3258 14.7003 28.2258C14.8003 28.1258 14.9003 28.0258 15.1003 28.0258C15.2003 28.0258 15.2003 28.0258 15.3003 28.0258C15.4003 28.1258 15.6003 28.0258 15.7003 27.9258C15.7003 27.9258 15.7003 27.9258 15.7003 27.8258C15.7003 28.0258 15.7003 28.2258 15.7003 28.4258Z" fill="url(#paint49_linear_1_848)"/>
<path d="M51.4002 43.8255C51.2002 43.5255 50.8002 42.8255 49.4002 42.3255C49.1002 42.2255 48.7002 42.1255 48.3002 42.1255C47.9002 42.1255 47.4002 42.1255 47.0002 42.4255C46.8002 42.5255 46.6002 42.6255 46.5002 42.7255C46.2002 43.0255 46.0002 43.5255 46.0002 44.0255C46.0002 44.5255 46.3002 45.0255 46.8002 45.0255H46.9002C47.1002 45.0255 47.4002 44.8255 47.5002 44.6255C47.5002 44.5255 47.5002 44.5255 47.5002 44.5255H47.6002V44.6255C47.6002 44.7255 47.3002 44.9255 46.8002 45.1255C46.7002 45.1255 46.7002 45.2255 46.6002 45.2255C46.3002 45.3255 46.0002 45.5255 45.8002 45.7255C45.4002 46.1255 45.2002 46.6255 45.2002 47.2255C45.2002 47.5255 45.5002 48.1255 45.8002 48.3255C46.2002 48.6255 46.6002 48.7255 47.0002 48.7255C47.2002 48.7255 47.4002 48.7255 47.7002 48.6255C48.3002 48.4255 48.6002 47.8255 48.9002 47.3255C49.0002 47.0255 49.1002 46.8255 49.2002 46.5255C49.3002 46.3255 49.3002 46.2255 49.4002 46.2255C49.4002 46.2255 49.5002 46.2255 49.6002 46.3255C49.5002 46.3255 49.5002 46.4255 49.4002 46.5255C49.2002 46.8255 49.3002 47.2255 49.5002 47.4255C49.7002 47.7255 50.1002 47.8255 50.4002 47.8255C50.7002 47.8255 51.0002 47.7255 51.2002 47.5255C52.2002 46.6255 52.0002 44.7255 51.4002 43.8255ZM50.8002 47.0255C50.7002 47.1255 50.5002 47.2255 50.4002 47.2255C50.3002 47.2255 50.1002 47.2255 50.0002 47.0255C50.0002 46.9255 49.9002 46.9255 50.0002 46.9255C50.0002 46.9255 50.0002 46.9255 50.1002 46.9255C50.2002 46.8255 50.5002 46.7255 50.3002 46.2255C50.2002 45.9255 49.9002 45.7255 49.5002 45.7255H49.4002C49.1002 45.7255 48.7002 45.9255 48.6002 46.5255C48.5002 46.8255 48.5002 47.0255 48.4002 47.2255C48.2002 47.7255 48.0002 48.0255 47.6002 48.2255C47.2002 48.4255 46.7002 48.3255 46.3002 48.0255C46.2002 47.9255 46.0002 47.5255 46.0002 47.4255C46.0002 47.0255 46.1002 46.7255 46.4002 46.5255C46.6002 46.4255 46.8002 46.2255 47.1002 46.1255C47.2002 46.1255 47.2002 46.0255 47.3002 46.0255C47.7002 45.8255 48.3002 45.5255 48.5002 45.1255C48.6002 44.9255 48.5002 44.7255 48.4002 44.5255C48.3002 44.3255 48.0002 44.2255 47.8002 44.2255C47.7002 44.2255 47.5002 44.2255 47.4002 44.3255C47.1002 44.1255 47.0002 44.2255 47.0002 44.3255H46.9002H46.8002C46.7002 44.3255 46.6002 44.1255 46.6002 43.9255C46.6002 43.6255 46.7002 43.3255 46.9002 43.1255C47.0002 43.0255 47.1002 42.9255 47.3002 42.9255C47.6002 42.8255 47.9002 42.7255 48.3002 42.7255C48.6002 42.7255 48.9002 42.7255 49.2002 42.8255C50.3002 43.2255 50.7002 43.7255 50.8002 44.0255C51.3002 44.8255 51.5002 46.4255 50.8002 47.0255Z" fill="url(#paint50_linear_1_848)"/>
<path d="M33.9002 54.8259C33.9002 54.6259 33.8002 54.3259 33.6002 54.2259C33.4002 54.0259 33.1002 54.0259 32.8002 54.0259C31.9002 54.2259 31.3002 55.4259 31.2002 56.2259C31.2002 56.5259 31.2002 57.1259 31.8002 57.9259C31.9002 58.0259 32.0002 58.1259 32.1002 58.2259C32.5002 58.5259 32.9002 58.7259 33.3002 58.8259C33.5002 58.8259 33.6002 58.8259 33.7002 58.8259C34.1002 58.7259 34.4002 58.5259 34.5002 58.2259C34.7002 57.9259 34.7002 57.5259 34.4002 57.2259C34.4002 57.2259 34.3002 57.2259 34.3002 57.1259H34.4002H34.5002C34.7002 57.1259 35.0002 57.2259 35.2002 57.1259C35.6002 57.0259 36.0002 56.8259 36.2002 56.4259C36.3002 56.2259 36.4002 55.7259 36.3002 55.5259C36.2002 55.2259 36.0002 55.0259 35.8002 54.8259C35.6002 54.7259 35.4002 54.6259 35.2002 54.5259C34.7002 54.4259 34.3002 54.6259 33.9002 54.9259C33.7002 55.0259 33.6002 55.2259 33.4002 55.3259C33.3002 55.4259 33.3002 55.4259 33.2002 55.4259H33.3002C33.8002 55.4259 33.9002 55.1259 33.9002 54.8259ZM33.2002 56.0259C33.4002 56.1259 33.7002 56.2259 34.1002 55.8259C34.2002 55.7259 34.3002 55.6259 34.5002 55.5259C34.8002 55.3259 35.0002 55.2259 35.3002 55.2259C35.6002 55.3259 35.8002 55.5259 35.9002 55.8259C35.9002 55.9259 35.9002 56.2259 35.9002 56.3259C35.8002 56.5259 35.6002 56.7259 35.4002 56.7259C35.3002 56.7259 35.1002 56.7259 34.9002 56.7259C34.8002 56.7259 34.8002 56.7259 34.7002 56.7259C34.4002 56.7259 33.9002 56.6259 33.6002 56.8259C33.5002 56.9259 33.4002 57.1259 33.4002 57.2259C33.4002 57.4259 33.5002 57.5259 33.6002 57.7259C33.7002 57.8259 33.8002 57.8259 34.0002 57.8259C34.1002 57.8259 34.2002 57.8259 34.3002 57.7259C34.3002 57.7259 34.3002 57.8259 34.3002 57.9259C34.2002 58.1259 34.0002 58.2259 33.9002 58.2259C33.8002 58.2259 33.7002 58.2259 33.6002 58.2259C33.3002 58.2259 33.0002 58.0259 32.7002 57.8259C32.6002 57.7259 32.5002 57.6259 32.4002 57.6259C31.9002 56.9259 31.9002 56.5259 31.9002 56.3259C31.9002 55.7259 32.4002 54.7259 33.0002 54.6259C33.1002 54.6259 33.2002 54.6259 33.3002 54.7259C33.3002 54.7259 33.4002 54.8259 33.4002 54.9259C33.2002 54.9259 33.0002 55.0259 32.9002 55.2259C32.8002 55.4259 32.9002 55.7259 33.1002 55.9259C33.1002 56.0259 33.1002 56.0259 33.2002 56.0259Z" fill="url(#paint51_linear_1_848)"/>
<path d="M12.6003 52.2258C12.8003 52.6258 13.0003 52.9258 13.4003 53.1258C13.6003 53.2258 13.7003 53.2258 13.9003 53.2258C14.2003 53.2258 14.5003 53.1258 14.8003 52.9258C15.0003 52.8258 15.2003 52.4258 15.2003 52.1258C15.2003 51.7258 15.1003 51.3258 14.8003 51.0258C14.6003 50.9258 14.4003 50.8258 14.2003 50.7258C14.3003 50.6258 14.3003 50.6258 14.4003 50.5258C14.6003 50.3258 14.7003 50.0258 14.7003 49.7258C14.7003 49.4258 14.6003 49.1258 14.3003 48.8258C14.2003 48.7258 14.1003 48.6258 13.9003 48.6258C13.6003 48.4258 13.2003 48.4258 12.9003 48.4258C12.6003 48.4258 12.3003 48.4258 12.1003 48.5258C11.1003 48.8258 10.8003 49.3258 10.7003 49.6258C10.3003 50.3258 10.1003 51.6258 10.8003 52.2258C11.0003 52.4258 11.3003 52.5258 11.7003 52.5258C11.8003 52.5258 11.9003 52.5258 12.0003 52.5258C12.3003 52.5258 12.5003 52.4258 12.6003 52.2258ZM12.0003 52.1258C11.9003 52.1258 11.9003 52.1258 11.8003 52.1258C11.6003 52.1258 11.4003 52.0258 11.2003 51.9258C10.7003 51.5258 10.9003 50.4258 11.2003 49.9258C11.3003 49.7258 11.6003 49.3258 12.4003 49.0258C12.6003 48.9258 12.8003 48.9258 13.0003 48.9258C13.3003 48.9258 13.6003 49.0258 13.7003 49.0258C13.8003 49.1258 13.9003 49.1258 14.0003 49.2258C14.1003 49.3258 14.2003 49.5258 14.2003 49.8258C14.2003 49.9258 14.2003 50.0258 14.1003 50.1258C14.0003 49.9258 13.9003 49.8258 13.7003 49.8258C13.6003 49.8258 13.5003 49.8258 13.5003 49.8258C13.3003 49.8258 13.2003 49.9258 13.1003 50.0258C13.0003 50.1258 13.0003 50.2258 13.0003 50.4258C13.1003 50.8258 13.6003 51.0258 13.8003 51.1258C13.8003 51.1258 13.9003 51.1258 13.9003 51.2258C14.1003 51.3258 14.3003 51.4258 14.4003 51.5258C14.6003 51.7258 14.7003 51.9258 14.7003 52.2258C14.7003 52.3258 14.5003 52.6258 14.5003 52.6258C14.2003 52.8258 13.9003 52.9258 13.6003 52.8258C13.3003 52.7258 13.2003 52.4258 13.0003 52.1258C12.9003 51.9258 12.9003 51.8258 12.8003 51.6258C12.7003 51.2258 12.4003 51.1258 12.2003 51.1258C12.2003 51.1258 12.2003 51.1258 12.1003 51.1258C11.8003 51.1258 11.6003 51.3258 11.5003 51.5258C11.4003 51.8258 11.6003 52.1258 11.9003 52.2258C12.1003 52.1258 12.0003 52.1258 12.0003 52.1258ZM13.7003 50.4258C13.7003 50.5258 13.7003 50.5258 13.7003 50.4258C13.6003 50.3258 13.5003 50.3258 13.5003 50.2258C13.5003 50.2258 13.5003 50.2258 13.5003 50.1258H13.6003C13.7003 50.1258 13.7003 50.2258 13.7003 50.2258C13.7003 50.3258 13.7003 50.4258 13.7003 50.4258ZM12.4003 51.6258C12.3003 51.6258 12.3003 51.6258 12.4003 51.6258C12.3003 51.6258 12.3003 51.6258 12.3003 51.6258C12.2003 51.6258 12.2003 51.5258 12.2003 51.4258C12.2003 51.4258 12.2003 51.3258 12.3003 51.3258C12.3003 51.4258 12.4003 51.4258 12.4003 51.6258Z" fill="url(#paint52_linear_1_848)"/>
<path d="M33.4002 44.6258C33.3002 44.5258 33.3002 44.4258 33.2002 44.3258C32.7002 43.8258 32.0002 43.7258 31.5002 43.7258C31.2002 43.7258 31.0002 43.7258 30.7002 43.7258C30.5002 43.7258 30.4002 43.7258 30.2002 43.7258C30.1002 43.7258 30.0002 43.7258 30.0002 43.7258C30.0002 43.6258 29.9002 43.5258 29.8002 43.4258C29.7002 43.4258 29.5002 43.4258 29.4002 43.5258C29.1002 43.4258 28.8002 43.3258 28.5002 43.2258C28.5002 43.2258 28.4002 43.2258 28.4002 43.1258C28.4002 43.0258 28.4002 42.9258 28.4002 42.8258C28.4002 42.7258 28.3002 42.7258 28.2002 42.6258C28.1002 42.6258 27.9002 42.6258 27.8002 42.7258C27.4002 42.4258 26.9002 42.1258 26.5002 42.1258C26.4002 42.1258 26.4002 42.1258 26.3002 42.1258C26.2002 42.0258 26.0002 42.0258 25.8002 42.1258C25.7002 42.2258 25.7002 42.3258 25.7002 42.4258V42.5258C25.6002 42.6258 25.5002 42.7258 25.5002 42.8258C25.3002 43.2258 25.3002 43.7258 25.6002 44.2258C25.7002 44.4258 25.8002 44.5258 26.0002 44.7258V44.8258C26.0002 44.8258 26.0002 44.8258 26.0002 44.9258C26.0002 45.0258 26.0002 45.0258 26.0002 45.1258C26.1002 45.2258 26.3002 45.3258 26.4002 45.2258C26.8002 45.5258 27.2002 45.9258 27.7002 46.2258C27.7002 46.3258 27.7002 46.4258 27.7002 46.5258C27.7002 46.5258 27.7002 46.5258 27.7002 46.6258C27.8002 46.7258 28.0002 46.7258 28.2002 46.6258C28.5002 46.7258 28.7002 46.9258 29.0002 47.0258C29.1002 47.0258 29.1002 47.1258 29.2002 47.1258V47.2258C29.3002 47.4258 29.5002 47.4258 29.6002 47.3258C29.6002 47.3258 29.7002 47.3258 29.7002 47.2258C30.2002 47.3258 30.7002 47.3258 31.2002 47.2258C31.3002 47.3258 31.3002 47.3258 31.4002 47.3258C31.5002 47.3258 31.7002 47.2258 31.7002 47.1258C31.9002 47.0258 32.0002 47.0258 32.1002 46.9258C32.6002 46.7258 33.2002 46.2258 33.4002 45.6258C33.6002 45.3258 33.5002 45.0258 33.4002 44.6258ZM32.8002 45.4258C32.7002 45.7258 32.3002 46.1258 31.9002 46.3258C31.5002 46.5258 31.0002 46.6258 30.5002 46.6258C30.1002 46.6258 29.8002 46.5258 29.5002 46.4258C29.5002 46.4258 29.5002 46.4258 29.6002 46.4258C29.6002 46.4258 29.6002 46.4258 29.7002 46.4258C29.7002 46.4258 29.8002 46.4258 29.8002 46.3258C29.8002 46.3258 29.8002 46.3258 29.9002 46.3258C30.0002 46.2258 30.0002 46.1258 30.0002 46.0258C30.0002 45.9258 29.9002 45.8258 29.8002 45.8258C29.7002 45.8258 29.5002 45.8258 29.4002 45.9258C29.3002 46.0258 29.3002 46.2258 29.4002 46.3258C29.4002 46.4258 29.5002 46.4258 29.5002 46.4258C29.4002 46.4258 29.4002 46.4258 29.3002 46.3258C28.1002 45.8258 27.1002 45.1258 26.5002 44.4258C26.3002 44.2258 26.2002 44.1258 26.1002 43.9258C25.9002 43.6258 25.9002 43.4258 26.0002 43.1258C26.1002 42.9258 26.2002 42.8258 26.3002 42.8258H26.4002C26.7002 42.8258 27.2002 43.1258 27.5002 43.4258C27.7002 43.6258 27.9002 43.7258 28.1002 43.8258C28.6002 44.1258 29.4002 44.3258 30.1002 44.3258H30.2002C30.4002 44.3258 30.5002 44.3258 30.7002 44.3258C30.9002 44.3258 31.2002 44.3258 31.4002 44.3258C32.0002 44.3258 32.4002 44.4258 32.6002 44.7258C32.7002 44.8258 32.7002 44.8258 32.7002 44.9258C32.9002 45.1258 32.9002 45.3258 32.8002 45.4258Z" fill="url(#paint53_linear_1_848)"/>
<path d="M31.1002 44.9258C31.0002 44.9258 30.8002 44.9258 30.7002 45.0258C30.6002 45.1258 30.6002 45.2258 30.7002 45.4258L30.8002 45.5258H30.9002H31.0002C31.0002 45.5258 31.0002 45.5258 31.1002 45.5258C31.2002 45.4258 31.2002 45.4258 31.2002 45.3258C31.2002 45.2258 31.2002 45.1258 31.1002 45.1258C31.2002 45.0258 31.1002 44.9258 31.1002 44.9258Z" fill="url(#paint54_linear_1_848)"/>
<path d="M30.0003 44.626C29.9003 44.626 29.7003 44.626 29.6003 44.826C29.6003 44.926 29.6003 45.026 29.6003 45.026V45.126C29.6003 45.226 29.7003 45.226 29.8003 45.326H29.9003C30.0003 45.326 30.1003 45.226 30.2003 45.126C30.2003 45.026 30.2003 44.926 30.2003 44.926C30.2003 44.726 30.1003 44.626 30.0003 44.626Z" fill="url(#paint55_linear_1_848)"/>
<path d="M32.0003 45.4258C31.9003 45.4258 31.7003 45.4258 31.6003 45.6258C31.6003 45.7258 31.6003 45.8258 31.6003 45.8258V45.9258C31.6003 46.0258 31.7003 46.0258 31.8003 46.1258H31.9003C32.0003 46.1258 32.1003 46.0258 32.2003 45.9258C32.2003 45.8258 32.2003 45.7258 32.2003 45.7258C32.2003 45.5258 32.1003 45.4258 32.0003 45.4258Z" fill="url(#paint56_linear_1_848)"/>
<path d="M31.8003 45.1259C32.0003 45.1259 32.1003 45.0259 32.2003 44.9259C32.2003 44.8259 32.2003 44.7259 32.2003 44.7259C32.2003 44.6259 32.1003 44.5259 32.0003 44.5259C31.9003 44.5259 31.7003 44.5259 31.6003 44.7259C31.6003 44.8259 31.6003 44.9259 31.6003 44.9259V45.0259C31.6003 45.0259 31.7003 45.1259 31.8003 45.1259Z" fill="url(#paint57_linear_1_848)"/>
<path d="M31.0002 45.8259C30.9002 45.7259 30.7002 45.7259 30.6002 45.9259C30.5002 46.0259 30.5002 46.1259 30.5002 46.2259C30.5002 46.2259 30.6002 46.3259 30.7002 46.3259C30.7002 46.3259 30.8002 46.3259 30.9002 46.3259C30.9002 46.3259 30.9002 46.3259 31.0002 46.3259C31.1002 46.3259 31.2002 46.2259 31.2002 46.2259C31.2002 46.1259 31.3002 46.0259 31.2002 46.0259C31.1002 46.0259 31.1002 45.9259 31.0002 45.8259Z" fill="url(#paint58_linear_1_848)"/>
<path d="M27.5003 44.626C27.3003 44.626 27.1003 44.726 27.1003 44.926V45.026C27.1003 45.126 27.1003 45.126 27.1003 45.226C27.1003 45.326 27.2003 45.326 27.3003 45.426H27.4003C27.5003 45.426 27.7003 45.326 27.7003 45.226C27.7003 45.126 27.7003 45.026 27.7003 44.926C27.7003 44.726 27.6003 44.726 27.5003 44.626Z" fill="url(#paint59_linear_1_848)"/>
<path d="M28.8001 45.0259C28.6001 45.0259 28.4001 45.1259 28.4001 45.3259V45.4259C28.4001 45.5259 28.4001 45.5259 28.4001 45.6259C28.4001 45.7259 28.5001 45.7259 28.6001 45.8259H28.7001C28.8001 45.8259 29.0001 45.7259 29.0001 45.6259C29.0001 45.5259 29.0001 45.4259 29.0001 45.3259C29.0001 45.1259 28.9001 45.0259 28.8001 45.0259Z" fill="url(#paint60_linear_1_848)"/>
<path d="M27.2001 43.8259C27.2001 43.6259 27.0001 43.5259 26.8001 43.5259C26.7001 43.5259 26.6001 43.6259 26.6001 43.6259C26.6001 43.7259 26.5001 43.8259 26.6001 43.9259V44.0259C26.7001 44.1259 26.7001 44.2259 26.9001 44.2259C27.1001 44.2259 27.2001 44.1259 27.2001 43.9259V43.8259Z" fill="url(#paint61_linear_1_848)"/>
<path d="M28.5003 44.2257C28.4003 44.0257 28.2003 44.0257 28.0003 44.1257C28.0003 44.1257 28.0003 44.1257 27.9003 44.1257C27.8003 44.2257 27.8003 44.4257 27.8003 44.5257C27.8003 44.6257 27.9003 44.6257 28.0003 44.7257H28.1003H28.2003C28.6003 44.6257 28.6003 44.4257 28.5003 44.2257Z" fill="url(#paint62_linear_1_848)"/>
<path d="M24.0002 41.2256C23.9002 40.5256 23.3002 40.0256 22.9002 39.8256C22.6002 39.7256 22.3002 39.6256 21.9002 39.6256C21.7002 39.6256 21.6002 39.6256 21.4002 39.5256C21.2002 39.4256 20.9002 39.4256 20.7002 39.2256C20.7002 39.2256 20.6002 39.2256 20.6002 39.1256C20.6002 39.1256 20.5002 39.1256 20.5002 39.0256C20.6002 39.0256 20.7002 39.0256 20.8002 39.0256C20.9002 38.9256 21.1002 38.7256 21.2002 38.6256C21.4002 38.4256 21.5002 38.2256 21.6002 38.0256C21.6002 37.9256 21.7002 37.8256 21.6002 37.7256C21.6002 37.6256 21.5002 37.5256 21.4002 37.5256C21.4002 37.5256 21.4002 37.5256 21.3002 37.5256C21.1002 37.4256 20.7002 37.2256 20.1002 37.2256C19.6002 37.2256 19.1002 37.4256 18.7002 37.8256C18.5002 38.0256 18.4002 38.1256 18.3002 38.3256V38.4256C18.3002 38.5256 18.2002 38.5256 18.2002 38.6256V38.7256C17.7002 39.0256 17.3002 39.4256 17.3002 39.4256C17.2002 39.5256 17.3002 39.7256 17.4002 39.8256C17.5002 39.8256 17.5002 39.9256 17.6002 39.9256C17.7002 39.9256 17.8002 39.9256 17.8002 39.8256C17.8002 39.7256 18.1002 39.5256 18.4002 39.3256C18.5002 39.3256 18.5002 39.4256 18.6002 39.4256H18.7002C18.4002 39.9256 18.5002 40.4256 18.8002 40.7256C18.9002 40.8256 19.0002 40.9256 19.1002 41.1256C19.3002 41.3256 19.3002 41.6256 19.4002 41.9256C19.5002 42.3256 19.7002 42.7256 19.9002 43.0256C20.1002 43.2256 20.6002 43.8256 21.4002 43.8256C22.0002 43.8256 22.5002 43.5256 23.0002 43.0256C24.1002 42.3256 24.1002 41.6256 24.0002 41.2256ZM19.9002 39.5256C20.0002 39.5256 20.2002 39.6256 20.4002 39.7256C20.5002 39.7256 20.5002 39.8256 20.5002 39.8256C20.8002 39.9256 21.0002 40.0256 21.3002 40.1256C21.5002 40.1256 21.7002 40.2256 21.9002 40.2256C22.2002 40.2256 22.4002 40.3256 22.6002 40.4256C22.9002 40.5256 23.3002 40.9256 23.4002 41.4256C23.5002 41.8256 23.3002 42.2256 23.0002 42.7256C22.6002 43.1256 22.2002 43.3256 21.8002 43.3256C21.3002 43.3256 20.9002 42.9256 20.7002 42.7256C20.5002 42.5256 20.4002 42.1256 20.3002 41.8256C20.2002 41.5256 20.1002 41.1256 19.9002 40.8256C19.8002 40.6256 19.7002 40.5256 19.6002 40.4256C19.4002 40.2256 19.4002 40.0256 19.6002 39.8256L19.7002 39.7256C19.7002 39.6256 19.8002 39.5256 19.9002 39.5256ZM19.9002 39.0256C19.7002 39.0256 19.5002 39.1256 19.3002 39.2256C19.3002 39.1256 19.3002 39.1256 19.2002 39.1256C19.4002 39.0256 19.6002 38.9256 19.8002 38.9256C19.9002 38.9256 19.9002 38.8256 20.0002 38.8256C20.1002 38.7256 20.1002 38.6256 20.1002 38.6256C20.1002 38.5256 20.0002 38.3256 19.8002 38.3256C19.7002 38.3256 19.6002 38.3256 19.5002 38.4256C19.8002 38.2256 20.1002 38.1256 20.4002 38.1256C20.7002 38.1256 20.9002 38.2256 21.1002 38.3256C20.9002 38.5256 20.8002 38.7256 20.6002 38.9256C20.5002 39.0256 20.5002 39.0256 20.5002 39.1256C20.5002 39.2256 20.5002 39.3256 20.6002 39.3256C20.6002 39.3256 20.6002 39.3256 20.7002 39.4256C20.4002 39.1256 20.2002 39.0256 19.9002 39.0256Z" fill="url(#paint63_linear_1_848)"/>
<path d="M21.1001 42.5255C21.3001 42.7255 21.6001 42.8255 21.9001 42.8255C22.2001 42.8255 22.5001 42.7255 22.7001 42.5255C22.9001 42.3255 23.0001 42.0255 22.9001 41.7255C22.9001 41.4255 22.7001 41.1255 22.5001 40.9255C22.3001 40.7255 22.0001 40.6255 21.7001 40.6255C21.4001 40.6255 21.1001 40.7255 20.9001 40.9255C20.7001 41.1255 20.6001 41.4255 20.7001 41.7255C20.7001 42.0255 20.9001 42.3255 21.1001 42.5255ZM21.5001 42.0255C21.4001 41.9255 21.3001 41.8255 21.3001 41.6255C21.3001 41.5255 21.3001 41.4255 21.4001 41.3255C21.5001 41.2255 21.6001 41.2255 21.7001 41.2255C21.8001 41.2255 22.0001 41.3255 22.1001 41.4255C22.3001 41.6255 22.4001 41.9255 22.3001 42.1255C22.1001 42.2255 21.7001 42.2255 21.5001 42.0255Z" fill="url(#paint64_linear_1_848)"/>
<path d="M4.50024 84.3256H7.60024L54.8002 50.4256V48.2256L31.0002 65.3256L1.00024 52.3256V54.3256L29.2002 66.6256L25.7002 69.1256L1.00024 59.0256V61.0256L23.9002 70.4256L20.3002 72.9256L1.00024 64.5256V66.5256L18.6002 74.2256L15.4002 76.5256L1.00024 70.6256V72.6256L13.6002 77.8256L9.70024 80.5256L1.00024 76.7256V78.8256L8.00024 81.8256L4.50024 84.3256Z" fill="url(#paint65_linear_1_848)"/>
<path d="M16.7002 84.3257L54.8002 57.1257V54.8257L13.5002 84.3257H16.7002Z" fill="url(#paint66_linear_1_848)"/>
<path d="M26.1002 84.3254L54.8002 63.7254V61.5254L23.0002 84.3254H26.1002Z" fill="url(#paint67_linear_1_848)"/>
<path d="M44.7003 84.3257L54.8003 77.0257V74.8257L41.6003 84.3257H44.7003Z" fill="url(#paint68_linear_1_848)"/>
<path d="M35.8003 84.3258L54.8003 70.7258V68.4258L32.6003 84.3258H35.8003Z" fill="url(#paint69_linear_1_848)"/>
<path d="M89.2002 28.0259H79.7002L72.5002 45.6259V28.0259H63.2002V66.8259H72.5002V47.9259L80.4002 66.8259H90.3002L81.4002 46.4259L89.2002 28.0259Z" fill="url(#paint70_linear_1_848)"/>
<path d="M91.9001 66.8259H112V60.0259H101.3V50.6259H111.4V43.8259H101.3V34.9259H112V28.0259H91.9001V66.8259Z" fill="url(#paint71_linear_1_848)"/>
<path d="M136.2 35.7259V28.0259H114.8V34.9259H126.5L113.1 59.2259V66.8259H136.6V60.0259H122.8L136.2 35.7259Z" fill="url(#paint72_linear_1_848)"/>
<path d="M145.2 28.0259L137.3 66.8259H146.5L147.9 58.0259H155.1L156.4 66.8259H165.6L157.7 28.0259H145.2ZM148.9 51.4259L151.5 34.2259L154.1 51.4259H148.9Z" fill="url(#paint73_linear_1_848)"/>
<path d="M68.2002 73.7258H64.5002V77.2258H67.7002V78.5258H64.5002V84.2258H63.0002V72.4258H68.2002V73.7258Z" fill="#464647"/>
<path d="M76.2003 84.2258H74.7003L74.3003 81.9258H71.6003L71.1003 84.2258H69.6003L72.2003 72.4258H73.7003L76.2003 84.2258ZM74.0003 80.6258L72.9003 74.5258L71.8003 80.6258H74.0003Z" fill="#464647"/>
<path d="M84.4002 84.2258H82.9002L80.9002 79.0258H79.7002V84.2258H78.2002V72.4258H80.8002C81.8002 72.4258 82.6002 72.6258 83.0002 73.0258C83.6002 73.5258 83.9002 74.4258 83.9002 75.6258C83.9002 76.1258 83.9002 76.6258 83.8002 77.1258C83.7002 77.6258 83.5002 78.0258 83.3002 78.3258C83.1002 78.6258 82.7002 78.8258 82.3002 78.9258L84.4002 84.2258ZM82.5002 75.8258C82.5002 75.2258 82.5002 74.8258 82.4002 74.5258C82.3002 74.3258 82.2002 74.2258 82.1002 74.0258C82.0002 73.9258 81.8002 73.8258 81.6002 73.8258C81.4002 73.8258 81.3002 73.7258 81.1002 73.7258C81.0002 73.7258 80.8002 73.7258 80.6002 73.7258C80.5002 73.7258 80.5002 73.7258 80.4002 73.7258H79.7002V77.8258H80.5002C81.1002 77.8258 81.5002 77.8258 81.8002 77.7258C82.0002 77.6258 82.1002 77.5258 82.2002 77.4258C82.3002 77.3258 82.4002 77.1258 82.4002 76.8258C82.4002 76.6258 82.5002 76.4258 82.5002 76.3258C82.5002 76.2258 82.5002 76.0258 82.5002 75.8258Z" fill="#464647"/>
<path d="M94.4002 84.2258H93.0002L93.2002 73.5258L91.5002 84.2258H89.6002L87.9002 73.5258L88.1002 84.2258H86.7002V72.4258H88.9002L90.5002 82.9258L92.1002 72.4258H94.3002L94.4002 84.2258Z" fill="#464647"/>
<path d="M102.6 84.2258H97.3003V72.4258H102.5V73.7258H98.8003V77.2258H102.1V78.5258H98.8003V82.8258H102.6V84.2258Z" fill="#464647"/>
<path d="M111.2 84.2258H109.7L107.7 79.0258H106.5V84.2258H105V72.4258H107.6C108.6 72.4258 109.4 72.6258 109.8 73.0258C110.4 73.5258 110.7 74.4258 110.7 75.6258C110.7 76.1258 110.7 76.6258 110.6 77.1258C110.5 77.6258 110.3 78.0258 110.1 78.3258C109.9 78.6258 109.5 78.8258 109.1 78.9258L111.2 84.2258ZM109.3 75.8258C109.3 75.2258 109.3 74.8258 109.2 74.5258C109.1 74.3258 109 74.2258 108.9 74.0258C108.8 73.9258 108.6 73.8258 108.4 73.8258C108.2 73.8258 108.1 73.7258 107.9 73.7258C107.8 73.7258 107.6 73.7258 107.4 73.7258C107.3 73.7258 107.3 73.7258 107.2 73.7258H106.5V77.8258H107.3C107.9 77.8258 108.3 77.8258 108.6 77.7258C108.8 77.6258 108.9 77.5258 109 77.4258C109.1 77.3258 109.2 77.1258 109.2 76.8258C109.2 76.6258 109.3 76.4258 109.3 76.3258C109.3 76.2258 109.3 76.1258 109.3 75.8258Z" fill="#464647"/>
<path d="M118.9 81.6258C118.9 82.7258 118.5 83.5258 117.8 83.9258C117.3 84.2258 116.7 84.4258 116 84.4258C114.6 84.4258 113.7 83.9258 113.3 82.8258C113.2 82.4258 113.1 82.0258 113.1 81.5258V80.2258H114.5V80.8258C114.5 81.6258 114.5 82.1258 114.6 82.4258C114.8 83.0258 115.3 83.3258 115.9 83.3258C116.6 83.3258 117 83.0258 117.3 82.5258C117.4 82.3258 117.4 82.1258 117.4 81.8258C117.4 81.5258 117.3 81.2258 117.2 80.9258C117.1 80.6258 117 80.4258 116.9 80.3258C116.8 80.2258 116.6 80.0258 116.3 79.7258L114.7 78.1258C114.2 77.6258 113.8 77.1258 113.6 76.7258C113.4 76.3258 113.3 75.8258 113.3 75.1258C113.3 74.7258 113.3 74.3258 113.4 74.0258C113.7 72.9258 114.6 72.4258 116 72.4258C117.3 72.4258 118.1 72.9258 118.4 73.9258C118.5 74.2258 118.5 74.6258 118.5 75.3258V76.1258H117.2C117.2 75.6258 117.2 75.3258 117.2 75.1258C117.2 74.4258 117 74.0258 116.6 73.8258C116.4 73.7258 116.2 73.7258 116 73.7258C115.6 73.7258 115.3 73.8258 115.1 74.0258C115.1 74.0258 115 74.1258 114.9 74.3258C114.8 74.5258 114.8 74.7258 114.8 75.1258C114.8 75.4258 114.8 75.6258 114.9 75.8258C114.9 75.9258 115 76.1258 115.1 76.2258C115.2 76.3258 115.3 76.5258 115.3 76.5258C115.3 76.5258 115.5 76.7258 115.7 76.9258C115.9 77.1258 116 77.2258 116 77.2258L117.9 79.2258C118 79.3258 118.1 79.5258 118.3 79.7258C118.6 80.0258 118.9 80.7258 118.9 81.6258Z" fill="#464647"/>
<path d="M131.6 76.1259C131.6 77.4259 131.4 78.2259 131 78.7259C130.6 79.2259 129.8 79.4259 128.7 79.4259H127.5V84.3259H126V72.5259H129.1C130 72.5259 130.7 72.8259 131.1 73.3259C131.2 73.4259 131.2 73.5259 131.3 73.6259C131.4 73.7259 131.4 73.8259 131.5 73.9259C131.6 74.0259 131.6 74.1259 131.6 74.2259C131.6 74.3259 131.7 74.4259 131.7 74.5259C131.7 74.6259 131.7 74.7259 131.7 74.8259C131.7 74.9259 131.7 75.0259 131.7 75.1259C131.7 75.2259 131.7 75.4259 131.7 75.4259C131.7 75.4259 131.7 75.6259 131.7 75.7259C131.6 75.9259 131.6 76.0259 131.6 76.1259ZM130.1 76.1259C130.1 75.6259 130.1 75.2259 130.1 75.0259C130.1 74.8259 130 74.6259 129.9 74.4259C129.8 74.2259 129.7 74.1259 129.6 74.0259C129.5 73.9259 129.3 73.9259 129.2 73.8259C129 73.8259 128.8 73.7259 128.7 73.7259C128.6 73.7259 128.4 73.7259 128.1 73.7259H127.3V78.0259H128.3C128.5 78.0259 128.7 78.0259 128.8 78.0259C128.9 78.0259 129 78.0259 129.2 77.9259C129.4 77.9259 129.5 77.8259 129.6 77.7259C129.7 77.6259 129.8 77.5259 129.9 77.3259C130.1 77.3259 130.1 76.8259 130.1 76.1259Z" fill="#464647"/>
<path d="M140.2 84.3259H138.7L136.7 79.1259H135.5V84.3259H134V72.5259H136.6C137.6 72.5259 138.4 72.7259 138.8 73.1259C139.4 73.6259 139.7 74.5259 139.7 75.7259C139.7 76.2259 139.7 76.7259 139.6 77.2259C139.5 77.7259 139.3 78.1259 139.1 78.4259C138.9 78.7259 138.5 78.9259 138.1 79.0259L140.2 84.3259ZM138.3 75.9259C138.3 75.3259 138.3 74.9259 138.2 74.6259C138.1 74.4259 138 74.3259 137.9 74.1259C137.8 74.0259 137.6 73.9259 137.4 73.9259C137.2 73.9259 137.1 73.8259 136.9 73.8259C136.8 73.8259 136.6 73.8259 136.4 73.8259C136.3 73.8259 136.3 73.8259 136.2 73.8259H135.5V77.9259H136.3C136.9 77.9259 137.3 77.9259 137.6 77.8259C137.8 77.7259 137.9 77.6259 138 77.5259C138.1 77.4259 138.2 77.2259 138.2 76.9259C138.2 76.7259 138.3 76.5259 138.3 76.4259C138.3 76.3259 138.3 76.1259 138.3 75.9259Z" fill="#464647"/>
<path d="M143.9 84.3259H142.4V72.5259H143.9V84.3259Z" fill="#464647"/>
<path d="M152.5 77.8259C152.5 78.4259 152.5 79.3259 152.5 80.4259C152.5 80.8259 152.5 81.3259 152.4 81.7259C152.3 82.8259 151.9 83.6259 151.2 84.0259C151.1 84.1259 151 84.1259 150.9 84.1259C150.8 84.1259 150.7 84.2259 150.6 84.2259C150.5 84.2259 150.4 84.2259 150.3 84.3259C150.2 84.3259 150.1 84.3259 150 84.3259C149.9 84.3259 149.8 84.3259 149.7 84.3259C149.6 84.3259 149.5 84.3259 149.4 84.3259C149.3 84.3259 149.1 84.3259 149.1 84.3259H146.9V72.5259H149.1C150.1 72.5259 150.8 72.6259 151.2 72.8259C151.9 73.1259 152.4 73.8259 152.5 74.7259C152.5 75.1259 152.5 76.1259 152.5 77.8259ZM151.1 78.9259C151.1 77.3259 151.1 76.3259 151.1 76.0259C151.1 75.5259 151.1 75.1259 151 74.9259C150.9 74.7259 150.8 74.4259 150.7 74.3259C150.4 74.1259 149.9 73.9259 149.1 73.9259H148.3V83.0259H149.3C149.8 83.0259 150.2 82.9259 150.5 82.8259C150.8 82.6259 151 82.3259 151.1 81.9259C151 81.6259 151.1 80.6259 151.1 78.9259Z" fill="#464647"/>
<path d="M160.5 84.3259H155.2V72.5259H160.4V73.8259H156.7V77.3259H160V78.6259H156.7V82.9259H160.5V84.3259Z" fill="#464647"/>
<path d="M164.3 84.3257H162.9V82.3257H164.3V84.3257Z" fill="#464647"/>
<defs>
<linearGradient id="paint0_linear_1_848" x1="47.1215" y1="-11.8296" x2="22.4818" y2="66.1956" gradientUnits="userSpaceOnUse">
<stop stop-color="#EEE252"/>
<stop offset="0.332" stop-color="#EEA33F"/>
<stop offset="0.6404" stop-color="#EE7030"/>
<stop offset="0.8718" stop-color="#EE5027"/>
<stop offset="1" stop-color="#EE4423"/>
</linearGradient>
<linearGradient id="paint1_linear_1_848" x1="46.3154" y1="-12.0842" x2="21.6759" y2="65.941" gradientUnits="userSpaceOnUse">
<stop stop-color="#EEE252"/>
<stop offset="0.332" stop-color="#EEA33F"/>
<stop offset="0.6404" stop-color="#EE7030"/>
<stop offset="0.8718" stop-color="#EE5027"/>
<stop offset="1" stop-color="#EE4423"/>
</linearGradient>
<linearGradient id="paint2_linear_1_848" x1="53.3121" y1="-9.87478" x2="28.6726" y2="68.1505" gradientUnits="userSpaceOnUse">
<stop stop-color="#EEE252"/>
<stop offset="0.332" stop-color="#EEA33F"/>
<stop offset="0.6404" stop-color="#EE7030"/>
<stop offset="0.8718" stop-color="#EE5027"/>
<stop offset="1" stop-color="#EE4423"/>
</linearGradient>
<linearGradient id="paint3_linear_1_848" x1="54.2422" y1="-9.58091" x2="29.6027" y2="68.4443" gradientUnits="userSpaceOnUse">
<stop stop-color="#EEE252"/>
<stop offset="0.332" stop-color="#EEA33F"/>
<stop offset="0.6404" stop-color="#EE7030"/>
<stop offset="0.8718" stop-color="#EE5027"/>
<stop offset="1" stop-color="#EE4423"/>
</linearGradient>
<linearGradient id="paint4_linear_1_848" x1="16.4081" y1="12.8097" x2="9.80571" y2="33.7172" gradientUnits="userSpaceOnUse">
<stop stop-color="#EEE252"/>
<stop offset="0.332" stop-color="#EEA33F"/>
<stop offset="0.6404" stop-color="#EE7030"/>
<stop offset="0.8718" stop-color="#EE5027"/>
<stop offset="1" stop-color="#EE4423"/>
</linearGradient>
<linearGradient id="paint5_linear_1_848" x1="42.1855" y1="-13.3882" x2="17.5459" y2="64.637" gradientUnits="userSpaceOnUse">
<stop stop-color="#EEE252"/>
<stop offset="0.332" stop-color="#EEA33F"/>
<stop offset="0.6404" stop-color="#EE7030"/>
<stop offset="0.8718" stop-color="#EE5027"/>
<stop offset="1" stop-color="#EE4423"/>
</linearGradient>
<linearGradient id="paint6_linear_1_848" x1="36.3552" y1="-15.2295" x2="11.7156" y2="62.7957" gradientUnits="userSpaceOnUse">
<stop stop-color="#EEE252"/>
<stop offset="0.332" stop-color="#EEA33F"/>
<stop offset="0.6404" stop-color="#EE7030"/>
<stop offset="0.8718" stop-color="#EE5027"/>
<stop offset="1" stop-color="#EE4423"/>
</linearGradient>
<linearGradient id="paint7_linear_1_848" x1="42.1744" y1="-2.23632" x2="24.4551" y2="53.8746" gradientUnits="userSpaceOnUse">
<stop stop-color="#EEE252"/>
<stop offset="0.332" stop-color="#EEA33F"/>
<stop offset="0.6404" stop-color="#EE7030"/>
<stop offset="0.8718" stop-color="#EE5027"/>
<stop offset="1" stop-color="#EE4423"/>
</linearGradient>
<linearGradient id="paint8_linear_1_848" x1="42.1831" y1="-2.23362" x2="24.4639" y2="53.8773" gradientUnits="userSpaceOnUse">
<stop stop-color="#EEE252"/>
<stop offset="0.332" stop-color="#EEA33F"/>
<stop offset="0.6404" stop-color="#EE7030"/>
<stop offset="0.8718" stop-color="#EE5027"/>
<stop offset="1" stop-color="#EE4423"/>
</linearGradient>
<linearGradient id="paint9_linear_1_848" x1="26.5176" y1="8.27189" x2="18.8883" y2="32.4316" gradientUnits="userSpaceOnUse">
<stop stop-color="#EEE252"/>
<stop offset="0.332" stop-color="#EEA33F"/>
<stop offset="0.6404" stop-color="#EE7030"/>
<stop offset="0.8718" stop-color="#EE5027"/>
<stop offset="1" stop-color="#EE4423"/>
</linearGradient>
<linearGradient id="paint10_linear_1_848" x1="25.7815" y1="8.03959" x2="18.1521" y2="32.1993" gradientUnits="userSpaceOnUse">
<stop stop-color="#EEE252"/>
<stop offset="0.332" stop-color="#EEA33F"/>
<stop offset="0.6404" stop-color="#EE7030"/>
<stop offset="0.8718" stop-color="#EE5027"/>
<stop offset="1" stop-color="#EE4423"/>
</linearGradient>
<linearGradient id="paint11_linear_1_848" x1="24.6467" y1="7.6814" x2="17.0173" y2="31.8411" gradientUnits="userSpaceOnUse">
<stop stop-color="#EEE252"/>
<stop offset="0.332" stop-color="#EEA33F"/>
<stop offset="0.6404" stop-color="#EE7030"/>
<stop offset="0.8718" stop-color="#EE5027"/>
<stop offset="1" stop-color="#EE4423"/>
</linearGradient>
<linearGradient id="paint12_linear_1_848" x1="25.3752" y1="7.91139" x2="17.7458" y2="32.071" gradientUnits="userSpaceOnUse">
<stop stop-color="#EEE252"/>
<stop offset="0.332" stop-color="#EEA33F"/>
<stop offset="0.6404" stop-color="#EE7030"/>
<stop offset="0.8718" stop-color="#EE5027"/>
<stop offset="1" stop-color="#EE4423"/>
</linearGradient>
<linearGradient id="paint13_linear_1_848" x1="26.4672" y1="8.2563" x2="18.838" y2="32.4159" gradientUnits="userSpaceOnUse">
<stop stop-color="#EEE252"/>
<stop offset="0.332" stop-color="#EEA33F"/>
<stop offset="0.6404" stop-color="#EE7030"/>
<stop offset="0.8718" stop-color="#EE5027"/>
<stop offset="1" stop-color="#EE4423"/>
</linearGradient>
<linearGradient id="paint14_linear_1_848" x1="25.5204" y1="7.95729" x2="17.891" y2="32.117" gradientUnits="userSpaceOnUse">
<stop stop-color="#EEE252"/>
<stop offset="0.332" stop-color="#EEA33F"/>
<stop offset="0.6404" stop-color="#EE7030"/>
<stop offset="0.8718" stop-color="#EE5027"/>
<stop offset="1" stop-color="#EE4423"/>
</linearGradient>
<linearGradient id="paint15_linear_1_848" x1="25.5743" y1="7.97429" x2="17.9449" y2="32.134" gradientUnits="userSpaceOnUse">
<stop stop-color="#EEE252"/>
<stop offset="0.332" stop-color="#EEA33F"/>
<stop offset="0.6404" stop-color="#EE7030"/>
<stop offset="0.8718" stop-color="#EE5027"/>
<stop offset="1" stop-color="#EE4423"/>
</linearGradient>
<linearGradient id="paint16_linear_1_848" x1="26.6639" y1="8.31861" x2="19.0345" y2="32.4782" gradientUnits="userSpaceOnUse">
<stop stop-color="#EEE252"/>
<stop offset="0.332" stop-color="#EEA33F"/>
<stop offset="0.6404" stop-color="#EE7030"/>
<stop offset="0.8718" stop-color="#EE5027"/>
<stop offset="1" stop-color="#EE4423"/>
</linearGradient>
<linearGradient id="paint17_linear_1_848" x1="26.4116" y1="8.23891" x2="18.7823" y2="32.3985" gradientUnits="userSpaceOnUse">
<stop stop-color="#EEE252"/>
<stop offset="0.332" stop-color="#EEA33F"/>
<stop offset="0.6404" stop-color="#EE7030"/>
<stop offset="0.8718" stop-color="#EE5027"/>
<stop offset="1" stop-color="#EE4423"/>
</linearGradient>
<linearGradient id="paint18_linear_1_848" x1="26.993" y1="-18.1862" x2="2.35338" y2="59.839" gradientUnits="userSpaceOnUse">
<stop stop-color="#EEE252"/>
<stop offset="0.332" stop-color="#EEA33F"/>
<stop offset="0.6404" stop-color="#EE7030"/>
<stop offset="0.8718" stop-color="#EE5027"/>
<stop offset="1" stop-color="#EE4423"/>
</linearGradient>
<linearGradient id="paint19_linear_1_848" x1="22.7584" y1="-19.523" x2="-1.88115" y2="58.5022" gradientUnits="userSpaceOnUse">
<stop stop-color="#EEE252"/>
<stop offset="0.332" stop-color="#EEA33F"/>
<stop offset="0.6404" stop-color="#EE7030"/>
<stop offset="0.8718" stop-color="#EE5027"/>
<stop offset="1" stop-color="#EE4423"/>
</linearGradient>
<linearGradient id="paint20_linear_1_848" x1="24.5669" y1="-18.9521" x2="-0.0725711" y2="59.0731" gradientUnits="userSpaceOnUse">
<stop stop-color="#EEE252"/>
<stop offset="0.332" stop-color="#EEA33F"/>
<stop offset="0.6404" stop-color="#EE7030"/>
<stop offset="0.8718" stop-color="#EE5027"/>
<stop offset="1" stop-color="#EE4423"/>
</linearGradient>
<linearGradient id="paint21_linear_1_848" x1="31.2314" y1="-16.8476" x2="6.59181" y2="61.1775" gradientUnits="userSpaceOnUse">
<stop stop-color="#EEE252"/>
<stop offset="0.332" stop-color="#EEA33F"/>
<stop offset="0.6404" stop-color="#EE7030"/>
<stop offset="0.8718" stop-color="#EE5027"/>
<stop offset="1" stop-color="#EE4423"/>
</linearGradient>
<linearGradient id="paint22_linear_1_848" x1="28.8908" y1="-17.5865" x2="4.25139" y2="60.4387" gradientUnits="userSpaceOnUse">
<stop stop-color="#EEE252"/>
<stop offset="0.332" stop-color="#EEA33F"/>
<stop offset="0.6404" stop-color="#EE7030"/>
<stop offset="0.8718" stop-color="#EE5027"/>
<stop offset="1" stop-color="#EE4423"/>
</linearGradient>
<linearGradient id="paint23_linear_1_848" x1="26.4391" y1="-18.3611" x2="1.7996" y2="59.6642" gradientUnits="userSpaceOnUse">
<stop stop-color="#EEE252"/>
<stop offset="0.332" stop-color="#EEA33F"/>
<stop offset="0.6404" stop-color="#EE7030"/>
<stop offset="0.8718" stop-color="#EE5027"/>
<stop offset="1" stop-color="#EE4423"/>
</linearGradient>
<linearGradient id="paint24_linear_1_848" x1="22.699" y1="-19.542" x2="-1.94062" y2="58.4832" gradientUnits="userSpaceOnUse">
<stop stop-color="#EEE252"/>
<stop offset="0.332" stop-color="#EEA33F"/>
<stop offset="0.6404" stop-color="#EE7030"/>
<stop offset="0.8718" stop-color="#EE5027"/>
<stop offset="1" stop-color="#EE4423"/>
</linearGradient>
<linearGradient id="paint25_linear_1_848" x1="20.1536" y1="-20.3459" x2="-4.48589" y2="57.6793" gradientUnits="userSpaceOnUse">
<stop stop-color="#EEE252"/>
<stop offset="0.332" stop-color="#EEA33F"/>
<stop offset="0.6404" stop-color="#EE7030"/>
<stop offset="0.8718" stop-color="#EE5027"/>
<stop offset="1" stop-color="#EE4423"/>
</linearGradient>
<linearGradient id="paint26_linear_1_848" x1="25.7929" y1="-18.5651" x2="1.15334" y2="59.4601" gradientUnits="userSpaceOnUse">
<stop stop-color="#EEE252"/>
<stop offset="0.332" stop-color="#EEA33F"/>
<stop offset="0.6404" stop-color="#EE7030"/>
<stop offset="0.8718" stop-color="#EE5027"/>
<stop offset="1" stop-color="#EE4423"/>
</linearGradient>
<linearGradient id="paint27_linear_1_848" x1="43.6309" y1="-12.9317" x2="18.9914" y2="65.0935" gradientUnits="userSpaceOnUse">
<stop stop-color="#EEE252"/>
<stop offset="0.332" stop-color="#EEA33F"/>
<stop offset="0.6404" stop-color="#EE7030"/>
<stop offset="0.8718" stop-color="#EE5027"/>
<stop offset="1" stop-color="#EE4423"/>
</linearGradient>
<linearGradient id="paint28_linear_1_848" x1="46.713" y1="-11.9581" x2="22.0735" y2="66.067" gradientUnits="userSpaceOnUse">
<stop stop-color="#EEE252"/>
<stop offset="0.332" stop-color="#EEA33F"/>
<stop offset="0.6404" stop-color="#EE7030"/>
<stop offset="0.8718" stop-color="#EE5027"/>
<stop offset="1" stop-color="#EE4423"/>
</linearGradient>
<linearGradient id="paint29_linear_1_848" x1="44.7685" y1="-12.5726" x2="20.1291" y2="65.4526" gradientUnits="userSpaceOnUse">
<stop stop-color="#EEE252"/>
<stop offset="0.332" stop-color="#EEA33F"/>
<stop offset="0.6404" stop-color="#EE7030"/>
<stop offset="0.8718" stop-color="#EE5027"/>
<stop offset="1" stop-color="#EE4423"/>
</linearGradient>
<linearGradient id="paint30_linear_1_848" x1="42.323" y1="-13.3448" x2="17.6835" y2="64.6803" gradientUnits="userSpaceOnUse">
<stop stop-color="#EEE252"/>
<stop offset="0.332" stop-color="#EEA33F"/>
<stop offset="0.6404" stop-color="#EE7030"/>
<stop offset="0.8718" stop-color="#EE5027"/>
<stop offset="1" stop-color="#EE4423"/>
</linearGradient>
<linearGradient id="paint31_linear_1_848" x1="40.2785" y1="-13.9902" x2="15.6389" y2="64.035" gradientUnits="userSpaceOnUse">
<stop stop-color="#EEE252"/>
<stop offset="0.332" stop-color="#EEA33F"/>
<stop offset="0.6404" stop-color="#EE7030"/>
<stop offset="0.8718" stop-color="#EE5027"/>
<stop offset="1" stop-color="#EE4423"/>
</linearGradient>
<linearGradient id="paint32_linear_1_848" x1="39.3798" y1="-14.2744" x2="14.7402" y2="63.7509" gradientUnits="userSpaceOnUse">
<stop stop-color="#EEE252"/>
<stop offset="0.332" stop-color="#EEA33F"/>
<stop offset="0.6404" stop-color="#EE7030"/>
<stop offset="0.8718" stop-color="#EE5027"/>
<stop offset="1" stop-color="#EE4423"/>
</linearGradient>
<linearGradient id="paint33_linear_1_848" x1="60.1687" y1="-7.70917" x2="35.5292" y2="70.316" gradientUnits="userSpaceOnUse">
<stop stop-color="#EEE252"/>
<stop offset="0.332" stop-color="#EEA33F"/>
<stop offset="0.6404" stop-color="#EE7030"/>
<stop offset="0.8718" stop-color="#EE5027"/>
<stop offset="1" stop-color="#EE4423"/>
</linearGradient>
<linearGradient id="paint34_linear_1_848" x1="55.4555" y1="-9.19753" x2="30.816" y2="68.8277" gradientUnits="userSpaceOnUse">
<stop stop-color="#EEE252"/>
<stop offset="0.332" stop-color="#EEA33F"/>
<stop offset="0.6404" stop-color="#EE7030"/>
<stop offset="0.8718" stop-color="#EE5027"/>
<stop offset="1" stop-color="#EE4423"/>
</linearGradient>
<linearGradient id="paint35_linear_1_848" x1="59.4102" y1="-7.9487" x2="34.7707" y2="70.0765" gradientUnits="userSpaceOnUse">
<stop stop-color="#EEE252"/>
<stop offset="0.332" stop-color="#EEA33F"/>
<stop offset="0.6404" stop-color="#EE7030"/>
<stop offset="0.8718" stop-color="#EE5027"/>
<stop offset="1" stop-color="#EE4423"/>
</linearGradient>
<linearGradient id="paint36_linear_1_848" x1="59.5" y1="-7.92011" x2="34.8604" y2="70.1051" gradientUnits="userSpaceOnUse">
<stop stop-color="#EEE252"/>
<stop offset="0.332" stop-color="#EEA33F"/>
<stop offset="0.6404" stop-color="#EE7030"/>
<stop offset="0.8718" stop-color="#EE5027"/>
<stop offset="1" stop-color="#EE4423"/>
</linearGradient>
<linearGradient id="paint37_linear_1_848" x1="56.3325" y1="-8.92052" x2="31.693" y2="69.1047" gradientUnits="userSpaceOnUse">
<stop stop-color="#EEE252"/>
<stop offset="0.332" stop-color="#EEA33F"/>
<stop offset="0.6404" stop-color="#EE7030"/>
<stop offset="0.8718" stop-color="#EE5027"/>
<stop offset="1" stop-color="#EE4423"/>
</linearGradient>
<linearGradient id="paint38_linear_1_848" x1="55.5302" y1="-9.17377" x2="30.8908" y2="68.8514" gradientUnits="userSpaceOnUse">
<stop stop-color="#EEE252"/>
<stop offset="0.332" stop-color="#EEA33F"/>
<stop offset="0.6404" stop-color="#EE7030"/>
<stop offset="0.8718" stop-color="#EE5027"/>
<stop offset="1" stop-color="#EE4423"/>
</linearGradient>
<linearGradient id="paint39_linear_1_848" x1="59.2486" y1="-7.99985" x2="34.609" y2="70.0254" gradientUnits="userSpaceOnUse">
<stop stop-color="#EEE252"/>
<stop offset="0.332" stop-color="#EEA33F"/>
<stop offset="0.6404" stop-color="#EE7030"/>
<stop offset="0.8718" stop-color="#EE5027"/>
<stop offset="1" stop-color="#EE4423"/>
</linearGradient>
<linearGradient id="paint40_linear_1_848" x1="46.7068" y1="0.771481" x2="30.5874" y2="51.816" gradientUnits="userSpaceOnUse">
<stop stop-color="#EEE252"/>
<stop offset="0.332" stop-color="#EEA33F"/>
<stop offset="0.6404" stop-color="#EE7030"/>
<stop offset="0.8718" stop-color="#EE5027"/>
<stop offset="1" stop-color="#EE4423"/>
</linearGradient>
<linearGradient id="paint41_linear_1_848" x1="46.1576" y1="0.597973" x2="30.0382" y2="51.6425" gradientUnits="userSpaceOnUse">
<stop stop-color="#EEE252"/>
<stop offset="0.332" stop-color="#EEA33F"/>
<stop offset="0.6404" stop-color="#EE7030"/>
<stop offset="0.8718" stop-color="#EE5027"/>
<stop offset="1" stop-color="#EE4423"/>
</linearGradient>
<linearGradient id="paint42_linear_1_848" x1="46.0797" y1="0.573466" x2="29.9604" y2="51.618" gradientUnits="userSpaceOnUse">
<stop stop-color="#EEE252"/>
<stop offset="0.332" stop-color="#EEA33F"/>
<stop offset="0.6404" stop-color="#EE7030"/>
<stop offset="0.8718" stop-color="#EE5027"/>
<stop offset="1" stop-color="#EE4423"/>
</linearGradient>
<linearGradient id="paint43_linear_1_848" x1="45.3278" y1="0.336164" x2="29.2084" y2="51.3807" gradientUnits="userSpaceOnUse">
<stop stop-color="#EEE252"/>
<stop offset="0.332" stop-color="#EEA33F"/>
<stop offset="0.6404" stop-color="#EE7030"/>
<stop offset="0.8718" stop-color="#EE5027"/>
<stop offset="1" stop-color="#EE4423"/>
</linearGradient>
<linearGradient id="paint44_linear_1_848" x1="45.4576" y1="0.376873" x2="29.3382" y2="51.4214" gradientUnits="userSpaceOnUse">
<stop stop-color="#EEE252"/>
<stop offset="0.332" stop-color="#EEA33F"/>
<stop offset="0.6404" stop-color="#EE7030"/>
<stop offset="0.8718" stop-color="#EE5027"/>
<stop offset="1" stop-color="#EE4423"/>
</linearGradient>
<linearGradient id="paint45_linear_1_848" x1="47.5982" y1="1.05297" x2="31.4789" y2="52.0976" gradientUnits="userSpaceOnUse">
<stop stop-color="#EEE252"/>
<stop offset="0.332" stop-color="#EEA33F"/>
<stop offset="0.6404" stop-color="#EE7030"/>
<stop offset="0.8718" stop-color="#EE5027"/>
<stop offset="1" stop-color="#EE4423"/>
</linearGradient>
<linearGradient id="paint46_linear_1_848" x1="48.2368" y1="1.25447" x2="32.1174" y2="52.2991" gradientUnits="userSpaceOnUse">
<stop stop-color="#EEE252"/>
<stop offset="0.332" stop-color="#EEA33F"/>
<stop offset="0.6404" stop-color="#EE7030"/>
<stop offset="0.8718" stop-color="#EE5027"/>
<stop offset="1" stop-color="#EE4423"/>
</linearGradient>
<linearGradient id="paint47_linear_1_848" x1="48.7716" y1="1.42352" x2="32.6523" y2="52.4679" gradientUnits="userSpaceOnUse">
<stop stop-color="#EEE252"/>
<stop offset="0.332" stop-color="#EEA33F"/>
<stop offset="0.6404" stop-color="#EE7030"/>
<stop offset="0.8718" stop-color="#EE5027"/>
<stop offset="1" stop-color="#EE4423"/>
</linearGradient>
<linearGradient id="paint48_linear_1_848" x1="47.6231" y1="1.06067" x2="31.5038" y2="52.1052" gradientUnits="userSpaceOnUse">
<stop stop-color="#EEE252"/>
<stop offset="0.332" stop-color="#EEA33F"/>
<stop offset="0.6404" stop-color="#EE7030"/>
<stop offset="0.8718" stop-color="#EE5027"/>
<stop offset="1" stop-color="#EE4423"/>
</linearGradient>
<linearGradient id="paint49_linear_1_848" x1="30.7275" y1="-17.0064" x2="6.08787" y2="61.0188" gradientUnits="userSpaceOnUse">
<stop stop-color="#EEE252"/>
<stop offset="0.332" stop-color="#EEA33F"/>
<stop offset="0.6404" stop-color="#EE7030"/>
<stop offset="0.8718" stop-color="#EE5027"/>
<stop offset="1" stop-color="#EE4423"/>
</linearGradient>
<linearGradient id="paint50_linear_1_848" x1="65.0779" y1="-6.1591" x2="40.4384" y2="71.8661" gradientUnits="userSpaceOnUse">
<stop stop-color="#EEE252"/>
<stop offset="0.332" stop-color="#EEA33F"/>
<stop offset="0.6404" stop-color="#EE7030"/>
<stop offset="0.8718" stop-color="#EE5027"/>
<stop offset="1" stop-color="#EE4423"/>
</linearGradient>
<linearGradient id="paint51_linear_1_848" x1="54.5681" y1="-9.47761" x2="29.9285" y2="68.5476" gradientUnits="userSpaceOnUse">
<stop stop-color="#EEE252"/>
<stop offset="0.332" stop-color="#EEA33F"/>
<stop offset="0.6404" stop-color="#EE7030"/>
<stop offset="0.8718" stop-color="#EE5027"/>
<stop offset="1" stop-color="#EE4423"/>
</linearGradient>
<linearGradient id="paint52_linear_1_848" x1="34.1112" y1="-15.9378" x2="9.47156" y2="62.0874" gradientUnits="userSpaceOnUse">
<stop stop-color="#EEE252"/>
<stop offset="0.332" stop-color="#EEA33F"/>
<stop offset="0.6404" stop-color="#EE7030"/>
<stop offset="0.8718" stop-color="#EE5027"/>
<stop offset="1" stop-color="#EE4423"/>
</linearGradient>
<linearGradient id="paint53_linear_1_848" x1="47.1658" y1="-11.8153" x2="22.5264" y2="66.2099" gradientUnits="userSpaceOnUse">
<stop stop-color="#EEE252"/>
<stop offset="0.332" stop-color="#EEA33F"/>
<stop offset="0.6404" stop-color="#EE7030"/>
<stop offset="0.8718" stop-color="#EE5027"/>
<stop offset="1" stop-color="#EE4423"/>
</linearGradient>
<linearGradient id="paint54_linear_1_848" x1="48.8239" y1="-11.2916" x2="24.1846" y2="66.7335" gradientUnits="userSpaceOnUse">
<stop stop-color="#EEE252"/>
<stop offset="0.332" stop-color="#EEA33F"/>
<stop offset="0.6404" stop-color="#EE7030"/>
<stop offset="0.8718" stop-color="#EE5027"/>
<stop offset="1" stop-color="#EE4423"/>
</linearGradient>
<linearGradient id="paint55_linear_1_848" x1="47.7794" y1="-11.6212" x2="23.14" y2="66.4038" gradientUnits="userSpaceOnUse">
<stop stop-color="#EEE252"/>
<stop offset="0.332" stop-color="#EEA33F"/>
<stop offset="0.6404" stop-color="#EE7030"/>
<stop offset="0.8718" stop-color="#EE5027"/>
<stop offset="1" stop-color="#EE4423"/>
</linearGradient>
<linearGradient id="paint56_linear_1_848" x1="49.7875" y1="-10.9876" x2="25.1478" y2="67.0377" gradientUnits="userSpaceOnUse">
<stop stop-color="#EEE252"/>
<stop offset="0.332" stop-color="#EEA33F"/>
<stop offset="0.6404" stop-color="#EE7030"/>
<stop offset="0.8718" stop-color="#EE5027"/>
<stop offset="1" stop-color="#EE4423"/>
</linearGradient>
<linearGradient id="paint57_linear_1_848" x1="49.477" y1="-11.0856" x2="24.8372" y2="66.9398" gradientUnits="userSpaceOnUse">
<stop stop-color="#EEE252"/>
<stop offset="0.332" stop-color="#EEA33F"/>
<stop offset="0.6404" stop-color="#EE7030"/>
<stop offset="0.8718" stop-color="#EE5027"/>
<stop offset="1" stop-color="#EE4423"/>
</linearGradient>
<linearGradient id="paint58_linear_1_848" x1="48.9149" y1="-11.2628" x2="24.2755" y2="66.7623" gradientUnits="userSpaceOnUse">
<stop stop-color="#EEE252"/>
<stop offset="0.332" stop-color="#EEA33F"/>
<stop offset="0.6404" stop-color="#EE7030"/>
<stop offset="0.8718" stop-color="#EE5027"/>
<stop offset="1" stop-color="#EE4423"/>
</linearGradient>
<linearGradient id="paint59_linear_1_848" x1="45.5645" y1="-12.3208" x2="20.925" y2="65.7044" gradientUnits="userSpaceOnUse">
<stop stop-color="#EEE252"/>
<stop offset="0.332" stop-color="#EEA33F"/>
<stop offset="0.6404" stop-color="#EE7030"/>
<stop offset="0.8718" stop-color="#EE5027"/>
<stop offset="1" stop-color="#EE4423"/>
</linearGradient>
<linearGradient id="paint60_linear_1_848" x1="46.8295" y1="-11.9214" x2="22.1899" y2="66.1038" gradientUnits="userSpaceOnUse">
<stop stop-color="#EEE252"/>
<stop offset="0.332" stop-color="#EEA33F"/>
<stop offset="0.6404" stop-color="#EE7030"/>
<stop offset="0.8718" stop-color="#EE5027"/>
<stop offset="1" stop-color="#EE4423"/>
</linearGradient>
<linearGradient id="paint61_linear_1_848" x1="44.6875" y1="-12.5979" x2="20.048" y2="65.4274" gradientUnits="userSpaceOnUse">
<stop stop-color="#EEE252"/>
<stop offset="0.332" stop-color="#EEA33F"/>
<stop offset="0.6404" stop-color="#EE7030"/>
<stop offset="0.8718" stop-color="#EE5027"/>
<stop offset="1" stop-color="#EE4423"/>
</linearGradient>
<linearGradient id="paint62_linear_1_848" x1="46.1061" y1="-12.15" x2="21.4667" y2="65.8752" gradientUnits="userSpaceOnUse">
<stop stop-color="#EEE252"/>
<stop offset="0.332" stop-color="#EEA33F"/>
<stop offset="0.6404" stop-color="#EE7030"/>
<stop offset="0.8718" stop-color="#EE5027"/>
<stop offset="1" stop-color="#EE4423"/>
</linearGradient>
<linearGradient id="paint63_linear_1_848" x1="38.2657" y1="-14.626" x2="13.6262" y2="63.3992" gradientUnits="userSpaceOnUse">
<stop stop-color="#EEE252"/>
<stop offset="0.332" stop-color="#EEA33F"/>
<stop offset="0.6404" stop-color="#EE7030"/>
<stop offset="0.8718" stop-color="#EE5027"/>
<stop offset="1" stop-color="#EE4423"/>
</linearGradient>
<linearGradient id="paint64_linear_1_848" x1="39.4352" y1="-14.2567" x2="14.7957" y2="63.7684" gradientUnits="userSpaceOnUse">
<stop stop-color="#EEE252"/>
<stop offset="0.332" stop-color="#EEA33F"/>
<stop offset="0.6404" stop-color="#EE7030"/>
<stop offset="0.8718" stop-color="#EE5027"/>
<stop offset="1" stop-color="#EE4423"/>
</linearGradient>
<linearGradient id="paint65_linear_1_848" x1="47.8042" y1="-11.6139" x2="23.1646" y2="66.4113" gradientUnits="userSpaceOnUse">
<stop stop-color="#EEE252"/>
<stop offset="0.332" stop-color="#EEA33F"/>
<stop offset="0.6404" stop-color="#EE7030"/>
<stop offset="0.8718" stop-color="#EE5027"/>
<stop offset="1" stop-color="#EE4423"/>
</linearGradient>
<linearGradient id="paint66_linear_1_848" x1="59.0544" y1="-8.06112" x2="34.4149" y2="69.9641" gradientUnits="userSpaceOnUse">
<stop stop-color="#EEE252"/>
<stop offset="0.332" stop-color="#EEA33F"/>
<stop offset="0.6404" stop-color="#EE7030"/>
<stop offset="0.8718" stop-color="#EE5027"/>
<stop offset="1" stop-color="#EE4423"/>
</linearGradient>
<linearGradient id="paint67_linear_1_848" x1="64.3302" y1="-6.39531" x2="39.6907" y2="71.6298" gradientUnits="userSpaceOnUse">
<stop stop-color="#EEE252"/>
<stop offset="0.332" stop-color="#EEA33F"/>
<stop offset="0.6404" stop-color="#EE7030"/>
<stop offset="0.8718" stop-color="#EE5027"/>
<stop offset="1" stop-color="#EE4423"/>
</linearGradient>
<linearGradient id="paint68_linear_1_848" x1="74.6625" y1="-3.13222" x2="50.023" y2="74.893" gradientUnits="userSpaceOnUse">
<stop stop-color="#EEE252"/>
<stop offset="0.332" stop-color="#EEA33F"/>
<stop offset="0.6404" stop-color="#EE7030"/>
<stop offset="0.8718" stop-color="#EE5027"/>
<stop offset="1" stop-color="#EE4423"/>
</linearGradient>
<linearGradient id="paint69_linear_1_848" x1="69.6731" y1="-4.70773" x2="45.0336" y2="73.3175" gradientUnits="userSpaceOnUse">
<stop stop-color="#EEE252"/>
<stop offset="0.332" stop-color="#EEA33F"/>
<stop offset="0.6404" stop-color="#EE7030"/>
<stop offset="0.8718" stop-color="#EE5027"/>
<stop offset="1" stop-color="#EE4423"/>
</linearGradient>
<linearGradient id="paint70_linear_1_848" x1="76.7544" y1="75.8304" x2="76.7544" y2="-12.201" gradientUnits="userSpaceOnUse">
<stop stop-color="#EE4423"/>
<stop offset="0.2178" stop-color="#EE622C"/>
<stop offset="0.6885" stop-color="#EEAD42"/>
<stop offset="1" stop-color="#EEE252"/>
</linearGradient>
<linearGradient id="paint71_linear_1_848" x1="101.933" y1="75.8304" x2="101.933" y2="-12.201" gradientUnits="userSpaceOnUse">
<stop stop-color="#EE4423"/>
<stop offset="0.2178" stop-color="#EE622C"/>
<stop offset="0.6885" stop-color="#EEAD42"/>
<stop offset="1" stop-color="#EEE252"/>
</linearGradient>
<linearGradient id="paint72_linear_1_848" x1="124.805" y1="75.8304" x2="124.805" y2="-12.201" gradientUnits="userSpaceOnUse">
<stop stop-color="#EE4423"/>
<stop offset="0.2178" stop-color="#EE622C"/>
<stop offset="0.6885" stop-color="#EEAD42"/>
<stop offset="1" stop-color="#EEE252"/>
</linearGradient>
<linearGradient id="paint73_linear_1_848" x1="151.439" y1="75.8304" x2="151.439" y2="-12.201" gradientUnits="userSpaceOnUse">
<stop stop-color="#EE4423"/>
<stop offset="0.2178" stop-color="#EE622C"/>
<stop offset="0.6885" stop-color="#EEAD42"/>
<stop offset="1" stop-color="#EEE252"/>
</linearGradient>
</defs>
</svg>
