<svg width="178" height="91" viewBox="0 0 178 91" fill="none" xmlns="http://www.w3.org/2000/svg">
<path d="M56.9569 28.6617C57.4971 27.5814 58.5774 24.7726 57.7131 22.396C57.4971 21.7478 57.065 21.2077 56.6328 20.7756C56.3088 20.4515 55.8766 20.2354 55.4445 20.0194C55.2285 19.9113 54.9044 20.0194 54.7963 20.1274C54.6883 20.2354 54.5803 20.3434 54.4723 20.4515C54.2562 20.5595 54.0401 20.7756 53.8241 20.9916C50.5832 24.5566 46.154 25.7449 41.8328 26.3931C40.9686 26.5011 40.1044 26.6091 39.3482 26.6091C36.8635 26.6091 34.7029 26.069 32.8664 25.5288C31.5701 25.2048 30.4898 24.8807 29.6255 24.8807C29.3015 24.8807 28.9774 24.8807 28.6533 24.9887C28.1131 25.2048 27.465 25.3128 26.9248 25.3128C26.2766 25.3128 25.7365 25.0967 25.0883 24.5566C24.8723 24.3405 24.4402 24.0164 24.1161 23.5843C23.3599 22.7201 22.4956 21.8559 21.6314 21.7478H21.4153L21.3073 21.6398L21.1993 21.5318C20.7672 21.2077 20.335 21.0996 19.9029 21.0996C19.4708 21.0996 19.0387 21.2077 18.6066 21.5318C17.5263 22.288 16.7701 23.9084 17.5263 25.2048C17.9584 25.8529 18.4985 26.3931 19.0387 26.9332C19.7949 27.6894 20.4431 28.3376 20.5511 29.2018C20.6591 29.85 20.6591 30.8223 20.4431 32.0106C19.7949 35.7916 20.8752 38.8164 23.9 41.5172C26.3847 43.7858 29.1934 44.9741 32.5423 45.9464C34.4869 46.5945 36.6474 46.9186 39.0241 46.9186C42.0489 46.9186 45.0737 46.3785 47.7744 45.5142C48.8547 45.0821 49.827 44.65 50.7993 44.0018C52.8518 42.5974 54.2562 40.761 54.5803 39.0325C54.7963 38.1683 54.5803 37.412 54.2562 36.8719C53.608 36.0077 52.8518 35.4675 51.7715 35.3595L50.7993 35.1434L51.5555 34.6033C54.1482 32.8748 55.8766 30.9303 56.9569 28.6617ZM51.2314 36.3318C51.8796 36.3318 52.3117 36.4398 52.7438 36.7639L53.0679 36.9799L52.7438 37.196C51.7715 38.0602 49.1788 40.0047 45.2898 40.6529C45.1817 40.6529 44.9657 40.761 44.9657 40.869C44.8577 40.977 44.8577 41.1931 44.8577 41.3011C44.8577 41.6252 45.1817 41.8412 45.5058 41.7332C48.5307 41.1931 50.6912 40.0047 52.0956 39.1405C52.3117 38.9245 52.6358 38.8164 52.8518 38.6004L53.7161 37.9522L53.392 38.9245C53.1759 39.5726 52.4197 41.1931 50.1511 42.7055C49.2869 43.2456 48.4226 43.6777 47.4504 44.0018C44.8577 44.8661 41.9409 45.4062 39.1321 45.4062C36.9715 45.4062 34.8109 45.0821 32.9745 44.542C29.7336 43.4617 27.0329 42.3814 24.7642 40.3288C21.9555 37.8442 21.0912 35.2515 21.6314 31.7945C21.8475 30.4982 21.9555 29.4179 21.7394 28.6617C21.5234 27.3653 20.6591 26.5011 19.7949 25.7449C19.2548 25.3128 18.8226 24.7726 18.4985 24.3405C18.0664 23.6923 18.4985 22.6121 19.2548 22.1799C19.4708 22.0719 19.6869 21.9639 19.9029 21.9639C20.227 21.9639 20.335 22.0719 20.4431 22.1799L20.5511 22.288C20.6591 22.504 20.8752 22.9361 21.0912 23.5843C21.0912 23.8004 21.1993 23.9084 21.1993 24.0164C21.6314 25.3128 22.1715 26.6091 23.2518 27.9055C24.4402 29.3099 25.0883 29.5259 26.7088 29.85C27.681 30.0661 28.2212 30.6062 28.9774 31.2544C29.1934 31.4704 29.3015 31.5785 29.5175 31.7945C32.5423 34.4953 36.5394 36.2237 42.0489 37.196C42.6971 37.304 43.3453 37.412 44.1015 37.412C45.7219 37.412 47.4504 37.088 48.6387 36.8719C48.7467 36.8719 48.9628 36.7639 49.0708 36.7639H49.1788C49.827 36.5478 50.5832 36.3318 51.2314 36.3318ZM47.5584 35.5756C47.4504 35.5756 47.4504 35.6836 47.3423 35.7916L47.2343 35.8996H47.1263C45.938 36.1157 44.8577 36.2237 43.8854 36.2237C43.2372 36.2237 42.5891 36.2237 42.0489 36.1157C36.7555 35.2515 32.9745 33.631 30.0577 31.0383C29.8416 30.9303 29.7336 30.7142 29.6255 30.6062C28.8693 29.85 28.1131 29.2018 26.8168 28.8777C25.4124 28.5537 24.9803 28.4456 24.008 27.3653C23.2518 26.5011 22.8197 25.6369 22.4956 24.6646L21.8475 23.0442L23.1438 24.5566C23.5759 24.9887 23.9 25.4208 24.2241 25.6369C25.0883 26.285 25.8445 26.6091 26.8168 26.6091C27.465 26.6091 28.1131 26.3931 28.8693 26.177C29.6256 25.961 30.9219 26.285 32.4343 26.7172C34.2708 27.2573 36.5394 27.7975 39.1321 27.7975C39.9963 27.7975 40.9686 27.6894 41.8328 27.5814C46.3701 26.8252 50.9073 25.6369 54.4723 21.7478C54.5803 21.6398 54.6883 21.6398 54.7963 21.5318L55.5525 20.9916L55.4445 21.6398C55.0124 23.1522 53.392 27.0413 48.4226 29.2018C48.3146 29.3099 48.2066 29.4179 48.0985 29.5259C47.9905 29.6339 47.9905 29.85 48.0985 29.958C48.2066 30.2821 48.5307 30.3902 48.8547 30.2821C49.719 29.958 50.5832 29.4179 51.3394 28.9858C54.0401 27.1493 55.4445 24.8807 56.0927 23.2602L56.5248 22.288L56.7409 23.2602C57.065 24.5566 56.7409 26.3931 55.8766 28.1215C54.4723 31.0383 51.7715 33.523 47.5584 35.5756Z" fill="#A5A5A5"/>
<path d="M36.4319 40.4368C33.8392 39.7886 31.3545 38.7083 28.7618 37.1959C28.6538 37.1959 28.5457 37.0879 28.4377 37.0879C28.2216 37.0879 28.0056 37.1959 27.8976 37.412C27.6815 37.7361 27.7895 38.0602 28.1136 38.1682C30.7063 39.7886 33.4071 40.8689 36.1078 41.5171C36.2158 41.5171 36.4319 41.5171 36.5399 41.4091C36.6479 41.301 36.756 41.193 36.756 41.085C36.756 40.9769 36.756 40.7609 36.6479 40.6529C36.756 40.5448 36.5399 40.4368 36.4319 40.4368Z" fill="#A5A5A5"/>
<path d="M41.0757 40.9772C40.4276 40.9772 39.7794 40.8691 39.0232 40.8691C39.0232 40.8691 39.0232 40.8691 38.9151 40.8691C38.5911 40.8691 38.375 41.0852 38.375 41.4093C38.375 41.7334 38.5911 42.0575 38.9151 42.0575C39.6714 42.1655 40.3195 42.1655 41.0757 42.2735V42.5976V42.1655C41.1838 42.1655 41.2918 42.1655 41.3998 42.0575C41.5078 41.9494 41.6159 41.7334 41.6159 41.6253C41.6159 41.3013 41.3998 41.0852 41.0757 40.9772Z" fill="#A5A5A5"/>
<path d="M46.1545 30.2817C46.0465 30.2817 46.0465 30.2817 45.9385 30.2817C44.8582 30.7139 43.6699 31.0379 42.3735 31.254C42.2655 31.254 42.0494 31.362 42.0494 31.4701C41.9414 31.5781 41.9414 31.7941 41.9414 31.9022C41.9414 32.2263 42.2655 32.3343 42.4816 32.3343H42.5896C43.8859 32.1182 45.1823 31.7941 46.3706 31.362C46.3706 31.362 46.4786 31.362 46.4786 31.254C46.6947 31.146 46.8027 30.8219 46.6947 30.6058C46.5867 30.4978 46.3706 30.2817 46.1545 30.2817Z" fill="#A5A5A5"/>
<path d="M13.3119 16.5625C13.3119 16.9946 13.744 18.9391 14.0681 20.6676C14.6083 23.0442 14.8243 24.2326 15.0404 24.4486C15.1484 24.5567 15.3645 24.6647 15.4725 24.6647C15.6886 24.6647 15.7966 24.5567 15.9046 24.4486L16.0126 24.3406C16.2287 24.1245 16.7688 21.8559 17.201 20.4515C17.7411 18.1829 18.0652 16.5625 18.0652 16.2384C17.9572 15.4822 17.417 15.0501 16.9849 14.834H16.8769V14.726C17.201 13.5377 17.201 13.4297 17.201 13.3216C17.201 13.3216 17.201 13.3216 17.201 13.2136C16.9849 12.8895 16.7688 12.8895 16.5528 12.8895C16.4448 12.8895 16.3367 12.8895 16.3367 12.8895H16.2287V12.5654V12.4574C16.0126 12.2413 15.7966 12.1333 15.5805 12.1333C15.1484 12.1333 14.9324 12.3494 14.9324 12.4574V12.5654C14.9324 12.5654 14.9323 13.5377 15.0404 14.2939V14.4019H14.9324C14.8243 14.4019 14.7163 14.4019 14.7163 14.5099C14.5002 14.618 14.2842 14.726 14.1761 14.834C13.3119 15.4822 13.2039 16.1304 13.3119 16.5625ZM16.0126 13.2136C16.1207 13.2136 16.1207 13.2136 16.2287 13.2136C16.2287 13.2136 16.3367 13.2136 16.4448 13.2136C16.5528 13.2136 16.6608 13.2136 16.7688 13.3216C16.7688 13.4297 16.6608 13.7537 16.5528 14.5099V14.618H16.3367C16.2287 14.618 16.1207 14.618 16.0126 14.618H15.9046L16.0126 13.2136ZM14.9324 12.7815C15.0404 12.6734 15.1484 12.6734 15.2564 12.6734C15.3645 12.6734 15.4725 12.6734 15.5805 12.7815L15.4725 14.618H15.3645C15.2564 14.618 15.0404 14.618 14.9324 14.618H14.8243V14.5099C14.9323 13.8618 14.9324 13.1056 14.9324 12.7815ZM14.5002 14.9421C14.6083 14.9421 14.7163 14.9421 14.8243 14.9421C15.2564 14.9421 15.7966 15.0501 16.1207 15.0501C16.2287 15.0501 16.3367 15.0501 16.4448 15.1581C16.8769 15.2661 17.417 15.5902 17.5251 16.3464V16.4545V16.6705L17.417 16.5625C17.0929 16.2384 16.6608 16.0224 16.3367 16.0224C16.2287 16.0224 16.2287 16.1304 16.2287 16.1304C16.2287 16.2384 16.3367 16.2384 16.3367 16.2384C16.7688 16.2384 17.309 16.5625 17.417 16.9946C17.417 17.3187 17.309 17.6428 17.201 17.9669V18.0749L17.0929 17.9669C16.9849 17.8588 16.9849 17.8588 16.9849 17.8588C16.7688 17.6428 16.3367 17.5348 16.2287 17.5348C16.1207 17.5348 16.0126 17.5348 16.0126 17.6428C16.0126 17.7508 16.0126 17.8588 16.1207 17.8588C16.3367 17.8588 16.5528 17.9669 16.7688 18.0749C16.8769 18.1829 17.0929 18.399 17.0929 18.507C16.9849 19.0472 16.8769 19.4793 16.6608 20.0194V20.1275L16.5528 20.0194C16.3367 19.9114 16.1207 19.8034 15.9046 19.8034C15.9046 19.8034 15.7966 19.8034 15.7966 19.9114V20.0194C15.7966 20.1275 15.9046 20.1275 16.0126 20.1275C16.1207 20.1275 16.5528 20.3435 16.5528 20.4515C16.4448 20.9917 16.2287 21.5318 16.1207 21.964V22.072H16.0126C15.7966 21.964 15.4725 21.8559 15.3645 21.964C15.2564 21.964 15.2564 22.072 15.2564 22.18C15.2564 22.288 15.3645 22.288 15.4725 22.288C15.5805 22.288 15.7966 22.3961 16.0126 22.5041V22.6121C15.9046 22.9362 15.6886 23.9085 15.5805 24.0165C15.5805 24.0165 15.5805 24.1245 15.4725 24.1245C15.4725 24.1245 15.3645 24.2326 15.2564 24.2326C15.1484 24.2326 15.1484 24.2326 15.0404 24.1245C14.9323 23.9085 14.6083 22.7202 14.3922 21.5318V21.4238C14.3922 21.4238 14.3922 21.4238 14.3922 21.3158C14.5002 21.3158 14.6083 21.0997 14.8243 21.0997C14.9323 21.0997 14.9323 21.0997 15.0404 21.0997C15.1484 21.0997 15.1484 21.0997 15.2564 21.0997C15.2564 21.0997 15.2564 21.0997 15.2564 20.9917C15.2564 20.8837 15.2564 20.7756 15.1484 20.7756C14.9324 20.6676 14.6083 20.7756 14.3922 20.8837L14.2842 20.9917V20.8837C14.1761 20.4515 14.0681 20.0194 13.9601 19.5873C14.1761 19.2632 14.7163 19.1552 15.0404 19.1552H15.1484C15.1484 19.1552 15.1484 19.1552 15.1484 19.0472C15.1484 18.9391 15.1484 18.8311 15.0404 18.8311C14.7163 18.7231 14.1761 18.8311 13.8521 19.0472L14.0681 19.2632V19.1552C13.9601 18.399 13.744 17.7508 13.744 17.3187C13.8521 16.8866 14.5002 16.4545 14.8243 16.4545H14.9324V16.3464C14.9324 16.2384 14.8243 16.2384 14.8243 16.1304C14.5002 16.1304 14.0681 16.3464 13.744 16.6705L13.636 16.7786V16.5625C13.636 16.1304 13.744 15.5902 14.0681 15.1581C14.1761 15.0501 14.2842 14.9421 14.5002 14.9421Z" fill="#A5A5A5"/>
<path d="M31.8921 0.033961C31.1359 0.250019 30.0556 0.790165 29.6235 2.30257C29.5155 2.84272 29.4075 3.38286 29.5155 3.81498C29.5155 3.92301 29.6235 4.03104 29.6235 4.13907C29.6235 4.13907 29.6235 4.13907 29.7316 4.13907C28.4352 4.67921 27.571 6.29965 27.3549 7.27191C27.3549 7.37994 27.3549 7.48797 27.3549 7.48797C26.8148 8.13615 26.3827 9.00038 26.2746 9.86461C25.8425 12.3493 27.0308 15.05 28.1111 17.2106C28.5432 18.0748 29.1914 18.9391 30.0556 19.8033C32.2162 21.9639 35.133 23.2602 36.5374 23.8004C39.1301 24.6646 41.1827 24.6646 42.0469 24.6646C42.1549 24.6646 42.2629 24.6646 42.2629 24.6646C42.479 24.6646 42.6951 24.5566 42.8031 24.4485C42.9111 24.2325 42.8031 23.9084 42.587 23.8004C42.587 23.8004 42.479 23.8004 42.479 23.6923C42.1549 23.5843 41.5067 23.1522 40.5345 22.1799C38.914 20.5595 37.2936 18.3989 36.9695 17.8588C35.3491 15.4821 35.025 12.9975 34.7009 9.97264V9.64856C34.5929 8.89235 34.2688 8.13615 33.7286 7.48797C33.5126 6.19162 32.4323 4.2471 30.7038 4.03104C30.5958 4.03104 30.4878 4.03104 30.4878 4.03104C30.4878 3.92301 30.5958 3.81498 30.5958 3.70695C30.5958 3.38286 30.5958 3.05878 30.7038 2.62666C30.9199 1.87046 31.352 1.43834 32.3243 1.11425C32.6483 1.00622 32.7564 0.682136 32.6483 0.466078C32.4323 0.14199 32.1082 -0.0740682 31.8921 0.033961ZM28.9754 7.48797C29.4075 7.16389 30.1637 6.8398 30.9199 7.05586C31.46 7.16388 32.1082 7.48797 32.5403 8.02812C33.1885 8.46023 33.5126 9.10841 33.6206 9.75659V10.0807C34.0527 12.9975 34.3768 15.8062 36.1053 18.3989C36.6454 19.1551 38.2659 21.3157 39.7783 22.9361C39.9943 23.1522 40.3184 23.4763 40.5345 23.6923C39.5622 23.5843 38.2659 23.4763 36.8615 22.9361C35.4571 22.396 32.7564 21.3157 30.7038 19.1551C29.9476 18.3989 29.4075 17.6427 28.9754 16.8865C28.0031 14.942 26.8148 12.3493 27.2469 10.1887C27.3549 9.10841 28.1111 8.02812 28.9754 7.48797ZM28.8673 6.29965C29.2994 5.54345 30.0556 4.89527 30.5958 5.0033C31.244 5.11133 31.7841 5.65148 32.2162 6.29965C31.8921 6.08359 31.5681 5.97556 31.1359 5.86754C30.3797 5.86754 29.6235 5.97556 28.8673 6.29965Z" fill="#A5A5A5"/>
<path d="M30.5946 8.02805C30.8107 8.2441 30.7027 8.56819 30.4866 8.78425C27.8939 10.7288 29.8384 13.4295 29.9465 13.5375C30.1625 13.7536 30.0545 14.0777 29.8384 14.2937C29.6224 14.4018 29.2983 14.4018 29.1903 14.2937C29.1903 14.2937 29.1903 14.2937 29.1903 14.1857C29.1903 14.1857 28.5421 13.3215 28.326 12.0251C28.11 10.8368 28.218 9.21637 29.9465 7.92002C30.0545 7.70396 30.3786 7.81199 30.5946 8.02805Z" fill="#A5A5A5"/>
<path d="M42.6964 11.4858C42.6964 11.3777 42.5884 11.2697 42.4803 11.2697C42.4803 11.2697 42.3723 11.2697 42.3723 11.3777H40.5358C40.9679 11.0536 41.0759 10.8376 41.292 10.7296C41.4 10.6215 41.6161 10.5135 41.8321 10.2974C41.9402 10.4055 42.0482 10.5135 42.0482 10.7296C42.0482 10.8376 42.1562 10.8376 42.2643 10.8376H42.3723C42.4803 10.8376 42.4803 10.6215 42.4803 10.5135C41.9402 9.54124 41.0759 8.89307 39.9957 8.89307C38.4832 8.89307 37.2949 10.0814 37.2949 11.5938C37.2949 13.1062 38.4832 14.2945 39.9957 14.2945C41.5081 14.2945 42.6964 13.1062 42.6964 11.5938V11.4858ZM40.2117 9.43321C40.6438 9.43321 41.0759 9.64927 41.5081 9.97336C41.292 10.1894 41.184 10.2974 41.0759 10.4055C40.8599 10.5135 40.7519 10.7296 40.3197 11.0536L40.2117 9.43321ZM39.7796 9.43321V11.0536C39.2394 10.6215 38.8073 10.1894 38.5913 9.97336C38.9154 9.64927 39.3475 9.43321 39.7796 9.43321ZM38.2672 10.2974C38.4832 10.5135 38.9154 10.8376 39.4555 11.3777H39.3475C38.5913 11.3777 38.0511 11.3777 37.8351 11.3777C37.8351 10.9456 37.9431 10.5135 38.2672 10.2974ZM37.727 11.8099C37.9431 11.8099 38.5913 11.8099 39.3475 11.8099L38.0511 12.8901C37.9431 12.5661 37.727 12.1339 37.727 11.8099ZM39.7796 12.0259V13.8624C39.2394 13.8624 38.8073 13.5383 38.3752 13.2142L39.7796 12.0259ZM40.1037 11.9179H39.9957C39.8876 11.9179 39.8876 11.9179 39.7796 12.0259C39.7796 11.9179 39.7796 11.9179 39.6716 11.9179L39.5635 11.8099V11.7018C39.5635 11.5938 39.5635 11.5938 39.4555 11.4858C39.4555 11.4858 39.5635 11.4858 39.5635 11.3777C39.5635 11.3777 39.5635 11.2697 39.6716 11.2697C39.7796 11.3777 39.8876 11.3777 39.9957 11.2697V11.3777C39.9957 11.3777 40.1037 11.3777 40.1037 11.4858V11.5938V11.7018C40.1037 11.7018 39.9957 11.7018 39.9957 11.8099C40.1037 11.8099 40.1037 11.8099 40.1037 11.9179ZM40.2117 13.8624V12.0259C40.8599 12.5661 41.4 13.1062 41.6161 13.2142C41.184 13.6463 40.7519 13.8624 40.2117 13.8624ZM41.8321 12.8901C41.7241 12.7821 41.184 12.242 40.5358 11.7018H42.2643C42.2643 12.1339 42.0482 12.5661 41.8321 12.8901Z" fill="#A5A5A5"/>
<path d="M39.996 8.24463C38.0515 8.24463 36.5391 9.75704 36.5391 11.7016C36.5391 13.6461 38.0515 15.1585 39.996 15.1585C41.9405 15.1585 43.4529 13.6461 43.4529 11.7016C43.4529 9.75704 41.9405 8.24463 39.996 8.24463ZM39.996 14.7264C38.3756 14.7264 36.9712 13.322 36.9712 11.7016C36.9712 9.9731 38.3756 8.67675 39.996 8.67675C41.6164 8.67675 43.0208 10.0811 43.0208 11.7016C43.0208 13.322 41.6164 14.7264 39.996 14.7264Z" fill="#A5A5A5"/>
<path d="M24.0032 20.7758C24.5433 20.7758 24.9754 20.5597 25.1915 20.2356C25.5156 19.8035 25.5156 19.2633 25.5156 19.0473C25.5156 18.7232 25.2995 18.5071 25.0835 18.1831C24.9754 17.967 24.7594 17.7509 24.7594 17.5349C24.7594 17.4269 24.7594 17.3188 24.6513 17.1028C24.6513 16.7787 24.3273 16.4546 23.8951 16.4546C23.7871 16.4546 23.7871 16.5626 23.7871 16.5626C23.7871 16.6706 23.8951 16.6706 23.8951 16.6706C24.3273 16.6706 24.4353 16.9947 24.4353 17.1028C24.4353 17.2108 24.4353 17.4269 24.5433 17.5349C24.6513 17.7509 24.7594 18.075 24.8674 18.2911C25.0835 18.5071 25.1915 18.8312 25.1915 19.0473C25.1915 19.2633 25.2995 19.6955 24.9754 20.1276C24.7594 20.4517 24.4353 20.5597 23.8951 20.5597C23.7871 20.5597 23.7871 20.6677 23.7871 20.6677C23.8951 20.6677 23.8951 20.7758 24.0032 20.7758Z" fill="#A5A5A5"/>
<path d="M23.8979 20.7761C24.006 20.7761 24.006 20.6681 24.006 20.6681C24.006 20.5601 23.8979 20.5601 23.8979 20.5601C23.3578 20.5601 23.0337 20.452 22.8176 20.128C22.6016 19.8039 22.4936 19.3717 22.6016 19.0477C22.6016 18.8316 22.8176 18.6155 22.9257 18.5075C23.0337 18.3995 23.1417 18.2915 23.1417 18.0754C23.2498 17.8593 23.3578 17.6433 23.3578 17.4272V17.3192C23.3578 16.9951 23.4658 16.779 23.7899 16.779C23.8979 16.779 23.8979 16.671 23.8979 16.671C23.8979 16.563 23.7899 16.563 23.7899 16.563C23.1417 16.563 23.1417 17.1031 23.0337 17.3192V17.4272C23.0337 17.6433 22.9257 17.8593 22.8176 17.9674C22.7096 18.0754 22.7096 18.1834 22.6016 18.2915C22.4936 18.5075 22.2775 18.7236 22.2775 18.9396C22.1695 19.2637 22.1695 19.8039 22.4936 20.236C22.8176 20.452 23.2498 20.7761 23.8979 20.7761Z" fill="#A5A5A5"/>
<path d="M22.3839 17.2103C22.4919 17.2103 22.708 17.2103 22.816 17.2103C22.924 17.2103 22.924 17.1023 22.924 17.1023C22.924 16.9943 22.816 16.9943 22.816 16.9943C22.6 16.9943 22.2759 16.9943 22.0598 16.9943C22.1678 16.6702 22.3839 16.022 23.2481 15.914C23.3562 15.914 23.4642 15.914 23.6802 15.914C23.6802 15.914 23.6802 15.914 23.7883 15.914H23.8963C23.8963 16.022 23.8963 16.022 23.8963 16.13C23.8963 16.2381 23.8963 16.2381 24.0043 16.2381C24.1124 16.2381 24.1124 16.2381 24.1124 16.13C24.1124 16.022 24.1124 16.022 24.1124 15.914V15.8059C24.1124 15.6979 24.1124 15.6979 24.0043 15.6979H23.8963H23.7883C23.7883 15.6979 23.7883 15.6979 23.6802 15.6979C23.5722 15.6979 23.3562 15.5899 23.2481 15.6979C22.1678 15.8059 21.9518 16.7782 21.8438 16.9943V17.1023V17.2103C21.8438 17.2103 21.8437 17.3184 21.9518 17.3184C22.0598 17.2103 22.2759 17.2103 22.3839 17.2103Z" fill="#A5A5A5"/>
<path d="M23.0319 16.4546C23.68 15.9144 24.6523 15.8064 24.7603 15.8064C24.8684 15.8064 24.8684 15.8064 24.8684 15.6984C24.8684 15.5903 24.8684 15.5903 24.7603 15.5903C24.6523 15.5903 23.572 15.6984 22.9238 16.2385C22.9238 16.2385 22.9238 16.3465 23.0319 16.4546Z" fill="#A5A5A5"/>
<path d="M24.0057 20.3437L24.3298 20.1277C24.3298 20.1277 24.3298 20.0197 24.3298 19.9116C24.3298 19.9116 24.2218 19.9116 24.1138 19.9116L24.0057 20.0197L23.8977 19.9116C23.8977 19.9116 23.7897 19.9116 23.6816 19.9116C23.6816 19.9116 23.6816 20.0197 23.6816 20.1277L24.0057 20.3437C23.8977 20.3437 23.8977 20.3437 24.0057 20.3437Z" fill="#A5A5A5"/>
<path d="M23.358 18.3995C23.358 18.3995 23.4661 18.3995 23.4661 18.2915C23.5741 18.1835 23.5741 18.0754 23.5741 17.9674C23.5741 17.8594 23.5741 17.8594 23.4661 17.8594C23.358 17.8594 23.358 17.8594 23.358 17.9674C23.358 18.0754 23.358 18.1835 23.25 18.2915C23.25 18.2915 23.25 18.2915 23.358 18.3995Z" fill="#A5A5A5"/>
<path d="M23.1418 19.9118C23.2499 19.8038 23.2499 19.8038 23.2499 19.6958C23.2499 19.6958 23.2499 19.5877 23.1418 19.5877C23.0338 19.3717 23.0338 19.2636 23.1418 19.0476C23.1418 18.9396 23.2499 18.8315 23.3579 18.6155C23.3579 18.5074 23.3579 18.5074 23.3579 18.3994C23.2499 18.3994 23.2499 18.3994 23.1418 18.3994C23.0338 18.6155 23.0338 18.7235 22.9258 18.8315C22.9258 19.0476 22.9258 19.2636 23.0338 19.4797C23.0338 19.6958 23.0338 19.8038 23.1418 19.9118Z" fill="#A5A5A5"/>
<path d="M24.2225 20.4515C24.2225 20.4515 24.3306 20.4515 24.3306 20.3435C24.3306 20.2355 24.3306 20.2355 24.2225 20.2355L24.0065 20.1274C23.8984 20.1274 23.8984 20.1274 23.8984 20.2355C23.8984 20.3435 23.8984 20.3435 24.0065 20.3435L24.2225 20.4515Z" fill="#A5A5A5"/>
<path d="M23.6808 20.4515L24.0049 20.3435C24.1129 20.3435 24.1129 20.2355 24.1129 20.2355C24.1129 20.1274 24.0049 20.1274 24.0049 20.1274L23.7889 20.2355C23.6808 20.2355 23.6808 20.3435 23.6808 20.3435C23.5728 20.3435 23.6808 20.4515 23.6808 20.4515Z" fill="#A5A5A5"/>
<path d="M14.3924 38.7084C14.1764 38.6004 13.9603 38.3843 13.7443 38.2763C12.556 37.5201 11.1516 36.5478 11.2596 35.3595C11.2596 35.0354 11.0435 34.8193 10.8275 34.8193C10.5034 34.8193 10.2873 35.0354 10.2873 35.2515C10.1793 36.9799 11.9078 38.1682 13.2041 39.0325C13.4202 39.1405 13.6362 39.3566 13.8523 39.4646C15.4727 40.6529 16.1209 43.1376 15.1487 44.758C14.3924 46.1624 12.9881 47.7828 9.85522 47.8909H9.31508L9.74719 47.5668C9.96325 47.3507 10.2873 47.1347 10.5034 47.0266C10.8275 46.8106 11.0435 46.7025 11.1516 46.5945C12.1238 45.6222 13.3122 43.4617 10.6114 39.4646C10.6114 39.4646 10.5034 39.2485 10.3954 39.1405C10.2873 39.0325 10.2873 38.9244 10.2873 38.9244C10.1793 38.7084 9.85522 38.6004 9.63916 38.8164C9.53113 38.9244 9.42311 39.0325 9.42311 39.1405C9.42311 39.2485 9.42311 39.3566 9.53113 39.4646C9.53113 39.4646 9.63916 39.5726 9.63916 39.6806C9.74719 39.8967 9.74719 39.8967 9.85522 40.0047C11.5837 42.4894 11.7997 44.65 10.6114 45.8383C10.5034 45.9463 10.3954 46.0544 10.0713 46.1624C9.31508 46.7025 8.6669 47.1347 8.45084 47.6748V47.7828H8.34281H8.23478H8.01873V47.6748C7.80267 47.0266 7.15449 46.5945 6.83041 46.3785C6.61435 46.2704 6.61435 46.1624 6.50632 46.1624L6.39829 46.0544C5.75011 45.2982 4.88588 44.2179 5.75011 42.8135C5.42603 42.8135 5.42603 42.7055 5.42603 42.5974C5.42603 42.4894 5.318 42.3814 5.20997 42.2733C4.99391 42.1653 4.66982 42.1653 4.56179 42.4894C3.69756 43.8938 3.91362 45.4062 5.318 46.9186H5.42603C5.53406 47.0266 5.64209 47.1347 5.85814 47.3507C5.96617 47.4587 6.18223 47.5668 6.29026 47.6748L6.61435 47.9989L6.0742 47.8909C3.37347 47.5668 1.86106 45.5142 1.42895 44.542C0.456685 42.8135 1.10486 40.4369 2.7253 39.2485C2.83333 39.1405 3.04938 39.0325 3.15741 38.9244C3.26544 38.8164 3.37347 38.7084 3.37347 38.6004C3.37347 38.4923 3.37347 38.3843 3.26544 38.2763C3.15741 38.0602 2.83333 37.9522 2.61727 38.1682C2.50924 38.2763 2.29318 38.3843 2.18515 38.4923C0.132597 40.0047 -0.623607 42.9215 0.564714 45.0821C1.10486 45.9463 3.04939 48.9712 6.93843 48.9712H7.04646C7.15449 48.9712 7.26252 48.9712 7.37055 48.9712C7.58661 48.9712 7.69464 48.9712 7.9107 48.9712H8.01873C8.01873 48.9712 8.01873 48.9712 8.12676 48.9712C8.55887 48.9712 8.88296 49.0792 9.31508 49.0792C12.3399 49.0792 14.3924 47.8909 15.7968 45.4062C17.0932 43.2456 16.445 40.2208 14.3924 38.7084Z" fill="#A5A5A5"/>
<path d="M4.3444 37.6282C4.56046 37.8443 4.88454 37.8443 5.1006 37.6282C5.96483 36.764 6.39695 36.0078 6.28892 35.1435C6.28892 34.9275 6.07286 34.7114 5.74878 34.7114C5.64075 34.7114 5.53272 34.8195 5.42469 34.9275C5.31666 35.0355 5.31666 35.1435 5.31666 35.2516C5.31666 35.7917 5.1006 36.3319 4.45243 36.98C4.23637 37.0881 4.23637 37.4122 4.3444 37.6282Z" fill="#A5A5A5"/>
<path d="M7.15427 39.5726C7.2623 39.3565 7.2623 39.0325 7.04624 38.9244C6.93821 38.9244 6.83018 38.8164 6.72215 38.8164C6.50609 38.8164 6.39806 38.9244 6.29003 39.0325C6.182 39.2485 6.07398 39.3565 5.96595 39.5726C5.74989 39.8967 5.53383 40.2208 5.31777 40.6529C5.20974 40.869 5.31777 41.193 5.53383 41.3011C5.74989 41.4091 6.07397 41.3011 6.182 41.085C6.29003 40.7609 6.50609 40.4368 6.72215 40.2208C6.93821 40.0047 7.04624 39.7887 7.15427 39.5726Z" fill="#A5A5A5"/>
<path d="M11.152 49.6189C11.044 49.5109 10.9359 49.4028 10.7199 49.4028C10.6118 49.4028 10.5038 49.4028 10.3958 49.5109C10.1797 49.7269 10.1797 49.943 10.2878 50.159L10.8279 50.8072C11.044 51.0233 11.368 51.0233 11.4761 50.9152C11.5841 50.8072 11.6921 50.6992 11.6921 50.5912C11.6921 50.4831 11.6921 50.3751 11.5841 50.2671L11.152 49.6189Z" fill="#A5A5A5"/>
<path d="M7.58594 50.0511V50.9154C7.58594 51.2395 7.802 51.4555 8.12608 51.4555C8.23411 51.4555 8.34214 51.4555 8.45017 51.3475C8.5582 51.2395 8.66623 51.0234 8.66623 50.9154V50.1592C8.66623 49.8351 8.45017 49.7271 8.12608 49.7271C7.91002 49.7271 7.802 49.727 7.69397 49.8351C7.69397 49.9431 7.58594 49.9431 7.58594 50.0511Z" fill="#A5A5A5"/>
<path d="M4.45312 50.6996C4.45312 50.8076 4.45312 50.9156 4.56115 51.0236C4.77721 51.2397 5.1013 51.2397 5.31736 51.0236L5.96553 50.3755C6.18159 50.1594 6.18159 49.8353 5.96553 49.6193C5.8575 49.5112 5.74947 49.5112 5.64145 49.5112C5.53342 49.5112 5.42539 49.5112 5.31736 49.6193L4.66918 50.2674C4.45313 50.3755 4.45312 50.4835 4.45312 50.6996Z" fill="#A5A5A5"/>
<path d="M8.34204 18.291C8.12599 18.291 8.01796 18.399 7.90993 18.5071C5.85737 21.7479 5.31723 28.6618 7.90993 34.7114C8.01796 34.9275 8.12599 35.0355 8.34204 35.0355C8.5581 35.0355 8.66613 34.8195 8.77416 34.7114C10.0705 31.9027 10.6107 29.526 10.6107 26.7173C10.7187 24.0166 10.0705 21.3158 8.66613 18.5071C8.77416 18.399 8.5581 18.291 8.34204 18.291ZM9.74642 26.7173C9.63839 28.8779 9.31431 30.7144 8.5581 32.6589L8.45007 33.091L8.34204 32.6589C6.72161 27.9056 7.15372 22.9363 8.23402 20.2355L8.34204 19.9115L8.45007 20.2355C9.42234 22.3961 9.85445 24.4487 9.74642 26.7173Z" fill="#A5A5A5"/>
<path d="M5.64105 30.4984C4.77681 28.1218 3.48046 24.9889 4.77681 21.9641C4.88484 21.748 4.77681 21.4239 4.56075 21.3159C4.45272 21.3159 4.45272 21.3159 4.3447 21.3159C4.12864 21.3159 3.91258 21.4239 3.91258 21.64C2.5082 24.9889 3.91258 28.5539 4.77681 30.8225C5.20893 31.9028 5.53302 32.659 5.42499 32.9831C5.31696 33.3072 5.42499 33.5232 5.64105 33.6312C5.8571 33.7393 6.18119 33.6312 6.28922 33.4152C6.50528 32.767 6.18119 31.9028 5.64105 30.4984Z" fill="#A5A5A5"/>
<path d="M12.8799 21.7479C12.7718 21.5319 12.6638 21.4238 12.4477 21.4238C12.3397 21.4238 12.3397 21.4238 12.2317 21.4238C12.0156 21.5319 11.9076 21.8559 12.0156 22.072C13.312 25.0968 12.0156 28.2297 11.1514 30.6063C10.6113 32.0107 10.2872 32.8749 10.5032 33.5231C10.6113 33.7392 10.9353 33.9552 11.1514 33.8472C11.2594 33.8472 11.3675 33.7392 11.4755 33.5231C11.4755 33.4151 11.4755 33.307 11.4755 33.199C11.3675 32.8749 11.6915 32.1187 12.1237 31.0384C12.8799 28.5538 14.2842 25.0968 12.8799 21.7479Z" fill="#A5A5A5"/>
<path d="M34.1618 54.3727L28.9764 51.888C28.8684 51.888 28.8684 51.78 28.7604 51.78C28.5443 51.6719 28.2202 51.4559 28.0042 51.5639C27.7881 51.5639 27.6801 51.888 27.6801 51.888C27.5721 52.3201 28.0042 52.5362 28.2202 52.6442L30.8129 53.9405C29.7326 55.561 28.4363 56.6413 26.9239 57.1814C24.8713 57.8296 22.9268 57.2894 21.9545 56.9654C20.2261 55.9931 19.1458 54.4807 18.9297 52.3201C18.7137 50.6997 19.0377 49.0792 19.3618 48.323L25.7356 51.4559L25.8436 51.5639C25.9516 51.6719 26.1677 51.78 26.3837 51.78C26.4918 51.78 26.5998 51.78 26.5998 51.78C26.7078 51.78 26.9239 51.6719 27.0319 51.4559C27.248 51.0238 26.7078 50.8077 26.4918 50.6997C26.4918 50.6997 26.3837 50.6997 26.3837 50.5916L17.5253 46.2705C17.4173 46.1624 17.3093 46.1624 17.0932 46.2705C16.9852 46.2705 16.8772 46.4865 16.7691 46.5946C16.7691 46.7026 15.7969 49.0792 15.7969 51.888C15.7969 53.6165 16.121 55.1289 16.7691 56.3172C17.5253 57.9376 18.8217 59.234 20.6582 59.9902C23.0348 61.1785 25.5195 61.3946 27.8961 60.6383C32.0012 59.234 34.3779 55.3449 34.4859 55.1289C34.5939 55.0208 34.5939 54.8048 34.4859 54.6967C34.3779 54.4807 34.2699 54.3727 34.1618 54.3727ZM21.5224 57.8296C23.3589 58.5858 25.1954 58.6938 26.8158 58.2617C28.7604 57.7216 30.3808 56.4252 31.7852 54.4807L33.1896 55.1289C32.4334 56.1011 30.3808 58.6938 27.464 59.6661C25.4115 60.3143 23.2509 60.2062 21.0903 59.1259C18.2815 57.7216 16.8772 55.3449 16.8772 51.888C16.8772 50.0515 17.3093 48.323 17.5253 47.5668L18.3896 47.9989C18.0655 48.7551 17.6334 50.5916 17.8494 52.5362C18.1735 54.8048 19.4699 56.7493 21.5224 57.8296Z" fill="#A5A5A5"/>
<path d="M27.1412 53.8322C27.0332 53.9403 27.0332 54.1563 27.0332 54.2644C27.0332 54.3724 27.1412 54.5884 27.2493 54.5884L28.2215 55.1286C28.3296 55.2366 28.5456 55.2366 28.7617 55.2366C28.8697 55.2366 28.9777 55.1286 29.0858 55.0206C29.1938 54.9125 29.1938 54.6965 29.1938 54.5884C29.1938 54.4804 29.0858 54.2644 28.9777 54.2644L28.0055 53.7242C27.6814 53.5082 27.2493 53.6162 27.1412 53.8322Z" fill="#A5A5A5"/>
<path d="M24.6543 55.237L24.7623 56.3173C24.7623 56.4254 24.8704 56.6414 24.9784 56.7494C25.0864 56.8575 25.3025 56.8575 25.4105 56.8575H25.5185C25.7346 56.7494 25.9506 56.5334 25.9506 56.2093L25.8426 55.129C25.8426 54.8049 25.5185 54.5889 25.1944 54.5889C24.8704 54.6969 24.6543 54.913 24.6543 55.237Z" fill="#A5A5A5"/>
<path d="M22.4945 56.2088C22.6025 56.2088 22.7105 56.1008 22.8186 55.9928L23.3587 55.0205C23.5748 54.6964 23.4667 54.3723 23.1427 54.2643C22.9266 54.1563 22.4945 54.1563 22.3865 54.4804L21.8463 55.4526C21.7383 55.5607 21.7383 55.7767 21.7383 55.8848C21.7383 55.9928 21.8463 56.2088 21.9543 56.2088C22.1704 56.3169 22.3865 56.3169 22.4945 56.2088Z" fill="#A5A5A5"/>
<path d="M19.7924 53.508C19.7924 53.616 19.9004 53.7241 20.1165 53.8321C20.2245 53.9401 20.4406 53.9401 20.5486 53.8321L21.5209 53.508C21.845 53.4 21.953 53.0759 21.845 52.7518C21.845 52.6438 21.7369 52.5357 21.5209 52.4277C21.4128 52.3197 21.1968 52.3197 21.0888 52.4277L20.1165 52.7518C19.9004 52.8598 19.6844 53.1839 19.7924 53.508Z" fill="#A5A5A5"/>
<path d="M21.1977 51.2398C21.4138 51.1318 21.5218 51.0238 21.5218 50.9157C21.6299 50.5916 21.5218 50.2676 21.1977 50.1595L20.3335 49.8354C20.0094 49.7274 19.6853 49.8354 19.5773 50.1595C19.4693 50.2676 19.5773 50.4836 19.5773 50.5916C19.6853 50.6997 19.7934 50.8077 19.9014 50.9157L20.7656 51.2398C20.9817 51.3478 21.0897 51.3478 21.1977 51.2398Z" fill="#A5A5A5"/>
<path d="M46.9084 54.0483C46.9084 54.0483 44.3157 54.6965 41.6149 53.1841C41.5069 53.1841 41.5069 53.1841 41.3989 53.1841C41.2908 53.1841 41.2908 53.2921 41.2908 53.2921C41.1828 53.4001 41.2908 53.6162 41.3989 53.7242C44.3157 55.3447 47.0164 54.6965 47.1244 54.6965C47.2324 54.6965 47.3405 54.4804 47.3405 54.3724C47.2324 54.0483 47.0164 54.0483 46.9084 54.0483Z" fill="#A5A5A5"/>
<path d="M40.5348 53.2924C41.6151 52.9683 42.0472 51.4559 41.5071 50.0515C41.075 48.6471 39.7786 47.6749 38.8064 48.107C37.7261 48.4311 37.294 49.9435 37.8341 51.3479C38.2662 52.7522 39.4545 53.6165 40.5348 53.2924ZM38.4823 49.2953C38.4823 49.1873 38.6983 48.9712 38.9144 48.9712C39.1305 48.8632 39.2385 48.8632 39.2385 48.9712C39.3465 48.9712 39.3465 49.0793 39.3465 49.0793C39.3465 49.1873 39.2385 49.4033 39.1305 49.4033H39.0224C38.8064 49.5114 38.5903 49.5114 38.4823 49.4033C38.5903 49.5114 38.4823 49.4033 38.4823 49.2953ZM38.1582 49.8355C38.1582 49.9435 38.2662 49.9435 38.1582 49.8355C38.5903 50.1595 39.0224 50.0515 39.3465 49.9435C39.4545 49.9435 39.4545 49.8355 39.5626 49.8355C39.8867 49.6194 40.1027 49.2953 39.9947 48.9712C39.9947 48.8632 39.9947 48.8632 39.9947 48.7552C40.4268 49.0793 40.7509 49.5114 40.9669 50.1596C41.291 51.2398 41.075 52.4282 40.3188 52.6442C39.5626 52.8603 38.6983 52.1041 38.2662 51.0238C38.1582 50.6997 38.1582 50.2676 38.1582 49.8355Z" fill="#A5A5A5"/>
<path d="M45.6124 48.9714C45.6124 48.8634 45.6124 48.8634 45.5044 48.7554L45.3964 48.6473C45.1803 48.4313 44.8562 48.3232 44.5321 48.3232C44.3161 48.3232 44.1 48.3232 43.884 48.4313C43.0197 48.7554 42.3715 49.7276 42.2635 50.8079C42.0475 52.3203 42.8037 53.6167 43.884 53.8327C44.1 53.8327 44.3161 53.8327 44.5321 53.7247C45.3964 53.4006 46.0445 52.4284 46.1526 51.3481C46.2606 50.5919 46.1526 49.9437 45.8285 49.4035C45.8285 49.2955 45.7204 49.0794 45.6124 48.9714ZM44.4241 48.9714C44.5321 48.9714 44.7482 49.0794 44.8562 49.0794C44.7482 49.1875 44.6402 49.2955 44.4241 49.4035C44.1 49.5116 43.7759 49.5116 43.4518 49.2955C43.5599 49.1875 43.7759 49.0794 43.992 48.9714C44.208 48.9714 44.3161 48.9714 44.4241 48.9714ZM45.6124 51.24C45.5044 52.2123 44.9642 52.9685 44.3161 53.1846C44.208 53.1846 43.992 53.2926 43.884 53.1846C43.1277 53.0765 42.5876 51.9962 42.8037 50.8079C42.8037 50.3758 43.0197 49.9437 43.2358 49.6196C43.6679 49.9437 44.208 50.0517 44.7482 49.8356C44.9642 49.7276 45.1803 49.6196 45.2883 49.4035C45.2883 49.4035 45.2883 49.5116 45.3964 49.5116C45.6124 50.0517 45.7204 50.6999 45.6124 51.24Z" fill="#A5A5A5"/>
<path d="M44.7494 55.021C44.7494 55.021 43.9932 55.021 43.0209 55.3451C42.3727 55.5611 41.8326 55.8852 41.4005 56.3173C39.9961 57.6137 39.9961 58.802 39.9961 58.802C39.9961 58.91 40.1041 59.1261 40.3202 59.1261C40.3202 59.1261 40.8603 59.1261 41.6165 58.91C42.2647 58.694 42.8049 58.3699 43.345 58.0458C44.8574 56.9655 45.1815 55.5611 45.1815 55.5611C45.1815 55.4531 45.1815 55.3451 45.1815 55.3451C44.8574 55.129 44.8574 55.021 44.7494 55.021ZM42.8049 57.5057C42.3727 57.8298 41.8326 58.1538 41.2924 58.2619C40.9684 58.3699 40.7523 58.3699 40.5362 58.4779C40.6443 58.1538 40.8603 57.3976 41.7246 56.7495C42.1567 56.4254 42.5888 56.1013 43.1289 55.8852C43.5611 55.7772 43.9932 55.6692 44.2092 55.6692C44.1012 56.1013 43.6691 56.8575 42.8049 57.5057Z" fill="#A5A5A5"/>
<path d="M40.8593 55.777C41.8316 55.4529 42.2637 55.0208 42.3717 55.0208C42.4798 54.9128 42.4798 54.9128 42.4798 54.8048C42.4798 54.6967 42.4798 54.5887 42.3717 54.5887C42.2637 54.5887 40.7513 53.4004 38.9148 53.7245C38.5907 53.7245 38.2666 53.8325 37.9425 53.9405C36.7542 54.3726 36.3221 55.0208 36.3221 55.0208C36.2141 55.1288 36.3221 55.3449 36.4301 55.4529C36.4301 55.4529 37.7265 56.3172 39.563 56.2091C39.8871 56.1011 40.4272 55.9931 40.8593 55.777ZM38.0506 54.4807C38.2666 54.3726 38.5907 54.3726 38.9148 54.2646C40.1031 54.1566 41.0754 54.5887 41.6155 54.8048C41.3995 54.9128 41.0754 55.1288 40.6433 55.2369C40.2111 55.3449 39.779 55.4529 39.3469 55.4529C38.2666 55.561 37.2944 55.2369 36.9703 55.0208C37.1863 54.9128 37.5104 54.5887 38.0506 54.4807Z" fill="#A5A5A5"/>
<path d="M39.9953 52.4282C40.1033 52.4282 40.2113 52.2121 40.2113 52.1041C40.2113 51.9961 39.9953 51.888 39.8872 51.888C39.7792 51.888 39.6712 51.78 39.4551 51.5639C39.2391 51.3479 39.2391 51.1318 39.2391 51.0238C39.2391 50.9158 39.131 50.6997 39.023 50.6997H38.915C38.807 50.6997 38.6989 50.8077 38.6989 50.9158C38.5909 51.3479 38.915 51.888 39.2391 52.2121C39.5632 52.4282 39.7792 52.5362 39.9953 52.4282Z" fill="#A5A5A5"/>
<path d="M43.7751 50.376C43.2349 50.8081 43.1269 51.5643 43.2349 52.2125C43.3429 52.6446 43.559 52.9687 43.7751 52.9687C43.8831 52.9687 44.0991 52.9687 44.0991 52.7526C44.0991 52.6446 44.0991 52.4285 43.8831 52.4285C43.8831 52.4285 43.7751 52.2125 43.667 51.8884C43.667 51.4563 43.667 51.0242 43.8831 50.8081C43.9911 50.7001 43.9911 50.484 43.8831 50.376C43.9911 50.376 43.8831 50.376 43.7751 50.376Z" fill="#A5A5A5"/>
<path d="M39.0239 18.2906L39.7801 18.7227C39.7801 19.0468 39.8881 19.5869 40.1042 20.2351C40.2122 20.3432 40.3202 20.4512 40.4283 20.4512C40.4283 20.4512 40.4282 20.4512 40.5363 20.4512C40.6443 20.4512 40.6443 20.3432 40.7523 20.2351C40.7523 20.1271 40.7523 20.1271 40.7523 20.0191C40.4283 19.2629 40.4283 18.6147 40.4283 18.6147C40.4283 18.5067 40.3202 18.3986 40.2122 18.2906L39.7801 18.0745L40.2122 17.8585C40.3202 17.7505 40.4282 17.6424 40.3202 17.4264C40.4282 17.4264 40.5363 17.5344 40.7523 17.6424C40.6443 18.3986 40.7523 19.1548 41.0764 19.803C41.7246 21.3154 43.129 21.9636 44.6414 21.7475C44.9655 21.6395 45.2896 21.6395 45.5056 21.4234C46.2618 21.0994 46.802 20.6672 47.1261 20.1271C47.1261 20.1271 47.2341 20.1271 47.2341 20.2351C47.3421 20.2351 47.3421 20.2351 47.4501 20.3432C47.2341 20.6672 46.6939 21.2074 46.1538 21.6395C45.7217 21.9636 45.1815 22.1796 44.6414 22.2877C43.7772 22.5037 42.9129 22.2877 42.0487 21.7475C41.8326 21.6395 41.6166 21.4234 41.4005 21.2074C41.2925 21.0994 41.1845 21.0994 41.0764 21.0994C40.9684 21.0994 40.9684 21.0994 40.9684 21.2074C40.8604 21.3154 40.8604 21.5315 40.9684 21.6395C41.1845 21.8556 41.5085 22.0716 41.8326 22.2877C42.9129 22.8278 43.8852 23.0439 44.8574 22.8278C45.1815 22.7198 45.5056 22.6118 45.8297 22.5037C46.0458 22.3957 46.2618 22.2877 46.5859 22.0716C47.6662 21.4234 48.2064 20.4512 48.3144 20.3432C48.4224 20.2351 48.3144 20.0191 48.2063 19.911H48.0983C47.9903 19.911 47.6662 19.803 46.802 19.3709C46.6939 19.3709 46.6939 19.3709 46.6939 19.2629L46.1538 19.0468C45.8297 18.9388 45.5056 18.8307 45.0735 18.6147C44.9655 18.5067 44.7494 18.5067 44.5334 18.5067C44.4253 18.5067 44.3173 18.5067 44.3173 18.6147C44.2093 18.6147 44.2093 18.7227 44.1012 18.7227L43.9932 18.8307C43.9932 18.8307 43.9932 18.8307 43.8852 18.7227C43.8852 18.6147 43.8852 18.5067 43.8852 18.3986C43.8852 18.2906 43.8852 18.1826 43.8852 18.1826C43.8852 18.0745 43.7772 17.9665 43.6691 17.9665L42.8049 17.6424C42.5888 17.5344 42.4808 17.5344 42.4808 17.5344C42.2647 17.4264 42.0487 17.3183 41.8326 17.3183C41.6166 17.2103 41.4005 17.1023 41.1845 16.9942C40.8604 16.8862 40.5363 16.7782 40.2122 16.5621C40.1042 16.5621 39.9961 16.4541 39.9961 16.4541C39.8881 16.4541 39.7801 16.4541 39.672 16.5621C39.564 16.6702 39.564 16.7782 39.564 16.8862L39.7801 17.4264L39.1319 17.7505C39.0239 17.7505 38.9158 17.8585 38.9158 18.0745C38.8078 18.1826 38.9158 18.2906 39.0239 18.2906ZM43.345 21.0994C43.6691 20.2351 43.8852 19.803 43.9932 19.4789C44.1012 19.4789 44.2093 19.3709 44.3173 19.2629L44.4253 19.1548C44.4253 19.1548 44.5334 19.1548 44.6414 19.1548L46.2618 19.803H46.3699L46.5859 19.911C46.2618 20.3432 45.8297 20.6672 45.2896 20.8833C44.6414 21.2074 43.9932 21.2074 43.345 21.0994ZM41.4005 17.8585H41.5085C41.7246 17.9665 41.9407 18.0745 42.1567 18.1826C42.1567 18.1826 42.3728 18.2906 42.5888 18.3986L43.129 18.6147C43.129 18.8307 43.129 18.9388 43.237 19.1548C43.237 19.2629 43.345 19.3709 43.4531 19.4789C43.345 19.803 43.021 20.5592 42.9129 20.8833V20.9913C42.3728 20.6672 42.0487 20.2351 41.7246 19.695C41.4005 19.0468 41.2925 18.3986 41.4005 17.8585Z" fill="#A5A5A5"/>
<path d="M42.5877 19.587C42.4797 19.479 42.5877 19.2629 42.6957 19.1549C42.6957 19.1549 42.8038 19.1549 42.8038 19.0469C42.9118 19.0469 42.9118 19.0469 43.0198 19.0469C43.0198 19.0469 43.1279 19.0469 43.1279 19.1549C43.2359 19.2629 43.2359 19.479 43.1279 19.587L43.0198 19.6951C43.0198 19.6951 43.0198 19.6951 42.9118 19.6951C42.8038 19.6951 42.8038 19.6951 42.8038 19.6951C42.8038 19.6951 42.8038 19.6951 42.6957 19.6951C42.5877 19.587 42.5877 19.587 42.5877 19.587Z" fill="#A5A5A5"/>
<path d="M42.2643 19.9113C42.2643 19.9113 42.3723 19.9113 42.3723 19.8032C42.4803 19.8032 42.4803 19.8032 42.5884 19.8032C42.5884 19.8032 42.6964 19.8032 42.6964 19.9113C42.8044 20.0193 42.8044 20.2353 42.6964 20.3434L42.5884 20.4514C42.5884 20.4514 42.5884 20.4514 42.4803 20.4514C42.3723 20.4514 42.3723 20.4514 42.3723 20.4514C42.3723 20.4514 42.3723 20.4514 42.2643 20.4514C42.1562 20.4514 42.1562 20.3434 42.1562 20.3434C42.1562 20.2353 42.1562 20.0193 42.2643 19.9113Z" fill="#A5A5A5"/>
<path d="M42.374 18.8307L42.2659 18.9387C42.2659 18.9387 42.2659 18.9387 42.1579 18.9387C42.0499 18.9387 42.0499 18.9387 42.0499 18.9387C42.0499 18.9387 42.0499 18.9387 41.9418 18.9387C41.8338 18.9387 41.8338 18.8307 41.8338 18.8307C41.7258 18.7226 41.8338 18.5066 41.9418 18.3986C41.9418 18.3986 42.0499 18.3986 42.0499 18.2905C42.1579 18.2905 42.1579 18.2905 42.2659 18.2905C42.2659 18.2905 42.374 18.2905 42.374 18.3986C42.482 18.5066 42.482 18.7226 42.374 18.8307Z" fill="#A5A5A5"/>
<path d="M41.8318 19.1549C41.8318 19.1549 41.9399 19.1549 41.9399 19.0469C42.0479 19.0469 42.0479 19.0469 42.1559 19.0469C42.1559 19.0469 42.2639 19.0469 42.2639 19.1549C42.372 19.2629 42.372 19.479 42.2639 19.587L42.1559 19.6951C42.1559 19.6951 42.1559 19.6951 42.0479 19.6951C41.9399 19.6951 41.9399 19.6951 41.9399 19.6951C41.9399 19.6951 41.9399 19.6951 41.8318 19.6951C41.7238 19.6951 41.7238 19.587 41.7238 19.587C41.7238 19.479 41.6158 19.479 41.7238 19.371C41.7238 19.2629 41.7238 19.1549 41.8318 19.1549Z" fill="#A5A5A5"/>
<path d="M44.1022 20.3428C44.2102 20.3428 44.2102 20.3428 44.2102 20.3428C44.3182 20.3428 44.4263 20.4508 44.4263 20.5588C44.5343 20.6669 44.4263 20.8829 44.3182 20.9909H44.2102C44.2102 20.9909 44.2102 20.9909 44.1022 20.9909C43.9942 20.9909 43.8861 20.8829 43.8861 20.6669C43.7781 20.4508 43.8861 20.3428 44.1022 20.3428Z" fill="#A5A5A5"/>
<path d="M44.8567 20.127C44.9647 20.127 44.9647 20.127 44.9647 20.127C45.0727 20.127 45.1808 20.235 45.1808 20.343C45.2888 20.451 45.1808 20.6671 45.0727 20.7751H44.9647C44.9647 20.7751 44.9647 20.7751 44.8567 20.7751C44.7487 20.7751 44.6406 20.6671 44.6406 20.451C44.6406 20.235 44.7487 20.127 44.8567 20.127Z" fill="#A5A5A5"/>
<path d="M45.6131 19.6953C45.7212 19.6953 45.7212 19.6953 45.7212 19.6953C45.8292 19.6953 45.9372 19.8033 45.9372 19.9114C46.0453 20.0194 45.9372 20.2355 45.7212 20.3435H45.6131C45.6131 20.3435 45.6131 20.3435 45.5051 20.3435C45.3971 20.3435 45.2891 20.2355 45.2891 20.0194C45.3971 19.9114 45.5051 19.6953 45.6131 19.6953Z" fill="#A5A5A5"/>
<path d="M44.1016 19.8031C44.1016 19.6951 44.2096 19.479 44.3176 19.479C44.4257 19.479 44.4256 19.479 44.4256 19.479C44.5337 19.479 44.6417 19.479 44.6417 19.6951C44.6417 19.8031 44.6417 20.0191 44.5337 20.1272H44.4256C44.4256 20.1272 44.4257 20.1272 44.3176 20.1272C44.2096 20.0191 44.1016 19.9111 44.1016 19.8031Z" fill="#A5A5A5"/>
<path d="M18.6042 30.174C18.3881 30.066 18.064 30.066 17.7399 30.066H17.6319C17.7399 29.9579 17.7399 29.8499 17.6319 29.7419C17.4158 29.5258 17.0918 29.4178 16.8757 29.4178C16.7677 29.4178 16.5516 29.4178 16.4436 29.5258C16.3356 29.5258 16.3356 29.6339 16.3356 29.6339C16.2275 29.4178 16.2275 29.3098 16.0115 29.0937C15.9034 28.9857 15.6874 28.9857 15.5793 29.0937C15.4713 29.2017 15.4713 29.4178 15.5793 29.5258C15.5793 29.5258 15.6874 29.6339 15.6874 29.7419C15.5793 29.6339 15.3633 29.6339 15.2553 29.6339C14.9312 29.6339 14.6071 29.7419 14.391 29.958C14.283 30.066 14.283 30.174 14.391 30.282C14.283 30.282 14.175 30.282 14.175 30.282C13.6348 30.282 13.2027 30.8222 13.0947 31.2543C12.7706 32.6587 13.5268 34.4952 13.8509 34.9273C13.9589 35.1433 14.391 35.5755 14.8231 35.6835C14.9312 35.6835 15.0392 35.6835 15.1472 35.5755C15.2553 35.6835 15.3633 35.7915 15.4713 35.8996C15.6874 36.1156 16.0115 36.1156 16.2275 36.1156C16.3356 36.1156 16.4436 36.1156 16.4436 36.1156C16.5516 36.1156 16.7677 36.0076 16.8757 35.8996C16.9837 36.0076 17.1998 36.0076 17.3078 36.0076C17.956 36.0076 18.4961 35.2514 18.7122 34.9273C18.9283 34.6032 19.1443 34.2791 19.2523 33.955C19.4684 33.3069 19.6845 32.8747 19.6845 32.4426C19.6845 31.1463 19.3604 30.4981 18.6042 30.174ZM14.8231 35.0353C14.6071 35.0353 14.283 34.7112 14.175 34.6032C13.8509 34.0631 13.2027 32.4426 13.4188 31.3623C13.5268 31.1463 13.7429 30.8222 14.0669 30.8222C14.391 30.8222 14.6071 30.8222 14.8231 31.1463C14.391 31.4704 14.391 32.0105 14.391 32.4426C14.391 32.5507 14.4991 32.7667 14.7151 32.7667C14.8231 32.7667 15.0392 32.6587 15.0392 32.4426C15.0392 32.1185 15.0392 31.7944 15.2553 31.5784C15.4713 31.3623 15.6874 31.2543 16.0115 31.1463C16.7677 31.1463 17.1998 31.3623 17.3078 31.9025C17.3078 32.0105 17.3078 32.1185 17.3078 32.2266C17.3078 32.3346 17.3078 32.3346 17.3078 32.4426C17.3078 32.5507 17.4158 32.5507 17.4158 32.6587C17.5239 32.7667 17.7399 32.6587 17.848 32.5507C17.956 32.3346 17.956 32.0105 17.956 31.9025C17.848 31.4704 17.6319 31.1463 17.3078 30.9302C17.4158 30.8222 17.6319 30.8222 17.848 30.8222C18.064 30.8222 18.3881 30.8222 18.4961 30.9302C18.9283 31.1463 19.1443 31.5784 19.0363 32.4426C19.0363 32.7667 18.8202 33.1988 18.6042 33.847C18.4961 34.1711 18.2801 34.4952 18.172 34.7112C17.848 35.1433 17.5239 35.5755 17.1998 35.5755C17.4158 35.2514 17.5239 34.9273 17.5239 34.6032C17.5239 34.4952 17.4158 34.2791 17.3078 34.2791C17.1998 34.2791 16.9837 34.3871 16.9837 34.4952C16.9837 34.7112 16.8757 35.0353 16.6596 35.3594C16.5516 35.4674 16.4436 35.5755 16.2275 35.6835C16.0115 35.6835 15.7954 35.6835 15.6874 35.5755C15.4713 35.3594 15.2553 34.8193 15.1472 34.3871C15.1472 34.2791 15.0392 34.1711 14.8231 34.1711C14.7151 34.1711 14.6071 34.3871 14.6071 34.4952C14.6071 34.1711 14.6071 34.6032 14.8231 35.0353ZM16.5516 29.958H16.6596H16.7677C16.8757 29.958 17.0918 30.066 17.0918 30.066C16.8757 30.174 16.6596 30.282 16.4436 30.4981C16.3356 30.4981 16.3356 30.4981 16.2275 30.4981C16.2275 30.282 16.2275 30.174 16.2275 29.958C16.4436 29.958 16.5516 29.958 16.5516 29.958ZM15.9034 30.4981C15.6874 30.4981 15.4713 30.6061 15.3633 30.7142C15.2553 30.4981 15.0392 30.3901 14.8231 30.282C14.9312 30.174 15.0392 30.066 15.2553 30.066C15.3633 30.066 15.3633 30.066 15.4713 30.066C15.5793 30.174 15.7954 30.066 15.9034 29.958C15.9034 29.958 15.9034 29.958 15.9034 29.8499C15.9034 30.066 15.9034 30.282 15.9034 30.4981Z" fill="#A5A5A5"/>
<path d="M54.4712 47.1343C54.2552 46.8103 53.8231 46.0541 52.3107 45.5139C51.9866 45.4059 51.5545 45.2979 51.1223 45.2979C50.6902 45.2979 50.1501 45.2979 49.718 45.6219C49.5019 45.73 49.2858 45.838 49.1778 45.946C48.8537 46.2701 48.6377 46.8103 48.6377 47.3504C48.6377 47.8905 48.9618 48.4307 49.5019 48.4307H49.6099C49.826 48.4307 50.1501 48.2146 50.2581 47.9986C50.2581 47.8906 50.2581 47.8905 50.2581 47.8905H50.3661V47.9986C50.3661 48.1066 50.042 48.3227 49.5019 48.5387C49.3939 48.5387 49.3939 48.6468 49.2858 48.6468C48.9618 48.7548 48.6377 48.9708 48.4216 49.1869C47.9895 49.619 47.7734 50.1592 47.7734 50.8073C47.7734 51.1314 48.0975 51.7796 48.4216 51.9957C48.8537 52.3197 49.2858 52.4278 49.718 52.4278C49.934 52.4278 50.1501 52.4278 50.4742 52.3197C51.1223 52.1037 51.4464 51.4555 51.7705 50.9154C51.8785 50.5913 51.9866 50.3752 52.0946 50.0511C52.2026 49.8351 52.2026 49.727 52.3107 49.727C52.3107 49.727 52.4187 49.727 52.5267 49.8351C52.4187 49.8351 52.4187 49.9431 52.3107 50.0511C52.0946 50.3752 52.2026 50.8073 52.4187 51.0234C52.6348 51.3475 53.0669 51.4555 53.391 51.4555C53.715 51.4555 54.0391 51.3475 54.2552 51.1314C55.3355 50.1592 55.1194 48.1066 54.4712 47.1343ZM53.8231 50.5913C53.715 50.6993 53.499 50.8073 53.391 50.8073C53.2829 50.8073 53.0669 50.8073 52.9588 50.5913C52.9588 50.4832 52.8508 50.4832 52.9588 50.4832C52.9588 50.4832 52.9588 50.4832 53.0669 50.4832C53.1749 50.3752 53.499 50.2672 53.2829 49.727C53.1749 49.403 52.8508 49.1869 52.4187 49.1869H52.3107C51.9866 49.1869 51.5545 49.403 51.4464 50.0511C51.3384 50.3752 51.3384 50.5913 51.2304 50.8073C51.0143 51.3475 50.7983 51.6716 50.3661 51.8876C49.934 52.1037 49.3939 51.9957 48.9618 51.6716C48.8537 51.5635 48.6377 51.1314 48.6377 51.0234C48.6377 50.5913 48.7457 50.2672 49.0698 50.0511C49.2858 49.9431 49.5019 49.727 49.826 49.619C49.934 49.619 49.934 49.511 50.042 49.511C50.4742 49.2949 51.1223 48.9708 51.3384 48.5387C51.4464 48.3227 51.3384 48.1066 51.2304 47.8905C51.1223 47.6745 50.7983 47.5665 50.5822 47.5665C50.4742 47.5665 50.2581 47.5665 50.1501 47.6745C49.826 47.4584 49.718 47.5665 49.718 47.6745H49.6099H49.5019C49.3939 47.6745 49.2858 47.4584 49.2858 47.2424C49.2858 46.9183 49.3939 46.5942 49.6099 46.3781C49.718 46.2701 49.826 46.1621 50.042 46.1621C50.3661 46.0541 50.6902 45.946 51.1223 45.946C51.4464 45.946 51.7705 45.946 52.0946 46.0541C53.2829 46.4862 53.715 47.0263 53.8231 47.3504C54.3632 48.2146 54.5793 49.9431 53.8231 50.5913Z" fill="#A5A5A5"/>
<path d="M35.5652 59.0176C35.5652 58.8015 35.4572 58.4774 35.2411 58.3694C35.0251 58.1533 34.701 58.1533 34.3769 58.1533C33.4046 58.3694 32.7565 59.6657 32.6484 60.53C32.6484 60.8541 32.6484 61.5022 33.2966 62.3665C33.4046 62.4745 33.5127 62.5825 33.6207 62.6905C34.0528 63.0146 34.4849 63.2307 34.917 63.3387C35.1331 63.3387 35.2411 63.3387 35.3492 63.3387C35.7813 63.2307 36.1054 63.0146 36.2134 62.6905C36.4295 62.3665 36.4295 61.9343 36.1054 61.6103C36.1054 61.6103 35.9973 61.6103 35.9973 61.5022H36.1054H36.2134C36.4295 61.5022 36.7535 61.6103 36.9696 61.5022C37.4017 61.3942 37.8338 61.1781 38.0499 60.746C38.1579 60.53 38.2659 59.9898 38.1579 59.7738C38.0499 59.4497 37.8338 59.2336 37.6178 59.0176C37.4017 58.9095 37.1857 58.8015 36.9696 58.6935C36.4295 58.5854 35.9973 58.8015 35.5652 59.1256C35.3492 59.2336 35.2411 59.4497 35.0251 59.5577C34.917 59.6657 34.917 59.6657 34.809 59.6657H34.917C35.4572 59.6657 35.5652 59.3416 35.5652 59.0176ZM34.809 60.3139C35.0251 60.4219 35.3492 60.53 35.7813 60.0978C35.8893 59.9898 35.9973 59.8818 36.2134 59.7738C36.5375 59.5577 36.7535 59.4497 37.0776 59.4497C37.4017 59.5577 37.6178 59.7738 37.7258 60.0978C37.7258 60.2059 37.7258 60.53 37.7258 60.638C37.6178 60.854 37.4017 61.0701 37.1857 61.0701C37.0776 61.0701 36.8616 61.0701 36.6455 61.0701C36.5375 61.0701 36.5375 61.0701 36.4295 61.0701C36.1054 61.0701 35.5652 60.9621 35.2411 61.1781C35.1331 61.2862 35.0251 61.5022 35.0251 61.6103C35.0251 61.8263 35.1331 61.9343 35.2411 62.1504C35.3492 62.2584 35.4572 62.2584 35.6733 62.2584C35.7813 62.2584 35.8893 62.2584 35.9973 62.1504C35.9973 62.1504 35.9973 62.2584 35.9973 62.3665C35.8893 62.5825 35.6733 62.6905 35.5652 62.6905C35.4572 62.6905 35.3492 62.6905 35.2411 62.6905C34.917 62.6905 34.593 62.4745 34.2689 62.2584C34.1608 62.1504 34.0528 62.0424 33.9448 62.0424C33.4046 61.2862 33.4046 60.854 33.4046 60.638C33.4046 59.9898 33.9448 58.9095 34.593 58.8015C34.701 58.8015 34.809 58.8015 34.917 58.9095C34.917 58.9095 35.0251 59.0176 35.0251 59.1256C34.809 59.1256 34.593 59.2336 34.4849 59.4497C34.3769 59.6657 34.4849 59.9898 34.701 60.2059C34.701 60.3139 34.701 60.3139 34.809 60.3139Z" fill="#A5A5A5"/>
<path d="M12.5564 56.2091C12.7725 56.6412 12.9885 56.9653 13.4206 57.1814C13.6367 57.2894 13.7447 57.2894 13.9608 57.2894C14.2849 57.2894 14.609 57.1814 14.933 56.9653C15.1491 56.8573 15.3652 56.4252 15.3652 56.1011C15.3652 55.669 15.2571 55.2368 14.933 54.9128C14.717 54.8047 14.5009 54.6967 14.2849 54.5887C14.3929 54.4806 14.3929 54.4806 14.5009 54.3726C14.717 54.1566 14.825 53.8325 14.825 53.5084C14.825 53.1843 14.717 52.8602 14.3929 52.5361C14.2849 52.4281 14.1768 52.3201 13.9608 52.3201C13.6367 52.104 13.2046 52.104 12.8805 52.104C12.5564 52.104 12.2323 52.104 12.0163 52.212C10.936 52.5361 10.6119 53.0763 10.5038 53.4004C10.0717 54.1566 9.85567 55.5609 10.6119 56.2091C10.8279 56.4252 11.152 56.5332 11.5841 56.5332C11.6922 56.5332 11.8002 56.5332 11.9082 56.5332C12.2323 56.5332 12.4484 56.4252 12.5564 56.2091ZM11.9082 56.1011C11.8002 56.1011 11.8002 56.1011 11.6922 56.1011C11.4761 56.1011 11.26 55.9931 11.044 55.885C10.5038 55.4529 10.7199 54.2646 11.044 53.7244C11.152 53.5084 11.4761 53.0763 12.3403 52.7522C12.5564 52.6441 12.7725 52.6441 12.9885 52.6441C13.3126 52.6441 13.6367 52.7522 13.7447 52.7522C13.8527 52.8602 13.9608 52.8602 14.0688 52.9682C14.1768 53.0763 14.2849 53.2923 14.2849 53.6164C14.2849 53.7244 14.2849 53.8325 14.1768 53.9405C14.0688 53.7244 13.9608 53.6164 13.7447 53.6164C13.6367 53.6164 13.5287 53.6164 13.5287 53.6164C13.3126 53.6164 13.2046 53.7244 13.0965 53.8325C12.9885 53.9405 12.9885 54.0485 12.9885 54.2646C13.0965 54.6967 13.6367 54.9128 13.8527 55.0208C13.8527 55.0208 13.9608 55.0208 13.9608 55.1288C14.1768 55.2368 14.3929 55.3449 14.5009 55.4529C14.717 55.669 14.825 55.885 14.825 56.2091C14.825 56.3171 14.609 56.6412 14.609 56.6412C14.2849 56.8573 13.9608 56.9653 13.6367 56.8573C13.3126 56.7493 13.2046 56.4252 12.9885 56.1011C12.8805 55.885 12.8805 55.777 12.7725 55.5609C12.6644 55.1288 12.3403 55.0208 12.1243 55.0208C12.1243 55.0208 12.1243 55.0208 12.0163 55.0208C11.6922 55.0208 11.4761 55.2368 11.3681 55.4529C11.26 55.777 11.4761 56.1011 11.8002 56.2091C12.0163 56.1011 11.9082 56.1011 11.9082 56.1011ZM13.7447 54.2646C13.7447 54.3726 13.7447 54.3726 13.7447 54.2646C13.6367 54.1566 13.5287 54.1566 13.5287 54.0485C13.5287 54.0485 13.5287 54.0485 13.5287 53.9405H13.6367C13.7447 53.9405 13.7447 54.0485 13.7447 54.0485C13.7447 54.1566 13.7447 54.2646 13.7447 54.2646ZM12.3403 55.5609C12.2323 55.5609 12.2323 55.5609 12.3403 55.5609C12.2323 55.5609 12.2323 55.5609 12.2323 55.5609C12.1243 55.5609 12.1243 55.4529 12.1243 55.3449C12.1243 55.3449 12.1243 55.2368 12.2323 55.2368C12.2323 55.3449 12.3403 55.3449 12.3403 55.5609Z" fill="#A5A5A5"/>
<path d="M35.0247 47.999C34.9167 47.891 34.9167 47.783 34.8087 47.6749C34.2685 47.1348 33.5123 47.0268 32.9722 47.0268C32.6481 47.0268 32.432 47.0268 32.1079 47.0268C31.8919 47.0268 31.7839 47.0268 31.5678 47.0268C31.4598 47.0268 31.3517 47.0268 31.3517 47.0268C31.3517 46.9187 31.2437 46.8107 31.1357 46.7027C31.0276 46.7027 30.8116 46.7027 30.7036 46.8107C30.3795 46.7027 30.0554 46.5947 29.7313 46.4866C29.7313 46.4866 29.6233 46.4866 29.6233 46.3786C29.6233 46.2706 29.6233 46.1625 29.6233 46.0545C29.6233 45.9465 29.5152 45.9465 29.4072 45.8385C29.2992 45.8385 29.0831 45.8385 28.9751 45.9465C28.543 45.6224 28.0028 45.2983 27.5707 45.2983C27.4627 45.2983 27.4627 45.2983 27.3547 45.2983C27.2466 45.1903 27.0306 45.1903 26.8145 45.2983C26.7065 45.4063 26.7065 45.5144 26.7065 45.6224V45.7304C26.5985 45.8385 26.4904 45.9465 26.4904 46.0545C26.2744 46.4866 26.2744 47.0268 26.5985 47.5669C26.7065 47.783 26.8145 47.891 27.0306 48.1071V48.2151C27.0306 48.2151 27.0306 48.2151 27.0306 48.3231C27.0306 48.4312 27.0306 48.4312 27.0306 48.5392C27.1386 48.6472 27.3547 48.7552 27.4627 48.6472C27.8948 48.9713 28.3269 49.4034 28.8671 49.7275C28.8671 49.8355 28.8671 49.9436 28.8671 50.0516C28.8671 50.0516 28.8671 50.0516 28.8671 50.1596C28.9751 50.2676 29.1912 50.2676 29.4072 50.1596C29.7313 50.2676 29.9474 50.4837 30.2714 50.5917C30.3795 50.5917 30.3795 50.6998 30.4875 50.6998V50.8078C30.5955 51.0239 30.8116 51.0239 30.9196 50.9158C30.9196 50.9158 31.0276 50.9158 31.0276 50.8078C31.5678 50.9158 32.1079 50.9158 32.6481 50.8078C32.7561 50.9158 32.7561 50.9158 32.8641 50.9158C32.9722 50.9158 33.1882 50.8078 33.1882 50.6998C33.4043 50.5917 33.5123 50.5917 33.6203 50.4837C34.1605 50.2676 34.8087 49.7275 35.0247 49.0793C35.2408 48.7552 35.1328 48.4312 35.0247 47.999ZM34.3765 48.8633C34.2685 49.1874 33.8364 49.6195 33.4043 49.8355C32.9722 50.0516 32.432 50.1596 31.8919 50.1596C31.4598 50.1596 31.1357 50.0516 30.8116 49.9436C30.8116 49.9436 30.8116 49.9436 30.9196 49.9436C30.9196 49.9436 30.9196 49.9436 31.0276 49.9436C31.0276 49.9436 31.1357 49.9436 31.1357 49.8355C31.1357 49.8355 31.1357 49.8355 31.2437 49.8355C31.3517 49.7275 31.3517 49.6195 31.3517 49.5114C31.3517 49.4034 31.2437 49.2954 31.1357 49.2954C31.0276 49.2954 30.8116 49.2954 30.7036 49.4034C30.5955 49.5114 30.5955 49.7275 30.7036 49.8355C30.7036 49.9436 30.8116 49.9436 30.8116 49.9436C30.7036 49.9436 30.7036 49.9436 30.5955 49.8355C29.2992 49.2954 28.2189 48.5392 27.5707 47.783C27.3547 47.5669 27.2466 47.4589 27.1386 47.2428C26.9225 46.9187 26.9225 46.7027 27.0306 46.3786C27.1386 46.1625 27.2466 46.0545 27.3547 46.0545H27.4627C27.7868 46.0545 28.3269 46.3786 28.651 46.7027C28.8671 46.9187 29.0831 47.0268 29.2992 47.1348C29.8393 47.4589 30.7036 47.6749 31.4598 47.6749H31.5678C31.7839 47.6749 31.8919 47.6749 32.1079 47.6749C32.324 47.6749 32.6481 47.6749 32.8641 47.6749C33.5123 47.6749 33.9444 47.783 34.1605 48.1071C34.2685 48.2151 34.2685 48.2151 34.2685 48.3231C34.4846 48.5392 34.4846 48.7552 34.3765 48.8633Z" fill="#A5A5A5"/>
<path d="M32.5385 48.3232C32.4305 48.3232 32.2144 48.3232 32.1064 48.4313C31.9984 48.5393 31.9984 48.6473 32.1064 48.8634L32.2144 48.9714H32.3225H32.4305C32.4305 48.9714 32.4305 48.9714 32.5385 48.9714C32.6466 48.8634 32.6466 48.8634 32.6466 48.7554C32.6466 48.6473 32.6466 48.5393 32.5385 48.5393C32.6466 48.4313 32.5385 48.3232 32.5385 48.3232Z" fill="#A5A5A5"/>
<path d="M31.3501 47.999C31.2421 47.999 31.026 47.999 30.918 48.2151C30.918 48.3231 30.918 48.4311 30.918 48.4311V48.5392C30.918 48.6472 31.026 48.6472 31.134 48.7552H31.2421C31.3501 48.7552 31.4581 48.6472 31.5661 48.5392C31.5661 48.4311 31.5661 48.3231 31.5661 48.3231C31.5661 48.1071 31.4581 47.999 31.3501 47.999Z" fill="#A5A5A5"/>
<path d="M33.5122 48.8633C33.4042 48.8633 33.1881 48.8633 33.0801 49.0793C33.0801 49.1874 33.0801 49.2954 33.0801 49.2954V49.4034C33.0801 49.5115 33.1881 49.5115 33.2961 49.6195H33.4042C33.5122 49.6195 33.6202 49.5115 33.7283 49.4034C33.7283 49.2954 33.7283 49.1874 33.7283 49.1874C33.7283 48.9713 33.6202 48.8633 33.5122 48.8633Z" fill="#A5A5A5"/>
<path d="M33.2961 48.5388C33.5122 48.5388 33.6202 48.4308 33.7283 48.3227C33.7283 48.2147 33.7283 48.1067 33.7283 48.1067C33.7283 47.9987 33.6202 47.8906 33.5122 47.8906C33.4042 47.8906 33.1881 47.8906 33.0801 48.1067C33.0801 48.2147 33.0801 48.3227 33.0801 48.3227V48.4308C33.0801 48.4308 33.1881 48.5388 33.2961 48.5388Z" fill="#A5A5A5"/>
<path d="M32.4327 49.2956C32.3247 49.1875 32.1086 49.1875 32.0006 49.4036C31.8926 49.5116 31.8926 49.6197 31.8926 49.7277C31.8926 49.7277 32.0006 49.8357 32.1086 49.8357C32.1086 49.8357 32.2167 49.8357 32.3247 49.8357C32.3247 49.8357 32.3247 49.8357 32.4327 49.8357C32.5408 49.8357 32.6488 49.7277 32.6488 49.7277C32.6488 49.6197 32.7568 49.5116 32.6488 49.5116C32.5408 49.5116 32.5408 49.4036 32.4327 49.2956Z" fill="#A5A5A5"/>
<path d="M28.6509 47.999C28.4348 47.999 28.2188 48.1071 28.2188 48.3231V48.4311C28.2188 48.5392 28.2188 48.5392 28.2188 48.6472C28.2188 48.7552 28.3268 48.7552 28.4348 48.8633H28.5428C28.6509 48.8633 28.8669 48.7552 28.8669 48.6472C28.8669 48.5392 28.8669 48.4311 28.8669 48.3231C28.8669 48.1071 28.7589 48.1071 28.6509 47.999Z" fill="#A5A5A5"/>
<path d="M30.0552 48.4312C29.8391 48.4312 29.623 48.5392 29.623 48.7552V48.8633C29.623 48.9713 29.623 48.9713 29.623 49.0793C29.623 49.1874 29.7311 49.1874 29.8391 49.2954H29.9471C30.0552 49.2954 30.2712 49.1874 30.2712 49.0793C30.2712 48.9713 30.2712 48.8633 30.2712 48.7552C30.2712 48.5392 30.1632 48.4312 30.0552 48.4312Z" fill="#A5A5A5"/>
<path d="M28.327 47.1351C28.327 46.9191 28.111 46.811 27.8949 46.811C27.7869 46.811 27.6789 46.9191 27.6789 46.9191C27.6789 47.0271 27.5708 47.1351 27.6789 47.2432V47.3512C27.7869 47.4592 27.7869 47.5672 28.003 47.5672C28.219 47.5672 28.327 47.4592 28.327 47.2432V47.1351Z" fill="#A5A5A5"/>
<path d="M29.7308 47.5667C29.6228 47.3506 29.4067 47.3506 29.1907 47.4587C29.1907 47.4587 29.1907 47.4587 29.0826 47.4587C28.9746 47.5667 28.9746 47.7827 28.9746 47.8908C28.9746 47.9988 29.0826 47.9988 29.1907 48.1068H29.2987H29.4067C29.8388 47.9988 29.8388 47.7827 29.7308 47.5667Z" fill="#A5A5A5"/>
<path d="M24.8706 44.3256C24.7626 43.5694 24.1144 43.0292 23.6823 42.8132C23.3582 42.7051 23.0341 42.5971 22.602 42.5971C22.3859 42.5971 22.2779 42.5971 22.0618 42.4891C21.8458 42.381 21.5217 42.381 21.3056 42.165C21.3056 42.165 21.1976 42.165 21.1976 42.0569C21.1976 42.0569 21.0896 42.0569 21.0896 41.9489C21.1976 41.9489 21.3056 41.9489 21.4137 41.9489C21.5217 41.8409 21.7377 41.6248 21.8458 41.5168C22.0618 41.3007 22.1699 41.0847 22.2779 40.8686C22.2779 40.7606 22.3859 40.6526 22.2779 40.5445C22.2779 40.4365 22.1699 40.3285 22.0618 40.3285C22.0618 40.3285 22.0618 40.3285 21.9538 40.3285C21.7377 40.2205 21.3056 40.0044 20.6575 40.0044C20.1173 40.0044 19.5772 40.2205 19.145 40.6526C18.929 40.8686 18.821 40.9767 18.7129 41.1927V41.3007C18.7129 41.4088 18.6049 41.4088 18.6049 41.5168V41.6248C18.0648 41.9489 17.6326 42.381 17.6326 42.381C17.5246 42.4891 17.6326 42.7051 17.7407 42.8132C17.8487 42.8132 17.8487 42.9212 17.9567 42.9212C18.0648 42.9212 18.1728 42.9212 18.1728 42.8132C18.1728 42.7051 18.4969 42.4891 18.821 42.273C18.929 42.273 18.929 42.381 19.037 42.381H19.145C18.821 42.9212 18.929 43.4613 19.2531 43.7854C19.3611 43.8934 19.4691 44.0015 19.5772 44.2175C19.7932 44.4336 19.7932 44.7577 19.9012 45.0818C20.0093 45.5139 20.2253 45.946 20.4414 46.2701C20.6575 46.4861 21.1976 47.1343 22.0618 47.1343C22.71 47.1343 23.2502 46.8102 23.7903 46.2701C24.9786 45.5139 24.9786 44.7577 24.8706 44.3256ZM20.4414 42.4891C20.5494 42.4891 20.7655 42.5971 20.9815 42.7051C21.0896 42.7051 21.0896 42.8132 21.0896 42.8132C21.4137 42.9212 21.6297 43.0292 21.9538 43.1372C22.1699 43.1372 22.3859 43.2453 22.602 43.2453C22.9261 43.2453 23.1421 43.3533 23.3582 43.4613C23.6823 43.5694 24.1144 44.0015 24.2224 44.5416C24.3304 44.9737 24.1144 45.4059 23.7903 45.946C23.3582 46.3781 22.9261 46.5942 22.4939 46.5942C21.9538 46.5942 21.5217 46.1621 21.3056 45.946C21.0896 45.7299 20.9815 45.2978 20.8735 44.9737C20.7655 44.6496 20.6575 44.2175 20.4414 43.8934C20.3334 43.6774 20.2253 43.5694 20.1173 43.4613C19.9013 43.2453 19.9013 43.0292 20.1173 42.8132L20.2253 42.7051C20.2253 42.5971 20.3334 42.4891 20.4414 42.4891ZM20.4414 41.9489C20.2253 41.9489 20.0093 42.0569 19.7932 42.165C19.7932 42.0569 19.7932 42.0569 19.6852 42.0569C19.9013 41.9489 20.1173 41.8409 20.3334 41.8409C20.4414 41.8409 20.4414 41.7329 20.5494 41.7329C20.6575 41.6248 20.6575 41.5168 20.6575 41.5168C20.6575 41.4088 20.5494 41.1927 20.3334 41.1927C20.2253 41.1927 20.1173 41.1927 20.0093 41.3007C20.3334 41.0847 20.6575 40.9767 20.9815 40.9767C21.3056 40.9767 21.5217 41.0847 21.7377 41.1927C21.5217 41.4088 21.4137 41.6248 21.1976 41.8409C21.0896 41.9489 21.0896 41.9489 21.0896 42.0569C21.0896 42.165 21.0896 42.273 21.1976 42.273C21.1976 42.273 21.1976 42.273 21.3056 42.381C20.9815 42.0569 20.7655 41.9489 20.4414 41.9489Z" fill="#A5A5A5"/>
<path d="M21.7382 45.7298C21.9542 45.9459 22.2783 46.0539 22.6024 46.0539C22.9265 46.0539 23.2506 45.9459 23.4666 45.7298C23.6827 45.5137 23.7907 45.1897 23.6827 44.8656C23.6827 44.5415 23.4666 44.2174 23.2506 44.0013C23.0345 43.7853 22.7104 43.6772 22.3863 43.6772C22.0623 43.6772 21.7382 43.7853 21.5221 44.0013C21.3061 44.2174 21.198 44.5415 21.3061 44.8656C21.3061 45.1897 21.5221 45.5137 21.7382 45.7298ZM22.1703 45.1897C22.0623 45.0816 21.9542 44.9736 21.9542 44.7575C21.9542 44.6495 21.9542 44.5415 22.0623 44.4334C22.1703 44.3254 22.2783 44.3254 22.3863 44.3254C22.4944 44.3254 22.7104 44.4334 22.8185 44.5415C23.0345 44.7575 23.1425 45.0816 23.0345 45.2977C22.8185 45.4057 22.3863 45.4057 22.1703 45.1897Z" fill="#A5A5A5"/>
<path d="M3.80446 90.8867H7.15336L58.1431 54.2648V51.8882L32.4322 70.3612L0.0234375 56.3174V58.478L30.4877 71.7655L26.7066 74.4663L0.0234375 63.5553V65.7159L24.7621 75.8707L20.8731 78.5714L0.0234375 69.4969V71.6575L19.0366 79.9758L15.5796 82.4604L0.0234375 76.0867V78.2473L13.6351 83.8648L9.42197 86.7816L0.0234375 82.6765V84.9451L7.58548 88.186L3.80446 90.8867Z" fill="#A5A5A5"/>
<path d="M16.9843 90.8867L58.1434 61.5027V59.0181L13.5273 90.8867H16.9843Z" fill="#A5A5A5"/>
<path d="M27.138 90.887L58.1423 68.633V66.2563L23.7891 90.887H27.138Z" fill="#A5A5A5"/>
<path d="M47.2317 90.8868L58.1427 83.0007V80.624L43.8828 90.8868H47.2317Z" fill="#A5A5A5"/>
<path d="M37.6171 90.8866L58.1426 76.1946V73.71L34.1602 90.8866H37.6171Z" fill="#A5A5A5"/>
<path d="M95.3063 30.0659H85.0436L77.2655 49.0791V30.0659H67.2188V71.9812H77.2655V51.5637L85.7998 71.9812H96.4947L86.8801 49.9433L95.3063 30.0659Z" fill="#A5A5A5"/>
<path d="M98.2227 71.9812H119.937V64.6352H108.377V54.4805H119.288V47.1345H108.377V37.5199H119.937V30.0659H98.2227V71.9812Z" fill="#A5A5A5"/>
<path d="M146.08 38.3842V30.0659H122.962V37.5199H135.601L121.125 63.771V71.9812H146.512V64.6352H131.604L146.08 38.3842Z" fill="#A5A5A5"/>
<path d="M155.802 30.0659L147.268 71.9812H157.206L158.719 62.4747H166.497L167.901 71.9812H177.84L169.306 30.0659H155.802ZM159.799 55.3447L162.608 36.7637L165.416 55.3447H159.799Z" fill="#A5A5A5"/>
<path d="M72.6195 79.4351H68.6224V83.2162H72.0793V84.6205H68.6224V90.7782H67.002V78.0308H72.6195V79.4351Z" fill="#A5A5A5"/>
<path d="M81.2608 90.7782H79.6403L79.2082 88.2935H76.2914L75.7513 90.7782H74.1309L76.9396 78.0308H78.5601L81.2608 90.7782ZM78.8841 86.8892L77.6958 80.2994L76.5075 86.8892H78.8841Z" fill="#A5A5A5"/>
<path d="M90.1197 90.7782H88.4992L86.3387 85.1607H85.0423V90.7782H83.4219V78.0308H86.2306C87.3109 78.0308 88.1752 78.2468 88.6073 78.6789C89.2555 79.2191 89.5795 80.1913 89.5795 81.4877C89.5795 82.0278 89.5795 82.568 89.4715 83.1081C89.3635 83.6483 89.1474 84.0804 88.9314 84.4045C88.7153 84.7286 88.2832 84.9446 87.8511 85.0527L90.1197 90.7782ZM88.0671 81.7038C88.0671 81.0556 88.0671 80.6235 87.9591 80.2994C87.8511 80.0833 87.743 79.9753 87.635 79.7592C87.527 79.6512 87.3109 79.5432 87.0949 79.5432C86.8788 79.5432 86.7708 79.4351 86.5547 79.4351C86.4467 79.4351 86.2306 79.4351 86.0146 79.4351C85.9065 79.4351 85.9065 79.4351 85.7985 79.4351H85.0423V83.8643H85.9065C86.5547 83.8643 86.9868 83.8643 87.3109 83.7563C87.527 83.6483 87.635 83.5402 87.743 83.4322C87.8511 83.3242 87.9591 83.1081 87.9591 82.784C87.9591 82.568 88.0671 82.3519 88.0671 82.2439C88.0671 82.1359 88.0671 81.9198 88.0671 81.7038Z" fill="#A5A5A5"/>
<path d="M100.922 90.7782H99.4094L99.6254 79.2191L97.7889 90.7782H95.7364L93.8999 79.2191L94.1159 90.7782H92.6035V78.0308H94.9802L96.7086 89.3738L98.4371 78.0308H100.814L100.922 90.7782Z" fill="#A5A5A5"/>
<path d="M109.78 90.7782H104.055V78.0308H109.672V79.4351H105.675V83.2162H109.24V84.6205H105.675V89.2658H109.78V90.7782Z" fill="#A5A5A5"/>
<path d="M119.071 90.7782H117.45L115.29 85.1607H113.993V90.7782H112.373V78.0308H115.182C116.262 78.0308 117.126 78.2468 117.558 78.6789C118.207 79.2191 118.531 80.1913 118.531 81.4877C118.531 82.0278 118.531 82.568 118.423 83.1081C118.315 83.6483 118.099 84.0804 117.883 84.4045C117.666 84.7286 117.234 84.9446 116.802 85.0527L119.071 90.7782ZM117.018 81.7038C117.018 81.0556 117.018 80.6235 116.91 80.2994C116.802 80.0833 116.694 79.9753 116.586 79.7592C116.478 79.6512 116.262 79.5432 116.046 79.5432C115.83 79.5432 115.722 79.4351 115.506 79.4351C115.398 79.4351 115.182 79.4351 114.966 79.4351C114.858 79.4351 114.858 79.4351 114.75 79.4351H113.993V83.8643H114.858C115.506 83.8643 115.938 83.8643 116.262 83.7563C116.478 83.6483 116.586 83.5402 116.694 83.4322C116.802 83.3242 116.91 83.1081 116.91 82.784C116.91 82.568 117.018 82.3519 117.018 82.2439C117.018 82.1359 117.018 82.0278 117.018 81.7038Z" fill="#A5A5A5"/>
<path d="M127.391 87.9694C127.391 89.1578 126.959 90.022 126.202 90.4541C125.662 90.7782 125.014 90.9943 124.258 90.9943C122.745 90.9943 121.773 90.4541 121.341 89.2658C121.233 88.8337 121.125 88.4016 121.125 87.8614V86.457H122.637V87.1052C122.637 87.9694 122.637 88.5096 122.745 88.8337C122.961 89.4819 123.502 89.8059 124.15 89.8059C124.906 89.8059 125.338 89.4819 125.662 88.9417C125.77 88.7257 125.77 88.5096 125.77 88.1855C125.77 87.8614 125.662 87.5373 125.554 87.2132C125.446 86.8892 125.338 86.6731 125.23 86.5651C125.122 86.457 124.906 86.241 124.582 85.9169L122.853 84.1884C122.313 83.6483 121.881 83.1081 121.665 82.676C121.449 82.2439 121.341 81.7038 121.341 80.9476C121.341 80.5154 121.341 80.0833 121.449 79.7592C121.773 78.5709 122.745 78.0308 124.258 78.0308C125.662 78.0308 126.526 78.5709 126.851 79.6512C126.959 79.9753 126.959 80.4074 126.959 81.1636V82.0278H125.554C125.554 81.4877 125.554 81.1636 125.554 80.9476C125.554 80.1913 125.338 79.7592 124.906 79.5432C124.69 79.4351 124.474 79.4351 124.258 79.4351C123.826 79.4351 123.502 79.5432 123.286 79.7592C123.286 79.7592 123.178 79.8673 123.07 80.0833C122.962 80.2994 122.962 80.5154 122.962 80.9476C122.962 81.2716 122.962 81.4877 123.07 81.7038C123.07 81.8118 123.178 82.0278 123.286 82.1359C123.394 82.2439 123.502 82.46 123.502 82.46C123.502 82.46 123.718 82.676 123.934 82.8921C124.15 83.1081 124.258 83.2162 124.258 83.2162L126.31 85.3767C126.418 85.4848 126.526 85.7008 126.743 85.9169C127.067 86.241 127.391 86.9972 127.391 87.9694Z" fill="#A5A5A5"/>
<path d="M141.11 82.0277C141.11 83.4321 140.894 84.2963 140.462 84.8365C140.03 85.3766 139.166 85.5927 137.977 85.5927H136.681V90.8861H135.061V78.1387H138.409C139.382 78.1387 140.138 78.4628 140.57 79.0029C140.678 79.1109 140.678 79.219 140.786 79.327C140.894 79.435 140.894 79.543 141.002 79.6511C141.11 79.7591 141.11 79.8671 141.11 79.9752C141.11 80.0832 141.218 80.1912 141.218 80.2993C141.218 80.4073 141.218 80.5153 141.218 80.6233C141.218 80.7314 141.218 80.8394 141.218 80.9474C141.218 81.0555 141.218 81.2715 141.218 81.2715C141.218 81.2715 141.218 81.4876 141.218 81.5956C141.11 81.8117 141.11 81.9197 141.11 82.0277ZM139.49 82.0277C139.49 81.4876 139.49 81.0555 139.49 80.8394C139.49 80.6233 139.382 80.4073 139.274 80.1912C139.166 79.9752 139.058 79.8671 138.95 79.7591C138.842 79.6511 138.626 79.6511 138.517 79.543C138.301 79.543 138.085 79.435 137.977 79.435C137.869 79.435 137.653 79.435 137.329 79.435H136.465V84.0803H137.545C137.761 84.0803 137.977 84.0803 138.085 84.0803C138.193 84.0803 138.301 84.0803 138.517 83.9722C138.734 83.9722 138.842 83.8642 138.95 83.7562C139.058 83.6482 139.166 83.5401 139.274 83.3241C139.49 83.3241 139.49 82.7839 139.49 82.0277Z" fill="#A5A5A5"/>
<path d="M150.401 90.8861H148.78L146.62 85.2686H145.324V90.8861H143.703V78.1387H146.512C147.592 78.1387 148.456 78.3547 148.889 78.7868C149.537 79.327 149.861 80.2993 149.861 81.5956C149.861 82.1357 149.861 82.6759 149.753 83.216C149.645 83.7562 149.429 84.1883 149.213 84.5124C148.997 84.8365 148.564 85.0525 148.132 85.1606L150.401 90.8861ZM148.348 81.8117C148.348 81.1635 148.348 80.7314 148.24 80.4073C148.132 80.1912 148.024 80.0832 147.916 79.8671C147.808 79.7591 147.592 79.6511 147.376 79.6511C147.16 79.6511 147.052 79.543 146.836 79.543C146.728 79.543 146.512 79.543 146.296 79.543C146.188 79.543 146.188 79.543 146.08 79.543H145.324V83.9722H146.188C146.836 83.9722 147.268 83.9722 147.592 83.8642C147.808 83.7562 147.916 83.6482 148.024 83.5401C148.132 83.4321 148.24 83.216 148.24 82.8919C148.24 82.6759 148.348 82.4598 148.348 82.3518C148.348 82.2438 148.348 82.0277 148.348 81.8117Z" fill="#A5A5A5"/>
<path d="M154.398 90.8861H152.777V78.1387H154.398V90.8861Z" fill="#A5A5A5"/>
<path d="M163.688 83.8642C163.688 84.5124 163.688 85.4846 163.688 86.673C163.688 87.1051 163.688 87.6452 163.58 88.0773C163.472 89.2657 163.04 90.1299 162.284 90.562C162.176 90.6701 162.068 90.67 161.96 90.67C161.852 90.67 161.744 90.7781 161.636 90.7781C161.528 90.7781 161.42 90.7781 161.312 90.8861C161.204 90.8861 161.096 90.8861 160.988 90.8861C160.88 90.8861 160.772 90.8861 160.663 90.8861C160.555 90.8861 160.447 90.8861 160.339 90.8861C160.231 90.8861 160.015 90.8861 160.015 90.8861H157.639V78.1387H160.015C161.096 78.1387 161.852 78.2467 162.284 78.4628C163.04 78.7868 163.58 79.543 163.688 80.5153C163.688 80.9474 163.688 82.0277 163.688 83.8642ZM162.176 85.0525C162.176 83.3241 162.176 82.2438 162.176 81.9197C162.176 81.3795 162.176 80.9474 162.068 80.7314C161.96 80.5153 161.852 80.1912 161.744 80.0832C161.42 79.8671 160.88 79.6511 160.015 79.6511H159.151V89.4817H160.231C160.772 89.4817 161.204 89.3737 161.528 89.2657C161.852 89.0496 162.068 88.7255 162.176 88.2934C162.068 87.9693 162.176 86.889 162.176 85.0525Z" fill="#A5A5A5"/>
<path d="M172.331 90.8861H166.605V78.1387H172.223V79.543H168.226V83.3241H171.791V84.7284H168.226V89.3737H172.331V90.8861Z" fill="#A5A5A5"/>
<path d="M176.436 90.8862H174.924V88.7256H176.436V90.8862Z" fill="#A5A5A5"/>
</svg>
