<svg width="74" height="39" viewBox="0 0 74 39" fill="none" xmlns="http://www.w3.org/2000/svg">
<path d="M23.6994 12.4936C23.9242 12.0441 24.3737 10.8754 24.0141 9.88645C23.9242 9.61675 23.7444 9.39199 23.5646 9.21218C23.4297 9.07733 23.2499 8.98743 23.0701 8.89753C22.9802 8.85257 22.8453 8.89753 22.8004 8.94248C22.7554 8.98743 22.7105 9.03238 22.6655 9.07733C22.5756 9.12228 22.4857 9.21218 22.3958 9.30209C21.0473 10.7855 19.2043 11.2799 17.4062 11.5496C17.0466 11.5946 16.687 11.6396 16.3723 11.6396C15.3385 11.6396 14.4394 11.4148 13.6753 11.19C13.1359 11.0552 12.6863 10.9203 12.3267 10.9203C12.1919 10.9203 12.057 10.9203 11.9222 10.9653C11.6974 11.0552 11.4277 11.1001 11.203 11.1001C10.9332 11.1001 10.7085 11.0102 10.4388 10.7855C10.3489 10.6956 10.1691 10.5607 10.0342 10.3809C9.71956 10.0213 9.35995 9.6617 9.00034 9.61675H8.91044L8.86549 9.57179L8.82054 9.52684C8.64073 9.39199 8.46093 9.34704 8.28112 9.34704C8.10132 9.34704 7.92151 9.39199 7.74171 9.52684C7.29219 9.8415 6.97753 10.5158 7.29219 11.0552C7.472 11.3249 7.69675 11.5496 7.92151 11.7744C8.23617 12.0891 8.50588 12.3588 8.55083 12.7184C8.59578 12.9881 8.59578 13.3927 8.50588 13.8871C8.23617 15.4604 8.68568 16.719 9.94432 17.8428C10.9782 18.7868 12.1469 19.2813 13.5404 19.6858C14.3495 19.9555 15.2486 20.0904 16.2375 20.0904C17.4961 20.0904 18.7548 19.8656 19.8785 19.506C20.3281 19.3262 20.7326 19.1464 21.1372 18.8767C21.9913 18.2923 22.5756 17.5282 22.7105 16.8089C22.8004 16.4493 22.7105 16.1347 22.5756 15.9099C22.3059 15.5503 21.9913 15.3256 21.5417 15.2806L21.1372 15.1907L21.4518 14.9659C22.5307 14.2467 23.2499 13.4376 23.6994 12.4936ZM21.317 15.6852C21.5867 15.6852 21.7665 15.7301 21.9463 15.865L22.0812 15.9549L21.9463 16.0448C21.5417 16.4044 20.4629 17.2135 18.8447 17.4832C18.7997 17.4832 18.7098 17.5282 18.7098 17.5731C18.6649 17.6181 18.6649 17.708 18.6649 17.7529C18.6649 17.8878 18.7997 17.9777 18.9346 17.9327C20.1932 17.708 21.0922 17.2135 21.6766 16.8539C21.7665 16.764 21.9014 16.719 21.9913 16.6291L22.3509 16.3594L22.216 16.764C22.1261 17.0337 21.8115 17.708 20.8675 18.3373C20.5079 18.562 20.1483 18.7418 19.7437 18.8767C18.6649 19.2363 17.4512 19.4611 16.2824 19.4611C15.3834 19.4611 14.4844 19.3262 13.7202 19.1015C12.3717 18.6519 11.2479 18.2024 10.3039 17.3484C9.13519 16.3145 8.77558 15.2357 9.00034 13.7972C9.09024 13.2578 9.13519 12.8083 9.04529 12.4936C8.95539 11.9542 8.59578 11.5946 8.23617 11.2799C8.01141 11.1001 7.83161 10.8754 7.69675 10.6956C7.51695 10.4259 7.69675 9.97636 8.01141 9.79655C8.10131 9.7516 8.19122 9.70665 8.28112 9.70665C8.41597 9.70665 8.46093 9.7516 8.50588 9.79655L8.55083 9.8415C8.59578 9.9314 8.68568 10.1112 8.77558 10.3809C8.77558 10.4708 8.82054 10.5158 8.82054 10.5607C9.00034 11.1001 9.2251 11.6396 9.67461 12.179C10.1691 12.7633 10.4388 12.8532 11.113 12.9881C11.5176 13.078 11.7424 13.3027 12.057 13.5725C12.1469 13.6624 12.1919 13.7073 12.2818 13.7972C13.5404 14.921 15.2036 15.6402 17.4961 16.0448C17.7658 16.0897 18.0355 16.1347 18.3502 16.1347C19.0245 16.1347 19.7437 15.9998 20.2382 15.9099C20.2831 15.9099 20.373 15.865 20.418 15.865H20.4629C20.7326 15.7751 21.0473 15.6852 21.317 15.6852ZM19.7886 15.3705C19.7437 15.3705 19.7437 15.4155 19.6987 15.4604L19.6538 15.5054H19.6088C19.1144 15.5953 18.6649 15.6402 18.2603 15.6402C17.9906 15.6402 17.7209 15.6402 17.4961 15.5953C15.2935 15.2357 13.7202 14.5614 12.5065 13.4826C12.4166 13.4376 12.3717 13.3477 12.3267 13.3027C12.0121 12.9881 11.6974 12.7184 11.158 12.5835C10.5736 12.4487 10.3938 12.4037 9.98927 11.9542C9.67461 11.5946 9.4948 11.235 9.35995 10.8304L9.09024 10.1562L9.62966 10.7855C9.80946 10.9653 9.94432 11.1451 10.0792 11.235C10.4388 11.5047 10.7534 11.6396 11.158 11.6396C11.4277 11.6396 11.6974 11.5496 12.0121 11.4597C12.3267 11.3698 12.8661 11.5047 13.4955 11.6845C14.2596 11.9093 15.2036 12.134 16.2824 12.134C16.6421 12.134 17.0466 12.0891 17.4062 12.0441C19.2942 11.7295 21.1821 11.235 22.6655 9.61675C22.7105 9.57179 22.7554 9.57179 22.8004 9.52684L23.115 9.30209L23.0701 9.57179C22.8903 10.2011 22.216 11.8194 20.1483 12.7184C20.1033 12.7633 20.0584 12.8083 20.0134 12.8532C19.9684 12.8982 19.9684 12.9881 20.0134 13.033C20.0584 13.1679 20.1932 13.2128 20.3281 13.1679C20.6877 13.033 21.0473 12.8083 21.3619 12.6285C22.4857 11.8643 23.0701 10.9203 23.3398 10.2461L23.5196 9.8415L23.6095 10.2461C23.7444 10.7855 23.6095 11.5496 23.2499 12.2689C22.6655 13.4826 21.5417 14.5164 19.7886 15.3705Z" fill="url(#paint0_linear_1_2720)"/>
<path d="M15.1585 17.3935C14.0796 17.1238 13.0458 16.6743 11.9669 16.045C11.922 16.045 11.877 16 11.8321 16C11.7422 16 11.6523 16.045 11.6073 16.1349C11.5174 16.2697 11.5624 16.4046 11.6972 16.4495C12.7761 17.1238 13.8998 17.5733 15.0236 17.843C15.0686 17.843 15.1585 17.843 15.2034 17.7981C15.2484 17.7531 15.2933 17.7081 15.2933 17.6632C15.2933 17.6182 15.2933 17.5283 15.2484 17.4834C15.2933 17.4384 15.2034 17.3935 15.1585 17.3935Z" fill="url(#paint1_linear_1_2720)"/>
<path d="M17.0916 17.6182C16.8218 17.6182 16.5521 17.5732 16.2375 17.5732C16.2375 17.5732 16.2375 17.5732 16.1925 17.5732C16.0577 17.5732 15.9678 17.6631 15.9678 17.798C15.9678 17.9329 16.0577 18.0677 16.1925 18.0677C16.5072 18.1127 16.7769 18.1127 17.0916 18.1576V18.2925V18.1127C17.1365 18.1127 17.1815 18.1127 17.2264 18.0677C17.2714 18.0228 17.3163 17.9329 17.3163 17.8879C17.3163 17.753 17.2264 17.6631 17.0916 17.6182Z" fill="url(#paint2_linear_1_2720)"/>
<path d="M19.2043 13.168C19.1593 13.168 19.1593 13.168 19.1144 13.168C18.6649 13.3478 18.1704 13.4826 17.631 13.5725C17.586 13.5725 17.4961 13.6175 17.4961 13.6624C17.4512 13.7074 17.4512 13.7973 17.4512 13.8422C17.4512 13.9771 17.586 14.022 17.6759 14.022H17.7209C18.2603 13.9321 18.7997 13.7973 19.2942 13.6175C19.2942 13.6175 19.3391 13.6175 19.3391 13.5725C19.429 13.5276 19.474 13.3927 19.429 13.3028C19.3841 13.2579 19.2942 13.168 19.2043 13.168Z" fill="url(#paint3_linear_1_2720)"/>
<path d="M5.5388 7.45921C5.5388 7.63902 5.7186 8.44814 5.85346 9.16736C6.07821 10.1563 6.16812 10.6508 6.25802 10.7407C6.30297 10.7856 6.39287 10.8306 6.43782 10.8306C6.52773 10.8306 6.57268 10.7856 6.61763 10.7407L6.66258 10.6957C6.75248 10.6058 6.97724 9.66182 7.15704 9.07746C7.3818 8.13348 7.51665 7.45921 7.51665 7.32436C7.4717 7.0097 7.24695 6.82989 7.06714 6.73999H7.02219V6.69504C7.15704 6.20058 7.15704 6.15563 7.15704 6.11067C7.15704 6.11067 7.15704 6.11067 7.15704 6.06572C7.06714 5.93087 6.97724 5.93087 6.88734 5.93087C6.84238 5.93087 6.79743 5.93087 6.79743 5.93087H6.75248V5.79602V5.75106C6.66258 5.66116 6.57268 5.61621 6.48277 5.61621C6.30297 5.61621 6.21307 5.70611 6.21307 5.75106V5.79602C6.21307 5.79602 6.21307 6.20058 6.25802 6.51524V6.56019H6.21307C6.16812 6.56019 6.12316 6.56019 6.12316 6.60514C6.03326 6.65009 5.94336 6.69504 5.89841 6.73999C5.5388 7.0097 5.49385 7.27941 5.5388 7.45921ZM6.66258 6.06572C6.70753 6.06572 6.70753 6.06572 6.75248 6.06572C6.75248 6.06572 6.79743 6.06572 6.84238 6.06572C6.88734 6.06572 6.93229 6.06572 6.97724 6.11067C6.97724 6.15563 6.93229 6.29048 6.88734 6.60514V6.65009H6.79743C6.75248 6.65009 6.70753 6.65009 6.66258 6.65009H6.61763L6.66258 6.06572ZM6.21307 5.88592C6.25802 5.84097 6.30297 5.84097 6.34792 5.84097C6.39287 5.84097 6.43782 5.84097 6.48277 5.88592L6.43782 6.65009H6.39287C6.34792 6.65009 6.25802 6.65009 6.21307 6.65009H6.16812V6.60514C6.21307 6.33543 6.21307 6.02077 6.21307 5.88592ZM6.03326 6.78494C6.07821 6.78494 6.12316 6.78494 6.16812 6.78494C6.34792 6.78494 6.57268 6.82989 6.70753 6.82989C6.75248 6.82989 6.79743 6.82989 6.84238 6.87485C7.02219 6.9198 7.24695 7.05465 7.2919 7.36931V7.41426V7.50416L7.24695 7.45921C7.11209 7.32436 6.93229 7.23446 6.79743 7.23446C6.75248 7.23446 6.75248 7.27941 6.75248 7.27941C6.75248 7.32436 6.79743 7.32436 6.79743 7.32436C6.97724 7.32436 7.202 7.45921 7.24695 7.63902C7.24695 7.77387 7.20199 7.90872 7.15704 8.04358V8.08853L7.11209 8.04358C7.06714 7.99863 7.06714 7.99863 7.06714 7.99863C6.97724 7.90872 6.79743 7.86377 6.75248 7.86377C6.70753 7.86377 6.66258 7.86377 6.66258 7.90872C6.66258 7.95368 6.66258 7.99863 6.70753 7.99863C6.79743 7.99863 6.88734 8.04358 6.97724 8.08853C7.02219 8.13348 7.11209 8.22338 7.11209 8.26833C7.06714 8.49309 7.02219 8.6729 6.93229 8.89765V8.9426L6.88734 8.89765C6.79743 8.8527 6.70753 8.80775 6.61763 8.80775C6.61763 8.80775 6.57268 8.80775 6.57268 8.8527V8.89765C6.57268 8.9426 6.61763 8.9426 6.66258 8.9426C6.70753 8.9426 6.88734 9.03251 6.88734 9.07746C6.84238 9.30221 6.75248 9.52697 6.70753 9.70677V9.75173H6.66258C6.57268 9.70677 6.43782 9.66182 6.39287 9.70677C6.34792 9.70677 6.34792 9.75173 6.34792 9.79668C6.34792 9.84163 6.39287 9.84163 6.43782 9.84163C6.48277 9.84163 6.57268 9.88658 6.66258 9.93153V9.97648C6.61763 10.1113 6.52773 10.5159 6.48277 10.5608C6.48277 10.5608 6.48277 10.6058 6.43782 10.6058C6.43782 10.6058 6.39287 10.6508 6.34792 10.6508C6.30297 10.6508 6.30297 10.6508 6.25802 10.6058C6.21307 10.5159 6.07821 10.0214 5.98831 9.52697V9.48202C5.98831 9.48202 5.98831 9.48202 5.98831 9.43707C6.03326 9.43707 6.07821 9.34716 6.16812 9.34716C6.21307 9.34716 6.21307 9.34716 6.25802 9.34716C6.30297 9.34716 6.30297 9.34716 6.34792 9.34716C6.34792 9.34716 6.34792 9.34716 6.34792 9.30221C6.34792 9.25726 6.34792 9.21231 6.30297 9.21231C6.21307 9.16736 6.07821 9.21231 5.98831 9.25726L5.94336 9.30221V9.25726C5.89841 9.07746 5.85346 8.89765 5.80851 8.71785C5.89841 8.58299 6.12316 8.53804 6.25802 8.53804H6.30297C6.30297 8.53804 6.30297 8.53804 6.30297 8.49309C6.30297 8.44814 6.30297 8.40319 6.25802 8.40319C6.12316 8.35824 5.89841 8.40319 5.76355 8.49309L5.85346 8.58299V8.53804C5.80851 8.22338 5.7186 7.95368 5.7186 7.77387C5.76355 7.59407 6.03326 7.41426 6.16812 7.41426H6.21307V7.36931C6.21307 7.32436 6.16812 7.32436 6.16812 7.27941C6.03326 7.27941 5.85346 7.36931 5.7186 7.50416L5.67365 7.54911V7.45921C5.67365 7.27941 5.7186 7.05465 5.85346 6.87485C5.89841 6.82989 5.94336 6.78494 6.03326 6.78494Z" fill="url(#paint4_linear_1_2720)"/>
<path d="M13.2709 0.581517C12.9562 0.67142 12.5067 0.896176 12.3269 1.52549C12.2819 1.75025 12.237 1.97501 12.2819 2.15481C12.2819 2.19976 12.3269 2.24471 12.3269 2.28966C12.3269 2.28966 12.3269 2.28966 12.3718 2.28966C11.8324 2.51442 11.4728 3.18869 11.3829 3.59325C11.3829 3.6382 11.3829 3.68315 11.3829 3.68315C11.1581 3.95286 10.9783 4.31247 10.9334 4.67208C10.7536 5.70596 11.248 6.82974 11.6976 7.72876C11.8774 8.08837 12.1471 8.44798 12.5067 8.80759C13.4057 9.70662 14.6194 10.246 15.2038 10.4708C16.2826 10.8304 17.1367 10.8304 17.4963 10.8304C17.5412 10.8304 17.5862 10.8304 17.5862 10.8304C17.6761 10.8304 17.766 10.7854 17.8109 10.7405C17.8559 10.6506 17.8109 10.5157 17.721 10.4708C17.721 10.4708 17.6761 10.4708 17.6761 10.4258C17.5412 10.3809 17.2715 10.2011 16.867 9.79652C16.1927 9.12225 15.5184 8.22323 15.3836 7.99847C14.7093 7.00954 14.5744 5.97567 14.4396 4.71703V4.58218C14.3946 4.26752 14.2598 3.95286 14.035 3.68315C13.9451 3.14374 13.4956 2.33462 12.7764 2.24471C12.7314 2.24471 12.6865 2.24471 12.6865 2.24471C12.6865 2.19976 12.7314 2.15481 12.7314 2.10986C12.7314 1.97501 12.7314 1.84015 12.7764 1.66035C12.8663 1.34569 13.0461 1.16588 13.4507 1.03103C13.5855 0.986079 13.6305 0.851225 13.5855 0.761322C13.4956 0.626469 13.3608 0.536566 13.2709 0.581517ZM12.0572 3.68315C12.237 3.5483 12.5516 3.41345 12.8663 3.50335C13.091 3.5483 13.3608 3.68315 13.5406 3.90791C13.8103 4.08771 13.9451 4.35742 13.9901 4.62713V4.76198C14.1699 5.97567 14.3047 7.1444 15.024 8.22323C15.2487 8.53789 15.923 9.43691 16.5523 10.1112C16.6422 10.2011 16.7771 10.3359 16.867 10.4258C16.4624 10.3809 15.923 10.3359 15.3386 10.1112C14.7542 9.88642 13.6305 9.43691 12.7764 8.53789C12.4617 8.22323 12.237 7.90857 12.0572 7.59391C11.6526 6.78479 11.1581 5.70596 11.3379 4.80693C11.3829 4.35742 11.6976 3.90791 12.0572 3.68315ZM12.0122 3.18869C12.192 2.87403 12.5067 2.60432 12.7314 2.64927C13.0011 2.69423 13.2259 2.91898 13.4057 3.18869C13.2709 3.09879 13.136 3.05384 12.9562 3.00888C12.6415 3.00888 12.3269 3.05384 12.0122 3.18869Z" fill="url(#paint5_linear_1_2720)"/>
<path d="M12.731 3.90792C12.8209 3.99782 12.7759 4.13268 12.686 4.22258C11.6072 5.0317 12.4163 6.15548 12.4613 6.20043C12.5512 6.29034 12.5062 6.42519 12.4163 6.51509C12.3264 6.56004 12.1916 6.56004 12.1466 6.51509C12.1466 6.51509 12.1466 6.51509 12.1466 6.47014C12.1466 6.47014 11.8769 6.11053 11.787 5.57112C11.6971 5.07665 11.742 4.40238 12.4613 3.86297C12.5062 3.77307 12.6411 3.81802 12.731 3.90792Z" fill="url(#paint6_linear_1_2720)"/>
<path d="M17.7661 5.34641C17.7661 5.30146 17.7212 5.25651 17.6762 5.25651C17.6762 5.25651 17.6313 5.25651 17.6313 5.30146H16.8671C17.0469 5.1666 17.0918 5.0767 17.1818 5.03175C17.2267 4.9868 17.3166 4.94185 17.4065 4.85194C17.4515 4.8969 17.4964 4.94185 17.4964 5.03175C17.4964 5.0767 17.5414 5.0767 17.5863 5.0767H17.6313C17.6762 5.0767 17.6762 4.9868 17.6762 4.94185C17.4515 4.53729 17.0918 4.26758 16.6423 4.26758C16.013 4.26758 15.5186 4.76204 15.5186 5.39136C15.5186 6.02068 16.013 6.51514 16.6423 6.51514C17.2717 6.51514 17.7661 6.02068 17.7661 5.39136V5.34641ZM16.7322 4.49233C16.912 4.49233 17.0918 4.58224 17.2717 4.71709C17.1818 4.80699 17.1368 4.85194 17.0918 4.8969C17.0019 4.94185 16.957 5.03175 16.7772 5.1666L16.7322 4.49233ZM16.5524 4.49233V5.1666C16.3277 4.9868 16.1479 4.80699 16.058 4.71709C16.1928 4.58224 16.3726 4.49233 16.5524 4.49233ZM15.9231 4.85194C16.013 4.94185 16.1928 5.0767 16.4176 5.30146H16.3726C16.058 5.30146 15.8332 5.30146 15.7433 5.30146C15.7433 5.12165 15.7883 4.94185 15.9231 4.85194ZM15.6984 5.48126C15.7883 5.48126 16.058 5.48126 16.3726 5.48126L15.8332 5.93077C15.7883 5.79592 15.6984 5.61612 15.6984 5.48126ZM16.5524 5.57116V6.33534C16.3277 6.33534 16.1479 6.20048 15.9681 6.06563L16.5524 5.57116ZM16.6873 5.52621H16.6423C16.5974 5.52621 16.5974 5.52621 16.5524 5.57116C16.5524 5.52621 16.5524 5.52621 16.5075 5.52621L16.4625 5.48126V5.43631C16.4625 5.39136 16.4625 5.39136 16.4176 5.34641C16.4176 5.34641 16.4625 5.34641 16.4625 5.30146C16.4625 5.30146 16.4625 5.25651 16.5075 5.25651C16.5524 5.30146 16.5974 5.30146 16.6423 5.25651V5.30146C16.6423 5.30146 16.6873 5.30146 16.6873 5.34641V5.39136V5.43631C16.6873 5.43631 16.6423 5.43631 16.6423 5.48126C16.6873 5.48126 16.6873 5.48126 16.6873 5.52621ZM16.7322 6.33534V5.57116C17.0019 5.79592 17.2267 6.02068 17.3166 6.06563C17.1368 6.24543 16.957 6.33534 16.7322 6.33534ZM17.4065 5.93077C17.3616 5.88582 17.1368 5.66107 16.8671 5.43631H17.5863C17.5863 5.61612 17.4964 5.79592 17.4065 5.93077Z" fill="url(#paint7_linear_1_2720)"/>
<path d="M16.6425 3.99805C15.8334 3.99805 15.2041 4.62736 15.2041 5.43649C15.2041 6.24561 15.8334 6.87493 16.6425 6.87493C17.4517 6.87493 18.081 6.24561 18.081 5.43649C18.081 4.62736 17.4517 3.99805 16.6425 3.99805ZM16.6425 6.69512C15.9683 6.69512 15.3839 6.11076 15.3839 5.43649C15.3839 4.71727 15.9683 4.17785 16.6425 4.17785C17.3168 4.17785 17.9012 4.76222 17.9012 5.43649C17.9012 6.11076 17.3168 6.69512 16.6425 6.69512Z" fill="url(#paint8_linear_1_2720)"/>
<path d="M9.99029 9.21211C10.215 9.21211 10.3949 9.12221 10.4848 8.98736C10.6196 8.80755 10.6196 8.5828 10.6196 8.49289C10.6196 8.35804 10.5297 8.26814 10.4398 8.13328C10.3949 8.04338 10.305 7.95348 10.305 7.86358C10.305 7.81862 10.305 7.77367 10.26 7.68377C10.26 7.54892 10.1251 7.41406 9.94534 7.41406C9.90039 7.41406 9.90039 7.45901 9.90039 7.45901C9.90039 7.50397 9.94534 7.50396 9.94534 7.50396C10.1251 7.50396 10.1701 7.63882 10.1701 7.68377C10.1701 7.72872 10.1701 7.81862 10.215 7.86358C10.26 7.95348 10.305 8.08833 10.3499 8.17823C10.4398 8.26814 10.4848 8.40299 10.4848 8.49289C10.4848 8.5828 10.5297 8.7626 10.3949 8.94241C10.305 9.07726 10.1701 9.12221 9.94534 9.12221C9.90039 9.12221 9.90039 9.16716 9.90039 9.16716C9.94534 9.16716 9.94534 9.21211 9.99029 9.21211Z" fill="url(#paint9_linear_1_2720)"/>
<path d="M9.94529 9.21257C9.99025 9.21257 9.99025 9.16762 9.99025 9.16762C9.99025 9.12267 9.94529 9.12267 9.94529 9.12267C9.72054 9.12267 9.58568 9.07772 9.49578 8.94286C9.40588 8.80801 9.36093 8.62821 9.40588 8.49335C9.40588 8.40345 9.49578 8.31355 9.54073 8.2686C9.58568 8.22364 9.63063 8.17869 9.63063 8.08879C9.67559 7.99889 9.72054 7.90899 9.72054 7.81908V7.77413C9.72054 7.63928 9.76549 7.54938 9.90034 7.54938C9.94529 7.54938 9.94529 7.50442 9.94529 7.50442C9.94529 7.45947 9.90034 7.45947 9.90034 7.45947C9.63064 7.45947 9.63063 7.68423 9.58568 7.77413V7.81908C9.58568 7.90899 9.54073 7.99889 9.49578 8.04384C9.45083 8.08879 9.45083 8.13374 9.40588 8.17869C9.36093 8.26859 9.27103 8.3585 9.27103 8.4484C9.22607 8.58325 9.22607 8.80801 9.36093 8.98782C9.49578 9.07772 9.67559 9.21257 9.94529 9.21257Z" fill="url(#paint10_linear_1_2720)"/>
<path d="M9.31558 7.72889C9.36053 7.72889 9.45043 7.72889 9.49538 7.72889C9.54033 7.72889 9.54033 7.68393 9.54033 7.68393C9.54033 7.63898 9.49538 7.63898 9.49538 7.63898C9.40548 7.63898 9.27062 7.63898 9.18072 7.63898C9.22567 7.50413 9.31558 7.23442 9.67519 7.18947C9.72014 7.18947 9.76509 7.18947 9.85499 7.18947C9.85499 7.18947 9.85499 7.18947 9.89994 7.18947H9.94489C9.94489 7.23442 9.94489 7.23442 9.94489 7.27937C9.94489 7.32432 9.94489 7.32432 9.98985 7.32432C10.0348 7.32432 10.0348 7.32432 10.0348 7.27937C10.0348 7.23442 10.0348 7.23442 10.0348 7.18947V7.14452C10.0348 7.09957 10.0348 7.09957 9.98985 7.09957H9.94489H9.89994C9.89994 7.09957 9.89994 7.09957 9.85499 7.09957C9.81004 7.09957 9.72014 7.05462 9.67519 7.09957C9.22567 7.14452 9.13577 7.54908 9.09082 7.63898V7.68393V7.72889C9.09082 7.72889 9.09082 7.77384 9.13577 7.77384C9.18072 7.72889 9.27063 7.72889 9.31558 7.72889Z" fill="url(#paint11_linear_1_2720)"/>
<path d="M9.58499 7.4143C9.8547 7.18954 10.2593 7.14459 10.3042 7.14459C10.3492 7.14459 10.3492 7.14459 10.3492 7.09964C10.3492 7.05469 10.3492 7.05469 10.3042 7.05469C10.2593 7.05469 9.80975 7.09964 9.54004 7.3244C9.54004 7.3244 9.54004 7.36935 9.58499 7.4143Z" fill="url(#paint12_linear_1_2720)"/>
<path d="M9.99032 9.03234L10.1252 8.94244C10.1252 8.94244 10.1252 8.89749 10.1252 8.85254C10.1252 8.85254 10.0802 8.85254 10.0353 8.85254L9.99032 8.89749L9.94537 8.85254C9.94537 8.85254 9.90042 8.85254 9.85547 8.85254C9.85547 8.85254 9.85547 8.89749 9.85547 8.94244L9.99032 9.03234C9.94537 9.03234 9.94537 9.03234 9.99032 9.03234Z" fill="url(#paint13_linear_1_2720)"/>
<path d="M9.71976 8.22329C9.71976 8.22329 9.76471 8.22329 9.76471 8.17834C9.80966 8.13339 9.80966 8.08844 9.80966 8.04349C9.80966 7.99854 9.80966 7.99854 9.76471 7.99854C9.71976 7.99854 9.71976 7.99854 9.71976 8.04349C9.71976 8.08844 9.71976 8.13339 9.6748 8.17834C9.6748 8.17834 9.6748 8.17834 9.71976 8.22329Z" fill="url(#paint14_linear_1_2720)"/>
<path d="M9.62994 8.85246C9.67489 8.80751 9.67489 8.80751 9.67489 8.76256C9.67489 8.76256 9.67489 8.71761 9.62994 8.71761C9.58499 8.62771 9.58499 8.58275 9.62994 8.49285C9.62994 8.4479 9.67489 8.40295 9.71984 8.31305C9.71984 8.2681 9.71984 8.2681 9.71984 8.22314C9.67489 8.22314 9.67489 8.22314 9.62994 8.22314C9.58499 8.31305 9.58499 8.358 9.54004 8.40295C9.54004 8.49285 9.54004 8.58275 9.58499 8.67266C9.58499 8.76256 9.58499 8.80751 9.62994 8.85246Z" fill="url(#paint15_linear_1_2720)"/>
<path d="M10.0802 9.07772C10.0802 9.07772 10.1251 9.07772 10.1251 9.03277C10.1251 8.98782 10.1251 8.98782 10.0802 8.98782L9.99026 8.94287C9.94531 8.94287 9.94531 8.94287 9.94531 8.98782C9.94531 9.03277 9.94531 9.03277 9.99026 9.03277L10.0802 9.07772Z" fill="url(#paint16_linear_1_2720)"/>
<path d="M9.85494 9.07772L9.98979 9.03277C10.0347 9.03277 10.0347 8.98782 10.0347 8.98782C10.0347 8.94287 9.98979 8.94287 9.98979 8.94287L9.89989 8.98782C9.85494 8.98782 9.85494 9.03277 9.85494 9.03277C9.80999 9.03277 9.85494 9.07772 9.85494 9.07772Z" fill="url(#paint17_linear_1_2720)"/>
<path d="M5.98874 16.6739C5.89884 16.629 5.80894 16.5391 5.71903 16.4941C5.22457 16.1794 4.6402 15.7749 4.68515 15.2804C4.68515 15.1456 4.59525 15.0557 4.50535 15.0557C4.37049 15.0557 4.28059 15.1456 4.28059 15.2355C4.23564 15.9547 4.95486 16.4492 5.49428 16.8088C5.58418 16.8537 5.67408 16.9436 5.76398 16.9886C6.43825 17.483 6.70796 18.5169 6.3034 19.1912C5.98874 19.7755 5.40437 20.4498 4.10079 20.4948H3.87603L4.05584 20.3599C4.14574 20.27 4.28059 20.1801 4.37049 20.1352C4.50535 20.0453 4.59525 20.0003 4.6402 19.9553C5.04476 19.5508 5.53923 18.6518 4.41545 16.9886C4.41545 16.9886 4.37049 16.8987 4.32554 16.8537C4.28059 16.8088 4.28059 16.7638 4.28059 16.7638C4.23564 16.6739 4.10079 16.629 4.01088 16.7189C3.96593 16.7638 3.92098 16.8088 3.92098 16.8537C3.92098 16.8987 3.92098 16.9436 3.96593 16.9886C3.96593 16.9886 4.01088 17.0335 4.01088 17.0785C4.05584 17.1684 4.05584 17.1684 4.10079 17.2133C4.82001 18.2472 4.90991 19.1462 4.41545 19.6407C4.37049 19.6856 4.32554 19.7306 4.19069 19.7755C3.87603 20.0003 3.60632 20.1801 3.51642 20.4049V20.4498H3.47147H3.42652H3.33662V20.4049C3.24671 20.1352 2.97701 19.9554 2.84215 19.8654C2.75225 19.8205 2.75225 19.7755 2.7073 19.7755L2.66235 19.7306C2.39264 19.4159 2.03303 18.9664 2.39264 18.3821C2.25779 18.3821 2.25779 18.3371 2.25779 18.2922C2.25779 18.2472 2.21283 18.2023 2.16788 18.1573C2.07798 18.1123 1.94313 18.1123 1.89818 18.2472C1.53857 18.8316 1.62847 19.4609 2.21283 20.0902H2.25779C2.30274 20.1352 2.34769 20.1801 2.43759 20.27C2.48254 20.315 2.57244 20.3599 2.6174 20.4049L2.75225 20.5397L2.52749 20.4948C1.40371 20.3599 0.774394 19.5058 0.594589 19.1013C0.190028 18.3821 0.459736 17.3931 1.134 16.8987C1.17896 16.8537 1.26886 16.8088 1.31381 16.7638C1.35876 16.7189 1.40371 16.6739 1.40371 16.629C1.40371 16.584 1.40371 16.5391 1.35876 16.4941C1.31381 16.4042 1.17896 16.3592 1.08905 16.4492C1.0441 16.4941 0.954199 16.5391 0.909248 16.584C0.0551742 17.2133 -0.259485 18.427 0.234979 19.326C0.459736 19.6856 1.26886 20.9443 2.8871 20.9443H2.93205C2.97701 20.9443 3.02196 20.9443 3.06691 20.9443C3.15681 20.9443 3.20176 20.9443 3.29166 20.9443H3.33662C3.33662 20.9443 3.33662 20.9443 3.38157 20.9443C3.56137 20.9443 3.69623 20.9892 3.87603 20.9892C5.13467 20.9892 5.98874 20.4948 6.57311 19.4609C7.11252 18.5619 6.84281 17.3032 5.98874 16.6739Z" fill="url(#paint18_linear_1_2720)"/>
<path d="M1.80785 16.2244C1.89775 16.3143 2.0326 16.3143 2.12251 16.2244C2.48212 15.8648 2.66192 15.5502 2.61697 15.1905C2.61697 15.1006 2.52707 15.0107 2.39221 15.0107C2.34726 15.0107 2.30231 15.0557 2.25736 15.1006C2.21241 15.1456 2.21241 15.1905 2.21241 15.2355C2.21241 15.4603 2.12251 15.685 1.8528 15.9547C1.7629 15.9997 1.7629 16.1345 1.80785 16.2244Z" fill="url(#paint19_linear_1_2720)"/>
<path d="M2.97712 17.0334C3.02207 16.9435 3.02207 16.8087 2.93217 16.7637C2.88722 16.7637 2.84226 16.7188 2.79731 16.7188C2.70741 16.7188 2.66246 16.7637 2.61751 16.8087C2.57256 16.8986 2.52761 16.9435 2.48265 17.0334C2.39275 17.1683 2.30285 17.3031 2.21295 17.4829C2.168 17.5728 2.21295 17.7077 2.30285 17.7526C2.39275 17.7976 2.52761 17.7526 2.57256 17.6627C2.61751 17.5279 2.70741 17.393 2.79731 17.3031C2.88722 17.2132 2.93217 17.1233 2.97712 17.0334Z" fill="url(#paint20_linear_1_2720)"/>
<path d="M4.64011 21.2139C4.59516 21.169 4.55021 21.124 4.46031 21.124C4.41536 21.124 4.37041 21.124 4.32545 21.169C4.23555 21.2589 4.23555 21.3488 4.2805 21.4387L4.50526 21.7084C4.59516 21.7983 4.73002 21.7983 4.77497 21.7533C4.81992 21.7084 4.86487 21.6634 4.86487 21.6185C4.86487 21.5735 4.86487 21.5286 4.81992 21.4836L4.64011 21.2139Z" fill="url(#paint21_linear_1_2720)"/>
<path d="M3.15723 21.3941V21.7537C3.15723 21.8886 3.24713 21.9785 3.38198 21.9785C3.42693 21.9785 3.47189 21.9785 3.51684 21.9335C3.56179 21.8886 3.60674 21.7987 3.60674 21.7537V21.4391C3.60674 21.3042 3.51684 21.2593 3.38198 21.2593C3.29208 21.2593 3.24713 21.2593 3.20218 21.3042C3.20218 21.3492 3.15723 21.3492 3.15723 21.3941Z" fill="url(#paint22_linear_1_2720)"/>
<path d="M1.85352 21.6634C1.85352 21.7084 1.85352 21.7533 1.89847 21.7983C1.98837 21.8882 2.12322 21.8882 2.21313 21.7983L2.48283 21.5286C2.57274 21.4387 2.57274 21.3038 2.48283 21.2139C2.43788 21.1689 2.39293 21.1689 2.34798 21.1689C2.30303 21.1689 2.25808 21.1689 2.21313 21.2139L1.94342 21.4836C1.85352 21.5286 1.85352 21.5735 1.85352 21.6634Z" fill="url(#paint23_linear_1_2720)"/>
<path d="M3.47153 8.17822C3.38163 8.17822 3.33668 8.22317 3.29173 8.26813C2.43765 9.61666 2.2129 12.4935 3.29173 15.0108C3.33668 15.1007 3.38163 15.1457 3.47153 15.1457C3.56143 15.1457 3.60638 15.0558 3.65134 15.0108C4.19075 13.8421 4.41551 12.8532 4.41551 11.6844C4.46046 10.5606 4.19075 9.43686 3.60638 8.26813C3.65134 8.22317 3.56143 8.17822 3.47153 8.17822ZM4.0559 11.6844C4.01095 12.5834 3.87609 13.3476 3.56143 14.1567L3.51648 14.3365L3.47153 14.1567C2.79726 12.1789 2.97707 10.1111 3.42658 8.98735L3.47153 8.85249L3.51648 8.98735C3.92104 9.88637 4.10085 10.7404 4.0559 11.6844Z" fill="url(#paint24_linear_1_2720)"/>
<path d="M2.34815 13.2579C1.98854 12.2689 1.44912 10.9654 1.98854 9.70672C2.03349 9.61682 1.98854 9.48196 1.89864 9.43701C1.85368 9.43701 1.85368 9.43701 1.80873 9.43701C1.71883 9.43701 1.62893 9.48196 1.62893 9.57187C1.04456 10.9654 1.62893 12.4487 1.98854 13.3927C2.16834 13.8422 2.3032 14.1569 2.25825 14.2917C2.21329 14.4266 2.25825 14.5165 2.34815 14.5615C2.43805 14.6064 2.57291 14.5615 2.61786 14.4715C2.70776 14.2018 2.5729 13.8422 2.34815 13.2579Z" fill="url(#paint25_linear_1_2720)"/>
<path d="M5.35986 9.61679C5.31491 9.52689 5.26996 9.48193 5.18006 9.48193C5.13511 9.48193 5.13511 9.48193 5.09015 9.48193C5.00025 9.52688 4.9553 9.66174 5.00025 9.75164C5.53967 11.0103 5.00025 12.3139 4.64064 13.3028C4.41589 13.8872 4.28103 14.2468 4.37093 14.5165C4.41588 14.6064 4.55074 14.6963 4.64064 14.6513C4.68559 14.6513 4.73054 14.6064 4.7755 14.5165C4.7755 14.4715 4.7755 14.4266 4.7755 14.3816C4.73054 14.2468 4.8654 13.9321 5.0452 13.4826C5.35986 12.4487 5.94423 11.0103 5.35986 9.61679Z" fill="url(#paint26_linear_1_2720)"/>
<path d="M14.215 23.1922L12.0573 22.1583C12.0123 22.1583 12.0123 22.1133 11.9674 22.1133C11.8775 22.0684 11.7426 21.9785 11.6527 22.0234C11.5628 22.0234 11.5179 22.1583 11.5179 22.1583C11.4729 22.3381 11.6527 22.428 11.7426 22.4729L12.8215 23.0124C12.372 23.6866 11.8325 24.1361 11.2032 24.3609C10.3491 24.6306 9.54002 24.4059 9.13546 24.271C8.41624 23.8664 7.96673 23.2371 7.87683 22.3381C7.78693 21.6638 7.92178 20.9896 8.05663 20.6749L10.7088 21.9785L10.7537 22.0234C10.7987 22.0684 10.8886 22.1133 10.9785 22.1133C11.0234 22.1133 11.0684 22.1133 11.0684 22.1133C11.1133 22.1133 11.2032 22.0684 11.2482 21.9785C11.3381 21.7987 11.1133 21.7088 11.0234 21.6638C11.0234 21.6638 10.9785 21.6638 10.9785 21.6189L7.29246 19.8208C7.24751 19.7759 7.20256 19.7759 7.11266 19.8208C7.06771 19.8208 7.02275 19.9107 6.9778 19.9557C6.9778 20.0006 6.57324 20.9896 6.57324 22.1583C6.57324 22.8775 6.7081 23.5068 6.9778 24.0013C7.29246 24.6756 7.83188 25.215 8.59605 25.5296C9.58498 26.0241 10.6189 26.114 11.6078 25.7993C13.3159 25.215 14.3049 23.5967 14.3498 23.5068C14.3948 23.4619 14.3948 23.372 14.3498 23.327C14.3049 23.2371 14.2599 23.1922 14.215 23.1922ZM8.95566 24.6306C9.71983 24.9453 10.484 24.9902 11.1583 24.8104C11.9674 24.5857 12.6417 24.0462 13.226 23.2371L13.8104 23.5068C13.4957 23.9114 12.6417 24.9902 11.428 25.3948C10.5739 25.6645 9.67488 25.6195 8.77585 25.17C7.60712 24.5857 7.02275 23.5967 7.02275 22.1583C7.02275 21.3941 7.20256 20.6749 7.29246 20.3602L7.65207 20.54C7.51722 20.8547 7.33741 21.6189 7.42732 22.428C7.56217 23.372 8.10158 24.1811 8.95566 24.6306Z" fill="url(#paint27_linear_1_2720)"/>
<path d="M11.293 22.9675C11.248 23.0124 11.248 23.1023 11.248 23.1473C11.248 23.1922 11.293 23.2821 11.3379 23.2821L11.7425 23.5069C11.7875 23.5519 11.8774 23.5519 11.9673 23.5519C12.0122 23.5519 12.0572 23.5069 12.1021 23.462C12.1471 23.417 12.1471 23.3271 12.1471 23.2821C12.1471 23.2372 12.1021 23.1473 12.0572 23.1473L11.6526 22.9225C11.5178 22.8326 11.3379 22.8776 11.293 22.9675Z" fill="url(#paint28_linear_1_2720)"/>
<path d="M10.2588 23.5519L10.3037 24.0014C10.3037 24.0464 10.3487 24.1363 10.3936 24.1813C10.4386 24.2262 10.5285 24.2262 10.5734 24.2262H10.6184C10.7083 24.1813 10.7982 24.0913 10.7982 23.9565L10.7533 23.507C10.7533 23.3721 10.6184 23.2822 10.4835 23.2822C10.3487 23.3272 10.2588 23.4171 10.2588 23.5519Z" fill="url(#paint29_linear_1_2720)"/>
<path d="M9.36056 23.9561C9.40551 23.9561 9.45046 23.9112 9.49541 23.8662L9.72017 23.4617C9.81007 23.3268 9.76512 23.192 9.63026 23.147C9.54036 23.1021 9.36056 23.1021 9.31561 23.2369L9.09085 23.6415C9.0459 23.6864 9.0459 23.7763 9.0459 23.8213C9.0459 23.8662 9.09085 23.9561 9.1358 23.9561C9.2257 24.0011 9.31561 24.0011 9.36056 23.9561Z" fill="url(#paint30_linear_1_2720)"/>
<path d="M8.23657 22.8323C8.23657 22.8773 8.28152 22.9222 8.37142 22.9672C8.41637 23.0122 8.50627 23.0122 8.55122 22.9672L8.95579 22.8323C9.09064 22.7874 9.13559 22.6525 9.09064 22.5177C9.09064 22.4727 9.04569 22.4278 8.95579 22.3828C8.91083 22.3379 8.82093 22.3379 8.77598 22.3828L8.37142 22.5177C8.28152 22.5626 8.19161 22.6975 8.23657 22.8323Z" fill="url(#paint31_linear_1_2720)"/>
<path d="M8.8212 21.8888C8.9111 21.8439 8.95605 21.7989 8.95605 21.754C9.00101 21.6191 8.95605 21.4843 8.8212 21.4393L8.46159 21.3045C8.32674 21.2595 8.19188 21.3045 8.14693 21.4393C8.10198 21.4843 8.14693 21.5742 8.14693 21.6191C8.19188 21.6641 8.23683 21.709 8.28178 21.754L8.6414 21.8888C8.7313 21.9338 8.77625 21.9338 8.8212 21.8888Z" fill="url(#paint32_linear_1_2720)"/>
<path d="M19.5192 23.0569C19.5192 23.0569 18.4403 23.3266 17.3166 22.6973C17.2716 22.6973 17.2716 22.6973 17.2267 22.6973C17.1817 22.6973 17.1817 22.7422 17.1817 22.7422C17.1368 22.7872 17.1817 22.8771 17.2267 22.922C18.4403 23.5963 19.5641 23.3266 19.6091 23.3266C19.654 23.3266 19.699 23.2367 19.699 23.1917C19.654 23.0569 19.5641 23.0569 19.5192 23.0569Z" fill="url(#paint33_linear_1_2720)"/>
<path d="M16.867 22.7423C17.3165 22.6074 17.4963 21.9781 17.2716 21.3937C17.0918 20.8094 16.5524 20.4048 16.1478 20.5846C15.6983 20.7195 15.5185 21.3488 15.7432 21.9331C15.923 22.5175 16.4175 22.8771 16.867 22.7423ZM16.013 21.0791C16.013 21.0341 16.1029 20.9442 16.1928 20.9442C16.2827 20.8993 16.3276 20.8993 16.3276 20.9442C16.3726 20.9442 16.3726 20.9892 16.3726 20.9892C16.3726 21.0341 16.3276 21.124 16.2827 21.124H16.2377C16.1478 21.169 16.0579 21.169 16.013 21.124C16.0579 21.169 16.013 21.124 16.013 21.0791ZM15.8781 21.3038C15.8781 21.3488 15.923 21.3488 15.8781 21.3038C16.0579 21.4387 16.2377 21.3937 16.3726 21.3488C16.4175 21.3488 16.4175 21.3038 16.4625 21.3038C16.5973 21.2139 16.6872 21.0791 16.6423 20.9442C16.6423 20.8993 16.6423 20.8993 16.6423 20.8543C16.8221 20.9892 16.9569 21.169 17.0468 21.4387C17.1817 21.8882 17.0918 22.3827 16.7771 22.4726C16.4625 22.5625 16.1029 22.2478 15.9231 21.7983C15.8781 21.6634 15.8781 21.4836 15.8781 21.3038Z" fill="url(#paint34_linear_1_2720)"/>
<path d="M18.9802 20.944C18.9802 20.8991 18.9802 20.8991 18.9352 20.8541L18.8903 20.8092C18.8004 20.7193 18.6655 20.6743 18.5306 20.6743C18.4407 20.6743 18.3508 20.6743 18.2609 20.7193C17.9013 20.8541 17.6316 21.2587 17.5867 21.7082C17.4968 22.3375 17.8114 22.8769 18.2609 22.9668C18.3508 22.9668 18.4407 22.9668 18.5306 22.9219C18.8903 22.787 19.16 22.3825 19.2049 21.9329C19.2499 21.6183 19.2049 21.3486 19.0701 21.1238C19.0701 21.0789 19.0251 20.989 18.9802 20.944ZM18.4857 20.944C18.5306 20.944 18.6205 20.989 18.6655 20.989C18.6205 21.0339 18.5756 21.0789 18.4857 21.1238C18.3508 21.1688 18.216 21.1688 18.0811 21.0789C18.1261 21.0339 18.216 20.989 18.3059 20.944C18.3958 20.944 18.4407 20.944 18.4857 20.944ZM18.9802 21.888C18.9352 22.2926 18.7104 22.6072 18.4407 22.6971C18.3958 22.6971 18.3059 22.7421 18.2609 22.6971C17.9463 22.6522 17.7215 22.2027 17.8114 21.7082C17.8114 21.5284 17.9013 21.3486 17.9912 21.2137C18.171 21.3486 18.3958 21.3935 18.6205 21.3036C18.7104 21.2587 18.8004 21.2137 18.8453 21.1238C18.8453 21.1238 18.8453 21.1688 18.8903 21.1688C18.9802 21.3935 19.0251 21.6632 18.9802 21.888Z" fill="url(#paint35_linear_1_2720)"/>
<path d="M18.6204 23.4614C18.6204 23.4614 18.3058 23.4614 17.9012 23.5963C17.6315 23.6862 17.4067 23.821 17.2269 24.0008C16.6426 24.5403 16.6426 25.0347 16.6426 25.0347C16.6426 25.0797 16.6875 25.1696 16.7774 25.1696C16.7774 25.1696 17.0022 25.1696 17.3168 25.0797C17.5866 24.9898 17.8113 24.8549 18.0361 24.7201C18.6654 24.2705 18.8002 23.6862 18.8002 23.6862C18.8002 23.6412 18.8002 23.5963 18.8002 23.5963C18.6654 23.5064 18.6654 23.4614 18.6204 23.4614ZM17.8113 24.4953C17.6315 24.6302 17.4067 24.765 17.182 24.81C17.0471 24.8549 16.9572 24.8549 16.8673 24.8999C16.9123 24.765 17.0022 24.4504 17.3618 24.1806C17.5416 24.0458 17.7214 23.9109 17.9462 23.821C18.126 23.7761 18.3058 23.7311 18.3957 23.7311C18.3507 23.9109 18.1709 24.2256 17.8113 24.4953Z" fill="url(#paint36_linear_1_2720)"/>
<path d="M17.0023 23.7763C17.4068 23.6414 17.5866 23.4616 17.6316 23.4616C17.6765 23.4167 17.6765 23.4167 17.6765 23.3717C17.6765 23.3268 17.6765 23.2818 17.6316 23.2818C17.5866 23.2818 16.9573 22.7874 16.1932 22.9222C16.0583 22.9222 15.9234 22.9672 15.7886 23.0121C15.2941 23.1919 15.1143 23.4616 15.1143 23.4616C15.0694 23.5066 15.1143 23.5965 15.1593 23.6414C15.1593 23.6414 15.6987 24.0011 16.4629 23.9561C16.5977 23.9112 16.8225 23.8662 17.0023 23.7763ZM15.8335 23.2369C15.9234 23.1919 16.0583 23.1919 16.1932 23.147C16.6876 23.102 17.0922 23.2818 17.3169 23.3717C17.227 23.4167 17.0922 23.5066 16.9124 23.5515C16.7326 23.5965 16.5528 23.6414 16.373 23.6414C15.9234 23.6864 15.5189 23.5515 15.384 23.4616C15.4739 23.4167 15.6088 23.2818 15.8335 23.2369Z" fill="url(#paint37_linear_1_2720)"/>
<path d="M16.643 22.3828C16.6879 22.3828 16.7329 22.2929 16.7329 22.2479C16.7329 22.203 16.643 22.158 16.598 22.158C16.5531 22.158 16.5081 22.1131 16.4182 22.0232C16.3283 21.9333 16.3283 21.8434 16.3283 21.7984C16.3283 21.7535 16.2833 21.6636 16.2384 21.6636H16.1934C16.1485 21.6636 16.1035 21.7085 16.1035 21.7535C16.0586 21.9333 16.1934 22.158 16.3283 22.2929C16.4632 22.3828 16.5531 22.4277 16.643 22.3828Z" fill="url(#paint38_linear_1_2720)"/>
<path d="M18.216 21.5288C17.9913 21.7086 17.9463 22.0233 17.9913 22.293C18.0362 22.4728 18.1261 22.6076 18.216 22.6076C18.261 22.6076 18.3509 22.6076 18.3509 22.5177C18.3509 22.4728 18.3509 22.3829 18.261 22.3829C18.261 22.3829 18.216 22.293 18.1711 22.1581C18.1711 21.9783 18.1711 21.7985 18.261 21.7086C18.3059 21.6637 18.3059 21.5738 18.261 21.5288C18.3059 21.5288 18.261 21.5288 18.216 21.5288Z" fill="url(#paint39_linear_1_2720)"/>
<path d="M16.2374 8.17823L16.5521 8.35804C16.5521 8.49289 16.597 8.71765 16.6869 8.98736C16.7319 9.03231 16.7768 9.07726 16.8218 9.07726C16.8218 9.07726 16.8218 9.07726 16.8667 9.07726C16.9117 9.07726 16.9117 9.03231 16.9566 8.98736C16.9566 8.94241 16.9566 8.9424 16.9566 8.89745C16.8218 8.58279 16.8218 8.31309 16.8218 8.31309C16.8218 8.26814 16.7768 8.22318 16.7319 8.17823L16.5521 8.08833L16.7319 7.99843C16.7768 7.95348 16.8218 7.90853 16.7768 7.81862C16.8218 7.81862 16.8667 7.86357 16.9566 7.90853C16.9117 8.22318 16.9566 8.53784 17.0915 8.80755C17.3612 9.43687 17.9455 9.70658 18.5749 9.61667C18.7097 9.57172 18.8446 9.57172 18.9345 9.48182C19.2491 9.34697 19.4739 9.16716 19.6087 8.9424C19.6087 8.9424 19.6537 8.94241 19.6537 8.98736C19.6986 8.98736 19.6986 8.98736 19.7436 9.03231C19.6537 9.16716 19.4289 9.39192 19.2042 9.57172C19.0244 9.70658 18.7996 9.79648 18.5749 9.84143C18.2153 9.93133 17.8556 9.84143 17.496 9.61667C17.4061 9.57172 17.3162 9.48182 17.2263 9.39192C17.1814 9.34697 17.1364 9.34697 17.0915 9.34697C17.0465 9.34697 17.0465 9.34697 17.0465 9.39192C17.0016 9.43687 17.0016 9.52677 17.0465 9.57172C17.1364 9.66162 17.2713 9.75153 17.4061 9.84143C17.8556 10.0662 18.2602 10.1561 18.6648 10.0662C18.7996 10.0212 18.9345 9.97628 19.0693 9.93133C19.1592 9.88638 19.2491 9.84143 19.384 9.75153C19.8335 9.48182 20.0583 9.07726 20.1032 9.03231C20.1482 8.98736 20.1032 8.89745 20.0583 8.8525H20.0133C19.9684 8.8525 19.8335 8.80755 19.4739 8.62775C19.4289 8.62775 19.4289 8.62775 19.4289 8.58279L19.2042 8.49289C19.0693 8.44794 18.9345 8.40299 18.7547 8.31309C18.7097 8.26814 18.6198 8.26814 18.5299 8.26814C18.485 8.26814 18.44 8.26814 18.44 8.31309C18.3951 8.31309 18.3951 8.35804 18.3501 8.35804L18.3052 8.40299C18.3052 8.40299 18.3052 8.40299 18.2602 8.35804C18.2602 8.31309 18.2602 8.26814 18.2602 8.22318C18.2602 8.17823 18.2602 8.13328 18.2602 8.13328C18.2602 8.08833 18.2153 8.04338 18.1703 8.04338L17.8107 7.90853C17.7208 7.86357 17.6758 7.86358 17.6758 7.86358C17.5859 7.81862 17.496 7.77367 17.4061 7.77367C17.3162 7.72872 17.2263 7.68377 17.1364 7.63882C17.0016 7.59387 16.8667 7.54892 16.7319 7.45901C16.6869 7.45901 16.642 7.41406 16.642 7.41406C16.597 7.41406 16.5521 7.41406 16.5071 7.45901C16.4622 7.50397 16.4622 7.54892 16.4622 7.59387L16.5521 7.81862L16.2824 7.95348C16.2374 7.95348 16.1924 7.99843 16.1924 8.08833C16.1475 8.13328 16.1924 8.17823 16.2374 8.17823ZM18.0354 9.34697C18.1703 8.98736 18.2602 8.80755 18.3052 8.6727C18.3501 8.6727 18.3951 8.62775 18.44 8.58279L18.485 8.53784C18.485 8.53784 18.5299 8.53784 18.5749 8.53784L19.2491 8.80755H19.2941L19.384 8.8525C19.2491 9.03231 19.0693 9.16716 18.8446 9.25706C18.5749 9.39192 18.3052 9.39192 18.0354 9.34697ZM17.2263 7.99843H17.2713C17.3612 8.04338 17.4511 8.08833 17.541 8.13328C17.541 8.13328 17.6309 8.17823 17.7208 8.22318L17.9455 8.31309C17.9455 8.40299 17.9455 8.44794 17.9905 8.53784C17.9905 8.5828 18.0355 8.62775 18.0804 8.6727C18.0355 8.80755 17.9006 9.12221 17.8556 9.25706V9.30201C17.6309 9.16716 17.496 8.98736 17.3612 8.7626C17.2263 8.49289 17.1814 8.22318 17.2263 7.99843Z" fill="url(#paint40_linear_1_2720)"/>
<path d="M17.7208 8.71743C17.6758 8.67248 17.7208 8.58258 17.7657 8.53763C17.7657 8.53763 17.8107 8.53763 17.8107 8.49268C17.8556 8.49268 17.8556 8.49268 17.9006 8.49268C17.9006 8.49268 17.9455 8.49268 17.9455 8.53763C17.9905 8.58258 17.9905 8.67248 17.9455 8.71743L17.9006 8.76238C17.9006 8.76238 17.9006 8.76238 17.8556 8.76238C17.8107 8.76238 17.8107 8.76238 17.8107 8.76238C17.8107 8.76238 17.8107 8.76238 17.7657 8.76238C17.7208 8.71743 17.7208 8.71743 17.7208 8.71743Z" fill="url(#paint41_linear_1_2720)"/>
<path d="M17.586 8.85257C17.586 8.85257 17.6309 8.85257 17.6309 8.80762C17.6759 8.80762 17.6759 8.80762 17.7208 8.80762C17.7208 8.80762 17.7658 8.80762 17.7658 8.85257C17.8107 8.89752 17.8107 8.98742 17.7658 9.03237L17.7208 9.07732C17.7208 9.07732 17.7208 9.07732 17.6759 9.07732C17.6309 9.07732 17.6309 9.07732 17.6309 9.07732C17.6309 9.07732 17.6309 9.07732 17.586 9.07732C17.541 9.07732 17.541 9.03237 17.541 9.03237C17.541 8.98742 17.541 8.89752 17.586 8.85257Z" fill="url(#paint42_linear_1_2720)"/>
<path d="M17.6311 8.40298L17.5861 8.44793C17.5861 8.44793 17.5861 8.44793 17.5412 8.44793C17.4962 8.44793 17.4962 8.44793 17.4962 8.44793C17.4962 8.44793 17.4962 8.44793 17.4513 8.44793C17.4063 8.44793 17.4063 8.40298 17.4063 8.40298C17.3614 8.35803 17.4063 8.26813 17.4513 8.22317C17.4513 8.22317 17.4962 8.22317 17.4962 8.17822C17.5412 8.17822 17.5412 8.17822 17.5861 8.17822C17.5861 8.17822 17.6311 8.17822 17.6311 8.22317C17.676 8.26813 17.676 8.35803 17.6311 8.40298Z" fill="url(#paint43_linear_1_2720)"/>
<path d="M17.4058 8.53763C17.4058 8.53763 17.4507 8.53763 17.4507 8.49268C17.4957 8.49268 17.4957 8.49268 17.5406 8.49268C17.5406 8.49268 17.5856 8.49268 17.5856 8.53763C17.6305 8.58258 17.6305 8.67248 17.5856 8.71743L17.5406 8.76238C17.5406 8.76238 17.5406 8.76238 17.4957 8.76238C17.4507 8.76238 17.4507 8.76238 17.4507 8.76238C17.4507 8.76238 17.4507 8.76238 17.4058 8.76238C17.3608 8.76238 17.3608 8.71743 17.3608 8.71743C17.3608 8.67248 17.3158 8.67248 17.3608 8.62753C17.3608 8.58258 17.3608 8.53763 17.4058 8.53763Z" fill="url(#paint44_linear_1_2720)"/>
<path d="M18.3497 9.03223C18.3947 9.03223 18.3947 9.03223 18.3947 9.03223C18.4396 9.03223 18.4846 9.07718 18.4846 9.12213C18.5295 9.16708 18.4846 9.25698 18.4396 9.30193H18.3947C18.3947 9.30193 18.3947 9.30193 18.3497 9.30193C18.3048 9.30193 18.2598 9.25698 18.2598 9.16708C18.2149 9.07718 18.2598 9.03223 18.3497 9.03223Z" fill="url(#paint45_linear_1_2720)"/>
<path d="M18.6651 8.94238C18.71 8.94238 18.71 8.94238 18.71 8.94238C18.755 8.94238 18.8 8.98733 18.8 9.03228C18.8449 9.07724 18.8 9.16714 18.755 9.21209H18.71C18.71 9.21209 18.71 9.21209 18.6651 9.21209C18.6201 9.21209 18.5752 9.16714 18.5752 9.07724C18.5752 8.98733 18.6201 8.94238 18.6651 8.94238Z" fill="url(#paint46_linear_1_2720)"/>
<path d="M18.9796 8.7627C19.0245 8.7627 19.0245 8.7627 19.0245 8.7627C19.0695 8.7627 19.1144 8.80765 19.1144 8.8526C19.1594 8.89755 19.1144 8.98745 19.0245 9.0324H18.9796C18.9796 9.0324 18.9796 9.0324 18.9346 9.0324C18.8897 9.0324 18.8447 8.98745 18.8447 8.89755C18.8897 8.8526 18.9346 8.7627 18.9796 8.7627Z" fill="url(#paint47_linear_1_2720)"/>
<path d="M18.3506 8.8077C18.3506 8.76275 18.3955 8.67285 18.4405 8.67285C18.4854 8.67285 18.4854 8.67285 18.4854 8.67285C18.5304 8.67285 18.5753 8.67285 18.5753 8.76275C18.5753 8.80771 18.5753 8.89761 18.5304 8.94256H18.4854C18.4854 8.94256 18.4854 8.94256 18.4405 8.94256C18.3955 8.89761 18.3506 8.85266 18.3506 8.8077Z" fill="url(#paint48_linear_1_2720)"/>
<path d="M7.74142 13.1229C7.65152 13.0779 7.51667 13.0779 7.38181 13.0779H7.33686C7.38181 13.033 7.38181 12.988 7.33686 12.9431C7.24696 12.8532 7.11211 12.8082 7.0222 12.8082C6.97725 12.8082 6.88735 12.8082 6.8424 12.8532C6.79745 12.8532 6.79745 12.8981 6.79745 12.8981C6.7525 12.8082 6.7525 12.7633 6.66259 12.6734C6.61764 12.6284 6.52774 12.6284 6.48279 12.6734C6.43784 12.7183 6.43784 12.8082 6.48279 12.8532C6.48279 12.8532 6.52774 12.8981 6.52774 12.9431C6.48279 12.8981 6.39289 12.8981 6.34794 12.8981C6.21308 12.8981 6.07823 12.9431 5.98833 13.033C5.94337 13.0779 5.94337 13.1229 5.98833 13.1678C5.94337 13.1678 5.89842 13.1678 5.89842 13.1678C5.67367 13.1678 5.49386 13.3926 5.44891 13.5724C5.31406 14.1568 5.62872 14.9209 5.76357 15.1007C5.80852 15.1906 5.98832 15.3704 6.16813 15.4154C6.21308 15.4154 6.25803 15.4154 6.30298 15.3704C6.34794 15.4154 6.39289 15.4603 6.43784 15.5053C6.52774 15.5952 6.66259 15.5952 6.7525 15.5952C6.79745 15.5952 6.8424 15.5952 6.8424 15.5952C6.88735 15.5952 6.97725 15.5502 7.0222 15.5053C7.06716 15.5502 7.15706 15.5502 7.20201 15.5502C7.47172 15.5502 7.69647 15.2356 7.78637 15.1007C7.87628 14.9659 7.96618 14.831 8.01113 14.6962C8.10103 14.4265 8.19094 14.2467 8.19094 14.0669C8.19094 13.5274 8.05608 13.2577 7.74142 13.1229ZM6.16813 15.1457C6.07823 15.1457 5.94337 15.0108 5.89842 14.9659C5.76357 14.7411 5.49386 14.0669 5.58376 13.6173C5.62871 13.5274 5.71862 13.3926 5.85347 13.3926C5.98833 13.3926 6.07823 13.3926 6.16813 13.5274C5.98832 13.6623 5.98833 13.887 5.98833 14.0669C5.98833 14.1118 6.03328 14.2017 6.12318 14.2017C6.16813 14.2017 6.25803 14.1568 6.25803 14.0669C6.25803 13.932 6.25803 13.7971 6.34794 13.7072C6.43784 13.6173 6.52774 13.5724 6.66259 13.5274C6.97725 13.5274 7.15706 13.6173 7.20201 13.8421C7.20201 13.887 7.20201 13.932 7.20201 13.9769C7.20201 14.0219 7.20201 14.0219 7.20201 14.0669C7.20201 14.1118 7.24696 14.1118 7.24696 14.1568C7.29191 14.2017 7.38181 14.1568 7.42676 14.1118C7.47172 14.0219 7.47172 13.887 7.47172 13.8421C7.42677 13.6623 7.33686 13.5274 7.20201 13.4375C7.24696 13.3926 7.33686 13.3926 7.42676 13.3926C7.51667 13.3926 7.65152 13.3926 7.69647 13.4375C7.87628 13.5274 7.96618 13.7072 7.92123 14.0669C7.92123 14.2017 7.83133 14.3815 7.74142 14.6512C7.69647 14.7861 7.60657 14.9209 7.56162 15.0108C7.42676 15.1906 7.29191 15.3704 7.15706 15.3704C7.24696 15.2356 7.29191 15.1007 7.29191 14.9659C7.29191 14.9209 7.24696 14.831 7.20201 14.831C7.15706 14.831 7.06716 14.876 7.06716 14.9209C7.06716 15.0108 7.0222 15.1457 6.9323 15.2805C6.88735 15.3255 6.8424 15.3704 6.7525 15.4154C6.66259 15.4154 6.57269 15.4154 6.52774 15.3704C6.43784 15.2805 6.34794 15.0558 6.30298 14.876C6.30298 14.831 6.25803 14.7861 6.16813 14.7861C6.12318 14.7861 6.07823 14.876 6.07823 14.9209C6.07823 14.7861 6.07823 14.9659 6.16813 15.1457ZM6.88735 13.033H6.9323H6.97725C7.0222 13.033 7.11211 13.0779 7.11211 13.0779C7.0222 13.1229 6.9323 13.1678 6.8424 13.2577C6.79745 13.2577 6.79745 13.2577 6.7525 13.2577C6.7525 13.1678 6.7525 13.1229 6.7525 13.033C6.8424 13.033 6.88735 13.033 6.88735 13.033ZM6.61764 13.2577C6.52774 13.2577 6.43784 13.3027 6.39289 13.3476C6.34794 13.2577 6.25803 13.2128 6.16813 13.1678C6.21308 13.1229 6.25803 13.0779 6.34794 13.0779C6.39289 13.0779 6.39289 13.0779 6.43784 13.0779C6.48279 13.1229 6.57269 13.0779 6.61764 13.033C6.61764 13.033 6.61764 13.033 6.61764 12.988C6.61764 13.0779 6.61764 13.1678 6.61764 13.2577Z" fill="url(#paint49_linear_1_2720)"/>
<path d="M22.6659 20.1802C22.576 20.0453 22.3962 19.7307 21.7669 19.5059C21.632 19.461 21.4522 19.416 21.2724 19.416C21.0926 19.416 20.8678 19.416 20.688 19.5509C20.5981 19.5958 20.5082 19.6408 20.4633 19.6857C20.3284 19.8206 20.2385 20.0453 20.2385 20.2701C20.2385 20.4948 20.3734 20.7196 20.5981 20.7196H20.6431C20.733 20.7196 20.8678 20.6297 20.9128 20.5398C20.9128 20.4948 20.9128 20.4948 20.9128 20.4948H20.9577V20.5398C20.9577 20.5847 20.8229 20.6746 20.5981 20.7646C20.5532 20.7646 20.5532 20.8095 20.5082 20.8095C20.3734 20.8545 20.2385 20.9444 20.1486 21.0343C19.9688 21.2141 19.8789 21.4388 19.8789 21.7085C19.8789 21.8434 20.0138 22.1131 20.1486 22.203C20.3284 22.3378 20.5082 22.3828 20.688 22.3828C20.7779 22.3828 20.8678 22.3828 21.0027 22.3378C21.2724 22.2479 21.4072 21.9782 21.5421 21.7535C21.5871 21.6186 21.632 21.5287 21.677 21.3939C21.7219 21.304 21.7219 21.259 21.7669 21.259C21.7669 21.259 21.8118 21.259 21.8568 21.304C21.8118 21.304 21.8118 21.3489 21.7669 21.3939C21.677 21.5287 21.7219 21.7085 21.8118 21.7984C21.9017 21.9333 22.0815 21.9782 22.2164 21.9782C22.3512 21.9782 22.4861 21.9333 22.576 21.8434C23.0255 21.4388 22.9356 20.5847 22.6659 20.1802ZM22.3962 21.6186C22.3512 21.6636 22.2613 21.7085 22.2164 21.7085C22.1714 21.7085 22.0815 21.7085 22.0366 21.6186C22.0366 21.5737 21.9916 21.5737 22.0366 21.5737C22.0366 21.5737 22.0366 21.5737 22.0815 21.5737C22.1265 21.5287 22.2613 21.4838 22.1714 21.259C22.1265 21.1242 21.9916 21.0343 21.8118 21.0343H21.7669C21.632 21.0343 21.4522 21.1242 21.4072 21.3939C21.3623 21.5287 21.3623 21.6186 21.3173 21.7085C21.2274 21.9333 21.1375 22.0681 20.9577 22.158C20.7779 22.2479 20.5532 22.203 20.3734 22.0681C20.3284 22.0232 20.2385 21.8434 20.2385 21.7984C20.2385 21.6186 20.2835 21.4838 20.4183 21.3939C20.5082 21.3489 20.5981 21.259 20.733 21.2141C20.7779 21.2141 20.7779 21.1691 20.8229 21.1691C21.0027 21.0792 21.2724 20.9444 21.3623 20.7646C21.4072 20.6746 21.3623 20.5847 21.3173 20.4948C21.2724 20.4049 21.1375 20.36 21.0476 20.36C21.0027 20.36 20.9128 20.36 20.8678 20.4049C20.733 20.315 20.688 20.36 20.688 20.4049H20.6431H20.5981C20.5532 20.4049 20.5082 20.315 20.5082 20.2251C20.5082 20.0903 20.5532 19.9554 20.6431 19.8655C20.688 19.8206 20.733 19.7756 20.8229 19.7756C20.9577 19.7307 21.0926 19.6857 21.2724 19.6857C21.4072 19.6857 21.5421 19.6857 21.677 19.7307C22.1714 19.9105 22.3512 20.1352 22.3962 20.2701C22.6209 20.6297 22.7108 21.3489 22.3962 21.6186Z" fill="url(#paint50_linear_1_2720)"/>
<path d="M14.7996 25.1247C14.7996 25.0348 14.7547 24.9 14.6648 24.855C14.5749 24.7651 14.44 24.7651 14.3052 24.7651C13.9006 24.855 13.6309 25.3945 13.5859 25.7541C13.5859 25.8889 13.5859 26.1586 13.8556 26.5182C13.9006 26.5632 13.9455 26.6081 13.9905 26.6531C14.1703 26.7879 14.3501 26.8778 14.5299 26.9228C14.6198 26.9228 14.6648 26.9228 14.7097 26.9228C14.8895 26.8778 15.0244 26.7879 15.0693 26.6531C15.1592 26.5182 15.1592 26.3384 15.0244 26.2036C15.0244 26.2036 14.9794 26.2036 14.9794 26.1586H15.0244H15.0693C15.1592 26.1586 15.2941 26.2036 15.384 26.1586C15.5638 26.1137 15.7436 26.0238 15.8335 25.844C15.8785 25.7541 15.9234 25.5293 15.8785 25.4394C15.8335 25.3046 15.7436 25.2146 15.6537 25.1247C15.5638 25.0798 15.4739 25.0348 15.384 24.9899C15.1592 24.9449 14.9794 25.0348 14.7996 25.1697C14.7097 25.2146 14.6648 25.3046 14.5749 25.3495C14.5299 25.3945 14.5299 25.3945 14.485 25.3945H14.5299C14.7547 25.3945 14.7996 25.2596 14.7996 25.1247ZM14.485 25.6642C14.5749 25.7091 14.7097 25.7541 14.8895 25.5743C14.9345 25.5293 14.9794 25.4844 15.0693 25.4394C15.2042 25.3495 15.2941 25.3046 15.4289 25.3046C15.5638 25.3495 15.6537 25.4394 15.6986 25.5743C15.6986 25.6192 15.6986 25.7541 15.6986 25.799C15.6537 25.8889 15.5638 25.9788 15.4739 25.9788C15.4289 25.9788 15.339 25.9788 15.2491 25.9788C15.2042 25.9788 15.2042 25.9788 15.1592 25.9788C15.0244 25.9788 14.7996 25.9339 14.6648 26.0238C14.6198 26.0687 14.5749 26.1586 14.5749 26.2036C14.5749 26.2935 14.6198 26.3384 14.6648 26.4283C14.7097 26.4733 14.7547 26.4733 14.8446 26.4733C14.8895 26.4733 14.9345 26.4733 14.9794 26.4283C14.9794 26.4283 14.9794 26.4733 14.9794 26.5182C14.9345 26.6081 14.8446 26.6531 14.7996 26.6531C14.7547 26.6531 14.7097 26.6531 14.6648 26.6531C14.5299 26.6531 14.3951 26.5632 14.2602 26.4733C14.2153 26.4283 14.1703 26.3834 14.1254 26.3834C13.9006 26.0687 13.9006 25.8889 13.9006 25.799C13.9006 25.5293 14.1254 25.0798 14.3951 25.0348C14.44 25.0348 14.485 25.0348 14.5299 25.0798C14.5299 25.0798 14.5749 25.1247 14.5749 25.1697C14.485 25.1697 14.3951 25.2146 14.3501 25.3046C14.3052 25.3945 14.3501 25.5293 14.44 25.6192C14.44 25.6642 14.44 25.6642 14.485 25.6642Z" fill="url(#paint51_linear_1_2720)"/>
<path d="M5.22443 23.9562C5.31434 24.136 5.40424 24.2709 5.58404 24.3608C5.67395 24.4057 5.7189 24.4057 5.8088 24.4057C5.94365 24.4057 6.07851 24.3608 6.21336 24.2709C6.30326 24.2259 6.39317 24.0461 6.39317 23.9112C6.39317 23.7314 6.34821 23.5516 6.21336 23.4168C6.12346 23.3718 6.03356 23.3269 5.94365 23.2819C5.9886 23.237 5.9886 23.237 6.03356 23.192C6.12346 23.1021 6.16841 22.9673 6.16841 22.8324C6.16841 22.6976 6.12346 22.5627 5.9886 22.4279C5.94365 22.3829 5.8987 22.3379 5.8088 22.3379C5.67395 22.248 5.49414 22.248 5.35929 22.248C5.22443 22.248 5.08958 22.248 4.99968 22.293C4.55016 22.4279 4.41531 22.6526 4.37036 22.7875C4.19055 23.1021 4.10065 23.6865 4.41531 23.9562C4.50521 24.0461 4.64007 24.091 4.81987 24.091C4.86482 24.091 4.90977 24.091 4.95473 24.091C5.08958 24.091 5.17948 24.0461 5.22443 23.9562ZM4.95473 23.9112C4.90977 23.9112 4.90977 23.9112 4.86482 23.9112C4.77492 23.9112 4.68502 23.8663 4.59512 23.8213C4.37036 23.6415 4.46026 23.1471 4.59512 22.9223C4.64007 22.8324 4.77492 22.6526 5.13453 22.5178C5.22443 22.4728 5.31434 22.4728 5.40424 22.4728C5.53909 22.4728 5.67395 22.5178 5.7189 22.5178C5.76385 22.5627 5.8088 22.5627 5.85375 22.6077C5.8987 22.6526 5.94365 22.7425 5.94365 22.8774C5.94365 22.9223 5.94365 22.9673 5.8987 23.0122C5.85375 22.9223 5.8088 22.8774 5.7189 22.8774C5.67395 22.8774 5.62899 22.8774 5.62899 22.8774C5.53909 22.8774 5.49414 22.9223 5.44919 22.9673C5.40424 23.0122 5.40424 23.0572 5.40424 23.1471C5.44919 23.3269 5.67395 23.4168 5.76385 23.4617C5.76385 23.4617 5.8088 23.4617 5.8088 23.5067C5.8987 23.5516 5.9886 23.5966 6.03356 23.6415C6.12346 23.7314 6.16841 23.8213 6.16841 23.9562C6.16841 24.0011 6.07851 24.136 6.07851 24.136C5.94365 24.2259 5.8088 24.2709 5.67395 24.2259C5.53909 24.1809 5.49414 24.0461 5.40424 23.9112C5.35929 23.8213 5.35929 23.7764 5.31434 23.6865C5.26938 23.5067 5.13453 23.4617 5.04463 23.4617C5.04463 23.4617 5.04463 23.4617 4.99968 23.4617C4.86482 23.4617 4.77492 23.5516 4.72997 23.6415C4.68502 23.7764 4.77492 23.9112 4.90977 23.9562C4.99968 23.9112 4.95473 23.9112 4.95473 23.9112ZM5.7189 23.1471C5.7189 23.192 5.7189 23.192 5.7189 23.1471C5.67395 23.1021 5.62899 23.1021 5.62899 23.0572C5.62899 23.0572 5.62899 23.0572 5.62899 23.0122H5.67395C5.7189 23.0122 5.7189 23.0572 5.7189 23.0572C5.7189 23.1021 5.7189 23.1471 5.7189 23.1471ZM5.13453 23.6865C5.08958 23.6865 5.08958 23.6865 5.13453 23.6865C5.08958 23.6865 5.08958 23.6865 5.08958 23.6865C5.04463 23.6865 5.04463 23.6415 5.04463 23.5966C5.04463 23.5966 5.04463 23.5516 5.08958 23.5516C5.08958 23.5966 5.13453 23.5966 5.13453 23.6865Z" fill="url(#paint52_linear_1_2720)"/>
<path d="M14.5747 20.5398C14.5298 20.4949 14.5298 20.4499 14.4848 20.405C14.2601 20.1802 13.9454 20.1353 13.7207 20.1353C13.5858 20.1353 13.4959 20.1353 13.3611 20.1353C13.2712 20.1353 13.2262 20.1353 13.1363 20.1353C13.0914 20.1353 13.0464 20.1353 13.0464 20.1353C13.0464 20.0903 13.0014 20.0454 12.9565 20.0004C12.9115 20.0004 12.8216 20.0004 12.7767 20.0454C12.6418 20.0004 12.507 19.9555 12.3721 19.9105C12.3721 19.9105 12.3272 19.9105 12.3272 19.8656C12.3272 19.8206 12.3272 19.7756 12.3272 19.7307C12.3272 19.6857 12.2822 19.6857 12.2373 19.6408C12.1923 19.6408 12.1024 19.6408 12.0575 19.6857C11.8777 19.5509 11.6529 19.416 11.4731 19.416C11.4282 19.416 11.4282 19.416 11.3832 19.416C11.3383 19.3711 11.2483 19.3711 11.1584 19.416C11.1135 19.461 11.1135 19.5059 11.1135 19.5509V19.5958C11.0685 19.6408 11.0236 19.6857 11.0236 19.7307C10.9337 19.9105 10.9337 20.1353 11.0685 20.36C11.1135 20.4499 11.1584 20.4949 11.2484 20.5848V20.6297C11.2484 20.6297 11.2484 20.6297 11.2484 20.6747C11.2484 20.7196 11.2484 20.7196 11.2484 20.7646C11.2933 20.8095 11.3832 20.8545 11.4282 20.8095C11.608 20.9444 11.7878 21.1242 12.0125 21.259C12.0125 21.304 12.0125 21.3489 12.0125 21.3939C12.0125 21.3939 12.0125 21.3939 12.0125 21.4388C12.0575 21.4838 12.1474 21.4838 12.2373 21.4388C12.3721 21.4838 12.462 21.5737 12.5969 21.6186C12.6418 21.6186 12.6418 21.6636 12.6868 21.6636V21.7086C12.7317 21.7985 12.8216 21.7985 12.8666 21.7535C12.8666 21.7535 12.9115 21.7535 12.9115 21.7086C13.1363 21.7535 13.3611 21.7535 13.5858 21.7086C13.6308 21.7535 13.6308 21.7535 13.6757 21.7535C13.7207 21.7535 13.8106 21.7086 13.8106 21.6636C13.9005 21.6186 13.9454 21.6186 13.9904 21.5737C14.2151 21.4838 14.4848 21.259 14.5747 20.9893C14.6646 20.8545 14.6197 20.7196 14.5747 20.5398ZM14.305 20.8994C14.2601 21.0343 14.0803 21.2141 13.9005 21.304C13.7207 21.3939 13.4959 21.4388 13.2712 21.4388C13.0914 21.4388 12.9565 21.3939 12.8216 21.3489C12.8216 21.3489 12.8216 21.3489 12.8666 21.3489C12.8666 21.3489 12.8666 21.3489 12.9115 21.3489C12.9115 21.3489 12.9565 21.3489 12.9565 21.304C12.9565 21.304 12.9565 21.304 13.0014 21.304C13.0464 21.259 13.0464 21.2141 13.0464 21.1691C13.0464 21.1242 13.0014 21.0792 12.9565 21.0792C12.9115 21.0792 12.8216 21.0792 12.7767 21.1242C12.7317 21.1691 12.7317 21.259 12.7767 21.304C12.7767 21.3489 12.8216 21.3489 12.8216 21.3489C12.7767 21.3489 12.7767 21.3489 12.7317 21.304C12.1923 21.0792 11.7428 20.7646 11.4731 20.4499C11.3832 20.36 11.3383 20.3151 11.2933 20.2252C11.2034 20.0903 11.2034 20.0004 11.2484 19.8656C11.2933 19.7756 11.3383 19.7307 11.3832 19.7307H11.4282C11.563 19.7307 11.7878 19.8655 11.9226 20.0004C12.0125 20.0903 12.1024 20.1353 12.1923 20.1802C12.4171 20.3151 12.7767 20.405 13.0914 20.405H13.1363C13.2262 20.405 13.2712 20.405 13.3611 20.405C13.451 20.405 13.5858 20.405 13.6757 20.405C13.9454 20.405 14.1252 20.4499 14.2151 20.5848C14.2601 20.6297 14.2601 20.6297 14.2601 20.6747C14.35 20.7646 14.35 20.8545 14.305 20.8994Z" fill="url(#paint53_linear_1_2720)"/>
<path d="M13.5407 20.6748C13.4957 20.6748 13.4058 20.6748 13.3609 20.7198C13.3159 20.7647 13.3159 20.8097 13.3609 20.8996L13.4058 20.9445H13.4508H13.4957C13.4957 20.9445 13.4957 20.9445 13.5407 20.9445C13.5856 20.8996 13.5856 20.8996 13.5856 20.8546C13.5856 20.8097 13.5856 20.7647 13.5407 20.7647C13.5856 20.7198 13.5407 20.6748 13.5407 20.6748Z" fill="url(#paint54_linear_1_2720)"/>
<path d="M13.046 20.54C13.0011 20.54 12.9112 20.54 12.8662 20.6299C12.8662 20.6749 12.8662 20.7198 12.8662 20.7198V20.7648C12.8662 20.8097 12.9112 20.8097 12.9561 20.8547H13.0011C13.046 20.8547 13.091 20.8097 13.1359 20.7648C13.1359 20.7198 13.1359 20.6749 13.1359 20.6749C13.1359 20.585 13.091 20.54 13.046 20.54Z" fill="url(#paint55_linear_1_2720)"/>
<path d="M13.9454 20.8994C13.9005 20.8994 13.8106 20.8994 13.7656 20.9893C13.7656 21.0343 13.7656 21.0792 13.7656 21.0792V21.1242C13.7656 21.1691 13.8106 21.1691 13.8555 21.2141H13.9005C13.9454 21.2141 13.9904 21.1691 14.0353 21.1242C14.0353 21.0792 14.0353 21.0343 14.0353 21.0343C14.0353 20.9444 13.9904 20.8994 13.9454 20.8994Z" fill="url(#paint56_linear_1_2720)"/>
<path d="M13.8555 20.7643C13.9454 20.7643 13.9904 20.7194 14.0353 20.6744C14.0353 20.6295 14.0353 20.5845 14.0353 20.5845C14.0353 20.5396 13.9904 20.4946 13.9454 20.4946C13.9005 20.4946 13.8106 20.4946 13.7656 20.5845C13.7656 20.6295 13.7656 20.6744 13.7656 20.6744V20.7194C13.7656 20.7194 13.8106 20.7643 13.8555 20.7643Z" fill="url(#paint57_linear_1_2720)"/>
<path d="M13.4962 21.0793C13.4513 21.0344 13.3614 21.0344 13.3164 21.1243C13.2715 21.1692 13.2715 21.2142 13.2715 21.2591C13.2715 21.2591 13.3164 21.3041 13.3614 21.3041C13.3614 21.3041 13.4063 21.3041 13.4513 21.3041C13.4513 21.3041 13.4513 21.3041 13.4962 21.3041C13.5412 21.3041 13.5861 21.2591 13.5861 21.2591C13.5861 21.2142 13.6311 21.1692 13.5861 21.1692C13.5412 21.1692 13.5412 21.1243 13.4962 21.0793Z" fill="url(#paint58_linear_1_2720)"/>
<path d="M11.923 20.54C11.8331 20.54 11.7432 20.585 11.7432 20.6749V20.7198C11.7432 20.7648 11.7432 20.7648 11.7432 20.8097C11.7432 20.8547 11.7881 20.8547 11.8331 20.8996H11.878C11.923 20.8996 12.0129 20.8547 12.0129 20.8097C12.0129 20.7648 12.0129 20.7198 12.0129 20.6749C12.0129 20.585 11.9679 20.585 11.923 20.54Z" fill="url(#paint59_linear_1_2720)"/>
<path d="M12.507 20.7197C12.4171 20.7197 12.3271 20.7647 12.3271 20.8546V20.8995C12.3271 20.9445 12.3271 20.9445 12.3271 20.9894C12.3271 21.0344 12.3721 21.0344 12.4171 21.0793H12.462C12.507 21.0793 12.5969 21.0344 12.5969 20.9894C12.5969 20.9445 12.5969 20.8995 12.5969 20.8546C12.5969 20.7647 12.5519 20.7197 12.507 20.7197Z" fill="url(#paint60_linear_1_2720)"/>
<path d="M11.7877 20.1803C11.7877 20.0904 11.6978 20.0454 11.6079 20.0454C11.563 20.0454 11.518 20.0904 11.518 20.0904C11.518 20.1353 11.4731 20.1803 11.518 20.2252V20.2702C11.563 20.3151 11.563 20.3601 11.6529 20.3601C11.7428 20.3601 11.7877 20.3151 11.7877 20.2252V20.1803Z" fill="url(#paint61_linear_1_2720)"/>
<path d="M12.3723 20.3601C12.3273 20.2702 12.2374 20.2702 12.1475 20.3152C12.1475 20.3152 12.1475 20.3152 12.1026 20.3152C12.0576 20.3601 12.0576 20.45 12.0576 20.495C12.0576 20.5399 12.1026 20.5399 12.1475 20.5849H12.1925H12.2374C12.4172 20.5399 12.4172 20.45 12.3723 20.3601Z" fill="url(#paint62_linear_1_2720)"/>
<path d="M10.3487 19.0114C10.3038 18.6968 10.0341 18.472 9.85425 18.3821C9.7194 18.3372 9.58454 18.2922 9.40474 18.2922C9.31483 18.2922 9.26988 18.2922 9.17998 18.2473C9.09008 18.2023 8.95522 18.2023 8.86532 18.1124C8.86532 18.1124 8.82037 18.1124 8.82037 18.0675C8.82037 18.0675 8.77542 18.0675 8.77542 18.0225C8.82037 18.0225 8.86532 18.0225 8.91027 18.0225C8.95522 17.9775 9.04513 17.8876 9.09008 17.8427C9.17998 17.7528 9.22493 17.6629 9.26988 17.573C9.26988 17.528 9.31483 17.4831 9.26988 17.4381C9.26988 17.3932 9.22493 17.3482 9.17998 17.3482C9.17998 17.3482 9.17998 17.3482 9.13503 17.3482C9.04513 17.3033 8.86532 17.2134 8.59561 17.2134C8.37086 17.2134 8.1461 17.3033 7.9663 17.4831C7.87639 17.573 7.83144 17.6179 7.78649 17.7078V17.7528C7.78649 17.7977 7.74154 17.7977 7.74154 17.8427V17.8876C7.51678 18.0225 7.33698 18.2023 7.33698 18.2023C7.29203 18.2473 7.33698 18.3372 7.38193 18.3821C7.42688 18.3821 7.42688 18.4271 7.47183 18.4271C7.51678 18.4271 7.56174 18.4271 7.56174 18.3821C7.56174 18.3372 7.69659 18.2473 7.83144 18.1574C7.87639 18.1574 7.87639 18.2023 7.92135 18.2023H7.9663C7.83144 18.4271 7.87639 18.6518 8.01125 18.7867C8.0562 18.8316 8.10115 18.8766 8.1461 18.9665C8.236 19.0564 8.236 19.1912 8.28096 19.3261C8.32591 19.5059 8.41581 19.6857 8.50571 19.8206C8.59561 19.9105 8.82037 20.1802 9.17998 20.1802C9.44969 20.1802 9.67444 20.0453 9.8992 19.8206C10.3937 19.5059 10.3937 19.1912 10.3487 19.0114ZM8.50571 18.2473C8.55066 18.2473 8.64057 18.2922 8.73047 18.3372C8.77542 18.3372 8.77542 18.3821 8.77542 18.3821C8.91027 18.4271 9.00018 18.472 9.13503 18.517C9.22493 18.517 9.31483 18.5619 9.40474 18.5619C9.53959 18.5619 9.62949 18.6069 9.7194 18.6518C9.85425 18.6968 10.0341 18.8766 10.079 19.1013C10.124 19.2811 10.0341 19.4609 9.8992 19.6857C9.7194 19.8655 9.53959 19.9554 9.35979 19.9554C9.13503 19.9554 8.95522 19.7756 8.86532 19.6857C8.77542 19.5958 8.73047 19.416 8.68552 19.2811C8.64057 19.1463 8.59561 18.9665 8.50571 18.8316C8.46076 18.7417 8.41581 18.6968 8.37086 18.6518C8.28096 18.5619 8.28096 18.472 8.37086 18.3821L8.41581 18.3372C8.41581 18.2922 8.46076 18.2473 8.50571 18.2473ZM8.50571 18.0225C8.41581 18.0225 8.32591 18.0675 8.236 18.1124C8.236 18.0675 8.236 18.0675 8.19105 18.0675C8.28096 18.0225 8.37086 17.9776 8.46076 17.9776C8.50571 17.9776 8.50571 17.9326 8.55066 17.9326C8.59561 17.8876 8.59561 17.8427 8.59561 17.8427C8.59561 17.7977 8.55066 17.7078 8.46076 17.7078C8.41581 17.7078 8.37086 17.7078 8.32591 17.7528C8.46076 17.6629 8.59561 17.6179 8.73047 17.6179C8.86532 17.6179 8.95522 17.6629 9.04513 17.7078C8.95522 17.7977 8.91027 17.8876 8.82037 17.9776C8.77542 18.0225 8.77542 18.0225 8.77542 18.0675C8.77542 18.1124 8.77542 18.1574 8.82037 18.1574C8.82037 18.1574 8.82037 18.1574 8.86532 18.2023C8.73047 18.0675 8.64057 18.0225 8.50571 18.0225Z" fill="url(#paint63_linear_1_2720)"/>
<path d="M9.0451 19.5958C9.135 19.6857 9.26985 19.7306 9.40471 19.7306C9.53956 19.7306 9.67441 19.6857 9.76432 19.5958C9.85422 19.5059 9.89917 19.371 9.85422 19.2362C9.85422 19.1013 9.76432 18.9665 9.67441 18.8766C9.58451 18.7867 9.44966 18.7417 9.3148 18.7417C9.17995 18.7417 9.0451 18.7867 8.95519 18.8766C8.86529 18.9665 8.82034 19.1013 8.86529 19.2362C8.86529 19.371 8.95519 19.5059 9.0451 19.5958ZM9.2249 19.371C9.17995 19.3261 9.135 19.2811 9.135 19.1912C9.135 19.1463 9.135 19.1013 9.17995 19.0564C9.2249 19.0114 9.26985 19.0114 9.3148 19.0114C9.35975 19.0114 9.44966 19.0564 9.49461 19.1013C9.58451 19.1912 9.62946 19.3261 9.58451 19.416C9.49461 19.4609 9.3148 19.4609 9.2249 19.371Z" fill="url(#paint64_linear_1_2720)"/>
<path d="M1.58306 38.3856H2.97655L24.1935 23.1471V22.1582L13.4951 29.8449L0.00976562 24.0012V24.9002L12.686 30.4292L11.1127 31.553L0.00976562 27.0129V27.912L10.3036 32.1374L8.68536 33.2612L0.00976562 29.4853V30.3843L7.92119 33.8455L6.48275 34.8794L0.00976562 32.2273V33.1263L5.67362 35.4638L3.92053 36.6775L0.00976562 34.9693V35.9133L3.15635 37.2618L1.58306 38.3856Z" fill="url(#paint65_linear_1_2720)"/>
<path d="M7.06735 38.3856L24.1938 26.1589V25.125L5.62891 38.3856H7.06735Z" fill="url(#paint66_linear_1_2720)"/>
<path d="M11.2929 38.3856L24.1939 29.1256V28.1367L9.89941 38.3856H11.2929Z" fill="url(#paint67_linear_1_2720)"/>
<path d="M19.6533 38.3856L24.1933 35.1042V34.1152L18.2598 38.3856H19.6533Z" fill="url(#paint68_linear_1_2720)"/>
<path d="M15.6533 38.3855L24.194 32.2722V31.2383L14.2148 38.3855H15.6533Z" fill="url(#paint69_linear_1_2720)"/>
<path d="M39.6571 13.0781H35.3867L32.1502 20.9895V13.0781H27.9697V30.5192H32.1502V22.0234L35.7013 30.5192H40.1515L36.1509 21.3492L39.6571 13.0781Z" fill="url(#paint70_linear_1_2720)"/>
<path d="M40.8711 30.5192H49.9063V27.4625H45.0965V23.2371H49.6366V20.1804H45.0965V16.1798H49.9063V13.0781H40.8711V30.5192Z" fill="url(#paint71_linear_1_2720)"/>
<path d="M60.7841 16.5394V13.0781H51.1646V16.1798H56.4239L50.4004 27.1029V30.5192H60.9639V27.4625H54.7607L60.7841 16.5394Z" fill="url(#paint72_linear_1_2720)"/>
<path d="M64.8295 13.0781L61.2783 30.5192H65.4138L66.0432 26.5635H69.2796L69.864 30.5192H73.9995L70.4484 13.0781H64.8295ZM66.4927 23.5967L67.6614 15.8651L68.8301 23.5967H66.4927Z" fill="url(#paint73_linear_1_2720)"/>
<path d="M30.2173 33.6205H28.5542V35.1938H29.9926V35.7782H28.5542V38.3404H27.8799V33.0361H30.2173V33.6205Z" fill="#464647"/>
<path d="M33.8135 38.3404H33.1392L32.9594 37.3065H31.7457L31.5209 38.3404H30.8467L32.0154 33.0361H32.6897L33.8135 38.3404ZM32.8245 36.7221L32.3301 33.9801L31.8356 36.7221H32.8245Z" fill="#464647"/>
<path d="M37.4999 38.3404H36.8256L35.9266 36.0029H35.3872V38.3404H34.7129V33.0361H35.8816C36.3311 33.0361 36.6907 33.126 36.8706 33.3058C37.1403 33.5306 37.2751 33.9352 37.2751 34.4746C37.2751 34.6993 37.2751 34.9241 37.2302 35.1488C37.1852 35.3736 37.0953 35.5534 37.0054 35.6883C36.9155 35.8231 36.7357 35.913 36.5559 35.958L37.4999 38.3404ZM36.6458 34.5645C36.6458 34.2948 36.6458 34.115 36.6008 33.9801C36.5559 33.8902 36.5109 33.8453 36.466 33.7554C36.421 33.7104 36.3311 33.6655 36.2412 33.6655C36.1513 33.6655 36.1064 33.6205 36.0165 33.6205C35.9715 33.6205 35.8816 33.6205 35.7917 33.6205C35.7468 33.6205 35.7468 33.6205 35.7018 33.6205H35.3872V35.4635H35.7468C36.0165 35.4635 36.1963 35.4635 36.3311 35.4186C36.421 35.3736 36.466 35.3286 36.5109 35.2837C36.5559 35.2387 36.6008 35.1488 36.6008 35.014C36.6008 34.9241 36.6458 34.8342 36.6458 34.7892C36.6458 34.7443 36.6458 34.6544 36.6458 34.5645Z" fill="#464647"/>
<path d="M41.9944 38.3404H41.3651L41.455 33.5306L40.6909 38.3404H39.8368L39.0726 33.5306L39.1625 38.3404H38.5332V33.0361H39.5221L40.2414 37.756L40.9606 33.0361H41.9495L41.9944 38.3404Z" fill="#464647"/>
<path d="M45.6803 38.3404H43.2979V33.0361H45.6353V33.6205H43.9721V35.1938H45.4555V35.7782H43.9721V37.7111H45.6803V38.3404Z" fill="#464647"/>
<path d="M49.5467 38.3404H48.8725L47.9734 36.0029H47.434V38.3404H46.7598V33.0361H47.9285C48.378 33.0361 48.7376 33.126 48.9174 33.3058C49.1871 33.5306 49.322 33.9352 49.322 34.4746C49.322 34.6993 49.322 34.9241 49.277 35.1488C49.2321 35.3736 49.1422 35.5534 49.0523 35.6883C48.9624 35.8231 48.7826 35.913 48.6028 35.958L49.5467 38.3404ZM48.6927 34.5645C48.6927 34.2948 48.6927 34.115 48.6477 33.9801C48.6028 33.8902 48.5578 33.8453 48.5129 33.7554C48.4679 33.7104 48.378 33.6655 48.2881 33.6655C48.1982 33.6655 48.1533 33.6205 48.0634 33.6205C48.0184 33.6205 47.9285 33.6205 47.8386 33.6205C47.7936 33.6205 47.7936 33.6205 47.7487 33.6205H47.434V35.4635H47.7936C48.0634 35.4635 48.2432 35.4635 48.378 35.4186C48.4679 35.3736 48.5129 35.3286 48.5578 35.2837C48.6028 35.2387 48.6477 35.1488 48.6477 35.014C48.6477 34.9241 48.6927 34.8342 48.6927 34.7892C48.6927 34.7443 48.6927 34.6993 48.6927 34.5645Z" fill="#464647"/>
<path d="M53.0076 37.1716C53.0076 37.6661 52.8278 38.0257 52.5131 38.2055C52.2883 38.3404 52.0186 38.4303 51.704 38.4303C51.0747 38.4303 50.6701 38.2055 50.4903 37.7111C50.4453 37.5313 50.4004 37.3515 50.4004 37.1267V36.5423H51.0297V36.812C51.0297 37.1716 51.0297 37.3964 51.0747 37.5313C51.1646 37.801 51.3893 37.9358 51.659 37.9358C51.9737 37.9358 52.1535 37.801 52.2883 37.5762C52.3333 37.4863 52.3333 37.3964 52.3333 37.2616C52.3333 37.1267 52.2883 36.9918 52.2434 36.857C52.1984 36.7221 52.1535 36.6322 52.1085 36.5873C52.0636 36.5423 51.9737 36.4524 51.8388 36.3176L51.1196 35.5984C50.8949 35.3736 50.715 35.1488 50.6251 34.969C50.5352 34.7892 50.4903 34.5645 50.4903 34.2498C50.4903 34.07 50.4903 33.8902 50.5352 33.7554C50.6701 33.2609 51.0747 33.0361 51.704 33.0361C52.2883 33.0361 52.648 33.2609 52.7828 33.7104C52.8278 33.8453 52.8278 34.0251 52.8278 34.3397V34.6993H52.2434C52.2434 34.4746 52.2434 34.3397 52.2434 34.2498C52.2434 33.9352 52.1535 33.7554 51.9737 33.6655C51.8838 33.6205 51.7939 33.6205 51.704 33.6205C51.5242 33.6205 51.3893 33.6655 51.2994 33.7554C51.2994 33.7554 51.2545 33.8003 51.2095 33.8902C51.1646 33.9801 51.1646 34.07 51.1646 34.2498C51.1646 34.3847 51.1646 34.4746 51.2095 34.5645C51.2095 34.6094 51.2545 34.6993 51.2994 34.7443C51.3444 34.7892 51.3893 34.8791 51.3893 34.8791C51.3893 34.8791 51.4792 34.969 51.5691 35.0589C51.659 35.1488 51.704 35.1938 51.704 35.1938L52.5581 36.0928C52.603 36.1378 52.648 36.2277 52.7379 36.3176C52.8727 36.4524 53.0076 36.7671 53.0076 37.1716Z" fill="#464647"/>
<path d="M58.7165 34.6993C58.7165 35.2837 58.6266 35.6433 58.4468 35.868C58.267 36.0928 57.9074 36.1827 57.4129 36.1827H56.8735V38.3853H56.1992V33.0811H57.5927C57.9973 33.0811 58.3119 33.2159 58.4917 33.4407C58.5367 33.4856 58.5367 33.5306 58.5816 33.5755C58.6266 33.6205 58.6266 33.6654 58.6715 33.7104C58.7165 33.7553 58.7165 33.8003 58.7165 33.8452C58.7165 33.8902 58.7614 33.9351 58.7614 33.9801C58.7614 34.025 58.7614 34.07 58.7614 34.1149C58.7614 34.1599 58.7614 34.2048 58.7614 34.2498C58.7614 34.2947 58.7614 34.3846 58.7614 34.3846C58.7614 34.3846 58.7614 34.4745 58.7614 34.5195C58.7165 34.6094 58.7165 34.6543 58.7165 34.6993ZM58.0422 34.6993C58.0422 34.4745 58.0422 34.2947 58.0422 34.2048C58.0422 34.1149 57.9973 34.025 57.9523 33.9351C57.9074 33.8452 57.8624 33.8003 57.8175 33.7553C57.7725 33.7104 57.6826 33.7104 57.6377 33.6654C57.5478 33.6654 57.4579 33.6205 57.4129 33.6205C57.368 33.6205 57.278 33.6205 57.1432 33.6205H56.7836V35.5534H57.2331C57.323 35.5534 57.4129 35.5534 57.4579 35.5534C57.5028 35.5534 57.5478 35.5534 57.6377 35.5084C57.7276 35.5084 57.7725 35.4635 57.8175 35.4185C57.8624 35.3736 57.9074 35.3286 57.9523 35.2387C58.0422 35.2387 58.0422 35.014 58.0422 34.6993Z" fill="#464647"/>
<path d="M62.5819 38.3853H61.9076L61.0086 36.0478H60.4692V38.3853H59.7949V33.0811H60.9637C61.4132 33.0811 61.7728 33.171 61.9526 33.3508C62.2223 33.5755 62.3571 33.9801 62.3571 34.5195C62.3571 34.7442 62.3571 34.969 62.3122 35.1938C62.2672 35.4185 62.1773 35.5983 62.0874 35.7332C61.9975 35.868 61.8177 35.9579 61.6379 36.0029L62.5819 38.3853ZM61.7278 34.6094C61.7278 34.3397 61.7278 34.1599 61.6829 34.025C61.6379 33.9351 61.593 33.8902 61.548 33.8003C61.5031 33.7553 61.4132 33.7104 61.3233 33.7104C61.2334 33.7104 61.1884 33.6654 61.0985 33.6654C61.0536 33.6654 60.9637 33.6654 60.8738 33.6654C60.8288 33.6654 60.8288 33.6654 60.7838 33.6654H60.4692V35.5084H60.8288C61.0985 35.5084 61.2783 35.5084 61.4132 35.4635C61.5031 35.4185 61.548 35.3736 61.593 35.3286C61.6379 35.2837 61.6829 35.1938 61.6829 35.0589C61.6829 34.969 61.7278 34.8791 61.7278 34.8341C61.7278 34.7892 61.7278 34.6993 61.7278 34.6094Z" fill="#464647"/>
<path d="M64.2456 38.3853H63.5713V33.0811H64.2456V38.3853Z" fill="#464647"/>
<path d="M68.111 35.4635C68.111 35.7332 68.111 36.1377 68.111 36.6322C68.111 36.812 68.111 37.0368 68.0661 37.2166C68.0211 37.711 67.8413 38.0706 67.5267 38.2504C67.4817 38.2954 67.4368 38.2954 67.3918 38.2954C67.3468 38.2954 67.3019 38.3403 67.257 38.3403C67.212 38.3403 67.167 38.3403 67.1221 38.3853C67.0771 38.3853 67.0322 38.3853 66.9872 38.3853C66.9423 38.3853 66.8973 38.3853 66.8524 38.3853C66.8074 38.3853 66.7625 38.3853 66.7175 38.3853C66.6726 38.3853 66.5827 38.3853 66.5827 38.3853H65.5938V33.0811H66.5827C67.0322 33.0811 67.3469 33.126 67.5267 33.2159C67.8413 33.3508 68.0661 33.6654 68.111 34.07C68.111 34.2498 68.111 34.6993 68.111 35.4635ZM67.4817 35.9579C67.4817 35.2387 67.4817 34.7892 67.4817 34.6543C67.4817 34.4296 67.4817 34.2498 67.4368 34.1599C67.3918 34.07 67.3469 33.9351 67.3019 33.8902C67.167 33.8003 66.9423 33.7104 66.5827 33.7104H66.2231V37.8009H66.6726C66.8973 37.8009 67.0771 37.756 67.212 37.711C67.3469 37.6211 67.4368 37.4863 67.4817 37.3065C67.4368 37.1716 67.4817 36.7221 67.4817 35.9579Z" fill="#464647"/>
<path d="M71.7076 38.3853H69.3252V33.0811H71.6627V33.6654H69.9995V35.2387H71.4829V35.8231H69.9995V37.756H71.7076V38.3853Z" fill="#464647"/>
<path d="M73.4155 38.3853H72.7861V37.4863H73.4155V38.3853Z" fill="#464647"/>
<defs>
<linearGradient id="paint0_linear_1_2720" x1="20.7421" y1="-4.83737" x2="9.6663" y2="30.2359" gradientUnits="userSpaceOnUse">
<stop stop-color="#EEE252"/>
<stop offset="0.332" stop-color="#EEA33F"/>
<stop offset="0.6404" stop-color="#EE7030"/>
<stop offset="0.8718" stop-color="#EE5027"/>
<stop offset="1" stop-color="#EE4423"/>
</linearGradient>
<linearGradient id="paint1_linear_1_2720" x1="20.3796" y1="-4.95161" x2="9.30383" y2="30.1217" gradientUnits="userSpaceOnUse">
<stop stop-color="#EEE252"/>
<stop offset="0.332" stop-color="#EEA33F"/>
<stop offset="0.6404" stop-color="#EE7030"/>
<stop offset="0.8718" stop-color="#EE5027"/>
<stop offset="1" stop-color="#EE4423"/>
</linearGradient>
<linearGradient id="paint2_linear_1_2720" x1="23.5249" y1="-3.95848" x2="12.4491" y2="31.1149" gradientUnits="userSpaceOnUse">
<stop stop-color="#EEE252"/>
<stop offset="0.332" stop-color="#EEA33F"/>
<stop offset="0.6404" stop-color="#EE7030"/>
<stop offset="0.8718" stop-color="#EE5027"/>
<stop offset="1" stop-color="#EE4423"/>
</linearGradient>
<linearGradient id="paint3_linear_1_2720" x1="23.943" y1="-3.8265" x2="12.8673" y2="31.2468" gradientUnits="userSpaceOnUse">
<stop stop-color="#EEE252"/>
<stop offset="0.332" stop-color="#EEA33F"/>
<stop offset="0.6404" stop-color="#EE7030"/>
<stop offset="0.8718" stop-color="#EE5027"/>
<stop offset="1" stop-color="#EE4423"/>
</linearGradient>
<linearGradient id="paint4_linear_1_2720" x1="6.93579" y1="6.23829" x2="3.96793" y2="15.6365" gradientUnits="userSpaceOnUse">
<stop stop-color="#EEE252"/>
<stop offset="0.332" stop-color="#EEA33F"/>
<stop offset="0.6404" stop-color="#EE7030"/>
<stop offset="0.8718" stop-color="#EE5027"/>
<stop offset="1" stop-color="#EE4423"/>
</linearGradient>
<linearGradient id="paint5_linear_1_2720" x1="18.5235" y1="-5.5381" x2="7.4477" y2="29.5352" gradientUnits="userSpaceOnUse">
<stop stop-color="#EEE252"/>
<stop offset="0.332" stop-color="#EEA33F"/>
<stop offset="0.6404" stop-color="#EE7030"/>
<stop offset="0.8718" stop-color="#EE5027"/>
<stop offset="1" stop-color="#EE4423"/>
</linearGradient>
<linearGradient id="paint6_linear_1_2720" x1="15.9022" y1="-6.36569" x2="4.82643" y2="28.7076" gradientUnits="userSpaceOnUse">
<stop stop-color="#EEE252"/>
<stop offset="0.332" stop-color="#EEA33F"/>
<stop offset="0.6404" stop-color="#EE7030"/>
<stop offset="0.8718" stop-color="#EE5027"/>
<stop offset="1" stop-color="#EE4423"/>
</linearGradient>
<linearGradient id="paint7_linear_1_2720" x1="18.5187" y1="-0.525168" x2="10.5537" y2="24.6974" gradientUnits="userSpaceOnUse">
<stop stop-color="#EEE252"/>
<stop offset="0.332" stop-color="#EEA33F"/>
<stop offset="0.6404" stop-color="#EE7030"/>
<stop offset="0.8718" stop-color="#EE5027"/>
<stop offset="1" stop-color="#EE4423"/>
</linearGradient>
<linearGradient id="paint8_linear_1_2720" x1="18.5228" y1="-0.523733" x2="10.5578" y2="24.6988" gradientUnits="userSpaceOnUse">
<stop stop-color="#EEE252"/>
<stop offset="0.332" stop-color="#EEA33F"/>
<stop offset="0.6404" stop-color="#EE7030"/>
<stop offset="0.8718" stop-color="#EE5027"/>
<stop offset="1" stop-color="#EE4423"/>
</linearGradient>
<linearGradient id="paint9_linear_1_2720" x1="11.4815" y1="4.19852" x2="8.05204" y2="15.0586" gradientUnits="userSpaceOnUse">
<stop stop-color="#EEE252"/>
<stop offset="0.332" stop-color="#EEA33F"/>
<stop offset="0.6404" stop-color="#EE7030"/>
<stop offset="0.8718" stop-color="#EE5027"/>
<stop offset="1" stop-color="#EE4423"/>
</linearGradient>
<linearGradient id="paint10_linear_1_2720" x1="11.1506" y1="4.09451" x2="7.72111" y2="14.9546" gradientUnits="userSpaceOnUse">
<stop stop-color="#EEE252"/>
<stop offset="0.332" stop-color="#EEA33F"/>
<stop offset="0.6404" stop-color="#EE7030"/>
<stop offset="0.8718" stop-color="#EE5027"/>
<stop offset="1" stop-color="#EE4423"/>
</linearGradient>
<linearGradient id="paint11_linear_1_2720" x1="10.6401" y1="3.93311" x2="7.21055" y2="14.7932" gradientUnits="userSpaceOnUse">
<stop stop-color="#EEE252"/>
<stop offset="0.332" stop-color="#EEA33F"/>
<stop offset="0.6404" stop-color="#EE7030"/>
<stop offset="0.8718" stop-color="#EE5027"/>
<stop offset="1" stop-color="#EE4423"/>
</linearGradient>
<linearGradient id="paint12_linear_1_2720" x1="10.9672" y1="4.03661" x2="7.53773" y2="14.8967" gradientUnits="userSpaceOnUse">
<stop stop-color="#EEE252"/>
<stop offset="0.332" stop-color="#EEA33F"/>
<stop offset="0.6404" stop-color="#EE7030"/>
<stop offset="0.8718" stop-color="#EE5027"/>
<stop offset="1" stop-color="#EE4423"/>
</linearGradient>
<linearGradient id="paint13_linear_1_2720" x1="11.4589" y1="4.19146" x2="8.02947" y2="15.0515" gradientUnits="userSpaceOnUse">
<stop stop-color="#EEE252"/>
<stop offset="0.332" stop-color="#EEA33F"/>
<stop offset="0.6404" stop-color="#EE7030"/>
<stop offset="0.8718" stop-color="#EE5027"/>
<stop offset="1" stop-color="#EE4423"/>
</linearGradient>
<linearGradient id="paint14_linear_1_2720" x1="11.0324" y1="4.05707" x2="7.6029" y2="14.9172" gradientUnits="userSpaceOnUse">
<stop stop-color="#EEE252"/>
<stop offset="0.332" stop-color="#EEA33F"/>
<stop offset="0.6404" stop-color="#EE7030"/>
<stop offset="0.8718" stop-color="#EE5027"/>
<stop offset="1" stop-color="#EE4423"/>
</linearGradient>
<linearGradient id="paint15_linear_1_2720" x1="11.0567" y1="4.06457" x2="7.62723" y2="14.9247" gradientUnits="userSpaceOnUse">
<stop stop-color="#EEE252"/>
<stop offset="0.332" stop-color="#EEA33F"/>
<stop offset="0.6404" stop-color="#EE7030"/>
<stop offset="0.8718" stop-color="#EE5027"/>
<stop offset="1" stop-color="#EE4423"/>
</linearGradient>
<linearGradient id="paint16_linear_1_2720" x1="11.5473" y1="4.21981" x2="8.11779" y2="15.0798" gradientUnits="userSpaceOnUse">
<stop stop-color="#EEE252"/>
<stop offset="0.332" stop-color="#EEA33F"/>
<stop offset="0.6404" stop-color="#EE7030"/>
<stop offset="0.8718" stop-color="#EE5027"/>
<stop offset="1" stop-color="#EE4423"/>
</linearGradient>
<linearGradient id="paint17_linear_1_2720" x1="11.4334" y1="4.18399" x2="8.00391" y2="15.044" gradientUnits="userSpaceOnUse">
<stop stop-color="#EEE252"/>
<stop offset="0.332" stop-color="#EEA33F"/>
<stop offset="0.6404" stop-color="#EE7030"/>
<stop offset="0.8718" stop-color="#EE5027"/>
<stop offset="1" stop-color="#EE4423"/>
</linearGradient>
<linearGradient id="paint18_linear_1_2720" x1="11.6943" y1="-7.69484" x2="0.618461" y2="27.3785" gradientUnits="userSpaceOnUse">
<stop stop-color="#EEE252"/>
<stop offset="0.332" stop-color="#EEA33F"/>
<stop offset="0.6404" stop-color="#EE7030"/>
<stop offset="0.8718" stop-color="#EE5027"/>
<stop offset="1" stop-color="#EE4423"/>
</linearGradient>
<linearGradient id="paint19_linear_1_2720" x1="9.79034" y1="-8.2959" x2="-1.28543" y2="26.7774" gradientUnits="userSpaceOnUse">
<stop stop-color="#EEE252"/>
<stop offset="0.332" stop-color="#EEA33F"/>
<stop offset="0.6404" stop-color="#EE7030"/>
<stop offset="0.8718" stop-color="#EE5027"/>
<stop offset="1" stop-color="#EE4423"/>
</linearGradient>
<linearGradient id="paint20_linear_1_2720" x1="10.6038" y1="-8.03928" x2="-0.471912" y2="27.034" gradientUnits="userSpaceOnUse">
<stop stop-color="#EEE252"/>
<stop offset="0.332" stop-color="#EEA33F"/>
<stop offset="0.6404" stop-color="#EE7030"/>
<stop offset="0.8718" stop-color="#EE5027"/>
<stop offset="1" stop-color="#EE4423"/>
</linearGradient>
<linearGradient id="paint21_linear_1_2720" x1="13.5994" y1="-7.09314" x2="2.52364" y2="27.9801" gradientUnits="userSpaceOnUse">
<stop stop-color="#EEE252"/>
<stop offset="0.332" stop-color="#EEA33F"/>
<stop offset="0.6404" stop-color="#EE7030"/>
<stop offset="0.8718" stop-color="#EE5027"/>
<stop offset="1" stop-color="#EE4423"/>
</linearGradient>
<linearGradient id="paint22_linear_1_2720" x1="12.5478" y1="-7.42503" x2="1.47207" y2="27.6482" gradientUnits="userSpaceOnUse">
<stop stop-color="#EEE252"/>
<stop offset="0.332" stop-color="#EEA33F"/>
<stop offset="0.6404" stop-color="#EE7030"/>
<stop offset="0.8718" stop-color="#EE5027"/>
<stop offset="1" stop-color="#EE4423"/>
</linearGradient>
<linearGradient id="paint23_linear_1_2720" x1="11.4456" y1="-7.77357" x2="0.369795" y2="27.2998" gradientUnits="userSpaceOnUse">
<stop stop-color="#EEE252"/>
<stop offset="0.332" stop-color="#EEA33F"/>
<stop offset="0.6404" stop-color="#EE7030"/>
<stop offset="0.8718" stop-color="#EE5027"/>
<stop offset="1" stop-color="#EE4423"/>
</linearGradient>
<linearGradient id="paint24_linear_1_2720" x1="9.76412" y1="-8.30427" x2="-1.31168" y2="26.769" gradientUnits="userSpaceOnUse">
<stop stop-color="#EEE252"/>
<stop offset="0.332" stop-color="#EEA33F"/>
<stop offset="0.6404" stop-color="#EE7030"/>
<stop offset="0.8718" stop-color="#EE5027"/>
<stop offset="1" stop-color="#EE4423"/>
</linearGradient>
<linearGradient id="paint25_linear_1_2720" x1="8.62038" y1="-8.66539" x2="-2.45538" y2="26.4079" gradientUnits="userSpaceOnUse">
<stop stop-color="#EEE252"/>
<stop offset="0.332" stop-color="#EEA33F"/>
<stop offset="0.6404" stop-color="#EE7030"/>
<stop offset="0.8718" stop-color="#EE5027"/>
<stop offset="1" stop-color="#EE4423"/>
</linearGradient>
<linearGradient id="paint26_linear_1_2720" x1="11.1552" y1="-7.86498" x2="0.0794434" y2="27.2083" gradientUnits="userSpaceOnUse">
<stop stop-color="#EEE252"/>
<stop offset="0.332" stop-color="#EEA33F"/>
<stop offset="0.6404" stop-color="#EE7030"/>
<stop offset="0.8718" stop-color="#EE5027"/>
<stop offset="1" stop-color="#EE4423"/>
</linearGradient>
<linearGradient id="paint27_linear_1_2720" x1="19.1733" y1="-5.33273" x2="8.09759" y2="29.7406" gradientUnits="userSpaceOnUse">
<stop stop-color="#EEE252"/>
<stop offset="0.332" stop-color="#EEA33F"/>
<stop offset="0.6404" stop-color="#EE7030"/>
<stop offset="0.8718" stop-color="#EE5027"/>
<stop offset="1" stop-color="#EE4423"/>
</linearGradient>
<linearGradient id="paint28_linear_1_2720" x1="20.5587" y1="-4.89513" x2="9.48291" y2="30.1782" gradientUnits="userSpaceOnUse">
<stop stop-color="#EEE252"/>
<stop offset="0.332" stop-color="#EEA33F"/>
<stop offset="0.6404" stop-color="#EE7030"/>
<stop offset="0.8718" stop-color="#EE5027"/>
<stop offset="1" stop-color="#EE4423"/>
</linearGradient>
<linearGradient id="paint29_linear_1_2720" x1="19.6843" y1="-5.17108" x2="8.60852" y2="29.9022" gradientUnits="userSpaceOnUse">
<stop stop-color="#EEE252"/>
<stop offset="0.332" stop-color="#EEA33F"/>
<stop offset="0.6404" stop-color="#EE7030"/>
<stop offset="0.8718" stop-color="#EE5027"/>
<stop offset="1" stop-color="#EE4423"/>
</linearGradient>
<linearGradient id="paint30_linear_1_2720" x1="18.5858" y1="-5.5186" x2="7.50994" y2="29.5547" gradientUnits="userSpaceOnUse">
<stop stop-color="#EEE252"/>
<stop offset="0.332" stop-color="#EEA33F"/>
<stop offset="0.6404" stop-color="#EE7030"/>
<stop offset="0.8718" stop-color="#EE5027"/>
<stop offset="1" stop-color="#EE4423"/>
</linearGradient>
<linearGradient id="paint31_linear_1_2720" x1="17.6665" y1="-5.80881" x2="6.59074" y2="29.2645" gradientUnits="userSpaceOnUse">
<stop stop-color="#EEE252"/>
<stop offset="0.332" stop-color="#EEA33F"/>
<stop offset="0.6404" stop-color="#EE7030"/>
<stop offset="0.8718" stop-color="#EE5027"/>
<stop offset="1" stop-color="#EE4423"/>
</linearGradient>
<linearGradient id="paint32_linear_1_2720" x1="17.2628" y1="-5.93599" x2="6.18699" y2="29.1373" gradientUnits="userSpaceOnUse">
<stop stop-color="#EEE252"/>
<stop offset="0.332" stop-color="#EEA33F"/>
<stop offset="0.6404" stop-color="#EE7030"/>
<stop offset="0.8718" stop-color="#EE5027"/>
<stop offset="1" stop-color="#EE4423"/>
</linearGradient>
<linearGradient id="paint33_linear_1_2720" x1="26.6072" y1="-2.98561" x2="15.5315" y2="32.0877" gradientUnits="userSpaceOnUse">
<stop stop-color="#EEE252"/>
<stop offset="0.332" stop-color="#EEA33F"/>
<stop offset="0.6404" stop-color="#EE7030"/>
<stop offset="0.8718" stop-color="#EE5027"/>
<stop offset="1" stop-color="#EE4423"/>
</linearGradient>
<linearGradient id="paint34_linear_1_2720" x1="24.4886" y1="-3.65457" x2="13.4129" y2="31.4187" gradientUnits="userSpaceOnUse">
<stop stop-color="#EEE252"/>
<stop offset="0.332" stop-color="#EEA33F"/>
<stop offset="0.6404" stop-color="#EE7030"/>
<stop offset="0.8718" stop-color="#EE5027"/>
<stop offset="1" stop-color="#EE4423"/>
</linearGradient>
<linearGradient id="paint35_linear_1_2720" x1="26.2667" y1="-3.0934" x2="15.191" y2="31.9799" gradientUnits="userSpaceOnUse">
<stop stop-color="#EEE252"/>
<stop offset="0.332" stop-color="#EEA33F"/>
<stop offset="0.6404" stop-color="#EE7030"/>
<stop offset="0.8718" stop-color="#EE5027"/>
<stop offset="1" stop-color="#EE4423"/>
</linearGradient>
<linearGradient id="paint36_linear_1_2720" x1="26.307" y1="-3.08053" x2="15.2312" y2="31.9928" gradientUnits="userSpaceOnUse">
<stop stop-color="#EEE252"/>
<stop offset="0.332" stop-color="#EEA33F"/>
<stop offset="0.6404" stop-color="#EE7030"/>
<stop offset="0.8718" stop-color="#EE5027"/>
<stop offset="1" stop-color="#EE4423"/>
</linearGradient>
<linearGradient id="paint37_linear_1_2720" x1="24.8832" y1="-3.52995" x2="13.8075" y2="31.5433" gradientUnits="userSpaceOnUse">
<stop stop-color="#EEE252"/>
<stop offset="0.332" stop-color="#EEA33F"/>
<stop offset="0.6404" stop-color="#EE7030"/>
<stop offset="0.8718" stop-color="#EE5027"/>
<stop offset="1" stop-color="#EE4423"/>
</linearGradient>
<linearGradient id="paint38_linear_1_2720" x1="24.5228" y1="-3.64389" x2="13.4471" y2="31.4294" gradientUnits="userSpaceOnUse">
<stop stop-color="#EEE252"/>
<stop offset="0.332" stop-color="#EEA33F"/>
<stop offset="0.6404" stop-color="#EE7030"/>
<stop offset="0.8718" stop-color="#EE5027"/>
<stop offset="1" stop-color="#EE4423"/>
</linearGradient>
<linearGradient id="paint39_linear_1_2720" x1="26.1941" y1="-3.11591" x2="15.1184" y2="31.9574" gradientUnits="userSpaceOnUse">
<stop stop-color="#EEE252"/>
<stop offset="0.332" stop-color="#EEA33F"/>
<stop offset="0.6404" stop-color="#EE7030"/>
<stop offset="0.8718" stop-color="#EE5027"/>
<stop offset="1" stop-color="#EE4423"/>
</linearGradient>
<linearGradient id="paint40_linear_1_2720" x1="20.5556" y1="0.826772" x2="13.3097" y2="23.7719" gradientUnits="userSpaceOnUse">
<stop stop-color="#EEE252"/>
<stop offset="0.332" stop-color="#EEA33F"/>
<stop offset="0.6404" stop-color="#EE7030"/>
<stop offset="0.8718" stop-color="#EE5027"/>
<stop offset="1" stop-color="#EE4423"/>
</linearGradient>
<linearGradient id="paint41_linear_1_2720" x1="20.3088" y1="0.748604" x2="13.0629" y2="23.6938" gradientUnits="userSpaceOnUse">
<stop stop-color="#EEE252"/>
<stop offset="0.332" stop-color="#EEA33F"/>
<stop offset="0.6404" stop-color="#EE7030"/>
<stop offset="0.8718" stop-color="#EE5027"/>
<stop offset="1" stop-color="#EE4423"/>
</linearGradient>
<linearGradient id="paint42_linear_1_2720" x1="20.2737" y1="0.737783" x2="13.0279" y2="23.683" gradientUnits="userSpaceOnUse">
<stop stop-color="#EEE252"/>
<stop offset="0.332" stop-color="#EEA33F"/>
<stop offset="0.6404" stop-color="#EE7030"/>
<stop offset="0.8718" stop-color="#EE5027"/>
<stop offset="1" stop-color="#EE4423"/>
</linearGradient>
<linearGradient id="paint43_linear_1_2720" x1="19.9359" y1="0.630992" x2="12.6901" y2="23.5762" gradientUnits="userSpaceOnUse">
<stop stop-color="#EEE252"/>
<stop offset="0.332" stop-color="#EEA33F"/>
<stop offset="0.6404" stop-color="#EE7030"/>
<stop offset="0.8718" stop-color="#EE5027"/>
<stop offset="1" stop-color="#EE4423"/>
</linearGradient>
<linearGradient id="paint44_linear_1_2720" x1="19.9937" y1="0.649217" x2="12.7478" y2="23.5944" gradientUnits="userSpaceOnUse">
<stop stop-color="#EEE252"/>
<stop offset="0.332" stop-color="#EEA33F"/>
<stop offset="0.6404" stop-color="#EE7030"/>
<stop offset="0.8718" stop-color="#EE5027"/>
<stop offset="1" stop-color="#EE4423"/>
</linearGradient>
<linearGradient id="paint45_linear_1_2720" x1="20.9559" y1="0.953178" x2="13.71" y2="23.8984" gradientUnits="userSpaceOnUse">
<stop stop-color="#EEE252"/>
<stop offset="0.332" stop-color="#EEA33F"/>
<stop offset="0.6404" stop-color="#EE7030"/>
<stop offset="0.8718" stop-color="#EE5027"/>
<stop offset="1" stop-color="#EE4423"/>
</linearGradient>
<linearGradient id="paint46_linear_1_2720" x1="21.2437" y1="1.0439" x2="13.9979" y2="23.9891" gradientUnits="userSpaceOnUse">
<stop stop-color="#EEE252"/>
<stop offset="0.332" stop-color="#EEA33F"/>
<stop offset="0.6404" stop-color="#EE7030"/>
<stop offset="0.8718" stop-color="#EE5027"/>
<stop offset="1" stop-color="#EE4423"/>
</linearGradient>
<linearGradient id="paint47_linear_1_2720" x1="21.4839" y1="1.11997" x2="14.2381" y2="24.0651" gradientUnits="userSpaceOnUse">
<stop stop-color="#EEE252"/>
<stop offset="0.332" stop-color="#EEA33F"/>
<stop offset="0.6404" stop-color="#EE7030"/>
<stop offset="0.8718" stop-color="#EE5027"/>
<stop offset="1" stop-color="#EE4423"/>
</linearGradient>
<linearGradient id="paint48_linear_1_2720" x1="20.968" y1="0.957009" x2="13.7222" y2="23.9022" gradientUnits="userSpaceOnUse">
<stop stop-color="#EEE252"/>
<stop offset="0.332" stop-color="#EEA33F"/>
<stop offset="0.6404" stop-color="#EE7030"/>
<stop offset="0.8718" stop-color="#EE5027"/>
<stop offset="1" stop-color="#EE4423"/>
</linearGradient>
<linearGradient id="paint49_linear_1_2720" x1="13.3726" y1="-7.16462" x2="2.29674" y2="27.9087" gradientUnits="userSpaceOnUse">
<stop stop-color="#EEE252"/>
<stop offset="0.332" stop-color="#EEA33F"/>
<stop offset="0.6404" stop-color="#EE7030"/>
<stop offset="0.8718" stop-color="#EE5027"/>
<stop offset="1" stop-color="#EE4423"/>
</linearGradient>
<linearGradient id="paint50_linear_1_2720" x1="28.8142" y1="-2.28849" x2="17.7384" y2="32.7848" gradientUnits="userSpaceOnUse">
<stop stop-color="#EEE252"/>
<stop offset="0.332" stop-color="#EEA33F"/>
<stop offset="0.6404" stop-color="#EE7030"/>
<stop offset="0.8718" stop-color="#EE5027"/>
<stop offset="1" stop-color="#EE4423"/>
</linearGradient>
<linearGradient id="paint51_linear_1_2720" x1="24.0901" y1="-3.78047" x2="13.0143" y2="31.2928" gradientUnits="userSpaceOnUse">
<stop stop-color="#EEE252"/>
<stop offset="0.332" stop-color="#EEA33F"/>
<stop offset="0.6404" stop-color="#EE7030"/>
<stop offset="0.8718" stop-color="#EE5027"/>
<stop offset="1" stop-color="#EE4423"/>
</linearGradient>
<linearGradient id="paint52_linear_1_2720" x1="14.8939" y1="-6.68419" x2="3.81805" y2="28.3891" gradientUnits="userSpaceOnUse">
<stop stop-color="#EEE252"/>
<stop offset="0.332" stop-color="#EEA33F"/>
<stop offset="0.6404" stop-color="#EE7030"/>
<stop offset="0.8718" stop-color="#EE5027"/>
<stop offset="1" stop-color="#EE4423"/>
</linearGradient>
<linearGradient id="paint53_linear_1_2720" x1="20.7626" y1="-4.83115" x2="9.68681" y2="30.2421" gradientUnits="userSpaceOnUse">
<stop stop-color="#EEE252"/>
<stop offset="0.332" stop-color="#EEA33F"/>
<stop offset="0.6404" stop-color="#EE7030"/>
<stop offset="0.8718" stop-color="#EE5027"/>
<stop offset="1" stop-color="#EE4423"/>
</linearGradient>
<linearGradient id="paint54_linear_1_2720" x1="21.5077" y1="-4.59559" x2="10.432" y2="30.4776" gradientUnits="userSpaceOnUse">
<stop stop-color="#EEE252"/>
<stop offset="0.332" stop-color="#EEA33F"/>
<stop offset="0.6404" stop-color="#EE7030"/>
<stop offset="0.8718" stop-color="#EE5027"/>
<stop offset="1" stop-color="#EE4423"/>
</linearGradient>
<linearGradient id="paint55_linear_1_2720" x1="21.0379" y1="-4.74375" x2="9.9622" y2="30.3294" gradientUnits="userSpaceOnUse">
<stop stop-color="#EEE252"/>
<stop offset="0.332" stop-color="#EEA33F"/>
<stop offset="0.6404" stop-color="#EE7030"/>
<stop offset="0.8718" stop-color="#EE5027"/>
<stop offset="1" stop-color="#EE4423"/>
</linearGradient>
<linearGradient id="paint56_linear_1_2720" x1="21.941" y1="-4.4591" x2="10.8651" y2="30.6142" gradientUnits="userSpaceOnUse">
<stop stop-color="#EEE252"/>
<stop offset="0.332" stop-color="#EEA33F"/>
<stop offset="0.6404" stop-color="#EE7030"/>
<stop offset="0.8718" stop-color="#EE5027"/>
<stop offset="1" stop-color="#EE4423"/>
</linearGradient>
<linearGradient id="paint57_linear_1_2720" x1="21.8014" y1="-4.50345" x2="10.7255" y2="30.57" gradientUnits="userSpaceOnUse">
<stop stop-color="#EEE252"/>
<stop offset="0.332" stop-color="#EEA33F"/>
<stop offset="0.6404" stop-color="#EE7030"/>
<stop offset="0.8718" stop-color="#EE5027"/>
<stop offset="1" stop-color="#EE4423"/>
</linearGradient>
<linearGradient id="paint58_linear_1_2720" x1="21.5491" y1="-4.58273" x2="10.4734" y2="30.4905" gradientUnits="userSpaceOnUse">
<stop stop-color="#EEE252"/>
<stop offset="0.332" stop-color="#EEA33F"/>
<stop offset="0.6404" stop-color="#EE7030"/>
<stop offset="0.8718" stop-color="#EE5027"/>
<stop offset="1" stop-color="#EE4423"/>
</linearGradient>
<linearGradient id="paint59_linear_1_2720" x1="20.043" y1="-5.05823" x2="8.96728" y2="30.015" gradientUnits="userSpaceOnUse">
<stop stop-color="#EEE252"/>
<stop offset="0.332" stop-color="#EEA33F"/>
<stop offset="0.6404" stop-color="#EE7030"/>
<stop offset="0.8718" stop-color="#EE5027"/>
<stop offset="1" stop-color="#EE4423"/>
</linearGradient>
<linearGradient id="paint60_linear_1_2720" x1="20.6114" y1="-4.87877" x2="9.53558" y2="30.1945" gradientUnits="userSpaceOnUse">
<stop stop-color="#EEE252"/>
<stop offset="0.332" stop-color="#EEA33F"/>
<stop offset="0.6404" stop-color="#EE7030"/>
<stop offset="0.8718" stop-color="#EE5027"/>
<stop offset="1" stop-color="#EE4423"/>
</linearGradient>
<linearGradient id="paint61_linear_1_2720" x1="19.6485" y1="-5.18292" x2="8.57277" y2="29.8904" gradientUnits="userSpaceOnUse">
<stop stop-color="#EEE252"/>
<stop offset="0.332" stop-color="#EEA33F"/>
<stop offset="0.6404" stop-color="#EE7030"/>
<stop offset="0.8718" stop-color="#EE5027"/>
<stop offset="1" stop-color="#EE4423"/>
</linearGradient>
<linearGradient id="paint62_linear_1_2720" x1="20.2863" y1="-4.98154" x2="9.21053" y2="30.0918" gradientUnits="userSpaceOnUse">
<stop stop-color="#EEE252"/>
<stop offset="0.332" stop-color="#EEA33F"/>
<stop offset="0.6404" stop-color="#EE7030"/>
<stop offset="0.8718" stop-color="#EE5027"/>
<stop offset="1" stop-color="#EE4423"/>
</linearGradient>
<linearGradient id="paint63_linear_1_2720" x1="16.7612" y1="-6.09455" x2="5.68548" y2="28.9787" gradientUnits="userSpaceOnUse">
<stop stop-color="#EEE252"/>
<stop offset="0.332" stop-color="#EEA33F"/>
<stop offset="0.6404" stop-color="#EE7030"/>
<stop offset="0.8718" stop-color="#EE5027"/>
<stop offset="1" stop-color="#EE4423"/>
</linearGradient>
<linearGradient id="paint64_linear_1_2720" x1="17.287" y1="-5.92854" x2="6.21118" y2="29.1447" gradientUnits="userSpaceOnUse">
<stop stop-color="#EEE252"/>
<stop offset="0.332" stop-color="#EEA33F"/>
<stop offset="0.6404" stop-color="#EE7030"/>
<stop offset="0.8718" stop-color="#EE5027"/>
<stop offset="1" stop-color="#EE4423"/>
</linearGradient>
<linearGradient id="paint65_linear_1_2720" x1="21.0488" y1="-4.7404" x2="9.97295" y2="30.3329" gradientUnits="userSpaceOnUse">
<stop stop-color="#EEE252"/>
<stop offset="0.332" stop-color="#EEA33F"/>
<stop offset="0.6404" stop-color="#EE7030"/>
<stop offset="0.8718" stop-color="#EE5027"/>
<stop offset="1" stop-color="#EE4423"/>
</linearGradient>
<linearGradient id="paint66_linear_1_2720" x1="26.1061" y1="-3.1434" x2="15.0303" y2="31.9299" gradientUnits="userSpaceOnUse">
<stop stop-color="#EEE252"/>
<stop offset="0.332" stop-color="#EEA33F"/>
<stop offset="0.6404" stop-color="#EE7030"/>
<stop offset="0.8718" stop-color="#EE5027"/>
<stop offset="1" stop-color="#EE4423"/>
</linearGradient>
<linearGradient id="paint67_linear_1_2720" x1="28.4778" y1="-2.39448" x2="17.402" y2="32.6788" gradientUnits="userSpaceOnUse">
<stop stop-color="#EEE252"/>
<stop offset="0.332" stop-color="#EEA33F"/>
<stop offset="0.6404" stop-color="#EE7030"/>
<stop offset="0.8718" stop-color="#EE5027"/>
<stop offset="1" stop-color="#EE4423"/>
</linearGradient>
<linearGradient id="paint68_linear_1_2720" x1="33.1216" y1="-0.9278" x2="22.0459" y2="34.1455" gradientUnits="userSpaceOnUse">
<stop stop-color="#EEE252"/>
<stop offset="0.332" stop-color="#EEA33F"/>
<stop offset="0.6404" stop-color="#EE7030"/>
<stop offset="0.8718" stop-color="#EE5027"/>
<stop offset="1" stop-color="#EE4423"/>
</linearGradient>
<linearGradient id="paint69_linear_1_2720" x1="30.8795" y1="-1.63613" x2="19.8038" y2="33.4372" gradientUnits="userSpaceOnUse">
<stop stop-color="#EEE252"/>
<stop offset="0.332" stop-color="#EEA33F"/>
<stop offset="0.6404" stop-color="#EE7030"/>
<stop offset="0.8718" stop-color="#EE5027"/>
<stop offset="1" stop-color="#EE4423"/>
</linearGradient>
<linearGradient id="paint70_linear_1_2720" x1="34.0625" y1="34.5668" x2="34.0625" y2="-5.00437" gradientUnits="userSpaceOnUse">
<stop stop-color="#EE4423"/>
<stop offset="0.2178" stop-color="#EE622C"/>
<stop offset="0.6885" stop-color="#EEAD42"/>
<stop offset="1" stop-color="#EEE252"/>
</linearGradient>
<linearGradient id="paint71_linear_1_2720" x1="45.381" y1="34.5668" x2="45.381" y2="-5.00437" gradientUnits="userSpaceOnUse">
<stop stop-color="#EE4423"/>
<stop offset="0.2178" stop-color="#EE622C"/>
<stop offset="0.6885" stop-color="#EEAD42"/>
<stop offset="1" stop-color="#EEE252"/>
</linearGradient>
<linearGradient id="paint72_linear_1_2720" x1="55.662" y1="34.5668" x2="55.662" y2="-5.00437" gradientUnits="userSpaceOnUse">
<stop stop-color="#EE4423"/>
<stop offset="0.2178" stop-color="#EE622C"/>
<stop offset="0.6885" stop-color="#EEAD42"/>
<stop offset="1" stop-color="#EEE252"/>
</linearGradient>
<linearGradient id="paint73_linear_1_2720" x1="67.6341" y1="34.5668" x2="67.6341" y2="-5.00437" gradientUnits="userSpaceOnUse">
<stop stop-color="#EE4423"/>
<stop offset="0.2178" stop-color="#EE622C"/>
<stop offset="0.6885" stop-color="#EEAD42"/>
<stop offset="1" stop-color="#EEE252"/>
</linearGradient>
</defs>
</svg>
