<svg width="331" height="336" viewBox="0 0 331 336" fill="none" xmlns="http://www.w3.org/2000/svg">
<path d="M96 93.2L98.6 95.2L106.2 85.1L119.6 95.2L112 105.3L114.6 107.3L122.2 97.2L125 99.3L131.1 91.3L128.9 89.6L129.5 88.9L125.7 86L125.1 86.7L113.3 77.7L113.9 77L110.1 74.1L109.5 74.8L107.1 73L101 81L103.7 83.1L96 93.2ZM129.6 91.5L123.2 96.7L120.3 94.5L126.7 89.4L129.6 91.5ZM117.3 92.2L114.4 90L120.8 84.9L123.7 87.1L117.3 92.2ZM111.4 87.7L108.5 85.5L114.9 80.4L117.8 82.6L111.4 87.7ZM109.1 76L112 78.2L105.6 83.3L102.7 81.1L109.1 76Z" fill="white"/>
<path d="M190.902 138.6C190.202 138.6 189.602 138.2 189.402 137.5L188.602 135.1C188.502 134.7 188.002 134.5 187.702 134.5L183.802 134.2C183.402 134.1 182.902 134.4 182.702 134.7L181.602 137C181.402 137.4 181.102 137.7 180.702 137.8C180.302 137.9 179.902 137.9 179.502 137.7L176.902 136.4C176.102 136 175.802 135.1 176.202 134.3L177.302 132C177.502 131.7 177.402 131.1 177.102 130.9L174.502 127.9C174.302 127.6 173.702 127.4 173.402 127.5L171.002 128.3C170.202 128.6 169.302 128.1 169.002 127.3L168.102 124.5C167.802 123.7 168.302 122.8 169.102 122.5L171.502 121.7C171.902 121.6 172.202 121.1 172.102 120.8L172.402 116.9C172.502 116.5 172.202 116 171.902 115.8L169.602 114.7C169.202 114.5 168.902 114.2 168.802 113.8C168.702 113.4 168.702 113 168.902 112.6L170.202 110C170.402 109.6 170.702 109.3 171.102 109.2C171.502 109.1 171.902 109.1 172.302 109.3L174.602 110.4C174.902 110.6 175.502 110.5 175.702 110.2L178.702 107.6C179.002 107.4 179.202 106.9 179.102 106.5L178.302 104.1C178.002 103.3 178.502 102.4 179.302 102.1L182.102 101.2C182.902 100.9 183.802 101.4 184.102 102.2L184.902 104.6C185.002 105 185.502 105.3 185.802 105.2L189.702 105.5C190.102 105.6 190.602 105.3 190.802 105L191.902 102.7C192.102 102.3 192.402 102 192.802 101.9C193.202 101.8 193.602 101.8 194.002 102L196.602 103.3C197.002 103.5 197.302 103.8 197.402 104.2C197.502 104.6 197.502 105 197.302 105.4L196.202 107.7C196.002 108 196.102 108.6 196.402 108.8L199.002 111.8C199.202 112.1 199.802 112.3 200.102 112.2L202.502 111.4C202.902 111.3 203.302 111.3 203.702 111.5C204.102 111.7 204.402 112 204.502 112.4L205.402 115.2C205.702 116 205.202 116.9 204.402 117.2L202.002 118C201.602 118.1 201.302 118.6 201.402 118.9L201.102 122.8C201.002 123.2 201.302 123.7 201.602 123.9L203.902 125C204.302 125.2 204.602 125.5 204.702 125.9C204.802 126.3 204.802 126.7 204.602 127.1L203.302 129.7C203.102 130.1 202.802 130.4 202.402 130.5C202.002 130.6 201.602 130.6 201.202 130.4L198.902 129.3C198.602 129.1 198.002 129.2 197.802 129.5L194.802 132.1C194.502 132.3 194.302 132.9 194.402 133.2L195.202 135.6C195.502 136.4 195.002 137.3 194.202 137.6L191.402 138.5C191.302 138.5 191.102 138.6 190.902 138.6ZM187.802 133.4C188.502 133.4 189.302 134 189.602 134.7L190.402 137.1C190.502 137.4 190.802 137.6 191.102 137.5L193.902 136.6C194.202 136.5 194.402 136.2 194.302 135.9L193.502 133.5C193.202 132.7 193.602 131.8 194.202 131.3L197.102 128.8C197.602 128.2 198.602 128.1 199.302 128.4L201.602 129.5C201.702 129.6 201.902 129.6 202.002 129.5C202.102 129.5 202.302 129.3 202.302 129.2L203.602 126.6C203.702 126.5 203.702 126.3 203.602 126.2C203.602 126.1 203.402 125.9 203.302 125.9L201.002 124.8C200.302 124.4 199.802 123.5 200.002 122.7L200.202 118.9C200.202 118.1 200.702 117.3 201.502 117L203.902 116.2C204.202 116.1 204.402 115.8 204.302 115.5L203.402 112.7C203.402 112.6 203.202 112.4 203.102 112.4C203.002 112.3 202.802 112.3 202.702 112.4L200.302 113.2C199.502 113.5 198.602 113.1 198.102 112.5L195.602 109.6C195.002 109.1 194.902 108.1 195.202 107.4L196.302 105.1C196.402 105 196.402 104.8 196.302 104.7C196.302 104.6 196.102 104.4 196.002 104.4L193.402 103.1C193.302 103 193.102 103 193.002 103.1C192.902 103.1 192.702 103.3 192.702 103.4L191.602 105.7C191.202 106.4 190.302 106.9 189.502 106.7L185.702 106.4C184.902 106.4 184.102 105.8 183.802 105.1L183.002 102.7C182.902 102.4 182.602 102.2 182.302 102.3L179.502 103C179.202 103.1 179.002 103.4 179.102 103.7L179.902 106.1C180.202 106.9 179.802 107.8 179.202 108.3L176.302 110.8C175.802 111.4 174.802 111.5 174.102 111.2L171.802 110.1C171.702 110 171.502 110 171.402 110.1C171.302 110.1 171.102 110.3 171.102 110.4L169.802 113C169.702 113.1 169.702 113.3 169.802 113.4C169.802 113.5 170.002 113.7 170.102 113.7L172.402 114.8C173.102 115.2 173.602 116.1 173.402 116.9L173.102 120.7C173.102 121.5 172.602 122.3 171.802 122.6L169.402 123.4C169.102 123.5 168.902 123.8 169.002 124.1L169.902 126.9C170.002 127.2 170.302 127.4 170.602 127.3L173.002 126.5C173.802 126.2 174.702 126.6 175.202 127.2L177.702 130.1C178.302 130.6 178.402 131.6 178.102 132.3L177.002 134.6C176.902 134.9 177.002 135.2 177.302 135.4L179.902 136.7C180.002 136.8 180.202 136.8 180.302 136.7C180.402 136.7 180.602 136.5 180.602 136.4L181.702 134.1C182.102 133.4 183.002 132.9 183.802 133.1L187.802 133.4ZM186.702 128.9C182.902 128.9 179.302 126.5 178.102 122.7C176.502 117.9 179.102 112.8 183.802 111.2C186.102 110.4 188.602 110.6 190.702 111.7C192.902 112.8 194.502 114.6 195.302 116.9C196.102 119.2 195.902 121.7 194.802 123.8C193.702 126 191.902 127.6 189.602 128.4C188.602 128.7 187.702 128.9 186.702 128.9ZM186.702 111.7C185.802 111.7 185.002 111.8 184.102 112.1C179.902 113.5 177.602 118.1 179.002 122.4C180.402 126.6 185.002 128.9 189.302 127.5C191.302 126.8 193.002 125.4 194.002 123.4C195.002 121.5 195.102 119.3 194.402 117.2C193.702 115.2 192.302 113.5 190.302 112.5C189.202 112 187.902 111.7 186.702 111.7Z" fill="white"/>
<path d="M226.702 122.6L225.102 122.3C224.702 122.2 224.402 121.9 224.402 121.5L223.902 119.2C223.802 118.9 223.902 118.4 224.202 118.2L225.502 117.3C225.802 117.1 225.902 116.7 225.702 116.4L224.602 114.9C224.402 114.6 224.002 114.5 223.702 114.7L222.402 115.6C222.102 115.8 221.602 115.8 221.302 115.6L219.302 114.3C219.002 114.1 218.802 113.7 218.802 113.3L219.102 111.7C219.202 111.3 218.902 111 218.602 110.9L216.802 110.6C216.402 110.5 216.102 110.8 216.002 111.1L215.702 112.7C215.602 113.1 215.302 113.4 214.902 113.4L212.602 113.9C212.302 114 211.802 113.9 211.602 113.6L210.702 112.3C210.502 112 210.102 111.9 209.802 112.1L208.302 113.2C208.002 113.4 207.902 113.8 208.102 114.1L209.002 115.4C209.202 115.7 209.202 116.2 209.002 116.5L207.702 118.5C207.502 118.8 207.102 119 206.702 119L205.102 118.7C204.702 118.6 204.402 118.9 204.302 119.2L204.002 121C203.902 121.4 204.202 121.7 204.502 121.8L206.102 122.1C206.502 122.2 206.802 122.5 206.802 122.9L207.302 125.2C207.402 125.5 207.302 126 207.002 126.2L205.702 127.1C205.402 127.3 205.302 127.7 205.502 128L206.602 129.5C206.802 129.8 207.202 129.9 207.502 129.7L208.802 128.8C209.102 128.6 209.602 128.6 209.902 128.8L211.902 130.1C212.202 130.3 212.402 130.7 212.402 131.1L212.102 132.7C212.002 133.1 212.302 133.4 212.702 133.5L214.502 133.8C214.902 133.9 215.202 133.6 215.302 133.3L215.602 131.7C215.702 131.3 216.002 131 216.402 131L218.702 130.5C219.102 130.4 219.502 130.5 219.702 130.8L220.602 132.1C220.802 132.4 221.202 132.5 221.502 132.3L223.002 131.2C223.302 131 223.402 130.6 223.202 130.3L222.302 129C222.102 128.7 222.102 128.2 222.302 127.9L223.602 125.9C223.802 125.6 224.202 125.3 224.602 125.4L226.202 125.7C226.602 125.8 226.902 125.5 227.002 125.2L227.302 123.4C227.302 123 227.102 122.7 226.702 122.6ZM220.902 123.2C220.402 126.1 217.702 128.1 214.802 127.6C211.902 127.1 209.902 124.4 210.402 121.5C210.902 118.6 213.602 116.6 216.502 117.1C219.502 117.6 221.402 120.3 220.902 123.2Z" fill="#FF656D"/>
<path d="M157.201 17.6H131.701V23.2H144.001L144.101 69H139.201V83.4H144.601C144.601 84 144.601 84.6 144.501 85.3L144.401 88.4V91.5C144.401 92.5 145.201 93.3 146.101 93.4H146.201C146.801 93.4 147.401 93.5 147.901 93.7C148.501 93.9 149.001 94.1 149.501 94.4C150.001 94.7 150.501 95.1 150.801 95.5C151.201 95.9 151.501 96.4 151.801 97L151.901 97.2L152.001 97.4C152.001 97.5 152.101 97.7 152.201 97.8C152.301 98.1 152.401 98.4 152.401 98.6C152.501 98.8 152.501 99.2 152.501 99.6V100C152.501 100.1 152.501 100.3 152.501 100.4C152.501 101 152.301 101.6 152.101 102.1C151.901 102.7 151.601 103.2 151.201 103.6C150.801 104.1 150.401 104.5 149.901 104.8C149.401 105.1 148.901 105.4 148.301 105.6C148.001 105.7 147.701 105.8 147.501 105.8H147.301H147.201H147.101H146.501H146.401H146.301H146.101C145.901 105.8 145.801 105.8 145.601 105.8C145.301 105.8 145.001 105.7 144.701 105.7C144.101 105.6 143.501 105.4 142.901 105.1C142.301 104.8 141.801 104.5 141.201 104C140.701 103.6 140.201 103.1 139.701 102.5C139.301 101.9 138.901 101.3 138.501 100.6L138.401 100.5H138.201V100.6C138.101 101.4 138.201 102.2 138.401 103C138.601 103.8 139.001 104.6 139.501 105.3C140.001 106 140.601 106.7 141.301 107.2C142.001 107.7 142.801 108.1 143.701 108.4C144.101 108.5 144.601 108.7 145.001 108.7C145.201 108.7 145.401 108.8 145.701 108.8H146.001H146.201H146.401H147.001C147.101 108.8 147.101 108.8 147.101 108.8H147.301H147.701C148.201 108.7 148.601 108.6 149.101 108.5C150.001 108.2 150.801 107.9 151.601 107.4C152.401 106.9 153.101 106.3 153.701 105.6C154.301 104.9 154.801 104.1 155.201 103.3C155.601 102.4 155.901 101.6 156.001 100.6C156.001 100.4 156.101 100.1 156.101 99.9V99.6V99.4V99.3V99.1C156.101 98.7 156.101 98.4 156.001 97.8C155.901 97.3 155.801 96.8 155.701 96.4C155.601 96.2 155.601 96 155.501 95.7L155.401 95.4L155.301 95.1C154.901 94.2 154.401 93.5 153.801 92.7C153.201 92 152.501 91.4 151.701 90.9C150.901 90.4 150.001 90 149.101 89.7C148.801 89.6 148.501 89.5 148.201 89.5V88.1V85C148.201 84.4 148.201 83.7 148.201 83.1H153.401V68.7H148.501L148.401 22.9H149.101H172.101L231.001 22.8L231.201 152H256.901L257.301 22.8H262.201V40.5H280.901V22.8H281.001V14.2H273.801C268.901 11.6 260.101 7.20001 251.301 2.90001V-0.299988H236.901V3.30001L170.701 14.2H161.701L157.201 17.6ZM236.801 136.9L243.701 131.2L250.501 136.9H236.801ZM251.701 45.9L243.601 52.6L235.701 46L251.701 45.9ZM236.201 43.2L243.501 37.2L250.601 43.2H236.201ZM250.801 64.8L243.601 70.7L236.601 64.8H250.801ZM236.301 62.1L243.601 56.1L250.701 62.1H236.301ZM251.701 82.9L243.601 89.6L235.701 83L251.701 82.9ZM236.301 80.2L243.601 74.2L250.701 80.2H236.301ZM252.001 101.9L243.701 108.8L235.701 102.1V102L252.001 101.9ZM236.301 99.2L243.601 93.2L250.701 99.2H236.301ZM251.801 121L243.701 127.7L235.801 121.1L251.801 121ZM236.401 118.3L243.701 112.3L250.801 118.3H236.401ZM235.701 115.3V105.6L241.601 110.5L235.701 115.3ZM235.701 96.2V86.5L241.601 91.4L235.701 96.2ZM235.601 77.3V67.6L241.501 72.5L235.601 77.3ZM235.601 59.1V49.4L241.501 54.3L235.601 59.1ZM235.601 40.2V30.5L241.501 35.4L235.601 40.2ZM235.701 27H251.601L243.501 33.6L235.701 27ZM252.501 41.1L245.701 35.4L252.501 29.8V41.1ZM252.501 60L245.701 54.3L252.501 48.7V60ZM252.601 78.2L245.801 72.5L252.601 66.9V78.2ZM252.601 97.1L245.801 91.4L252.601 85.8V97.1ZM252.601 116.2L245.801 110.5L252.601 104.9V116.2ZM252.701 135.1L245.901 129.4L252.701 123.8V135.1ZM235.701 134.2V124.5L241.601 129.4L235.701 134.2ZM254.601 14.5V9.50001H251.301V6.30001C257.001 9.10001 263.101 12.1 267.801 14.5H254.601ZM187.601 14.6L236.901 6.40001V9.50001H233.601V14.5L187.601 14.6Z" fill="white"/>
<path d="M25.1009 236.2C13.3009 236.1 3.70089 226.9 3.10089 215.2C2.60089 204.5 5.80089 194.1 9.10089 190.2C14.2009 184.3 22.2009 180.9 30.1009 180.9C33.1009 180.9 36.1009 181.4 38.9009 182.4C39.3009 182.6 39.8009 182.5 40.2009 182.2C40.5009 181.9 40.7009 181.4 40.6009 181C36.2009 163.6 45.3009 144.2 60.8009 137.7C68.7009 134.4 78.5009 134.9 86.9009 139C88.4009 139.7 89.8009 140.6 91.1009 141.5V139.6C91.1009 139.2 91.1009 138.9 91.2009 138.6C90.2009 137.9 89.1009 137.3 88.0009 136.8C78.9009 132.3 68.4009 131.8 59.8009 135.4C43.8009 142.1 34.2009 161.5 37.7009 179.5C26.9009 176.5 14.6009 180.1 7.30089 188.7C3.00089 193.7 0.100891 205.2 0.600891 215.5C1.20089 228.5 12.0009 238.8 25.1009 238.9L91.1009 239.2V236.7L25.1009 236.2Z" fill="white"/>
<path d="M91.1016 141.5V236.6H93.1016V143C92.5016 142.5 91.8016 142 91.1016 141.5Z" fill="white"/>
<path d="M329.702 172.4C328.302 167.5 325.402 163.9 321.702 162.6C320.202 162.1 318.502 162 316.802 162.4C319.302 153 314.902 141.7 306.202 136.7C296.302 131 282.402 132.9 273.102 141.1C271.202 136 267.102 131.6 261.602 128.9C255.002 125.6 247.302 125.2 241.102 127.9C238.002 129.2 235.302 131.2 232.902 133.6H236.502C238.202 132.2 240.002 131.1 242.002 130.2C247.602 127.8 254.502 128.2 260.502 131.2C266.002 133.9 269.902 138.5 271.302 143.7C271.402 144.1 271.702 144.5 272.202 144.6C272.602 144.7 273.102 144.6 273.402 144.3C282.002 135.8 295.602 133.4 305.002 138.9C313.402 143.8 317.402 155.6 313.602 164.2C313.402 164.7 313.502 165.3 313.902 165.7C314.302 166.1 314.902 166.1 315.402 165.8C317.002 164.7 319.102 164.4 320.902 165C325.102 166.5 326.802 171.2 327.402 173.1C329.402 180 327.602 187.9 322.902 193.4C318.202 198.8 310.602 201.7 303.502 200.8C303.402 200.8 303.402 200.8 303.302 200.8L257.802 200.6V203.1L303.202 203.3C304.202 203.4 305.202 203.5 306.102 203.5C313.102 203.5 320.002 200.4 324.702 195C329.902 188.8 331.902 180.2 329.702 172.4Z" fill="white"/>
<path d="M234.402 135.5H251.702C253.902 135.5 255.802 137.3 255.802 139.6V200.5H257.802V139.6C257.802 136.2 255.102 133.5 251.702 133.5H236.502C235.802 134.1 235.002 134.8 234.402 135.5Z" fill="white"/>
<path d="M97.2012 133.5C94.2012 133.5 91.7012 135.7 91.2012 138.6C91.9012 139 92.5012 139.4 93.1012 139.9V139.6C93.1012 137.4 94.9012 135.5 97.2012 135.5H231.101C231.701 134.8 232.201 134.1 232.901 133.5H97.2012Z" fill="white"/>
<path d="M255.702 306C255.702 308.2 253.902 310.1 251.602 310.1H97.2016C95.0016 310.1 93.1016 308.3 93.1016 306V239.1H91.1016V306.1C91.1016 309.5 93.8016 312.2 97.2016 312.2H251.702C255.002 312.2 257.802 309.5 257.802 306.1V203H255.802V306H255.702Z" fill="white"/>
<path d="M236.502 133.5H232.902C232.302 134.1 231.702 134.8 231.102 135.5H234.402C235.002 134.8 235.802 134.1 236.502 133.5Z" fill="white"/>
<path d="M255.701 200.5V203H257.701V200.5H255.701Z" fill="white"/>
<path d="M93.1016 236.6H91.1016V239.1H93.1016V236.6Z" fill="white"/>
<path d="M91.1016 141.5C91.8016 142 92.5016 142.5 93.1016 143V139.8C92.5016 139.3 91.8016 138.9 91.2016 138.5C91.1016 138.8 91.1016 139.2 91.1016 139.5V141.5Z" fill="white"/>
<path d="M256.702 152.3V140.2C256.702 137 254.402 134.5 251.602 134.5H97.2016C94.4016 134.5 92.1016 137.1 92.1016 140.2V152.3H256.702Z" fill="white"/>
<path d="M256.702 153.3H92.1016C91.5016 153.3 91.1016 152.9 91.1016 152.3V140.2C91.1016 136.5 93.8016 133.5 97.2016 133.5H251.702C255.002 133.5 257.802 136.5 257.802 140.2V152.3C257.702 152.9 257.302 153.3 256.702 153.3ZM93.1016 151.3H255.702V140.2C255.702 137.6 253.902 135.5 251.602 135.5H97.2016C95.0016 135.5 93.1016 137.6 93.1016 140.2V151.3Z" fill="white"/>
<path d="M111.501 144.9C111.501 146.8 110.001 148.3 108.101 148.3C106.201 148.3 104.701 146.8 104.701 144.9C104.701 143 106.201 141.5 108.101 141.5C109.901 141.5 111.501 143 111.501 144.9Z" fill="#FCDD5B"/>
<path d="M123.8 144.6C123.8 146.5 122.3 148 120.4 148C118.5 148 117 146.5 117 144.6C117 142.7 118.5 141.2 120.4 141.2C122.3 141.2 123.8 142.7 123.8 144.6Z" fill="#00EA7A"/>
<path d="M142.101 131.8C139.701 131.8 137.701 129.8 137.701 127.4C137.701 125 139.701 123 142.101 123C144.501 123 146.501 125 146.501 127.4C146.501 129.8 144.501 131.8 142.101 131.8ZM142.101 124.9C140.801 124.9 139.701 126 139.701 127.3C139.701 128.6 140.801 129.7 142.101 129.7C143.401 129.7 144.501 128.6 144.501 127.3C144.501 126 143.401 124.9 142.101 124.9Z" fill="white"/>
<path d="M306.7 96.7C304 96.7 301.5 97.7 299.6 99.6C296.4 102.8 295.7 107.8 298 111.8L298.2 112.1L288 122.3C288 122.3 287.5 122.8 287.5 123.5C287.5 124 287.8 124.5 288.3 125C288.8 125.5 289.4 125.8 290 125.8C290.7 125.8 291.2 125.4 291.2 125.4L301.3 115.3L301.6 115.5C303.1 116.4 304.9 116.9 306.7 116.9C309.4 116.9 311.9 115.9 313.8 114C317.7 110.1 317.7 103.7 313.8 99.8C311.9 97.7 309.4 96.7 306.7 96.7ZM306.7 113.7C302.8 113.7 299.7 110.5 299.6 106.7C299.6 102.8 302.8 99.6 306.7 99.6C310.6 99.6 313.8 102.8 313.8 106.7C313.8 110.6 310.6 113.7 306.7 113.7Z" fill="#FF656D"/>
<path d="M303 108.2H310.3V106.3H303V108.2Z" fill="white"/>
<path d="M281.301 210.2C273.601 210.2 267.301 216.5 267.301 224.2C267.301 231.9 273.601 238.2 281.301 238.2C289.001 238.2 295.301 231.9 295.301 224.2C295.301 216.4 289.001 210.2 281.301 210.2ZM281.301 234.6C275.501 234.6 270.801 229.9 270.801 224.1C270.801 218.3 275.501 213.6 281.301 213.6C287.101 213.6 291.801 218.3 291.801 224.1C291.801 229.9 287.101 234.6 281.301 234.6Z" fill="#FF656D"/>
<path d="M281.3 224.6C281.1 224.6 280.9 224.4 280.9 224.2V218.9C280.9 218.7 281.1 218.5 281.3 218.5C281.5 218.5 281.7 218.7 281.7 218.9V224.2C281.7 224.4 281.5 224.6 281.3 224.6Z" fill="white"/>
<path d="M287.501 224.6H281.201C281.001 224.6 280.801 224.4 280.801 224.2C280.801 224 281.001 223.8 281.201 223.8H287.501C287.701 223.8 287.901 224 287.901 224.2C287.901 224.4 287.801 224.6 287.501 224.6Z" fill="white"/>
<path d="M281.702 214.9C281.702 215.1 281.502 215.3 281.302 215.3C281.102 215.3 280.902 215.1 280.902 214.9C280.902 214.7 281.102 214.5 281.302 214.5C281.502 214.5 281.702 214.6 281.702 214.9Z" fill="white"/>
<path d="M288.201 217.9C288.001 218.1 287.801 218.1 287.601 217.9C287.401 217.7 287.401 217.5 287.601 217.3C287.801 217.1 288.001 217.1 288.201 217.3C288.301 217.5 288.301 217.7 288.201 217.9Z" fill="white"/>
<path d="M290.601 224.6C290.401 224.6 290.201 224.4 290.201 224.2C290.201 224 290.401 223.8 290.601 223.8C290.801 223.8 291.001 224 291.001 224.2C291.001 224.4 290.801 224.6 290.601 224.6Z" fill="white"/>
<path d="M287.601 231C287.401 230.8 287.401 230.6 287.601 230.4C287.801 230.2 288.001 230.2 288.201 230.4C288.401 230.6 288.401 230.8 288.201 231C288.001 231.2 287.701 231.2 287.601 231Z" fill="white"/>
<path d="M281.302 233.9C281.523 233.9 281.702 233.721 281.702 233.5C281.702 233.279 281.523 233.1 281.302 233.1C281.081 233.1 280.902 233.279 280.902 233.5C280.902 233.721 281.081 233.9 281.302 233.9Z" fill="white"/>
<path d="M274.402 230.4C274.602 230.2 274.802 230.2 275.002 230.4C275.202 230.6 275.202 230.8 275.002 231C274.802 231.2 274.602 231.2 274.402 231C274.202 230.9 274.202 230.6 274.402 230.4Z" fill="white"/>
<path d="M272.002 223.7C272.202 223.7 272.402 223.9 272.402 224.1C272.402 224.3 272.202 224.5 272.002 224.5C271.802 224.5 271.602 224.3 271.602 224.1C271.602 223.9 271.702 223.7 272.002 223.7Z" fill="white"/>
<path d="M275.002 217.3C275.202 217.5 275.202 217.7 275.002 217.9C274.802 218.1 274.602 218.1 274.402 217.9C274.202 217.7 274.202 217.5 274.402 217.3C274.602 217.1 274.802 217.1 275.002 217.3Z" fill="white"/>
<path d="M295.9 218.8H301.8C302 218.8 302.2 218.6 302.2 218.4C302.2 218.2 302 218 301.8 218H295.9C295.7 218 295.5 218.2 295.5 218.4C295.5 218.6 295.7 218.8 295.9 218.8Z" fill="white"/>
<path d="M301.8 219.3H295.9C295.4 219.3 295 218.9 295 218.4C295 217.9 295.4 217.5 295.9 217.5H301.8C302.3 217.5 302.7 217.9 302.7 218.4C302.7 218.9 302.3 219.3 301.8 219.3Z" fill="white"/>
<path d="M301.8 229.5H295.9C295.7 229.5 295.5 229.7 295.5 229.9C295.5 230.1 295.7 230.3 295.9 230.3H301.8C302 230.3 302.2 230.1 302.2 229.9C302.2 229.7 302 229.5 301.8 229.5Z" fill="white"/>
<path d="M301.8 230.8H295.9C295.4 230.8 295 230.4 295 229.9C295 229.4 295.4 229 295.9 229H301.8C302.3 229 302.7 229.4 302.7 229.9C302.7 230.4 302.3 230.8 301.8 230.8Z" fill="white"/>
<path d="M309.099 223.8H298.099C297.899 223.8 297.699 224 297.699 224.2C297.699 224.4 297.899 224.6 298.099 224.6H309.099C309.299 224.6 309.499 224.4 309.499 224.2C309.499 224 309.299 223.8 309.099 223.8Z" fill="white"/>
<path d="M309.099 225.1H298.099C297.599 225.1 297.199 224.7 297.199 224.2C297.199 223.7 297.599 223.3 298.099 223.3H309.099C309.599 223.3 309.999 223.7 309.999 224.2C309.999 224.7 309.599 225.1 309.099 225.1Z" fill="white"/>
<path d="M77.7004 109.7H37.4004C36.8004 109.7 36.4004 109.3 36.4004 108.7C36.4004 108.1 36.8004 107.7 37.4004 107.7H77.7004C78.3004 107.7 78.7004 108.1 78.7004 108.7C78.7004 109.3 78.3004 109.7 77.7004 109.7Z" fill="white"/>
<path d="M300.902 67.9H275.102C274.502 67.9 274.102 67.5 274.102 66.9C274.102 66.3 274.502 65.9 275.102 65.9H300.902C301.502 65.9 301.902 66.3 301.902 66.9C301.902 67.4 301.502 67.9 300.902 67.9Z" fill="white"/>
<path d="M300.902 73.5H260.602C260.002 73.5 259.602 73.1 259.602 72.5C259.602 71.9 260.002 71.5 260.602 71.5H300.902C301.502 71.5 301.902 71.9 301.902 72.5C301.902 73.1 301.502 73.5 300.902 73.5Z" fill="white"/>
<path d="M85.4004 98.1H71.9004C71.3004 98.1 70.9004 97.7 70.9004 97.1C70.9004 96.5 71.3004 96.1 71.9004 96.1H85.4004C86.0004 96.1 86.4004 96.5 86.4004 97.1C86.4004 97.6 86.0004 98.1 85.4004 98.1Z" fill="white"/>
<path d="M105.602 118H92.1016C91.5016 118 91.1016 117.6 91.1016 117C91.1016 116.4 91.5016 116 92.1016 116H105.602C106.202 116 106.602 116.4 106.602 117C106.602 117.6 106.102 118 105.602 118Z" fill="white"/>
<path d="M146.1 326.8C145.9 326.8 145.8 326.8 145.6 326.7L138.6 324.7C137.6 324.4 137 323.4 137.3 322.4C137.6 321.4 138.6 320.8 139.6 321.1L146.6 323.1C147.6 323.4 148.2 324.4 147.9 325.4C147.6 326.3 146.9 326.8 146.1 326.8Z" fill="#FF656D"/>
<path d="M141.6 329.3C141.4 329.3 141.3 329.3 141.1 329.2C140.1 328.9 139.5 327.9 139.8 326.9L141.8 319.9C142.1 318.9 143.1 318.3 144.1 318.6C145.1 318.9 145.7 319.9 145.4 320.9L143.4 327.9C143.1 328.8 142.4 329.3 141.6 329.3Z" fill="#FF656D"/>
<path d="M27.2008 165.8C27.0008 165.8 26.8008 165.8 26.6008 165.7L18.9008 163.5C17.8008 163.2 17.2008 162 17.5008 161C17.8008 159.9 19.0008 159.3 20.0008 159.6L27.7008 161.8C28.8008 162.1 29.4008 163.3 29.1008 164.3C29.0008 165.2 28.1008 165.8 27.2008 165.8Z" fill="#FF656D"/>
<path d="M22.3016 168.5C22.1016 168.5 21.9016 168.5 21.7016 168.4C20.6016 168.1 20.0016 166.9 20.3016 165.9L22.5016 158.2C22.8016 157.1 24.0016 156.5 25.0016 156.8C26.1016 157.1 26.7016 158.3 26.4016 159.3L24.2016 167C24.0016 167.9 23.2016 168.5 22.3016 168.5Z" fill="#FF656D"/>
<path d="M275.202 121C275.202 120.9 275.102 120.7 275.102 120.6L275.002 114.9C275.002 114.1 275.602 113.4 276.402 113.4C277.202 113.4 277.902 114 277.902 114.8L278.002 120.5C278.002 121.3 277.402 122 276.602 122C276.002 122 275.402 121.6 275.202 121Z" fill="white"/>
<path d="M272.301 118.2C272.301 118.1 272.201 117.9 272.201 117.8C272.201 117 272.801 116.3 273.601 116.3L279.301 116.2C280.101 116.2 280.801 116.8 280.801 117.6C280.801 118.4 280.201 119.1 279.401 119.1L273.701 119.2C273.101 119.2 272.501 118.8 272.301 118.2Z" fill="white"/>
<path d="M269.302 252.8C269.302 252.6 269.202 252.5 269.202 252.3L269.102 245.4C269.102 244.4 269.902 243.6 270.802 243.6C271.802 243.6 272.602 244.4 272.602 245.3L272.702 252.2C272.702 253.2 271.902 254 271.002 254C270.202 254.1 269.502 253.5 269.302 252.8Z" fill="white"/>
<path d="M265.801 249.4C265.801 249.2 265.701 249.1 265.701 248.9C265.701 247.9 266.501 247.1 267.401 247.1L274.301 247C275.301 247 276.101 247.8 276.101 248.7C276.101 249.7 275.301 250.5 274.401 250.5L267.501 250.6C266.701 250.7 266.001 250.1 265.801 249.4Z" fill="white"/>
<path d="M67.1 278.3H54V265.2H67.1V278.3ZM56 276.3H65.1V267.2H56V276.3Z" fill="white"/>
<path d="M43.6 269.1H52.3C52.6 269.1 52.9 268.8 52.9 268.5C52.9 268.2 52.6 267.9 52.3 267.9H43.6C43.3 267.9 43 268.2 43 268.5C43 268.8 43.3 269.1 43.6 269.1Z" fill="white"/>
<path d="M40.3994 275.7H52.0994C52.4994 275.7 52.8994 275.4 52.8994 275.1C52.8994 274.8 52.4994 274.5 52.0994 274.5H40.3994C39.9994 274.5 39.5994 274.8 39.5994 275.1C39.4994 275.4 39.8994 275.7 40.3994 275.7Z" fill="white"/>
<path d="M36.1 272.2H52.3C52.6 272.2 52.9 271.9 52.9 271.6C52.9 271.3 52.6 271 52.3 271H36.1C35.8 271 35.5 271.3 35.5 271.6C35.5 272 35.7 272.2 36.1 272.2Z" fill="white"/>
<path d="M200.901 89.5H187.801V76.4H200.901V89.5ZM189.801 87.5H198.901V78.4H189.801V87.5Z" fill="white"/>
<path d="M211.2 80.3H202.5C202.2 80.3 201.9 80 201.9 79.7C201.9 79.4 202.2 79.1 202.5 79.1H211.2C211.5 79.1 211.8 79.4 211.8 79.7C211.8 80 211.6 80.3 211.2 80.3Z" fill="white"/>
<path d="M214.5 86.8H202.8C202.4 86.8 202 86.5 202 86.2C202 85.9 202.4 85.6 202.8 85.6H214.5C214.9 85.6 215.3 85.9 215.3 86.2C215.3 86.5 215 86.8 214.5 86.8Z" fill="white"/>
<path d="M218.8 83.4H202.6C202.3 83.4 202 83.1 202 82.8C202 82.5 202.3 82.2 202.6 82.2H218.8C219.1 82.2 219.4 82.5 219.4 82.8C219.4 83.1 219.1 83.4 218.8 83.4Z" fill="white"/>
<path d="M118.402 126.7C120.802 126.7 120.802 122.9 118.402 122.9C116.002 123 116.002 126.7 118.402 126.7Z" fill="#F26949"/>
<path d="M81.4016 299.7C83.8016 299.7 83.8016 295.9 81.4016 295.9C79.0016 296 79.0016 299.7 81.4016 299.7Z" fill="#F26949"/>
<path d="M273.401 277.6C278.201 277.6 278.201 270.1 273.401 270.1C268.601 270.1 268.601 277.6 273.401 277.6Z" fill="white"/>
<path d="M171.401 66.6C176.201 66.6 176.201 59.1 171.401 59.1C166.601 59.1 166.601 66.6 171.401 66.6Z" fill="white"/>
<path d="M209.401 335.6C214.201 335.6 214.201 328.1 209.401 328.1C204.601 328.1 204.601 335.6 209.401 335.6Z" fill="white"/>
<path d="M10.6016 212.3C10.1016 206.2 11.8016 200.4 15.6016 195.5C16.5016 194.4 14.9016 192.8 14.0016 193.9C9.90158 199.2 7.90158 205.5 8.40158 212.3C8.50158 213.8 10.7016 213.8 10.6016 212.3Z" fill="white"/>
<path d="M17.9016 194.5C18.1016 194.5 18.2016 194.5 18.4016 194.5C19.8016 194.5 19.9016 192.3 18.4016 192.3C18.2016 192.3 18.1016 192.3 17.9016 192.3C16.5016 192.2 16.5016 194.5 17.9016 194.5Z" fill="white"/>
<path d="M58.8008 148.8C58.8008 149 58.8008 149.1 58.8008 149.3C58.8008 150.7 61.0008 150.8 61.0008 149.3C61.0008 149.1 61.0008 149 61.0008 148.8C61.0008 147.4 58.8008 147.4 58.8008 148.8Z" fill="white"/>
<path d="M61.8008 148.8C61.8008 149 61.8008 149.1 61.8008 149.3C61.8008 150.7 64.0008 150.8 64.0008 149.3C64.0008 149.1 64.0008 149 64.0008 148.8C64.0008 147.4 61.8008 147.4 61.8008 148.8Z" fill="white"/>
<path d="M297.901 147.6C302.501 148 305.601 152.5 305.001 156.9C304.801 158.3 307.101 158.3 307.201 156.9C308.001 151.1 303.501 145.9 297.801 145.4C296.501 145.2 296.501 147.4 297.901 147.6Z" fill="white"/>
<path d="M306.402 162.5C307.802 162.5 307.902 160.3 306.402 160.3C305.002 160.2 305.002 162.5 306.402 162.5Z" fill="white"/>
<path d="M1.40063 234.9C3.20063 237.8 5.70063 240 8.80063 241.3C10.1006 241.9 11.3006 239.9 9.90063 239.4C7.10063 238.2 4.90063 236.3 3.30063 233.8C2.60063 232.6 0.600625 233.7 1.40063 234.9Z" fill="white"/>
<path d="M2.60137 242.3C4.10137 244.9 7.00137 246.5 10.0014 246.1C11.4014 245.9 11.4014 243.7 10.0014 243.9C7.80137 244.2 5.70137 243.2 4.60137 241.2C3.80137 239.9 1.80137 241.1 2.60137 242.3Z" fill="white"/>
<path d="M312.301 129.4C316.201 131.5 319.201 134.8 321.001 138.9C321.601 140.2 323.501 139.1 322.901 137.8C321.001 133.4 317.601 129.8 313.401 127.5C312.201 126.7 311.001 128.7 312.301 129.4Z" fill="white"/>
<path d="M323.402 144.5C324.802 144.5 324.902 142.3 323.402 142.3C322.002 142.2 322.002 144.5 323.402 144.5Z" fill="white"/>
<path d="M320.301 129.3C322.601 131 324.301 133.4 325.201 136.1C325.701 137.5 327.801 136.9 327.401 135.5C326.301 132.2 324.301 129.4 321.401 127.3C320.301 126.5 319.201 128.5 320.301 129.3Z" fill="white"/>
<path d="M280.7 23.1H262V40.7H280.7V23.1Z" fill="#FF656D"/>
<path d="M153.301 69H139.201V83.3H153.301V69Z" fill="#FF656D"/>
<path d="M198.001 251.1C198.001 251 198.001 251 198.001 251.1C198.501 250.7 198.601 250.1 198.301 249.7C198.201 249.5 198.001 249.4 197.901 249.3L192.701 246.3L178.501 238L181.601 236.2L196.801 245C197.001 245.1 197.201 245.1 197.301 245.1C197.701 245.1 198.101 244.9 198.301 244.5C198.601 244 198.401 243.3 197.901 243L183.801 234.9L186.901 233.1L196.901 238.8C197.101 238.9 197.301 238.9 197.401 238.9C197.801 238.9 198.201 238.7 198.401 238.3C198.701 237.8 198.501 237.1 198.001 236.8L189.101 231.7L197.901 226.6L198.001 226.5C198.001 226.4 198.001 226.3 198.101 226.2C198.101 226.1 198.101 226 198.001 225.9L178.501 213.8L181.601 212L196.801 220.8C197.001 220.9 197.201 220.9 197.301 220.9C197.701 220.9 198.101 220.7 198.301 220.3C198.601 219.8 198.401 219.1 197.901 218.8L183.801 210.7L186.901 208.9L196.901 214.6C197.101 214.7 197.301 214.7 197.401 214.7C197.801 214.7 198.201 214.5 198.401 214.1C198.701 213.6 198.501 212.9 198.001 212.6L187.501 206.6C187.401 206.5 187.301 206.5 187.201 206.5C187.101 206.5 187.001 206.6 186.901 206.6L167.601 217.8V214.3L182.801 205.5C183.301 205.2 183.501 204.5 183.201 204C182.901 203.5 182.201 203.3 181.701 203.6L167.601 211.7V208.2L177.601 202.4C178.101 202.1 178.301 201.4 178.001 200.9C177.701 200.4 177.001 200.2 176.501 200.5L166.001 206.6C165.901 206.7 165.901 206.8 165.801 206.8C165.801 206.9 165.701 207 165.701 207.1V241.6L162.601 239.8V210.1C162.601 209.5 162.101 209 161.501 209C160.901 209 160.401 209.5 160.401 210.1V238.5L157.301 236.7V213.1C157.301 212.5 156.801 212 156.201 212C155.601 212 155.101 212.5 155.101 213.1V237.4C155.101 237.5 155.201 237.6 155.201 237.7C155.301 237.8 155.301 237.9 155.401 237.9L174.801 249.1L171.701 250.9L156.501 242.1C156.001 241.8 155.301 242 155.001 242.5C154.701 243 154.901 243.7 155.401 244L169.501 252.1L166.401 253.9L156.401 248.1C155.901 247.8 155.201 248 154.901 248.5C154.601 249 154.801 249.7 155.301 250L165.801 256.1C166.001 256.2 166.201 256.3 166.401 256.3C166.601 256.3 166.801 256.3 166.901 256.2L177.401 250.1L187.401 244.3L190.501 246.1L170.501 258.3C170.001 258.6 169.801 259.3 170.101 259.8C170.301 260.2 170.701 260.4 171.101 260.4C171.301 260.4 171.501 260.4 171.601 260.3L192.101 248.5L195.201 250.3L175.801 261.5C175.301 261.8 175.101 262.5 175.401 263C175.601 263.4 176.001 263.6 176.401 263.6C176.601 263.6 176.801 263.6 176.901 263.5L197.901 251.4C197.901 251.1 197.901 251.1 198.001 251.1C197.901 251.1 197.901 251.1 198.001 251.1ZM176.301 248.9L166.901 243.5V220.5L176.301 215.1L184.601 219.9L175.701 225C175.201 225.3 175.001 226 175.301 226.5C175.501 226.9 175.901 227.1 176.301 227.1C176.501 227.1 176.701 227.1 176.801 227L186.801 221.3L189.901 223.1L175.801 231.2C175.301 231.5 175.101 232.2 175.401 232.7C175.601 233.1 176.001 233.3 176.401 233.3C176.601 233.3 176.801 233.3 176.901 233.2L192.101 224.4L195.201 226.2L175.801 237.4C175.801 237.5 175.801 237.6 175.701 237.7C175.701 237.8 175.701 237.9 175.801 238L175.901 238.1C175.901 238.1 175.901 238.1 176.001 238.1L184.801 243.2L176.301 248.9Z" fill="#FF656D"/>
</svg>
