<svg width="393" height="138" viewBox="0 0 393 138" fill="none" xmlns="http://www.w3.org/2000/svg">
<path d="M91.8167 110.786C92.7276 109.831 93.1831 108.876 92.2722 107.444C92.2722 106.966 91.8167 106.489 91.3613 106.489L80.8861 100.282L51.2822 82.6168L57.6584 78.7972L89.5395 97.8949C89.9949 97.8949 90.4504 98.3723 90.9058 98.3723C91.8167 98.3723 92.2722 97.8949 92.7276 96.94C93.183 95.9851 93.1831 94.0754 91.8167 93.5979L62.2128 75.9326L68.5891 71.6356L89.5395 84.0491C89.9949 84.0491 90.4504 84.5265 90.9058 84.5265C91.8167 84.5265 92.2722 84.0491 92.7276 83.0942C93.183 82.1393 93.1831 80.2296 91.8167 79.7521L73.1435 68.771L91.8167 57.7898C91.8167 57.7898 91.8167 57.7898 91.8167 57.3124V56.8349V56.3575L51.2822 32.0079L57.6584 28.1884L89.5395 47.2861C89.9949 47.2861 90.4504 47.7635 90.9058 47.7635C91.8167 47.7635 92.2722 47.2861 92.7276 46.3312C93.183 45.3763 93.1831 43.4665 91.8167 42.9891L62.2128 25.3238L68.5891 18.6396L89.5395 31.0531C89.9949 31.0531 90.4504 31.5305 90.9058 31.5305C91.8167 31.5305 92.2722 31.0531 92.7276 30.0982C93.183 29.1433 93.1831 27.2335 91.8167 26.7561L69.9554 13.3877C69.9554 13.3877 69.4999 13.3877 69.4999 12.9103C69.4999 12.9103 69.0445 12.9103 69.0445 13.3877L26.6882 38.2147V30.5756L58.5693 11.4779C59.4802 11.0005 59.9356 9.56818 59.4802 8.13585C59.0247 7.18097 57.6584 6.70353 56.2921 7.18097L26.6882 24.8463V17.2072L47.6386 4.79376C48.5495 4.31632 49.0049 2.884 48.5495 1.45167C48.0941 0.0193451 46.2723 -0.458097 45.3614 0.496787L23.5001 13.8652C23.0446 14.3426 22.5892 14.3426 22.5892 14.3426C22.5892 14.3426 22.5892 14.82 22.1337 14.82V90.2558L15.7575 86.4363V21.5042C15.7575 20.0719 14.8466 19.117 13.4803 19.117C12.1139 19.117 11.2031 20.0719 11.2031 21.5042V84.0491L4.82683 80.707V29.1433C4.82683 27.711 3.91595 26.7561 2.54961 26.7561C1.18328 26.7561 0.27239 27.711 0.27239 29.1433V82.1393C0.27239 82.1393 0.27239 82.6168 0.727835 82.6168L1.18328 83.0942L41.7178 107.444L35.3416 111.263L3.4605 92.1656C2.54961 91.6882 0.727835 91.6882 0.27239 93.1205C-0.183054 95.5077 0.272391 96.94 1.63872 97.4175L31.2426 115.083L24.4109 119.38L3.4605 106.966C2.54961 106.489 0.727835 106.489 0.27239 107.921C-0.183054 108.876 -0.183054 110.786 1.18328 111.263L23.5001 124.154C23.9555 124.154 24.4109 124.632 24.8664 124.632C25.3218 124.632 25.7773 124.632 26.2327 124.154L48.0941 110.786L69.0445 98.3723L75.4207 102.192L34.8862 126.541C33.9753 127.019 33.5198 128.451 33.9753 129.883C34.4307 130.838 35.3416 131.316 35.7971 131.316C36.2525 131.316 36.7079 131.316 37.1634 130.838L79.9752 105.057L86.3514 108.876L45.8168 133.226C44.9059 133.703 44.4505 135.135 44.9059 136.568C45.3614 137.523 46.2723 138 46.7277 138C47.1832 138 47.6386 138 48.0941 137.523L91.8167 110.786ZM46.7277 106.011L27.1436 94.0754V43.944L46.7277 32.0079L64.0346 42.5117L45.3614 53.4928C44.4505 53.9703 43.9951 55.4026 44.4505 56.8349C44.9059 57.7898 45.8168 58.2672 46.2723 58.2672C46.7277 58.2672 47.1832 58.2672 47.6386 57.7898L68.5891 44.8989L74.9653 48.7184L45.3614 66.8612C44.4505 67.3386 43.9951 68.771 44.4505 70.2033C44.9059 71.1582 45.8168 71.6356 46.2723 71.6356C46.7277 71.6356 47.1832 71.6356 47.6386 71.1582L79.5197 52.0605L85.8959 55.88L45.3614 80.2296V80.707V81.1844C45.3614 81.1844 45.3614 81.1844 45.3614 81.6619L64.0346 95.5077L46.7277 106.011Z" fill="white" fill-opacity="0.1"/>
<path d="M191.817 110.786C192.728 109.831 193.183 108.876 192.272 107.444C192.272 106.966 191.817 106.489 191.361 106.489L180.886 100.282L151.282 82.6168L157.658 78.7972L189.539 97.8949C189.995 97.8949 190.45 98.3723 190.906 98.3723C191.817 98.3723 192.272 97.8949 192.728 96.94C193.183 95.9851 193.183 94.0754 191.817 93.5979L162.213 75.9326L168.589 71.6356L189.539 84.0491C189.995 84.0491 190.45 84.5265 190.906 84.5265C191.817 84.5265 192.272 84.0491 192.728 83.0942C193.183 82.1393 193.183 80.2296 191.817 79.7521L173.143 68.771L191.817 57.7898C191.817 57.7898 191.817 57.7898 191.817 57.3124V56.8349V56.3575L151.282 32.0079L157.658 28.1884L189.539 47.2861C189.995 47.2861 190.45 47.7635 190.906 47.7635C191.817 47.7635 192.272 47.2861 192.728 46.3312C193.183 45.3763 193.183 43.4665 191.817 42.9891L162.213 25.3238L168.589 18.6396L189.539 31.0531C189.995 31.0531 190.45 31.5305 190.906 31.5305C191.817 31.5305 192.272 31.0531 192.728 30.0982C193.183 29.1433 193.183 27.2335 191.817 26.7561L169.955 13.3877C169.955 13.3877 169.5 13.3877 169.5 12.9103C169.5 12.9103 169.045 12.9103 169.045 13.3877L126.688 38.2147V30.5756L158.569 11.4779C159.48 11.0005 159.936 9.56818 159.48 8.13585C159.025 7.18097 157.658 6.70353 156.292 7.18097L126.688 24.8463V17.2072L147.639 4.79376C148.549 4.31632 149.005 2.884 148.55 1.45167C148.094 0.0193451 146.272 -0.458097 145.361 0.496787L123.5 13.8652C123.045 14.3426 122.589 14.3426 122.589 14.3426C122.589 14.3426 122.589 14.82 122.134 14.82V90.2558L115.758 86.4363V21.5042C115.758 20.0719 114.847 19.117 113.48 19.117C112.114 19.117 111.203 20.0719 111.203 21.5042V84.0491L104.827 80.707V29.1433C104.827 27.711 103.916 26.7561 102.55 26.7561C101.183 26.7561 100.272 27.711 100.272 29.1433V82.1393C100.272 82.1393 100.272 82.6168 100.728 82.6168L101.183 83.0942L141.718 107.444L135.342 111.263L103.461 92.1656C102.55 91.6882 100.728 91.6882 100.272 93.1205C99.8169 95.5077 100.272 96.94 101.639 97.4175L131.243 115.083L124.411 119.38L103.461 106.966C102.55 106.489 100.728 106.489 100.272 107.921C99.8169 108.876 99.8169 110.786 101.183 111.263L123.5 124.154C123.956 124.154 124.411 124.632 124.866 124.632C125.322 124.632 125.777 124.632 126.233 124.154L148.094 110.786L169.045 98.3723L175.421 102.192L134.886 126.541C133.975 127.019 133.52 128.451 133.975 129.883C134.431 130.838 135.342 131.316 135.797 131.316C136.253 131.316 136.708 131.316 137.163 130.838L179.975 105.057L186.351 108.876L145.817 133.226C144.906 133.703 144.451 135.135 144.906 136.568C145.361 137.523 146.272 138 146.728 138C147.183 138 147.639 138 148.094 137.523L191.817 110.786ZM146.728 106.011L127.144 94.0754V43.944L146.728 32.0079L164.035 42.5117L145.361 53.4928C144.45 53.9703 143.995 55.4026 144.451 56.8349C144.906 57.7898 145.817 58.2672 146.272 58.2672C146.728 58.2672 147.183 58.2672 147.639 57.7898L168.589 44.8989L174.965 48.7184L145.361 66.8612C144.45 67.3386 143.995 68.771 144.451 70.2033C144.906 71.1582 145.817 71.6356 146.272 71.6356C146.728 71.6356 147.183 71.6356 147.639 71.1582L179.52 52.0605L185.896 55.88L145.361 80.2296V80.707V81.1844C145.361 81.1844 145.361 81.1844 145.361 81.6619L164.035 95.5077L146.728 106.011Z" fill="white" fill-opacity="0.1"/>
<path d="M291.817 110.786C292.728 109.831 293.183 108.876 292.272 107.444C292.272 106.966 291.817 106.489 291.361 106.489L280.886 100.282L251.282 82.6168L257.658 78.7972L289.539 97.8949C289.995 97.8949 290.45 98.3723 290.906 98.3723C291.817 98.3723 292.272 97.8949 292.728 96.94C293.183 95.9851 293.183 94.0754 291.817 93.5979L262.213 75.9326L268.589 71.6356L289.539 84.0491C289.995 84.0491 290.45 84.5265 290.906 84.5265C291.817 84.5265 292.272 84.0491 292.728 83.0942C293.183 82.1393 293.183 80.2296 291.817 79.7521L273.143 68.771L291.817 57.7898C291.817 57.7898 291.817 57.7898 291.817 57.3124V56.8349V56.3575L251.282 32.0079L257.658 28.1884L289.539 47.2861C289.995 47.2861 290.45 47.7635 290.906 47.7635C291.817 47.7635 292.272 47.2861 292.728 46.3312C293.183 45.3763 293.183 43.4665 291.817 42.9891L262.213 25.3238L268.589 18.6396L289.539 31.0531C289.995 31.0531 290.45 31.5305 290.906 31.5305C291.817 31.5305 292.272 31.0531 292.728 30.0982C293.183 29.1433 293.183 27.2335 291.817 26.7561L269.955 13.3877C269.955 13.3877 269.5 13.3877 269.5 12.9103C269.5 12.9103 269.045 12.9103 269.045 13.3877L226.688 38.2147V30.5756L258.569 11.4779C259.48 11.0005 259.936 9.56818 259.48 8.13585C259.025 7.18097 257.658 6.70353 256.292 7.18097L226.688 24.8463V17.2072L247.639 4.79376C248.549 4.31632 249.005 2.884 248.55 1.45167C248.094 0.0193451 246.272 -0.458097 245.361 0.496787L223.5 13.8652C223.045 14.3426 222.589 14.3426 222.589 14.3426C222.589 14.3426 222.589 14.82 222.134 14.82V90.2558L215.758 86.4363V21.5042C215.758 20.0719 214.847 19.117 213.48 19.117C212.114 19.117 211.203 20.0719 211.203 21.5042V84.0491L204.827 80.707V29.1433C204.827 27.711 203.916 26.7561 202.55 26.7561C201.183 26.7561 200.272 27.711 200.272 29.1433V82.1393C200.272 82.1393 200.272 82.6168 200.728 82.6168L201.183 83.0942L241.718 107.444L235.342 111.263L203.461 92.1656C202.55 91.6882 200.728 91.6882 200.272 93.1205C199.817 95.5077 200.272 96.94 201.639 97.4175L231.243 115.083L224.411 119.38L203.461 106.966C202.55 106.489 200.728 106.489 200.272 107.921C199.817 108.876 199.817 110.786 201.183 111.263L223.5 124.154C223.956 124.154 224.411 124.632 224.866 124.632C225.322 124.632 225.777 124.632 226.233 124.154L248.094 110.786L269.045 98.3723L275.421 102.192L234.886 126.541C233.975 127.019 233.52 128.451 233.975 129.883C234.431 130.838 235.342 131.316 235.797 131.316C236.253 131.316 236.708 131.316 237.163 130.838L279.975 105.057L286.351 108.876L245.817 133.226C244.906 133.703 244.451 135.135 244.906 136.568C245.361 137.523 246.272 138 246.728 138C247.183 138 247.639 138 248.094 137.523L291.817 110.786ZM246.728 106.011L227.144 94.0754V43.944L246.728 32.0079L264.035 42.5117L245.361 53.4928C244.45 53.9703 243.995 55.4026 244.451 56.8349C244.906 57.7898 245.817 58.2672 246.272 58.2672C246.728 58.2672 247.183 58.2672 247.639 57.7898L268.589 44.8989L274.965 48.7184L245.361 66.8612C244.45 67.3386 243.995 68.771 244.451 70.2033C244.906 71.1582 245.817 71.6356 246.272 71.6356C246.728 71.6356 247.183 71.6356 247.639 71.1582L279.52 52.0605L285.896 55.88L245.361 80.2296V80.707V81.1844C245.361 81.1844 245.361 81.1844 245.361 81.6619L264.035 95.5077L246.728 106.011Z" fill="white" fill-opacity="0.1"/>
<path d="M391.817 110.786C392.728 109.831 393.183 108.876 392.272 107.444C392.272 106.966 391.817 106.489 391.361 106.489L380.886 100.282L351.282 82.6168L357.658 78.7972L389.539 97.8949C389.995 97.8949 390.45 98.3723 390.906 98.3723C391.817 98.3723 392.272 97.8949 392.728 96.94C393.183 95.9851 393.183 94.0754 391.817 93.5979L362.213 75.9326L368.589 71.6356L389.539 84.0491C389.995 84.0491 390.45 84.5265 390.906 84.5265C391.817 84.5265 392.272 84.0491 392.728 83.0942C393.183 82.1393 393.183 80.2296 391.817 79.7521L373.143 68.771L391.817 57.7898C391.817 57.7898 391.817 57.7898 391.817 57.3124V56.8349V56.3575L351.282 32.0079L357.658 28.1884L389.539 47.2861C389.995 47.2861 390.45 47.7635 390.906 47.7635C391.817 47.7635 392.272 47.2861 392.728 46.3312C393.183 45.3763 393.183 43.4665 391.817 42.9891L362.213 25.3238L368.589 18.6396L389.539 31.0531C389.995 31.0531 390.45 31.5305 390.906 31.5305C391.817 31.5305 392.272 31.0531 392.728 30.0982C393.183 29.1433 393.183 27.2335 391.817 26.7561L369.955 13.3877C369.955 13.3877 369.5 13.3877 369.5 12.9103C369.5 12.9103 369.045 12.9103 369.045 13.3877L326.688 38.2147V30.5756L358.569 11.4779C359.48 11.0005 359.936 9.56818 359.48 8.13585C359.025 7.18097 357.658 6.70353 356.292 7.18097L326.688 24.8463V17.2072L347.639 4.79376C348.549 4.31632 349.005 2.884 348.55 1.45167C348.094 0.0193451 346.272 -0.458097 345.361 0.496787L323.5 13.8652C323.045 14.3426 322.589 14.3426 322.589 14.3426C322.589 14.3426 322.589 14.82 322.134 14.82V90.2558L315.758 86.4363V21.5042C315.758 20.0719 314.847 19.117 313.48 19.117C312.114 19.117 311.203 20.0719 311.203 21.5042V84.0491L304.827 80.707V29.1433C304.827 27.711 303.916 26.7561 302.55 26.7561C301.183 26.7561 300.272 27.711 300.272 29.1433V82.1393C300.272 82.1393 300.272 82.6168 300.728 82.6168L301.183 83.0942L341.718 107.444L335.342 111.263L303.461 92.1656C302.55 91.6882 300.728 91.6882 300.272 93.1205C299.817 95.5077 300.272 96.94 301.639 97.4175L331.243 115.083L324.411 119.38L303.461 106.966C302.55 106.489 300.728 106.489 300.272 107.921C299.817 108.876 299.817 110.786 301.183 111.263L323.5 124.154C323.956 124.154 324.411 124.632 324.866 124.632C325.322 124.632 325.777 124.632 326.233 124.154L348.094 110.786L369.045 98.3723L375.421 102.192L334.886 126.541C333.975 127.019 333.52 128.451 333.975 129.883C334.431 130.838 335.342 131.316 335.797 131.316C336.253 131.316 336.708 131.316 337.163 130.838L379.975 105.057L386.351 108.876L345.817 133.226C344.906 133.703 344.451 135.135 344.906 136.568C345.361 137.523 346.272 138 346.728 138C347.183 138 347.639 138 348.094 137.523L391.817 110.786ZM346.728 106.011L327.144 94.0754V43.944L346.728 32.0079L364.035 42.5117L345.361 53.4928C344.45 53.9703 343.995 55.4026 344.451 56.8349C344.906 57.7898 345.817 58.2672 346.272 58.2672C346.728 58.2672 347.183 58.2672 347.639 57.7898L368.589 44.8989L374.965 48.7184L345.361 66.8612C344.45 67.3386 343.995 68.771 344.451 70.2033C344.906 71.1582 345.817 71.6356 346.272 71.6356C346.728 71.6356 347.183 71.6356 347.639 71.1582L379.52 52.0605L385.896 55.88L345.361 80.2296V80.707V81.1844C345.361 81.1844 345.361 81.1844 345.361 81.6619L364.035 95.5077L346.728 106.011Z" fill="white" fill-opacity="0.1"/>
</svg>
