<svg width="134" height="107" viewBox="0 0 134 107" fill="none" xmlns="http://www.w3.org/2000/svg">
<path fill-rule="evenodd" clip-rule="evenodd" d="M69.0863 18.18L68.6631 23.1169C68.381 23.1169 68.0989 22.9758 67.8168 22.6937C67.5347 22.4116 67.2526 21.9885 67.2526 21.5653C66.9705 22.6937 67.5347 23.6811 68.5221 24.1043L68.24 27.9127C65.701 27.2074 63.7263 25.2327 63.1621 22.6937C63.4442 25.7969 65.2779 28.6179 68.0989 30.1695L67.6758 35.5295C63.8673 33.5548 60.9052 30.1695 59.4947 26.079C60.4821 31.0158 63.3031 35.3885 67.3937 38.2095L66.8295 45.5443C62.3158 42.5822 58.7894 37.5043 56.2505 32.7085C58.0842 39.0558 61.6105 44.6979 66.5473 49.0706V49.6348L65.9831 55.8411C60.9053 51.3274 56.6737 45.6853 53.8526 39.479C56.2505 46.9548 60.341 53.8664 65.701 59.6495L65.1368 67.9716C58.3663 60.6369 53.4295 51.7506 50.7495 42.159C52.301 53.5843 57.2379 64.3043 64.7137 72.9085L64.4316 86.1674C51.8779 75.1653 45.1073 59.0853 45.9537 42.4411C46.8 25.7969 55.2631 10.4221 68.8042 0.830566C82.3452 10.4221 90.8084 25.7969 91.6547 42.4411C92.501 59.0853 85.7305 75.1653 73.1768 86.1674L72.8947 72.9085C80.5116 64.3043 85.3073 53.5843 86.8589 42.159C84.1789 51.7506 79.2421 60.6369 72.4716 67.9716L71.9073 59.6495C77.2673 53.8664 81.3579 46.9548 83.7558 39.479C80.7937 45.6853 76.7031 51.3274 71.6252 55.8411L71.061 49.6348V49.0706C75.9979 44.6979 79.5242 39.0558 81.3579 32.7085C78.8189 37.5043 75.2926 42.5822 70.7789 45.5443L70.2147 38.2095C74.3053 35.3885 77.2674 31.0158 78.1137 26.079C76.7032 30.1695 73.8821 33.5548 69.9326 35.5295L69.5095 30.1695C72.3305 28.759 74.1642 25.9379 74.4463 22.6937C73.8821 25.2327 71.9073 27.2074 69.3684 27.9127L69.0863 24.1043C70.0736 23.6811 70.6379 22.5527 70.3558 21.5653C70.3558 21.9885 70.2147 22.4116 69.7915 22.6937C69.5094 22.8348 69.2274 22.9758 68.9453 23.1169L69.0863 18.18Z" fill="#A5A5A5"/>
<path fill-rule="evenodd" clip-rule="evenodd" d="M118.173 43.5694L115.211 46.1084C115.07 45.9673 114.929 45.6852 114.929 45.4031C114.929 45.121 115.07 44.6979 115.211 44.5568C114.506 44.98 114.223 45.9673 114.506 46.6726L112.249 48.6473C111.261 46.9547 111.261 44.6978 112.39 43.0052C110.838 44.8389 110.274 47.3779 110.979 49.7757L107.876 52.4557C106.748 49.2115 107.03 45.8263 108.581 42.7231C106.324 45.9673 105.619 49.9168 106.183 53.8663L101.811 57.5336C100.964 53.4431 101.811 48.6473 103.08 44.6978C100.541 49.2115 99.4129 54.2894 99.695 59.3673L99.4129 59.6494L95.6045 62.7526C95.3224 57.3926 96.0276 52.0326 97.8613 46.9547C95.0403 52.4557 93.4887 58.521 93.3476 64.5863L89.8213 67.6894C89.8213 67.5484 89.9624 67.4073 89.9624 67.4073C92.6424 61.06 94.0529 54.2894 94.335 47.5189C94.476 47.2368 94.6171 47.0957 94.7581 46.8136C94.6171 46.9547 94.476 47.0957 94.335 47.3779C94.335 45.8263 94.335 44.1336 94.335 42.441C103.786 35.1063 115.775 32.0031 127.623 33.9779C129.739 46.6726 125.931 59.7905 117.327 69.5231C108.581 79.2557 96.0276 84.3336 83.0508 83.4873L90.2444 76.0115C99.1307 75.4473 107.735 72.2031 114.929 66.8431C108.158 70.6515 100.541 72.9084 92.7834 73.1905L97.156 68.2536C103.362 67.9715 109.287 66.42 114.788 63.74C109.71 65.5736 104.35 66.42 98.9897 65.9968L102.093 62.1884L102.375 61.9063C107.453 62.1884 112.531 61.06 117.044 58.521C113.095 59.7905 108.299 60.6368 104.209 59.7905L107.876 55.4179C111.684 56.1231 115.775 55.2768 119.019 53.02C116.057 54.5715 112.531 54.8536 109.287 53.7252L111.967 50.6221C114.364 51.3273 116.903 50.9042 118.737 49.2115C117.044 50.34 114.788 50.34 113.095 49.3526L115.07 47.0957C115.916 47.3779 116.762 47.0957 117.185 46.3905C116.903 46.6726 116.621 46.6726 116.339 46.6726C116.057 46.6726 115.916 46.5315 115.634 46.3905L118.173 43.5694Z" fill="#A5A5A5"/>
<path fill-rule="evenodd" clip-rule="evenodd" d="M20 43.4283L22.9621 45.9673C23.1032 45.8262 23.2442 45.5441 23.2442 45.262C23.2442 44.9799 23.1032 44.5567 22.9621 44.4157C23.6674 44.8388 23.9495 45.8262 23.6674 46.5315L25.9242 48.5062C26.9116 46.8136 26.9116 44.5567 25.7832 42.8641C27.3347 44.6978 27.8989 47.2367 27.1937 49.6346L30.2968 52.3146C31.4253 49.0704 31.1432 45.6852 29.5916 42.582C31.8484 45.8262 32.5537 49.7757 31.9895 53.7252L36.3621 57.3925C37.2084 53.302 36.3621 48.5062 35.0926 44.5567C37.6316 49.0704 38.76 54.1483 38.4779 59.2262L38.76 59.5083L42.5684 62.6115C42.8505 57.2515 42.1452 51.8915 40.3116 46.8136C43.1326 52.3146 44.6842 58.3799 44.8253 64.4452L48.4926 67.6894C48.4926 67.5483 48.3516 67.4073 48.3516 67.4073C45.6716 61.0599 44.261 54.2894 43.9789 47.5188C43.8379 47.2367 43.6968 46.9546 43.5558 46.6725C43.6968 46.8136 43.8379 47.0957 43.9789 47.2367C43.9789 45.5441 43.9789 43.9925 43.9789 42.2999C34.5284 34.9652 22.3979 31.862 10.6905 33.8367C8.57472 46.5315 12.3831 59.6494 20.9874 69.382C29.7326 79.1146 42.2863 84.1925 55.2631 83.3462L48.0695 75.8704C39.1831 75.3062 30.5789 72.062 23.3852 66.702C30.1558 70.5104 37.7726 72.7673 45.5305 73.0494L41.1579 68.1125C34.9516 67.8304 29.0274 66.2788 23.5263 63.5988C28.6042 65.4325 33.9642 66.2788 39.3242 65.8557L36.221 62.0473L35.9389 61.7652C30.8611 62.0473 25.7831 60.9188 21.2695 58.3799C25.2189 59.6494 30.0147 60.4957 34.1053 59.6494L30.4379 55.2767C26.6295 55.982 22.5389 55.1357 19.2947 52.8788C22.2568 54.4304 25.7831 54.7125 29.0274 53.5841L26.3474 50.481C23.9495 51.1862 21.4105 50.7631 19.5768 49.0704C21.2695 50.1988 23.5263 50.1988 25.2189 49.2115L23.2442 46.9546C22.3979 47.2367 21.5516 46.9546 21.1284 46.2494C21.4105 46.5315 21.6926 46.5315 21.9747 46.5315C22.2568 46.5315 22.3979 46.3904 22.68 46.2494L20 43.4283Z" fill="#A5A5A5"/>
<path d="M123.635 90.1582H125.268L128.535 95.6571H128.673L131.941 90.1582H133.574L129.318 97.0836V101.938H127.891V97.0836L123.635 90.1582Z" fill="#A5A5A5"/>
<path d="M114.682 101.938V90.1582H118.662C119.582 90.1582 120.338 90.3154 120.928 90.6299C121.519 90.9405 121.956 91.368 122.24 91.9125C122.523 92.4571 122.665 93.0764 122.665 93.7704C122.665 94.4645 122.523 95.08 122.24 95.6168C121.956 96.1537 121.521 96.5755 120.934 96.8822C120.347 97.1852 119.598 97.3366 118.685 97.3366H115.464V96.0482H118.639C119.268 96.0482 119.774 95.9562 120.158 95.7721C120.545 95.588 120.825 95.3273 120.997 94.9898C121.174 94.6486 121.262 94.2421 121.262 93.7704C121.262 93.2988 121.174 92.8865 120.997 92.5338C120.821 92.181 120.539 91.9087 120.152 91.717C119.764 91.5214 119.253 91.4236 118.616 91.4236H116.108V101.938H114.682ZM120.227 96.6464L123.126 101.938H121.469L118.616 96.6464H120.227Z" fill="#A5A5A5"/>
<path d="M112.282 96.0481C112.282 97.2905 112.058 98.3642 111.609 99.2692C111.161 100.174 110.545 100.872 109.763 101.363C108.981 101.854 108.087 102.099 107.083 102.099C106.078 102.099 105.184 101.854 104.402 101.363C103.62 100.872 103.004 100.174 102.556 99.2692C102.107 98.3642 101.883 97.2905 101.883 96.0481C101.883 94.8057 102.107 93.732 102.556 92.827C103.004 91.9221 103.62 91.2242 104.402 90.7333C105.184 90.2425 106.078 89.9971 107.083 89.9971C108.087 89.9971 108.981 90.2425 109.763 90.7333C110.545 91.2242 111.161 91.9221 111.609 92.827C112.058 93.732 112.282 94.8057 112.282 96.0481ZM110.902 96.0481C110.902 95.0281 110.731 94.1672 110.39 93.4655C110.053 92.7638 109.594 92.2327 109.015 91.8722C108.44 91.5118 107.796 91.3315 107.083 91.3315C106.369 91.3315 105.723 91.5118 105.144 91.8722C104.569 92.2327 104.111 92.7638 103.769 93.4655C103.432 94.1672 103.263 95.0281 103.263 96.0481C103.263 97.0681 103.432 97.929 103.769 98.6308C104.111 99.3325 104.569 99.8636 105.144 100.224C105.723 100.585 106.369 100.765 107.083 100.765C107.796 100.765 108.44 100.585 109.015 100.224C109.594 99.8636 110.053 99.3325 110.39 98.6308C110.731 97.929 110.902 97.0681 110.902 96.0481Z" fill="#A5A5A5"/>
<path d="M91.7969 91.4236V90.1582H100.632V91.4236H96.9276V101.938H95.5011V91.4236H91.7969Z" fill="#A5A5A5"/>
<path d="M90.1366 93.8394H88.7102C88.6258 93.4291 88.4782 93.0686 88.2673 92.758C88.0602 92.4474 87.8071 92.1866 87.508 91.9757C87.2127 91.761 86.8849 91.5999 86.5244 91.4926C86.164 91.3852 85.7882 91.3315 85.397 91.3315C84.6838 91.3315 84.0377 91.5118 83.4586 91.8722C82.8834 92.2327 82.4252 92.7638 82.0839 93.4655C81.7465 94.1672 81.5777 95.0281 81.5777 96.0481C81.5777 97.0681 81.7465 97.929 82.0839 98.6308C82.4252 99.3325 82.8834 99.8636 83.4586 100.224C84.0377 100.585 84.6838 100.765 85.397 100.765C85.7882 100.765 86.164 100.711 86.5244 100.604C86.8849 100.496 87.2127 100.337 87.508 100.126C87.8071 99.9115 88.0602 99.6488 88.2673 99.3382C88.4782 99.0238 88.6258 98.6633 88.7102 98.2569H90.1366C90.0293 98.8589 89.8337 99.3977 89.5499 99.8732C89.2662 100.349 88.9134 100.753 88.4916 101.087C88.0698 101.417 87.5962 101.668 87.0709 101.84C86.5493 102.013 85.9914 102.099 85.397 102.099C84.3924 102.099 83.4989 101.854 82.7166 101.363C81.9344 100.872 81.3189 100.174 80.8702 99.2692C80.4216 98.3642 80.1973 97.2905 80.1973 96.0481C80.1973 94.8057 80.4216 93.732 80.8702 92.827C81.3189 91.9221 81.9344 91.2242 82.7166 90.7333C83.4989 90.2425 84.3924 89.9971 85.397 89.9971C85.9914 89.9971 86.5493 90.0833 87.0709 90.2559C87.5962 90.4285 88.0698 90.6816 88.4916 91.0152C88.9134 91.3449 89.2662 91.7476 89.5499 92.2231C89.8337 92.6947 90.0293 93.2335 90.1366 93.8394Z" fill="#A5A5A5"/>
<path d="M70.7475 101.938H69.252L73.5774 90.1582H75.0499L79.3754 101.938H77.8799L74.3597 92.0218H74.2677L70.7475 101.938ZM71.2996 97.3366H77.3277V98.6021H71.2996V97.3366Z" fill="#A5A5A5"/>
<path d="M62.2305 101.938V90.1582H69.2939V91.4236H63.6569V95.404H68.7647V96.6694H63.6569V101.938H62.2305Z" fill="#A5A5A5"/>
<path d="M54.8132 90.1582V101.938H53.3867V90.1582H54.8132Z" fill="#A5A5A5"/>
<path d="M38.9766 90.1582H40.6791L44.6825 99.9365H44.8205L48.8239 90.1582H50.5265V101.938H49.192V92.9882H49.077L45.3957 101.938H44.1073L40.4261 92.9882H40.311V101.938H38.9766V90.1582Z" fill="#A5A5A5"/>
<path d="M28.515 101.938H27.0195L31.345 90.1582H32.8175L37.143 101.938H35.6475L32.1273 92.0218H32.0352L28.515 101.938ZM29.0672 97.3366H35.0953V98.6021H29.0672V97.3366Z" fill="#A5A5A5"/>
<path d="M16.041 101.938V90.1582H17.4675V95.404H23.7486V90.1582H25.1751V101.938H23.7486V96.6694H17.4675V101.938H16.041Z" fill="#A5A5A5"/>
<path d="M12.1554 93.1031C12.0864 92.5203 11.8064 92.0678 11.3156 91.7457C10.8248 91.4236 10.2227 91.2625 9.50949 91.2625C8.98798 91.2625 8.53166 91.3469 8.14053 91.5156C7.75323 91.6843 7.45029 91.9163 7.23172 92.2116C7.01698 92.5068 6.90961 92.8424 6.90961 93.2182C6.90961 93.5326 6.98438 93.8029 7.13393 94.0292C7.28732 94.2516 7.48289 94.4376 7.72063 94.5871C7.95838 94.7328 8.20763 94.8536 8.46839 94.9495C8.72914 95.0415 8.96881 95.1163 9.18738 95.1738L10.3838 95.4959C10.6906 95.5765 11.0318 95.6877 11.4076 95.8296C11.7873 95.9714 12.1496 96.1651 12.4948 96.4105C12.8437 96.6521 13.1313 96.9627 13.3575 97.3423C13.5838 97.7219 13.6969 98.1878 13.6969 98.74C13.6969 99.3766 13.5301 99.9518 13.1965 100.466C12.8667 100.979 12.3836 101.388 11.747 101.691C11.1143 101.994 10.3454 102.145 9.44047 102.145C8.59685 102.145 7.86635 102.009 7.24897 101.737C6.63543 101.465 6.15227 101.085 5.79948 100.598C5.45053 100.111 5.25305 99.5453 5.20703 98.9011H6.67953C6.71788 99.3459 6.86743 99.714 7.12818 100.005C7.39277 100.293 7.72639 100.508 8.12902 100.65C8.53549 100.788 8.97264 100.857 9.44047 100.857C9.98499 100.857 10.4739 100.769 10.9072 100.592C11.3405 100.412 11.6837 100.163 11.9368 99.8444C12.1899 99.5223 12.3164 99.1465 12.3164 98.717C12.3164 98.3259 12.2072 98.0076 11.9886 97.7622C11.77 97.5168 11.4824 97.3174 11.1258 97.164C10.7692 97.0106 10.3838 96.8764 9.96965 96.7614L8.52016 96.3472C7.59984 96.0826 6.87126 95.7049 6.33441 95.2141C5.79756 94.7233 5.52914 94.081 5.52914 93.2872C5.52914 92.6276 5.70745 92.0524 6.06407 91.5616C6.42453 91.0669 6.90769 90.6835 7.51356 90.4112C8.12327 90.1351 8.80392 89.9971 9.55551 89.9971C10.3148 89.9971 10.9897 90.1332 11.5802 90.4055C12.1707 90.6739 12.6386 91.042 12.9837 91.5098C13.3326 91.9777 13.5167 92.5088 13.5359 93.1031H12.1554Z" fill="#A5A5A5"/>
<path d="M2.85227 90.1582V101.938H1.42578V90.1582H2.85227Z" fill="#A5A5A5"/>
</svg>
