<svg width="30" height="43" viewBox="0 0 30 43" fill="none" xmlns="http://www.w3.org/2000/svg">
<path d="M29.594 34.1406C29.8885 33.8463 30.0357 33.5519 29.7413 33.1105C29.7413 32.9633 29.594 32.8162 29.4468 32.8162L26.0604 30.9031L16.4903 25.4583L18.5515 24.281L28.8579 30.1673C29.0051 30.1673 29.1523 30.3145 29.2996 30.3145C29.594 30.3145 29.7413 30.1673 29.8885 29.873C30.0357 29.5787 30.0357 28.9901 29.594 28.8429L20.0239 23.3981L22.0851 22.0737L28.8579 25.8998C29.0051 25.8998 29.1523 26.0469 29.2996 26.0469C29.594 26.0469 29.7413 25.8998 29.8885 25.6055C30.0357 25.3111 30.0357 24.7225 29.594 24.5754L23.5575 21.1907L29.594 17.8061C29.594 17.8061 29.594 17.8061 29.594 17.659V17.5118V17.3647L16.4903 9.85963L18.5515 8.68238L28.8579 14.5687C29.0051 14.5687 29.1523 14.7158 29.2996 14.7158C29.594 14.7158 29.7413 14.5687 29.8885 14.2744C30.0357 13.98 30.0357 13.3914 29.594 13.2443L20.0239 7.79943L22.0851 5.73923L28.8579 9.56532C29.0051 9.56532 29.1523 9.71248 29.2996 9.71248C29.594 9.71248 29.7413 9.56532 29.8885 9.27101C30.0357 8.97669 30.0357 8.38806 29.594 8.2409L22.5268 4.1205C22.5268 4.1205 22.3796 4.1205 22.3796 3.97335C22.3796 3.97335 22.2324 3.97335 22.2324 4.1205L8.53969 11.7727V9.41816L18.846 3.53188C19.1405 3.38472 19.2877 2.94325 19.1405 2.50178C18.9932 2.20746 18.5515 2.0603 18.1098 2.20746L8.53969 7.65228V5.29776L15.3124 1.47167C15.6069 1.32452 15.7541 0.883046 15.6069 0.441575C15.4597 0.00010319 14.8707 -0.147054 14.5763 0.14726L7.50906 4.26766C7.36183 4.41482 7.21459 4.41482 7.21459 4.41482C7.21459 4.41482 7.21459 4.56198 7.06736 4.56198V27.8128L5.00609 26.6356V6.62218C5.00609 6.1807 4.71163 5.88639 4.26993 5.88639C3.82823 5.88639 3.53376 6.1807 3.53376 6.62218V25.8998L1.4725 24.8697V8.97669C1.4725 8.53522 1.17803 8.2409 0.736332 8.2409C0.294632 8.2409 0.000166051 8.53522 0.000166051 8.97669V25.3111C0.000166051 25.3111 0.000166051 25.4583 0.147399 25.4583L0.294632 25.6055L13.3984 33.1105L11.3371 34.2877L1.0308 28.4014C0.736332 28.2543 0.147399 28.2543 0.000166051 28.6958C-0.147067 29.4315 0.000166059 29.873 0.441866 30.0202L10.012 35.465L7.80353 36.7894L1.0308 32.9633C0.736332 32.8162 0.147399 32.8162 0.000166051 33.2576C-0.147067 33.5519 -0.147067 34.1406 0.294632 34.2877L7.50906 38.261C7.65629 38.261 7.80353 38.4081 7.95076 38.4081C8.09799 38.4081 8.24522 38.4081 8.39246 38.261L15.4597 34.1406L22.2324 30.3145L24.2936 31.4917L11.1899 38.9968C10.8954 39.1439 10.7482 39.5854 10.8954 40.0269C11.0427 40.3212 11.3371 40.4683 11.4844 40.4683C11.6316 40.4683 11.7788 40.4683 11.9261 40.3212L25.766 32.3747L27.8272 33.5519L14.7235 41.057C14.429 41.2041 14.2818 41.6456 14.429 42.0871C14.5763 42.3814 14.8707 42.5285 15.018 42.5285C15.1652 42.5285 15.3124 42.5285 15.4597 42.3814L29.594 34.1406ZM15.018 32.669L8.68692 28.9901V13.5386L15.018 9.85963L20.6128 13.0971L14.5763 16.4817C14.2818 16.6289 14.1346 17.0703 14.2818 17.5118C14.429 17.8061 14.7235 17.9533 14.8707 17.9533C15.018 17.9533 15.1652 17.9533 15.3124 17.8061L22.0851 13.8329L24.1464 15.0101L14.5763 20.6021C14.2818 20.7493 14.1346 21.1907 14.2818 21.6322C14.429 21.9265 14.7235 22.0737 14.8707 22.0737C15.018 22.0737 15.1652 22.0737 15.3124 21.9265L25.6187 16.0402L27.68 17.2175L14.5763 24.7225V24.8697V25.0168C14.5763 25.0168 14.5763 25.0168 14.5763 25.164L20.6128 29.4315L15.018 32.669Z" fill="#FF656D"/>
</svg>
